*
G04 Mass Parameters ***
*
G04 Image ***
*
%INC:\DOCUMENTS AND SETTINGS\NAZGUL\MY DOCUMENTS\DROPBOX\BOARD DESIGN\GERBER FILES\BLE SPO2\BLE SPO2.BOT*%
%ICAS*%
%MOIN*%
%IPPOS*%
%ASAXBY*%
G74*%FSLAN2X34Y34*%
*
G04 Aperture Definitions ***
*
%ADD10C,0.1100*%
%ADD11R,0.0500X0.0500*%
%ADD12R,0.0220X0.0220*%
%ADD13R,0.0709X0.0590*%
%ADD14R,0.0320X0.0380*%
%ADD15C,0.0401*%
%ADD16R,0.0380X0.0320*%
%ADD17C,0.0020*%
%ADD18R,0.1575X0.1575*%
%ADD19O,0.0335X0.0110*%
%ADD20O,0.0110X0.0335*%
%ADD21R,0.0394X0.0138*%
%ADD22R,0.0315X0.0630*%
%ADD23R,0.0590X0.0197*%
%ADD24R,0.0433X0.0177*%
%ADD25R,0.0394X0.0197*%
%ADD26R,0.0256X0.0295*%
%ADD27C,0.0200*%
%ADD28C,0.0100*%
%ADD29C,0.0080*%
%ADD30C,0.0200*%
%ADD31C,0.1000*%
%ADD32R,0.0394X0.0276*%
%ADD33C,0.0010*%
%ADD34C,0.0200*%
*
G04 Plot Data ***
*
G54D28*
G01X-0004668Y-0001962D02*
Y-0001462D01*
X-0004835D02*
X-0004502D01*
X-0003968Y-0001962D02*
X-0003927Y-0001878D01*
Y-0001545D01*
X-0003968Y-0001462D01*
X-0004218D01*
X-0004260Y-0001545D01*
Y-0001878D01*
X-0004218Y-0001962D01*
X-0003968D01*
X-0003393D02*
Y-0001462D01*
X-0003352Y-0001962D02*
X-0003602D01*
X-0003685Y-0001878D01*
Y-0001795D01*
X-0003643Y-0001712D01*
X-0003393D02*
X-0003643D01*
X-0003685Y-0001628D01*
Y-0001545D01*
X-0003602Y-0001462D01*
X-0003352D01*
X-0004513Y0006140D02*
X-0005007D01*
X-0001818Y0006313D02*
X-0001985Y0006146D01*
X-0003520Y0008653D02*
Y0005860D01*
X-0002980Y0006922D02*
Y0005860D01*
X-0002050Y0005990D02*
Y0005871D01*
X-0003610Y0005410D02*
Y0005099D01*
X-0000935Y0006404D02*
X-0000730Y0006199D01*
X-0003045Y0001983D02*
X-0002947Y0001869D01*
X-0002260Y0008161D02*
Y0006764D01*
X-0002440Y0008255D02*
Y0005860D01*
X-0000838Y0004340D02*
X-0003056D01*
X-0002050Y0005871D02*
X-0002061Y0005860D01*
X-0001810Y0005489D02*
Y0001922D01*
X-0001540Y0008879D02*
Y0007296D01*
X0000872Y0007310D02*
X-0001264D01*
X-0000730Y0005690D02*
X-0001629D01*
X-0004445Y0006050D02*
X-0004988D01*
X-0001090Y0006371D02*
Y0002013D01*
X-0002436Y0008660D02*
X-0003210D01*
X0001640Y0009290D02*
X-0001430D01*
X-0004960Y0008095D02*
Y0005920D01*
X-0000730Y0005780D02*
X-0001610D01*
X-0001194Y0009650D02*
X-0001430D01*
X-0001146Y0009020D02*
X-0001438D01*
X-0000460Y0008823D02*
Y0008404D01*
X-0001630Y0006916D02*
Y0006735D01*
X-0002080Y0009560D02*
X-0003585D01*
X-0002440Y0010883D02*
Y0009158D01*
X-0001540Y0006823D02*
Y0006737D01*
X0001950Y0007487D02*
Y0007343D01*
X-0001900Y0010515D02*
Y0010361D01*
X-0001116Y0008660D02*
X-0001572D01*
X-0002231Y0009200D02*
X-0003585D01*
X-0001891Y0010370D02*
X-0002730D01*
X-0000370Y0010150D02*
Y0009862D01*
X-0001900Y0010924D02*
Y0010885D01*
Y0008499D02*
Y0006667D01*
X0001061Y0010100D02*
X-0001209D01*
X-0001270Y0010039D02*
Y0007313D01*
X-0000280Y0010150D02*
Y0009886D01*
X-0000820Y0009345D02*
Y0009120D01*
X0000060Y0005321D02*
X0000241Y0005140D01*
X-0000460Y0010150D02*
Y0009795D01*
X-0000370Y0011280D02*
Y0010780D01*
X0002370Y0011270D02*
X0002230D01*
X0003825Y0009830D02*
X0001986D01*
X-0000460Y0003242D02*
Y0000534D01*
X0000890Y0004700D02*
Y0004626D01*
X0003609Y0013340D02*
X0003438D01*
X0000223Y0000501D02*
X0000105Y0000499D01*
X0002853Y0001550D02*
X0000970D01*
X-0000910Y0006379D02*
Y0004854D01*
X0003336Y0004700D02*
X0003253D01*
X0004427Y0011180D02*
X0002810D01*
X0000323Y0004430D02*
X0000280D01*
X0002240Y0010165D02*
Y0009404D01*
X0001071Y0010820D02*
X0000584D01*
X0003825Y0009200D02*
X0002844D01*
X0003825Y0008300D02*
X0002880D01*
X0001639Y0010820D02*
X0001621D01*
X0000440Y0010150D02*
Y0009904D01*
X0002370Y0012890D02*
X0002230D01*
X0002420Y0010319D02*
Y0009533D01*
X-0001450Y0006059D02*
Y0000776D01*
Y0010994D02*
Y0010844D01*
X-0001970Y0005420D02*
X-0003597D01*
X-0000374Y0004703D02*
X-0000297Y0004626D01*
X0001790Y0013329D02*
Y0010971D01*
X0005253Y0006320D02*
X0003070D01*
X-0000730Y0010150D02*
Y0009815D01*
X0002119Y0007400D02*
X0001950D01*
X0000530Y0008010D02*
Y0006230D01*
X0001790Y0012710D02*
X0000197D01*
X-0000820Y0008595D02*
Y0008545D01*
X0001103Y0009920D02*
X-0001389D01*
X-0002360Y0006680D02*
X-0004303D01*
X-0000370Y0008054D02*
Y0006901D01*
X-0002505Y0008390D02*
X-0002764D01*
X-0001973Y0011180D02*
X-0002016D01*
X-0003585Y0008710D02*
Y0008280D01*
X0002308Y0013160D02*
X0002230D01*
X-0002260Y0010841D02*
Y0009185D01*
X-0001981Y0010280D02*
X-0002742D01*
X-0001193Y0009560D02*
X-0001430D01*
X-0002041Y0006050D02*
X-0004075D01*
X-0002530Y0008737D02*
Y0007254D01*
X-0001159Y0010150D02*
X-0001430Y0009879D01*
X-0001180Y0011280D02*
Y0010780D01*
X0000080Y0012510D02*
Y0012420D01*
X0000440Y0004700D02*
Y0004626D01*
X0000080Y0011962D02*
Y0011940D01*
X-0000010Y0013028D02*
Y0013009D01*
X-0003520Y0009907D02*
Y0009126D01*
X-0002080Y0009920D02*
X-0003220D01*
X-0005254Y0007884D02*
X-0005216Y0007488D01*
X-0003120Y0008300D02*
X-0003585D01*
X-0003790Y0011280D02*
Y0010955D01*
X-0002800Y0010584D02*
Y0010545D01*
X0002165Y0010724D02*
X0002031Y0010590D01*
X0003825Y0010460D02*
X0002561D01*
X0001510Y0008210D02*
X0000735D01*
X0003825Y0009110D02*
X0002878D01*
X0005390Y0008115D02*
X0005042D01*
X0000350Y0009369D02*
Y0009250D01*
X-0000640Y0009571D02*
Y0008894D01*
X0001610Y0009823D02*
Y0009706D01*
X0001510Y0008300D02*
X0000744D01*
X-0000370Y0003990D02*
Y0003878D01*
X-0001990Y0006274D02*
Y0006141D01*
X0000170Y0005730D02*
Y0005211D01*
X0002440Y0008983D02*
Y0007701D01*
X-0003970Y0008095D02*
Y0007446D01*
X0000323Y0004070D02*
X0000280D01*
X-0001360Y0006287D02*
Y0006240D01*
X-0004150Y0006002D02*
Y0004965D01*
X0003336Y0004160D02*
X0001077D01*
X-0000838Y0004520D02*
X-0003056D01*
X-0002710Y0007514D02*
Y0007354D01*
X0002398Y0007743D02*
X0002440Y0007701D01*
X0000479Y0011990D02*
X0000113D01*
X-0003430Y0009874D02*
Y0009163D01*
X-0003585Y0010770D02*
Y0010341D01*
X-0002080Y0009351D02*
X-0002248Y0009183D01*
X-0001813Y0010448D02*
X-0002015Y0010246D01*
X-0002543Y0011000D02*
X-0002617D01*
X-0003161Y0008210D02*
X-0003599D01*
X0001790Y0013329D02*
Y0010971D01*
X0003827Y0010820D02*
X0002810D01*
X0001790Y0010971D02*
X0001615Y0010796D01*
X-0001855Y0006410D02*
X-0001874D01*
X0000620Y0010874D02*
Y0010780D01*
X-0000820Y0010150D02*
Y0009870D01*
X-0002080Y0010100D02*
X-0002906D01*
X-0003250Y0010654D02*
Y0010504D01*
X0003825Y0010100D02*
X0002037D01*
X0002370Y0010891D02*
X0002069Y0010590D01*
X-0000838Y0003878D02*
Y0003242D01*
X-0000085D02*
X-0000838D01*
X0003547Y0003890D02*
X0000280D01*
X0001077Y0003878D02*
X0000323D01*
Y0003242D01*
X0001077D02*
X0000323D01*
X0001077Y0003878D02*
Y0003242D01*
Y0004626D02*
X0000323D01*
Y0003990D01*
X0001077D02*
X0000323D01*
X0001077Y0004626D02*
Y0003990D01*
X0003050Y0006226D02*
Y0005198D01*
X-0000297Y0004626D02*
X-0000399D01*
X0001782Y0013340D02*
X0001765D01*
X0005040Y0010975D02*
X0004947D01*
X0000620Y0014017D02*
Y0012308D01*
X-0005230Y0008113D02*
Y0007628D01*
X0003825Y0010190D02*
X0002286D01*
X0001581Y0005600D02*
X0000060D01*
X0000890Y0010150D02*
Y0007356D01*
X-0002530Y0011280D02*
Y0011264D01*
X0004647Y0012340D02*
X0004700Y0012258D01*
X0005217Y0006140D02*
X0002996D01*
X0005120Y0008115D02*
Y0005700D01*
X0004843Y0004740D02*
X0004743Y0004464D01*
X-0000838Y0003800D02*
X-0003474D01*
X-0000838Y0003260D02*
X-0003943D01*
X0005211Y0011104D02*
X0005265Y0010910D01*
X0005030Y0007946D02*
Y0005348D01*
X-0001176Y0008390D02*
X-0001954D01*
X0004618Y0004160D02*
X0004584D01*
X0004153Y0003260D02*
X0001077D01*
X0003950Y0003750D02*
Y0002936D01*
X0003926Y0002900D02*
X-0003715D01*
X0002757Y0001460D02*
X0001011D01*
X0003825Y0008660D02*
X0002880D01*
X0000530Y0004700D02*
Y0004626D01*
X0002907Y0004700D02*
X0000244D01*
X-0001161Y0009470D02*
X-0001430D01*
X0000350Y0014024D02*
Y0011279D01*
X0002177Y0006050D02*
X0001331D01*
X0000525Y0000519D02*
X0000375Y0000508D01*
X0000323Y0004340D02*
X0000280D01*
X-0003160Y0007616D02*
Y0005860D01*
X-0001090Y0001466D02*
Y0000658D01*
X-0001360Y0001555D02*
Y0000743D01*
X0003383Y0004070D02*
X0001077D01*
X0000673Y0000535D02*
X0000525Y0000519D01*
X-0000640Y0003242D02*
Y0000560D01*
X0000440Y0003990D02*
Y0003878D01*
X0000710Y0005790D02*
Y0005140D01*
X0000170Y0010804D02*
Y0010780D01*
X-0000910Y0004646D02*
Y0001884D01*
X-0000820Y0003990D02*
Y0003878D01*
X-0000100Y0003242D02*
Y0000505D01*
X0001790Y0004700D02*
Y0000829D01*
X-0003610Y0010890D02*
Y0010863D01*
X0003967Y0008120D02*
X0002880D01*
X0002370Y0011090D02*
X0002230D01*
X-0004045Y0005690D02*
X-0004907D01*
X-0000730Y0003242D02*
Y0000576D01*
X0002370Y0013110D02*
Y0012278D01*
X-0001494Y0008924D02*
X-0001563Y0008855D01*
X-0000160Y0003890D02*
X-0003317D01*
X-0003139Y0002097D02*
X-0003044Y0001981D01*
X-0001418Y0001820D02*
X-0001727D01*
X0003682Y0002540D02*
X-0003471D01*
X-0003652Y0002802D02*
X-0003489Y0002565D01*
X-0003803Y0003035D02*
X-0003650Y0002800D01*
X-0000838Y0003440D02*
X-0004047D01*
X-0004510Y0008095D02*
Y0006911D01*
X-0004404Y0004520D02*
X-0004552D01*
X-0000730Y0005150D02*
X-0004762D01*
X-0003943Y0005420D02*
X-0004838D01*
X-0000730Y0005960D02*
X-0001549D01*
X-0000460Y0011280D02*
Y0010780D01*
X-0000838Y0004250D02*
X-0003074D01*
X0000080Y0005742D02*
Y0005301D01*
X-0000730Y0011280D02*
Y0010780D01*
X0003320Y0004776D02*
Y0004660D01*
X-0003430Y0010841D02*
Y0010425D01*
X-0002589Y0008930D02*
X-0003093D01*
X-0003880Y0005382D02*
Y0005093D01*
X-0004330Y0008095D02*
Y0007395D01*
X-0002507Y0008480D02*
X-0003585D01*
X-0001450Y0011280D02*
Y0011246D01*
X-0003250Y0010924D02*
Y0010906D01*
X-0001926Y0010550D02*
X-0002804D01*
X-0002390Y0008210D02*
X-0002619D01*
X-0001834Y0010460D02*
X-0002748D01*
X-0001610Y0005899D02*
Y0005780D01*
X0000440Y0009346D02*
Y0009274D01*
X-0001822Y0006320D02*
X-0001932D01*
X-0003540Y0009920D02*
X-0003585D01*
X0001139Y0007670D02*
X-0002624D01*
X-0005114Y0006723D02*
X-0005050Y0006358D01*
X-0004533Y0006320D02*
X-0005043D01*
X-0002061Y0005860D02*
X-0003597D01*
X-0001990Y0005420D02*
Y0001980D01*
X-0000329Y0008030D02*
X-0000796D01*
X-0003024Y0007040D02*
X-0003897D01*
X-0001963Y0010640D02*
X-0002757D01*
X-0002336Y0006320D02*
X-0003986D01*
Y0003800D02*
X-0004240D01*
X-0003175Y0007670D02*
X-0005234D01*
X-0004979Y0006005D02*
X-0004901Y0005664D01*
X-0002050Y0005960D02*
X-0004969D01*
X-0001901Y0006230D02*
X-0003981D01*
X0001159Y0006500D02*
X0001089D01*
X-0000730Y0006199D02*
Y0005150D01*
X-0005050Y0006358D02*
X-0004979Y0006005D01*
X-0000838Y0003620D02*
X-0004146D01*
X-0004150Y0003895D02*
Y0003628D01*
X-0003250Y0005420D02*
Y0004911D01*
X-0004727Y0005032D02*
X-0004632Y0004740D01*
X-0004510Y0006134D02*
Y0004407D01*
X-0004386Y0004250D02*
X-0004446D01*
X-0004600Y0006361D02*
Y0004650D01*
X-0004240Y0003980D02*
X-0004327D01*
X-0004420Y0006030D02*
Y0004187D01*
X-0004201Y0003723D02*
X-0004076Y0003490D01*
X-0003943Y0003261D01*
X-0000550Y0003990D02*
Y0003878D01*
X-0000838Y0003350D02*
X-0003995D01*
X0004130Y0003771D02*
Y0003222D01*
X-0003700Y0003750D02*
Y0002876D01*
X0003770Y0003777D02*
Y0002667D01*
X-0003880Y0003767D02*
Y0003158D01*
X-0003340Y0003873D02*
Y0002358D01*
X-0002080Y0009470D02*
X-0003585D01*
X-0002980Y0005420D02*
Y0001907D01*
X-0002890Y0005420D02*
Y0001806D01*
X-0002535Y0001450D02*
X-0002426Y0001355D01*
X-0000730Y0003990D02*
Y0003878D01*
X0002420Y0005650D02*
Y0005140D01*
X0001790Y0011360D02*
X-0000149D01*
X-0001968Y0010730D02*
X-0002724D01*
X-0003277Y0010820D02*
X-0003592D01*
X-0003275Y0010730D02*
X-0003585D01*
X-0003553Y0010370D02*
X-0003585D01*
X-0002056Y0010190D02*
X-0002787D01*
X-0002080Y0010010D02*
X-0003137D01*
X-0002080Y0009830D02*
X-0003585D01*
X-0003160Y0008066D02*
Y0007824D01*
X-0003242Y0010640D02*
X-0003585D01*
X-0005216Y0007488D02*
X-0005170Y0007101D01*
X-0003021Y0007130D02*
X-0003852D01*
X-0004326Y0007400D02*
X-0005206D01*
X-0002996Y0006950D02*
X-0004016D01*
X-0003142Y0007580D02*
X-0005225D01*
X-0003086Y0007940D02*
X-0005258D01*
X-0004600Y0008095D02*
Y0006919D01*
X-0003148Y0007850D02*
X-0005251D01*
X-0003790Y0008095D02*
Y0005919D01*
X-0004224Y0006950D02*
X-0005147D01*
X-0001720Y0008512D02*
Y0006702D01*
X-0003930Y0005870D02*
X-0004948D01*
X-0004018Y0005510D02*
X-0004861D01*
X-0004740Y0006410D02*
X-0005059D01*
X-0000190Y0003242D02*
Y0000510D01*
X-0000730Y0005420D02*
X-0001970D01*
X-0005170Y0007101D02*
X-0005114Y0006723D01*
X-0002080Y0010935D02*
Y0010090D01*
X-0004354Y0004700D02*
X-0004618D01*
X-0000730Y0005510D02*
X-0001789D01*
X-0004404Y0004340D02*
X-0004483D01*
X-0000730Y0005240D02*
X-0004788D01*
X-0004047Y0005600D02*
X-0004884D01*
X-0004012Y0005780D02*
X-0004928D01*
X-0004901Y0005664D02*
X-0004817Y0005340D01*
X-0004307Y0004790D02*
X-0004649D01*
X-0004240Y0004880D02*
X-0004678D01*
X-0004780Y0006444D02*
Y0005212D01*
X-0004822Y0006500D02*
X-0005075D01*
X-0004817Y0005340D02*
X-0004727Y0005031D01*
X-0004374Y0004084D02*
X-0004318Y0003960D01*
X-0004690Y0006382D02*
Y0004917D01*
X-0004632Y0004740D02*
X-0004532Y0004464D01*
X-0004690Y0008095D02*
Y0006897D01*
X-0003610Y0003761D02*
Y0002741D01*
X-0004410Y0004430D02*
X-0004519D01*
X-0004429Y0004209D02*
X-0004374Y0004082D01*
X-0004855Y0006590D02*
X-0005091D01*
X-0004354Y0004160D02*
X-0004408D01*
X-0004532Y0004464D02*
X-0004481Y0004334D01*
X-0004240Y0003980D02*
Y0003800D01*
X-0004482Y0004336D02*
X-0004428Y0004206D01*
X-0004386Y0004610D02*
X-0004585D01*
X-0004330Y0004110D02*
Y0003986D01*
X-0004307Y0004070D02*
X-0004368D01*
X-0004143Y0003890D02*
X-0004284D01*
X-0004330Y0005989D02*
Y0004750D01*
X-0003943Y0003261D02*
X-0003802Y0003033D01*
X-0000838Y0003710D02*
X-0004194D01*
X0004042Y0003080D02*
X-0003831D01*
X-0003970Y0003794D02*
Y0003307D01*
X-0004060Y0003835D02*
Y0003462D01*
X0003867Y0002810D02*
X-0003656D01*
X-0004261Y0003842D02*
X-0004201Y0003723D01*
X0003744Y0002630D02*
X-0003534D01*
X-0003320Y0002330D02*
X-0003229Y0002210D01*
X-0003790Y0003752D02*
Y0003014D01*
X-0003491Y0002567D02*
X-0003318Y0002328D01*
X-0003520Y0003783D02*
Y0002610D01*
X-0003250Y0003948D02*
Y0002238D01*
X0003410Y0004030D02*
Y0002173D01*
X-0002258Y0001730D02*
X-0002820D01*
X0003415Y0002180D02*
X-0003204D01*
X0003590Y0003859D02*
Y0002413D01*
X-0003430Y0003820D02*
Y0002483D01*
X-0003070Y0004266D02*
Y0002013D01*
X-0002850Y0001761D02*
X-0002746Y0001652D01*
X0003320Y0004200D02*
Y0002061D01*
X-0003230Y0002213D02*
X-0003138Y0002095D01*
X-0001372Y0001910D02*
X-0001795D01*
X-0002749Y0001655D02*
X-0002643Y0001550D01*
X-0002165Y0001910D02*
X-0002982D01*
X-0002233Y0001820D02*
X-0002903D01*
X-0002949Y0001871D02*
X-0002848Y0001760D01*
X0000482Y0001280D02*
X-0002334D01*
X-0002350Y0005420D02*
Y0001293D01*
X-0002620Y0005420D02*
Y0001529D01*
X-0002253Y0001640D02*
X-0002733D01*
X-0002124Y0001460D02*
X-0002546D01*
X-0002372Y0001310D02*
X-0002313Y0001263D01*
X-0002428Y0001356D02*
X-0002369Y0001308D01*
X-0002710Y0005420D02*
Y0001616D01*
X-0002316Y0001266D02*
X-0002255Y0001219D01*
X-0002800Y0005420D02*
Y0001709D01*
X-0002260Y0005420D02*
Y0001223D01*
X-0002259Y0001222D02*
X-0002198Y0001178D01*
X-0002530Y0005420D02*
Y0001445D01*
X-0002440Y0005420D02*
Y0001367D01*
X0000544Y0001190D02*
X-0002215D01*
X-0002201Y0001180D02*
X-0002139Y0001136D01*
X-0002643Y0001550D02*
X-0002535Y0001450D01*
X-0002144Y0001140D02*
X-0002081Y0001098D01*
X-0002170Y0001494D02*
Y0001158D01*
X-0002085Y0001100D02*
X-0002021Y0001060D01*
X-0002025Y0001062D02*
X-0001960Y0001023D01*
X-0002080Y0001438D02*
Y0001097D01*
X-0001965Y0001025D02*
X-0001899Y0000987D01*
X-0001903Y0000990D02*
X-0001837Y0000953D01*
X-0002216Y0001550D02*
X-0002643D01*
X-0001810Y0001477D02*
Y0000939D01*
X-0001842Y0000956D02*
X-0001775Y0000921D01*
X-0001778Y0000923D02*
X-0001711Y0000889D01*
X-0001715Y0000891D02*
X-0001647Y0000859D01*
X-0001651Y0000861D02*
X-0001582Y0000830D01*
X-0001540Y0005969D02*
Y0000812D01*
X-0001990Y0001420D02*
Y0001041D01*
X-0001519Y0000803D02*
X-0001450Y0000776D01*
X-0001630Y0005688D02*
Y0000852D01*
X-0001454Y0000778D02*
X-0001383Y0000751D01*
X-0001586Y0000832D02*
X-0001519Y0000803D01*
X-0001387Y0000752D02*
X-0001315Y0000727D01*
X0000510Y0001550D02*
X-0000944D01*
X0000469Y0001460D02*
X-0001836D01*
X0001520Y0004700D02*
Y0000725D01*
X-0001270Y0001487D02*
Y0000712D01*
X-0001251Y0000706D02*
X-0001180Y0000684D01*
Y0001461D02*
Y0000684D01*
X-0001720Y0001596D02*
Y0000894D01*
X-0001319Y0000728D02*
X-0001249Y0000705D01*
X0001250Y0004700D02*
Y0000644D01*
X-0001181Y0000684D02*
X-0001110Y0000663D01*
X-0000820Y0003242D02*
Y0000594D01*
X-0000900Y0000610D02*
X-0000755Y0000580D01*
X-0000910Y0001596D02*
Y0000612D01*
X-0001042Y0000645D02*
X-0000970Y0000626D01*
X-0000013Y0000501D02*
X0000105Y0000499D01*
X-0000463Y0000535D02*
X-0000314Y0000519D01*
X-0000973Y0000627D02*
X-0000900Y0000610D01*
X-0000280Y0003242D02*
Y0000516D01*
X-0001000Y0001503D02*
Y0000634D01*
X0000350Y0003242D02*
Y0000507D01*
X-0000610Y0000555D02*
X-0000463Y0000535D01*
X-0000314Y0000519D02*
X-0000165Y0000508D01*
X0001190Y0006950D02*
X-0000419D01*
X-0001450Y0008988D02*
Y0007333D01*
X-0001360Y0006781D02*
Y0006633D01*
X-0001828Y0006590D02*
X-0001865D01*
X-0000730Y0005600D02*
X-0001699D01*
X-0001630Y0008574D02*
Y0007204D01*
X0000620Y0008049D02*
Y0006686D01*
X0000080Y0003375D02*
Y0000500D01*
X-0000851Y0006320D02*
X-0001337D01*
X0001462Y0000706D02*
X0001391Y0000684D01*
X-0000838Y0004543D02*
Y0003990D01*
X-0000190Y0008003D02*
Y0006721D01*
X-0001180Y0008184D02*
Y0007280D01*
X0000980Y0010150D02*
Y0007460D01*
X-0000160Y0003990D02*
X-0000838D01*
X0001700Y0005340D02*
Y0005140D01*
X0000580Y0006320D02*
X0000060D01*
X-0000550Y0010150D02*
Y0007081D01*
X0000323Y0003260D02*
X-0000085D01*
X-0000010Y0008084D02*
Y0006541D01*
X0000323Y0004160D02*
X0000280D01*
X0002920Y0005150D02*
X0000231D01*
X0000323Y0003350D02*
X0000025D01*
X0001610Y0005444D02*
Y0005140D01*
X0005406Y0007310D02*
X0002880D01*
X0003825Y0009020D02*
X0002880D01*
X0002440Y0008210D02*
X0001951D01*
X0002600Y0010499D02*
Y0009513D01*
X0001640Y0008521D02*
X0001575Y0008456D01*
X0003950Y0013106D02*
Y0010965D01*
X0005325Y0006723D02*
X0005261Y0006358D01*
X0002210Y0006590D02*
X0001630D01*
X-0000100Y0008024D02*
Y0006631D01*
X0005462Y0007850D02*
X0004966D01*
X0003848Y0008210D02*
X0002880D01*
X0003050Y0006476D02*
Y0006434D01*
Y0011629D02*
Y0007023D01*
X0002243Y0009110D02*
X0002080D01*
X-0000925Y0004700D02*
X-0003106D01*
X0003383Y0004790D02*
X0003328D01*
X0005210Y0008115D02*
Y0006103D01*
X0004940Y0007827D02*
Y0005039D01*
X0005235Y0006230D02*
X0003051D01*
X0003825Y0008390D02*
X0002880D01*
X0002060Y0010619D02*
Y0010590D01*
X0005482Y0008139D02*
X0005465Y0007884D01*
X0005453Y0007760D02*
X0002880D01*
X0005380Y0007101D02*
X0005325Y0006723D01*
X0000350Y0004700D02*
Y0004626D01*
X0005358Y0006950D02*
X0003185D01*
X0002758Y0009293D02*
X0002815Y0009235D01*
X0000350Y0008739D02*
Y0008538D01*
X0001250Y0009805D02*
Y0007970D01*
X0003825Y0009470D02*
X0002665D01*
X0001520Y0009855D02*
Y0008365D01*
X0001640Y0009380D02*
X0000600D01*
X0002160Y0010150D02*
X0002025D01*
X0001600Y0009830D02*
X0001484D01*
X0000530Y0001205D02*
Y0000519D01*
X0002206Y0009200D02*
X0002080D01*
X0002440Y0008570D02*
X0002080D01*
X0002440Y0008660D02*
X0002080D01*
X0001630Y0006908D02*
Y0006440D01*
X0002210Y0006500D02*
X0001630D01*
X0000800Y0004700D02*
Y0004626D01*
X0001640Y0008570D02*
X-0001634D01*
X0002210Y0007220D02*
X0002005D01*
X0001190Y0006531D02*
X0001085Y0006426D01*
X0002690Y0005826D02*
Y0005140D01*
X0001610Y0006348D02*
Y0005696D01*
X0001070Y0009996D02*
Y0007501D01*
X0001510Y0008300D02*
Y0008001D01*
X0000260Y0008804D02*
Y0008473D01*
X0001700Y0006891D02*
Y0005800D01*
X0002210Y0006680D02*
X0001630D01*
X0003230Y0011642D02*
Y0006893D01*
X0000980Y0005790D02*
Y0005140D01*
X0002060Y0007436D02*
Y0005766D01*
X0002209Y0007310D02*
X0001972D01*
X0000980Y0004700D02*
Y0004626D01*
X0000080Y0010150D02*
Y0006278D01*
X-0000640Y0008246D02*
Y0007171D01*
X-0000460Y0008161D02*
Y0006991D01*
X0002210Y0006860D02*
X0001630D01*
X0001510Y0008120D02*
X0000693D01*
X0002510Y0005662D02*
Y0005140D01*
X0000539Y0006410D02*
X0000058D01*
X0002440Y0007760D02*
X0002395D01*
X0005332Y0006770D02*
X0003269D01*
X0005300Y0008115D02*
Y0006581D01*
X0002227Y0009380D02*
X0002080D01*
X0004574Y0007850D02*
X0002880D01*
X0001340Y0006059D02*
Y0005140D01*
X0002440Y0008120D02*
X0001950D01*
X0002330Y0010229D02*
Y0009496D01*
X0002336Y0009020D02*
X0002080D01*
X0002780Y0006050D02*
Y0005140D01*
X0002295Y0009470D02*
X0002117D01*
X0002156Y0005870D02*
X0001151D01*
X0000980Y0005790D02*
X0000333D01*
X0003825Y0009290D02*
X0002761D01*
X0002330Y0009023D02*
Y0007895D01*
X0002440Y0008300D02*
X0002037D01*
X0003825Y0008570D02*
X0002880D01*
X0001640Y0009020D02*
X0000743D01*
X0002600Y0005707D02*
Y0005140D01*
X0000060Y0005748D02*
Y0005321D01*
X-0000280Y0003990D02*
Y0003878D01*
X-0000190Y0003990D02*
Y0003878D01*
X0000323Y0004610D02*
X0000278D01*
X-0001978Y0011090D02*
X-0002011D01*
X0005190Y0006005D02*
X0005112Y0005666D01*
X-0000160Y0003990D02*
Y0003878D01*
X-0000040Y0003340D02*
X-0000085D01*
X0002440Y0008030D02*
X0001950D01*
X0002210Y0007130D02*
X0002007D01*
X0004580Y0007844D02*
Y0004709D01*
X0000614Y0006680D02*
X-0000149D01*
X0000280Y0004580D02*
Y0003660D01*
X-0000085Y0003340D02*
Y0003242D01*
X0005261Y0006358D02*
X0005190Y0006005D01*
X-0003216Y0010550D02*
X-0003585D01*
X-0001180Y0006392D02*
Y0002018D01*
X-0000165Y0000508D02*
X-0000013Y0000501D01*
X-0000730Y0006140D02*
X-0001384D01*
X-0004400Y0007220D02*
X-0005184D01*
X-0001214Y0006410D02*
X-0001304D01*
X-0000730Y0005330D02*
X-0004814D01*
X-0000820Y0006289D02*
Y0004972D01*
X-0001090Y0008061D02*
Y0007280D01*
X0003825Y0009380D02*
X0002733D01*
X-0001270Y0006454D02*
Y0001993D01*
X0002201Y0009290D02*
X0002080D01*
X-0001000Y0008015D02*
Y0007280D01*
X-0001669Y0007040D02*
X-0002469D01*
X0002420Y0008986D02*
Y0007721D01*
X-0000910Y0008002D02*
Y0007280D01*
X0001190Y0006770D02*
X-0000239D01*
X0000440Y0008003D02*
Y0006230D01*
X0002210D02*
X0001511D01*
X-0002980Y0007452D02*
Y0007230D01*
X-0002080Y0005420D02*
Y0001961D01*
X-0004780Y0008095D02*
Y0006836D01*
X-0003430Y0008616D02*
Y0005860D01*
X-0004870Y0008095D02*
Y0005543D01*
X-0003700Y0005369D02*
Y0005109D01*
X-0003250Y0008637D02*
Y0005860D01*
X-0002260Y0006264D02*
Y0005860D01*
X0005187Y0011180D02*
X0004933D01*
X0005266Y0010910D02*
X0005181D01*
X0002854Y0012980D02*
X0002810D01*
X0005181Y0011200D02*
X0005211Y0011104D01*
X0005265Y0010910D02*
X0005293Y0010798D01*
X0005171Y0010920D02*
X0005293Y0010798D01*
X0005094Y0011450D02*
X0002810D01*
X0005158Y0011270D02*
X0004865D01*
X0003825Y0010550D02*
X0002651D01*
X0002370Y0011180D02*
X0002230D01*
X0005150Y0011294D02*
X0005182Y0011198D01*
X0004929Y0011840D02*
X0004971Y0011750D01*
X0002870Y0012970D02*
Y0012026D01*
X0005083Y0011481D02*
X0005118Y0011386D01*
X0005047Y0011572D02*
X0005084Y0011478D01*
X0005060Y0011540D02*
X0002810D01*
X0005127Y0011360D02*
X0002810D01*
X0004970Y0011752D02*
X0005010Y0011661D01*
X0004984Y0011720D02*
X0003334D01*
X0004943Y0011810D02*
X0003385D01*
X0005009Y0011662D02*
X0005048Y0011569D01*
X0005120Y0011381D02*
Y0010957D01*
X0004888Y0011924D02*
X0004930Y0011838D01*
X0004940Y0011817D02*
Y0011164D01*
X0005023Y0011630D02*
X0003194D01*
X0004796Y0012097D02*
X0004843Y0012010D01*
X0004842Y0012012D02*
X0004888Y0011924D01*
X0004578Y0012440D02*
X0002810D01*
X0004850Y0011997D02*
Y0011282D01*
X0004512Y0012530D02*
X0002810D01*
X0004595Y0012416D02*
X0004648Y0012338D01*
X0004760Y0012159D02*
Y0011328D01*
X0004854Y0011990D02*
X0003385D01*
X0004640Y0012350D02*
X0002810D01*
X0004699Y0012260D02*
X0002810D01*
X0005117Y0011388D02*
X0005151Y0011292D01*
X0004283Y0012800D02*
X0002810D01*
X0004490Y0012559D02*
Y0011266D01*
X0004754Y0012170D02*
X0003194D01*
X0004441Y0012620D02*
X0002810D01*
X0004310Y0012771D02*
Y0010975D01*
X0004580Y0012437D02*
Y0011321D01*
X0004298Y0012784D02*
X0004363Y0012712D01*
X0004029Y0013041D02*
X0004100Y0012979D01*
Y0012980D02*
X0003266D01*
X0004538Y0012495D02*
X0004595Y0012416D01*
X0004424Y0012641D02*
X0004482Y0012569D01*
X0004235Y0012850D02*
X0004300Y0012782D01*
X0004400Y0012670D02*
Y0010975D01*
X0003881Y0013160D02*
X0003414D01*
X0004366Y0012710D02*
X0002810D01*
X0004482Y0012569D02*
X0004540Y0012493D01*
X0003770Y0013238D02*
Y0005083D01*
X0004130Y0012952D02*
Y0010975D01*
X0004195Y0012890D02*
X0002810D01*
X0002960Y0012933D02*
Y0012130D01*
X0003882Y0013159D02*
X0003957Y0013101D01*
X0003805Y0013214D02*
X0003882Y0013159D01*
X0003410Y0013448D02*
X0003474Y0013416D01*
X0004363Y0012712D02*
X0004424Y0012641D01*
X0003869Y0010910D02*
X0002810D01*
X0003752Y0013250D02*
X0003437D01*
X0003590Y0013351D02*
Y0005000D01*
X0003680Y0013297D02*
Y0005050D01*
X0003500Y0013402D02*
Y0004931D01*
X0003644Y0013320D02*
X0003725Y0013269D01*
X0004220Y0012866D02*
Y0010975D01*
X0003446Y0013430D02*
X0003418D01*
X0003995Y0013070D02*
X0003363D01*
X0003560Y0013368D02*
X0003644Y0013320D01*
X0002240Y0011750D02*
Y0010761D01*
X0002810Y0013013D02*
Y0010800D01*
X0002330Y0013140D02*
Y0012295D01*
X0002209Y0010730D02*
X0002171D01*
X0001168Y0011090D02*
X0000635D01*
X0000800Y0013624D02*
Y0012335D01*
X-0001990Y0011280D02*
Y0010271D01*
X0000624Y0011810D02*
X0000181D01*
X-0000550Y0011280D02*
Y0010780D01*
X-0001000Y0011280D02*
Y0010780D01*
X-0000640Y0011280D02*
Y0010780D01*
X-0002526Y0011270D02*
X-0002633D01*
X-0000910Y0011280D02*
Y0010780D01*
X-0002620Y0011280D02*
Y0011246D01*
X-0002475Y0010910D02*
X-0002685D01*
X-0003520Y0010849D02*
Y0010392D01*
X0000809Y0013610D02*
X-0000134D01*
X-0003703Y0011000D02*
X-0003817D01*
X-0000190Y0011280D02*
Y0010780D01*
X0001716Y0005330D02*
X0000060D01*
X0002060Y0005374D02*
Y0005140D01*
X0004579Y0004070D02*
X0004537D01*
X0004760Y0007770D02*
Y0004511D01*
X0003704Y0005060D02*
X0003322D01*
X0004529Y0003962D02*
X0004470Y0003840D01*
X0004694Y0004340D02*
X0004634D01*
X-0003635Y0010910D02*
X-0003649D01*
X0004828Y0004700D02*
X0004584D01*
X0004490Y0008115D02*
Y0004856D01*
X0004400Y0008115D02*
Y0004948D01*
X0004310Y0008115D02*
Y0005013D01*
X0004100Y0012980D02*
X0004169Y0012915D01*
X0003474Y0013416D02*
X0003560Y0013368D01*
X-0000134Y0013626D02*
Y0013573D01*
X0000116Y0013703D02*
X-0000081Y0013901D01*
X0000116Y0013101D02*
X-0000081Y0013299D01*
X0000116Y0013496D02*
X-0000081Y0013299D01*
X0000116Y0012541D02*
X-0000081Y0012739D01*
X0000116Y0012936D02*
X-0000081Y0012739D01*
X0000116Y0011993D02*
X-0000081Y0012191D01*
X0000116Y0012389D02*
X-0000081Y0012191D01*
X-0003252Y0010922D02*
X-0003450Y0011120D01*
X-0002672Y0010922D02*
X-0002870Y0011120D01*
X0002240Y0012310D02*
Y0012030D01*
X0004482Y0011258D02*
X0004680Y0011060D01*
X0003860Y0013175D02*
Y0010898D01*
X0004878Y0011258D02*
X0004680Y0011060D01*
X0000710Y0008147D02*
Y0006741D01*
X0001958Y0009862D02*
X0001760Y0010060D01*
X0001562Y0009862D02*
X0001760Y0010060D01*
X-0004318Y0007408D02*
X-0004120Y0007210D01*
X-0003922Y0007012D02*
X-0004120Y0007210D01*
X-0004318Y0007012D02*
X-0004120Y0007210D01*
X-0003922Y0007408D02*
X-0004120Y0007210D01*
X-0000418Y0009165D02*
X-0000220Y0008967D01*
X-0000022Y0008769D02*
X-0000220Y0008967D01*
X-0000418Y0008769D02*
X-0000220Y0008967D01*
X-0000022Y0009165D02*
X-0000220Y0008967D01*
X0000267Y0009823D02*
X0000465Y0009625D01*
X0000662Y0009427D02*
X0000465Y0009625D01*
X0000267Y0009427D02*
X0000465Y0009625D01*
X0000662Y0009823D02*
X0000465Y0009625D01*
X0000267Y0009193D02*
X0000465Y0008995D01*
X0000662Y0008797D02*
X0000465Y0008995D01*
X0000267Y0008797D02*
X0000465Y0008995D01*
X0000662Y0009193D02*
X0000465Y0008995D01*
X-0000450Y0009805D02*
X-0000252Y0009608D01*
X-0000054Y0009410D02*
X-0000252Y0009608D01*
X-0000450Y0009410D02*
X-0000252Y0009608D01*
X-0000054Y0009805D02*
X-0000252Y0009608D01*
X-0001115Y0009805D02*
X-0000918Y0009608D01*
X-0000720Y0009410D02*
X-0000918Y0009608D01*
X-0001115Y0009410D02*
X-0000918Y0009608D01*
X-0000720Y0009805D02*
X-0000918Y0009608D01*
X-0001115Y0009055D02*
X-0000918Y0008858D01*
X-0000720Y0008660D02*
X-0000918Y0008858D01*
X-0001115Y0008660D02*
X-0000918Y0008858D01*
X-0000720Y0009055D02*
X-0000918Y0008858D01*
X-0001115Y0008480D02*
X-0000918Y0008282D01*
X-0000720Y0008084D02*
X-0000918Y0008282D01*
X-0001115Y0008084D02*
X-0000918Y0008282D01*
X-0000720Y0008480D02*
X-0000918Y0008282D01*
X-0000405Y0008480D02*
X-0000208Y0008282D01*
X-0000010Y0008084D02*
X-0000208Y0008282D01*
X-0000405Y0008084D02*
X-0000208Y0008282D01*
X-0000010Y0008480D02*
X-0000208Y0008282D01*
X0000267Y0008480D02*
X0000465Y0008282D01*
X0000662Y0008084D02*
X0000465Y0008282D01*
X0000267Y0008084D02*
X0000465Y0008282D01*
X0000662Y0008480D02*
X0000465Y0008282D01*
X0004968Y0007852D02*
X0004770Y0008050D01*
X0004572Y0007852D02*
X0004770Y0008050D01*
X-0000848Y0004948D02*
X-0000650Y0004750D01*
X0003320Y0011704D02*
Y0005064D01*
X-0000848Y0004552D02*
X-0000650Y0004750D01*
X0000612Y0006678D02*
X0000810Y0006480D01*
X0000612Y0006282D02*
X0000810Y0006480D01*
X0001008Y0006678D02*
X0000810Y0006480D01*
X0001662Y0005768D02*
X0001860Y0005570D01*
X0002058Y0005372D02*
X0001860Y0005570D01*
X0001662Y0005372D02*
X0001860Y0005570D01*
X0002058Y0005768D02*
X0001860Y0005570D01*
X-0002332Y0006712D02*
X-0002134Y0006514D01*
X-0001936Y0006316D02*
X-0002134Y0006514D01*
X-0002332Y0006316D02*
X-0002134Y0006514D01*
X-0001936Y0006712D02*
X-0002134Y0006514D01*
X-0001348Y0006680D02*
X-0001407D01*
X-0004062Y0006062D02*
X-0004260Y0006260D01*
X-0004458Y0006062D02*
X-0004260Y0006260D01*
X-0004062Y0006458D02*
X-0004260Y0006260D01*
X-0003098Y0007918D02*
X-0002900Y0007720D01*
X-0002702Y0007522D02*
X-0002900Y0007720D01*
X-0003098Y0007522D02*
X-0002900Y0007720D01*
X-0002702Y0007918D02*
X-0002900Y0007720D01*
X-0003088Y0008338D02*
X-0002890Y0008140D01*
X-0002692Y0007942D02*
X-0002890Y0008140D01*
X-0003088Y0007942D02*
X-0002890Y0008140D01*
X-0002692Y0008338D02*
X-0002890Y0008140D01*
X0000116Y0011513D02*
X-0000081Y0011711D01*
X0000116Y0011909D02*
X-0000081Y0011711D01*
X-0003198Y0010978D02*
X-0003000Y0010780D01*
X-0002802Y0010582D02*
X-0003000Y0010780D01*
X-0003198Y0010582D02*
X-0003000Y0010780D01*
X0002240Y0011750D02*
Y0012030D01*
X-0003182Y0009952D02*
X-0003380Y0010150D01*
X0000860Y0007220D02*
X-0000689D01*
X-0003172Y0008692D02*
X-0003370Y0008890D01*
X-0003172Y0009088D02*
X-0003370Y0008890D01*
X-0002178Y0001898D02*
X-0001980Y0001700D01*
X-0001782Y0001502D02*
X-0001980Y0001700D01*
X-0002178Y0001502D02*
X-0001980Y0001700D01*
X-0001782Y0001898D02*
X-0001980Y0001700D01*
X-0001348Y0001938D02*
X-0001150Y0001740D01*
X-0000952Y0001542D02*
X-0001150Y0001740D01*
X-0001348Y0001542D02*
X-0001150Y0001740D01*
X-0000952Y0001938D02*
X-0001150Y0001740D01*
X0000542Y0001588D02*
X0000740Y0001390D01*
X0000938Y0001192D02*
X0000740Y0001390D01*
X0000542Y0001192D02*
X0000740Y0001390D01*
X0000938Y0001588D02*
X0000740Y0001390D01*
X0002922Y0012098D02*
X0003120Y0011900D01*
X0003318Y0011702D02*
X0003120Y0011900D01*
X0002922Y0011702D02*
X0003120Y0011900D01*
X0003318Y0012098D02*
X0003120Y0011900D01*
X0000552Y0012258D02*
X0000750Y0012060D01*
X0000948Y0011862D02*
X0000750Y0012060D01*
X0000552Y0011862D02*
X0000750Y0012060D01*
X0000948Y0012258D02*
X0000750Y0012060D01*
X0001340Y0013421D02*
Y0011153D01*
X0002370Y0011720D02*
X0002230D01*
X-0002620Y0008066D02*
Y0007326D01*
X0002870Y0011774D02*
Y0009145D01*
X0001148Y0011071D02*
X0001346Y0010874D01*
X-0000711Y0005060D02*
X-0003474D01*
X0002370Y0011630D02*
X0002230D01*
X0001544Y0011071D02*
X0001346Y0010874D01*
X-0002092Y0010922D02*
X-0002290Y0011120D01*
X-0002488Y0010922D02*
X-0002290Y0011120D01*
X-0001502Y0010922D02*
X-0001700Y0011120D01*
X-0001898Y0010922D02*
X-0001700Y0011120D01*
X-0000462Y0004626D02*
Y0004308D01*
Y0003990D02*
Y0004308D01*
X-0000838D02*
X-0000462D01*
X0002960Y0004667D02*
Y0001656D01*
X0000440Y0014022D02*
Y0011271D01*
X0000798Y0013627D02*
X0001128Y0013817D01*
X-0003271Y0010460D02*
X-0003585D01*
X-0003770Y0008095D02*
X-0005150D01*
X-0003770Y0010955D02*
X-0003844D01*
X0005171Y0010921D02*
Y0010920D01*
X0003825Y0010790D02*
Y0008300D01*
X0002240Y0009116D02*
Y0007963D01*
X0004260Y0010975D02*
X0004010D01*
X0003825Y0010640D02*
X0002741D01*
X0000170Y0011588D02*
Y0011196D01*
X-0000550Y0003242D02*
Y0000547D01*
X0000323Y0004250D02*
X0000280D01*
X0000231Y0000501D02*
X0000227D01*
X0000350Y0003990D02*
Y0003878D01*
X0000440Y0003242D02*
Y0000513D01*
X0000170Y0003459D02*
Y0000500D01*
X-0000010Y0003342D02*
Y0000501D01*
X0000530Y0003242D02*
Y0001575D01*
X0000620Y0001137D02*
Y0000529D01*
X0001111Y0000610D02*
X0000966Y0000580D01*
X0000710Y0001111D02*
Y0000540D01*
X0000966Y0000580D02*
X0000821Y0000555D01*
X0001070Y0004700D02*
Y0004626D01*
X0000848Y0000560D02*
X-0000637D01*
X0000260Y0003568D02*
Y0000503D01*
X0001183Y0000627D02*
X0001111Y0000610D01*
X0001070Y0003242D02*
Y0000602D01*
X0001530Y0000728D02*
X0001459Y0000705D01*
X0001610Y0004700D02*
Y0000757D01*
X0001160Y0004700D02*
Y0000621D01*
X0003704Y0003800D02*
X0001077D01*
X0001272Y0000650D02*
X-0001061D01*
X0001253Y0000645D02*
X0001181Y0000626D01*
X0001324Y0000664D02*
X0001252Y0000644D01*
X0001340Y0004700D02*
Y0000669D01*
X0001597Y0000752D02*
X0001525Y0000727D01*
X0001983Y0000920D02*
X-0001773D01*
X0001665Y0000778D02*
X0001594Y0000751D01*
X0000890Y0001153D02*
Y0000567D01*
X0001796Y0000832D02*
X0001729Y0000803D01*
X0001862Y0000861D02*
X0001793Y0000831D01*
X0001729Y0000803D02*
X0001661Y0000776D01*
X0001430Y0004700D02*
Y0000696D01*
X0001926Y0000891D02*
X0001857Y0000859D01*
X0001700Y0004700D02*
Y0000792D01*
X0001791Y0000830D02*
X-0001581D01*
X0001989Y0000923D02*
X0001921Y0000889D01*
X0001880Y0004700D02*
Y0000870D01*
X0002052Y0000956D02*
X0001985Y0000921D01*
X0002114Y0000990D02*
X0002048Y0000954D01*
X0002149Y0001010D02*
X-0001938D01*
X0002175Y0001025D02*
X0002110Y0000987D01*
X0001562Y0000740D02*
X-0001351D01*
X0002236Y0001062D02*
X0002171Y0001023D01*
X0002060Y0004700D02*
Y0000960D01*
X0002420Y0004700D02*
Y0001186D01*
X0002150Y0004700D02*
Y0001010D01*
X0002296Y0001100D02*
X0002232Y0001060D01*
X0002355Y0001140D02*
X0002292Y0001098D01*
X0002330Y0004700D02*
Y0001123D01*
X0001970Y0004700D02*
Y0000913D01*
X0002425Y0001190D02*
X0000936D01*
X0002412Y0001180D02*
X0002350Y0001136D01*
X0002470Y0001222D02*
X0002409Y0001178D01*
X0002295Y0001100D02*
X-0002084D01*
X0002583Y0001310D02*
X0002523Y0001263D01*
X0002544Y0001280D02*
X0000997D01*
X0002527Y0001266D02*
X0002466Y0001219D01*
X0002638Y0001356D02*
X0002579Y0001308D01*
X0002600Y0004700D02*
Y0001324D01*
X0000800Y0001116D02*
Y0000552D01*
X0002510Y0004700D02*
Y0001253D01*
X0002746Y0001450D02*
X0002636Y0001355D01*
X0003031Y0001730D02*
X-0000870D01*
X0002780Y0004700D02*
Y0001481D01*
X0003113Y0001820D02*
X-0000882D01*
X0003061Y0001761D02*
X0002956Y0001652D01*
X0002240Y0004700D02*
Y0001065D01*
X0002690Y0004700D02*
Y0001401D01*
X-0001720Y0005579D02*
Y0001804D01*
X0002654Y0001370D02*
X0001019D01*
X-0001254Y0002000D02*
X-0003059D01*
X0003193Y0001910D02*
X-0000927D01*
X0003450Y0004880D02*
X0003357D01*
X-0003160Y0004059D02*
Y0002124D01*
X0003256Y0001983D02*
X0003158Y0001869D01*
X0002853Y0001550D02*
X0002746Y0001450D01*
X0003270Y0002000D02*
X-0001046D01*
X0003484Y0002270D02*
X-0003274D01*
X0003160Y0001871D02*
X0003059Y0001760D01*
X0002944Y0001640D02*
X0000866D01*
X0001510Y0008030D02*
X0000586D01*
X0003350Y0002097D02*
X0003254Y0001981D01*
X0003230Y0004683D02*
Y0001953D01*
X0002959Y0001655D02*
X0002853Y0001550D01*
X0003500Y0003929D02*
Y0002290D01*
X0003617Y0002450D02*
X-0003406D01*
X0003530Y0002330D02*
X0003440Y0002211D01*
X0003862Y0002802D02*
X0003700Y0002565D01*
X0003441Y0002213D02*
X0003348Y0002095D01*
X0004014Y0003035D02*
X0003860Y0002800D01*
X0003806Y0002720D02*
X-0003595D01*
X0004154Y0003261D02*
X0004013Y0003033D01*
X0003985Y0002990D02*
X-0003774D01*
X0003700Y0002565D02*
X0003528Y0002327D01*
X0003450Y0003980D02*
X0000280D01*
X0004040Y0003755D02*
Y0003077D01*
X0004400Y0003911D02*
Y0003701D01*
X0004670Y0007788D02*
Y0004282D01*
X0004098Y0003170D02*
X-0003887D01*
X0004310Y0003847D02*
Y0003533D01*
X0004308Y0003530D02*
X0001077D01*
X0004205Y0003350D02*
X0001077D01*
X0004040Y0008115D02*
Y0005105D01*
X0004471Y0003842D02*
X0004412Y0003723D01*
X0004729Y0004430D02*
X0004640D01*
X0004537Y0003980D02*
X0004470D01*
X0003860Y0003757D02*
Y0002799D01*
X0004405Y0003710D02*
X0001077D01*
X0004796Y0004610D02*
X0004616D01*
X0004580Y0004151D02*
Y0004072D01*
X0000980Y0001246D02*
Y0000583D01*
X0004412Y0003723D02*
X0004287Y0003490D01*
X0004356Y0003620D02*
X0001077D01*
X0004692Y0004336D02*
X0004639Y0004207D01*
X0004450Y0003800D02*
X0004216D01*
X0004763Y0004520D02*
X0004634D01*
X0004490Y0004004D02*
Y0003880D01*
X0004585Y0004084D02*
X0004529Y0003960D01*
X0004494Y0003890D02*
X0004373D01*
X0005025Y0005330D02*
X0002004D01*
X0004657Y0004250D02*
X0004616D01*
X0004946Y0005060D02*
X0004216D01*
X0005072Y0005510D02*
X0002133D01*
X0004918Y0004970D02*
X0004373D01*
X0004998Y0005240D02*
X0000141D01*
X0005138Y0005780D02*
X0002666D01*
X-0000160Y0003980D02*
X-0003220D01*
X0004850Y0007782D02*
Y0004762D01*
X0003860Y0008192D02*
Y0005102D01*
X0005117Y0005690D02*
X0002574D01*
X0004888Y0004880D02*
X0004470D01*
X0004938Y0005031D02*
X0004843Y0004740D01*
X0005286Y0006500D02*
X0003116D01*
X0005180Y0005960D02*
X0002708D01*
X0005028Y0005340D02*
X0004938Y0005031D01*
X0005159Y0005870D02*
X0002703D01*
X0005317Y0006680D02*
X0003261D01*
X0005199Y0006050D02*
X0002683D01*
X0004859Y0004790D02*
X0004537D01*
X0004130Y0008115D02*
Y0005088D01*
X0003825Y0008930D02*
X0002880D01*
X0005475Y0008030D02*
X0005049D01*
X0005480Y0008120D02*
X0005433D01*
X0005427Y0007490D02*
X0002880D01*
X0005395Y0007220D02*
X0002880D01*
X0005416Y0007400D02*
X0002880D01*
X0002440Y0008390D02*
X0002076D01*
X0005270Y0006410D02*
X0003058D01*
X0005436Y0007580D02*
X0002880D01*
X0001640Y0009407D02*
Y0008521D01*
X0001602Y0009470D02*
X0000698D01*
X0003825Y0009920D02*
X0002002D01*
X0002510Y0010409D02*
Y0009538D01*
X0003825Y0010280D02*
X0002381D01*
X0005480Y0008138D02*
Y0008111D01*
X0003825Y0009650D02*
X0002131D01*
X0005215Y0011090D02*
X0004958D01*
X0003825Y0009560D02*
X0002139D01*
X0002069Y0010590D02*
X0002031D01*
X0004413Y0010975D02*
X0004260D01*
X0003825Y0010730D02*
X0002798D01*
X0003825Y0009740D02*
X0002090D01*
X0005240Y0011000D02*
X0004953D01*
X0001790Y0013250D02*
X0000194D01*
X0001457Y0013340D02*
X0000195D01*
X0000080Y0013672D02*
Y0013527D01*
X-0000010Y0013630D02*
Y0013569D01*
X-0000100Y0013622D02*
Y0013578D01*
X0000170Y0013175D02*
Y0012862D01*
X0000766Y0013700D02*
X0000113D01*
X0000890Y0013520D02*
X0000090D01*
X0000748Y0013790D02*
X0000175D01*
X0000080Y0013070D02*
Y0012967D01*
X0002119Y0010640D02*
X0002081D01*
X0001790Y0013160D02*
X0000162D01*
X0001790Y0012890D02*
X0000154D01*
X0001790Y0012980D02*
X0000060D01*
X0001790Y0013070D02*
X0000080D01*
X0001790Y0012800D02*
X0000192D01*
X0000170Y0012068D02*
Y0011835D01*
X0000800Y0011784D02*
Y0010780D01*
X-0005243Y0008120D02*
X-0005270D01*
X0001430Y0006149D02*
Y0005140D01*
X0002440Y0008480D02*
X0002080D01*
X0000917Y0007400D02*
X-0003914D01*
X-0003970Y0005444D02*
Y0005066D01*
X-0001188Y0008210D02*
X-0002070D01*
X-0002478Y0008570D02*
X-0003585D01*
X-0003700Y0008109D02*
Y0005911D01*
X-0003543Y0009110D02*
X-0003585D01*
X-0004150Y0008095D02*
Y0007488D01*
X-0003986Y0005060D02*
X-0004735D01*
X-0002581Y0008840D02*
X-0003094D01*
X-0002170Y0010867D02*
Y0009261D01*
X-0004060Y0008095D02*
Y0007483D01*
X-0005140Y0008095D02*
Y0006899D01*
X-0003728Y0011090D02*
X-0003791D01*
X-0003680Y0011280D02*
X-0003840D01*
X-0003686Y0011270D02*
X-0003833D01*
X-0002141Y0009290D02*
X-0003585D01*
X-0003148Y0011090D02*
X-0003171D01*
X-0003723Y0011180D02*
X-0003796D01*
X-0003143D02*
X-0003176D01*
X-0000138Y0013024D02*
Y0013013D01*
X-0003700Y0011280D02*
Y0011246D01*
X-0003100Y0011280D02*
X-0003220D01*
X-0002350Y0010846D02*
Y0009187D01*
X-0002520Y0011280D02*
X-0002640D01*
X-0002563Y0011180D02*
X-0002596D01*
X0004700Y0012258D02*
X0004749Y0012177D01*
X0005030Y0011613D02*
Y0010975D01*
X0005210Y0011107D02*
Y0010881D01*
X0005288Y0010820D02*
X0005271D01*
X0004401Y0011090D02*
X0002810D01*
X0003957Y0013101D02*
X0004029Y0013041D01*
X0005384Y0007130D02*
X0002880D01*
X0003950Y0008125D02*
Y0005110D01*
X0003725Y0013269D02*
X0003805Y0013214D01*
X0005444Y0007670D02*
X0002880D01*
X0005301Y0006590D02*
X0003220D01*
X0004220Y0008115D02*
Y0005058D01*
X0005112Y0005666D02*
X0005028Y0005340D01*
X0004040Y0013032D02*
Y0010975D01*
X0002370Y0012440D02*
X0002230D01*
X0002370Y0012980D02*
X0002230D01*
X-0001360Y0006240D02*
Y0001925D01*
X0002330Y0011765D02*
Y0010851D01*
X0002080Y0009407D02*
Y0008430D01*
X-0004538Y0006230D02*
X-0005025D01*
X0001036Y0007490D02*
X-0002740D01*
X-0003700Y0010994D02*
Y0010941D01*
X-0000280Y0008012D02*
Y0006811D01*
X0001790Y0012530D02*
X0000105D01*
X-0002530Y0006898D02*
Y0005860D01*
X-0002890Y0006836D02*
Y0005860D01*
X-0001586Y0006860D02*
X-0002568D01*
X-0001661Y0007130D02*
X-0002471D01*
X0002060Y0008338D02*
Y0007983D01*
X0000231Y0008840D02*
X0000029D01*
X-0000010Y0009467D02*
Y0009152D01*
X-0000100Y0009373D02*
Y0009220D01*
X0000350Y0010150D02*
Y0009880D01*
X-0004828Y0006770D02*
X-0005121D01*
X0000274Y0009200D02*
X-0000065D01*
X0000209Y0009740D02*
X-0000005D01*
X-0000100Y0010150D02*
Y0009842D01*
X0000209Y0009110D02*
X0000021D01*
X0000186Y0009020D02*
X0000055D01*
X0000192Y0008930D02*
X0000057D01*
X0001190Y0007567D02*
Y0007505D01*
X-0001176Y0008750D02*
X-0001551D01*
X0000329Y0009380D02*
X-0000089D01*
X0001970Y0009875D02*
Y0009837D01*
X0001630Y0009740D02*
X0000720D01*
X0001589Y0009650D02*
X0000743D01*
X-0002710Y0006799D02*
Y0005860D01*
X-0002620Y0006826D02*
Y0005860D01*
X0001640Y0008930D02*
X0000737D01*
X0002690Y0010589D02*
Y0009445D01*
X0000710Y0010150D02*
Y0009760D01*
X0000620Y0010150D02*
Y0009858D01*
X0001790Y0011810D02*
X0000876D01*
X-0001039Y0009110D02*
X-0001430D01*
X0002440Y0008840D02*
X0002080D01*
X0001640Y0008750D02*
X0000600D01*
X0000620Y0009392D02*
Y0009228D01*
X0002780Y0010689D02*
Y0009271D01*
X-0000496Y0009470D02*
X-0000674D01*
X0001640Y0008840D02*
X0000698D01*
X0001581Y0009560D02*
X0000737D01*
X0000710Y0009490D02*
Y0009130D01*
X0001640Y0009200D02*
X0000655D01*
X0000530Y0009353D02*
Y0009267D01*
X-0001197Y0008840D02*
X-0001559D01*
X-0000190Y0009335D02*
Y0009245D01*
X-0000397Y0008750D02*
X-0000659D01*
X-0001900Y0001432D02*
Y0000988D01*
X-0001000Y0006379D02*
Y0001976D01*
X-0000280Y0009329D02*
Y0009240D01*
X-0001090Y0010150D02*
Y0009828D01*
X-0000640Y0010150D02*
Y0009644D01*
X-0000528Y0009560D02*
X-0000642D01*
X0000274Y0009830D02*
X-0000082D01*
X-0000370Y0009353D02*
Y0009203D01*
X0000186Y0009650D02*
X0000024D01*
X0000060Y0006380D02*
Y0006271D01*
X-0000010Y0010150D02*
Y0009748D01*
X-0000499Y0009740D02*
X-0000671D01*
X-0000529Y0009650D02*
X-0000641D01*
X-0000910Y0010150D02*
Y0009887D01*
X-0001164Y0009740D02*
X-0001430D01*
X0000440Y0008716D02*
Y0008561D01*
X-0000415Y0009380D02*
X-0000755D01*
X0000192Y0009560D02*
X0000023D01*
X-0000190Y0008688D02*
Y0008562D01*
Y0010150D02*
Y0009880D01*
X-0001080Y0009380D02*
X-0001430D01*
X-0000461Y0009110D02*
X-0000796D01*
X-0001000Y0010150D02*
Y0009875D01*
X-0000910Y0009328D02*
Y0009137D01*
X-0001000Y0009340D02*
Y0009125D01*
X-0001090Y0009387D02*
Y0009078D01*
X-0001180Y0009510D02*
Y0008955D01*
X-0000100Y0008714D02*
Y0008541D01*
X0000231Y0009470D02*
X-0000008D01*
X0004972Y0005150D02*
X0003240D01*
X-0000280Y0008693D02*
Y0008553D01*
X-0000730Y0009400D02*
Y0009065D01*
X0004748Y0012180D02*
X0004797Y0012095D01*
X0000878Y0007130D02*
X-0000599D01*
X-0000497Y0008930D02*
X-0000647D01*
X-0000910Y0008578D02*
Y0008562D01*
X-0001000Y0008590D02*
Y0008550D01*
X-0001090Y0008637D02*
Y0008503D01*
X-0001180Y0008760D02*
Y0008380D01*
X-0000370Y0008730D02*
Y0008510D01*
X-0000730Y0008650D02*
Y0008490D01*
X-0000406Y0008480D02*
X-0000719D01*
X-0000466Y0008390D02*
X-0000659D01*
X-0000487Y0008300D02*
X-0000638D01*
X0000236Y0008120D02*
X0000020D01*
X-0000422Y0009830D02*
X-0000747D01*
X-0001753Y0006680D02*
X-0001909D01*
X0000934Y0007040D02*
X-0000509D01*
X-0000469Y0008840D02*
X-0000638D01*
X-0000010Y0008782D02*
Y0008480D01*
X-0000460Y0009420D02*
Y0009111D01*
X0001392Y0000684D02*
X0001321Y0000663D01*
X-0000478Y0008210D02*
X-0000647D01*
X0000266Y0008480D02*
X-0000009D01*
X0000206Y0008390D02*
X0000051D01*
X0000185Y0008300D02*
X0000072D01*
X0000194Y0008210D02*
X0000063D01*
X-0000495Y0009020D02*
X-0000689D01*
X-0001146Y0008120D02*
X-0002611D01*
X0001640Y0009110D02*
X0000720D01*
X0000710Y0008860D02*
Y0008417D01*
X0000620Y0008762D02*
Y0008515D01*
X0000530Y0008723D02*
Y0008554D01*
X0001950Y0008209D02*
Y0007932D01*
X0001970Y0008229D02*
Y0007946D01*
X0001960Y0007940D02*
X0001950D01*
X0001599Y0008480D02*
X0000663D01*
X-0000375Y0009200D02*
X-0001430D01*
X0003825Y0008840D02*
X0002880D01*
X0004497Y0008115D02*
X0004010D01*
X0005345Y0006860D02*
X0003247D01*
X0004512Y0007940D02*
X0002880D01*
X0001640Y0008660D02*
X-0000719D01*
X-0001424Y0006084D02*
X-0001610Y0005899D01*
X0000323Y0004520D02*
X0000280D01*
X0003140Y0006513D02*
Y0005193D01*
X0005469Y0007940D02*
X0005027D01*
X0005048Y0005420D02*
X0002096D01*
X0002880Y0009080D02*
Y0007007D01*
X0000821Y0000555D02*
X0000673Y0000535D01*
X0003230Y0006606D02*
Y0005156D01*
X0003140Y0011621D02*
Y0006986D01*
X0005427Y0007488D02*
X0005380Y0007101D01*
X-0000840Y0007280D02*
X-0001217D01*
X0000890Y0007104D02*
Y0006748D01*
X0001970Y0007473D02*
Y0007314D01*
X0001430Y0009805D02*
Y0008019D01*
X0002907Y0004700D02*
X0000244D01*
X0001675Y0005780D02*
X0000320D01*
X-0000820Y0008020D02*
Y0007279D01*
X0000343Y0008030D02*
X-0000086D01*
X-0002900Y0007310D02*
X-0003858D01*
X0001190Y0006680D02*
X0001006D01*
X0002210Y0007309D02*
Y0006103D01*
X0000684Y0006230D02*
X0000333D01*
X0001586Y0005510D02*
X0000060D01*
X0001623Y0005420D02*
X0000060D01*
X0002286Y0005690D02*
X0002113D01*
X0005095Y0005600D02*
X0002138D01*
X0004639Y0004208D02*
X0004584Y0004082D01*
X-0002051Y0005870D02*
X-0003610D01*
X0002240Y0005724D02*
Y0005140D01*
X0001190Y0006954D02*
Y0006531D01*
X0002210Y0007040D02*
X0001978D01*
X-0000730Y0005870D02*
X-0001610D01*
X-0003147Y0008030D02*
X-0005264D01*
X-0003160Y0005420D02*
Y0004801D01*
X-0002394Y0006410D02*
X-0004023D01*
X-0001990Y0008296D02*
Y0006754D01*
X-0002080Y0008203D02*
Y0006789D01*
X-0002170Y0008166D02*
Y0006792D01*
X-0001039Y0008030D02*
X-0002632D01*
X-0003880Y0007066D02*
Y0005897D01*
X-0003177Y0007760D02*
X-0005242D01*
X-0003610Y0008187D02*
Y0005870D01*
X-0001647Y0006950D02*
X-0002496D01*
X-0002924Y0006860D02*
X-0004407D01*
X-0004342Y0007040D02*
X-0005161D01*
X-0002404Y0006590D02*
X-0004304D01*
X-0004857Y0006680D02*
X-0005106D01*
X-0004330Y0007025D02*
Y0006766D01*
X-0004388Y0007130D02*
X-0005173D01*
X-0002414Y0006500D02*
X-0004116D01*
X-0002080Y0009650D02*
X-0003585D01*
X0001790Y0006896D02*
Y0005841D01*
X-0004150Y0006931D02*
Y0006517D01*
X-0004240Y0006957D02*
Y0006539D01*
X-0002080Y0009380D02*
X-0003585D01*
X-0002620Y0010994D02*
Y0008214D01*
X-0003070Y0005420D02*
Y0004594D01*
X-0002080Y0010090D02*
Y0009351D01*
X-0004381Y0007310D02*
X-0005195D01*
X-0005050Y0008095D02*
Y0006355D01*
X0002210Y0006320D02*
X0001594D01*
X0000329Y0008750D02*
X-0000043D01*
X0000552Y0006590D02*
X-0000059D01*
X-0000898Y0004880D02*
X-0003220D01*
X0000620Y0005790D02*
Y0005140D01*
X0001214Y0007940D02*
X-0002694D01*
X0001152Y0007850D02*
X-0002652D01*
X0005371Y0007040D02*
X0002880D01*
X0002690Y0006068D02*
Y0006034D01*
X0001160Y0006951D02*
Y0006501D01*
X0002210Y0006950D02*
X0001903D01*
X0000530Y0010150D02*
Y0009897D01*
X-0002170Y0006236D02*
Y0005860D01*
X0001131Y0007760D02*
X-0002623D01*
X-0001360Y0009949D02*
Y0007338D01*
X0001880Y0006933D02*
Y0005849D01*
X0004491Y0008030D02*
X0002880D01*
X0001340Y0009790D02*
Y0008011D01*
X-0002800Y0007458D02*
Y0007351D01*
X0001790Y0005299D02*
Y0005140D01*
X-0003160Y0008705D02*
Y0008214D01*
X-0002080Y0009740D02*
X-0003585D01*
X0002370Y0011782D02*
Y0010891D01*
X-0004319Y0003962D02*
X-0004260Y0003840D01*
X-0000730Y0008074D02*
Y0007250D01*
X0001790Y0012440D02*
X0000047D01*
X-0002472Y0008300D02*
X-0002660D01*
X-0002800Y0010175D02*
Y0008405D01*
X-0002890Y0010107D02*
Y0008420D01*
X-0002506Y0009110D02*
X-0003197D01*
X-0001197Y0008300D02*
X-0001987D01*
X-0003880Y0008095D02*
Y0007354D01*
X-0002350Y0006335D02*
Y0005860D01*
X-0000436Y0008120D02*
X-0000689D01*
X-0001116Y0008480D02*
X-0001953D01*
X-0003070Y0010086D02*
Y0008354D01*
X-0000820Y0011280D02*
Y0010780D01*
X-0002710Y0010890D02*
Y0008354D01*
X-0002530Y0010976D02*
Y0009083D01*
X-0002440Y0008662D02*
Y0008625D01*
X-0000730Y0005150D02*
Y0005018D01*
X0003680Y0003810D02*
Y0002537D01*
X-0001450Y0006786D02*
Y0006708D01*
X-0003016Y0008390D02*
X-0003585D01*
X0000471Y0012080D02*
X0000175D01*
X0000170Y0012615D02*
Y0012315D01*
X-0000100Y0011432D02*
Y0010780D01*
X0000492Y0012170D02*
X0000198D01*
X0001790Y0011720D02*
X0000198D01*
X0004495Y0011270D02*
X0002810D01*
X0001790Y0012620D02*
X0000172D01*
X0000620Y0011812D02*
Y0011126D01*
X-0003106Y0011270D02*
X-0003213D01*
X-0003160Y0011280D02*
Y0011010D01*
X-0004420Y0008095D02*
Y0006870D01*
X0000090Y0011000D02*
X-0001447D01*
X0000155Y0010820D02*
X-0001437D01*
X-0003173Y0011000D02*
X-0003197D01*
X-0003340Y0010862D02*
Y0010427D01*
X-0003248Y0010910D02*
X-0003265D01*
X-0002980Y0010081D02*
Y0008405D01*
X-0001088Y0009830D02*
X-0001430D01*
X-0003585Y0009959D02*
Y0009069D01*
X-0001943Y0010820D02*
X-0002723D01*
X-0002567Y0009020D02*
X-0003122D01*
X-0003160Y0009977D02*
Y0009075D01*
X-0003250Y0009902D02*
Y0009143D01*
X-0003340Y0009873D02*
Y0009168D01*
X-0004240Y0008095D02*
Y0007463D01*
X-0000640Y0008821D02*
Y0008318D01*
X-0002800Y0006801D02*
Y0005860D01*
X-0003340Y0008611D02*
Y0005860D01*
X-0001810Y0008491D02*
Y0006620D01*
X-0001991Y0006140D02*
X-0004007D01*
X-0002170Y0005420D02*
Y0001906D01*
X-0003060Y0007490D02*
X-0005217D01*
X-0002080Y0006239D02*
Y0005860D01*
X-0001900Y0006361D02*
Y0006231D01*
X0003344Y0002090D02*
X-0003133D01*
X0003140Y0004646D02*
Y0001849D01*
X0002870Y0004700D02*
Y0001566D01*
X0000614Y0001640D02*
X-0000888D01*
X-0004143Y0004970D02*
X-0004707D01*
X-0001356Y0001550D02*
X-0001743D01*
X0001790Y0011540D02*
X0000140D01*
X0003552Y0002360D02*
X-0003341D01*
X-0001113Y0000664D02*
X-0001041Y0000644D01*
X-0001411Y0001640D02*
X-0001706D01*
X0003050Y0004641D02*
Y0001750D01*
X-0001430Y0001730D02*
X-0001701D01*
X0000323Y0003530D02*
X0000237D01*
X0000980Y0003242D02*
Y0001534D01*
X0000890Y0003242D02*
Y0001626D01*
X0000800Y0003242D02*
Y0001663D01*
X0000710Y0003242D02*
Y0001668D01*
X0002855Y0011810D02*
X0002810D01*
X0002840Y0011900D02*
X0002810D01*
X0003320Y0013022D02*
Y0012096D01*
X0003230Y0012959D02*
Y0012157D01*
X0003140Y0012928D02*
Y0012179D01*
X0003050Y0012919D02*
Y0012171D01*
X0004805Y0012080D02*
X0003334D01*
X0004900Y0011900D02*
X0003400D01*
X0000752Y0013880D02*
X0000198D01*
X0000530Y0011887D02*
Y0011230D01*
X0000980Y0013466D02*
Y0012220D01*
X-0002540Y0008750D02*
X-0003127D01*
X0001790Y0012350D02*
X0000149D01*
X0000380Y0014024D02*
X0000170D01*
X0001790Y0011630D02*
X0000186D01*
X0001790Y0012260D02*
X0000946D01*
X0001790Y0012170D02*
X0001007D01*
X0000980Y0011900D02*
Y0010780D01*
X0000710Y0014013D02*
Y0012337D01*
X0002370Y0010910D02*
X0002230D01*
X0002905Y0012080D02*
X0002810D01*
X0001790Y0011270D02*
X0000444D01*
X0001700Y0013318D02*
Y0010881D01*
X0001790Y0011990D02*
X0001021D01*
X0002370Y0011000D02*
X0002230D01*
X0002370Y0012350D02*
X0002230D01*
X0003046Y0012170D02*
X0002810D01*
X0002370Y0012620D02*
X0002230D01*
X0002960Y0006107D02*
Y0005173D01*
X0004670Y0012305D02*
Y0011340D01*
X0002905Y0011720D02*
X0002810D01*
X0002240Y0013207D02*
Y0012310D01*
X0001430Y0013353D02*
Y0011141D01*
X0001160Y0009855D02*
Y0007866D01*
X0001729Y0010910D02*
X0001624D01*
X0001070Y0013441D02*
Y0010919D01*
X0001610Y0013307D02*
Y0010968D01*
X0001520Y0013318D02*
Y0011093D01*
X0000890Y0013520D02*
Y0012302D01*
X0001069Y0010910D02*
X0000635D01*
X0001250Y0013457D02*
Y0011136D01*
X0002855Y0011990D02*
X0002810D01*
X-0002986Y0007220D02*
X-0003840D01*
X0001331Y0013430D02*
X0000166D01*
X0004406Y0011000D02*
X0002810D01*
X0000554Y0012260D02*
X0000190D01*
X-0001953Y0011000D02*
X-0002037D01*
X-0001885Y0010910D02*
X-0002105D01*
X-0001930Y0011280D02*
X-0002060D01*
X-0000150D02*
X-0001470D01*
X0000296Y0011270D02*
X-0001463D01*
X0000105Y0011090D02*
X-0001421D01*
X-0001090Y0011280D02*
Y0010780D01*
X-0001270Y0011280D02*
Y0010780D01*
X-0000149Y0011439D02*
X-0000150Y0011280D01*
X0000105Y0010910D02*
X-0001505D01*
X0001790Y0011450D02*
X0000019D01*
X-0000280Y0011280D02*
Y0010780D01*
X-0001936Y0011270D02*
X-0002053D01*
X-0001360Y0011280D02*
Y0010780D01*
X0002370Y0011540D02*
X0002230D01*
X0000197Y0010780D02*
X-0001390D01*
X-0001430Y0009879D02*
Y0009080D01*
X0002230Y0013203D02*
Y0012310D01*
X0000080Y0011482D02*
Y0010780D01*
X0001970Y0007026D02*
Y0005827D01*
X0001790Y0011090D02*
X0001524D01*
X0000260Y0010150D02*
Y0009816D01*
X0000710Y0011783D02*
Y0010780D01*
X0001790Y0012080D02*
X0001029D01*
X0000646Y0014016D02*
X0000799Y0014009D01*
X-0003430Y0005420D02*
Y0005040D01*
X-0000761Y0006230D02*
X-0001360D01*
X0002060Y0010150D02*
Y0009776D01*
X-0001674Y0005624D02*
X-0001814Y0005485D01*
X0000530Y0014019D02*
Y0012233D01*
X0000520Y0011900D02*
X0000125D01*
X0001070Y0010828D02*
Y0010780D01*
X-0002890Y0007440D02*
Y0007316D01*
X0002370Y0012710D02*
X0002230D01*
X0002370Y0012800D02*
X0002230D01*
X0001790Y0011900D02*
X0000980D01*
X0000890Y0011817D02*
Y0010780D01*
X0001082D02*
X0000543D01*
X0001790Y0011000D02*
X0001596D01*
X0001096D02*
X0000650D01*
X0000323Y0003710D02*
X0000280D01*
X-0000460Y0003990D02*
Y0003878D01*
X0000375Y0000508D02*
X0000223Y0000501D01*
X-0000640Y0003990D02*
Y0003878D01*
X0004743Y0004464D02*
X0004692Y0004334D01*
X-0000370Y0003242D02*
Y0000525D01*
X0000323Y0003620D02*
X0000276D01*
X-0000160Y0003878D02*
X-0000838D01*
X0000323Y0003800D02*
X0000280D01*
X0000215Y0003504D02*
X0000116Y0003405D01*
X0003547Y0004970D02*
X0003355D01*
X0004257Y0003440D02*
X0001077D01*
X0004287Y0003490D02*
X0004154Y0003261D01*
X0004220Y0003802D02*
Y0003375D01*
X0000710Y0004700D02*
Y0004626D01*
X0000620Y0003242D02*
Y0001643D01*
X0001070Y0003990D02*
Y0003878D01*
X0000980Y0003990D02*
Y0003878D01*
X0000890Y0003990D02*
Y0003878D01*
X0000800Y0003990D02*
Y0003878D01*
X0000710Y0003990D02*
Y0003878D01*
X0000530Y0005790D02*
Y0005140D01*
Y0003990D02*
Y0003878D01*
X0000620Y0003990D02*
Y0003878D01*
X0003304Y0004610D02*
X0001077D01*
X0003286Y0004520D02*
X0001077D01*
X0003280Y0004430D02*
X0001077D01*
X0003286Y0004340D02*
X0001077D01*
X0003304Y0004250D02*
X0001077D01*
X0003046Y0011630D02*
X0002810D01*
X-0003169Y0008120D02*
X-0003677D01*
X-0002248Y0006770D02*
X-0004332D01*
X0002210Y0006410D02*
X0001628D01*
X-0001180Y0010129D02*
Y0009705D01*
X-0003530Y0008660D02*
X-0003585D01*
X0001970Y0005312D02*
Y0005140D01*
X-0000755Y0000580D02*
X-0000610Y0000555D01*
X0001190Y0006860D02*
X-0000329D01*
X0000440Y0005790D02*
Y0005140D01*
X0003825Y0008750D02*
X0002880D01*
X0005465Y0007884D02*
X0005427Y0007488D01*
X0005390Y0008115D02*
Y0007180D01*
X-0001900Y0005431D02*
Y0001968D01*
X-0005271Y0008140D02*
X-0005254Y0007884D01*
X0000461Y0001370D02*
X-0002443D01*
X-0003340Y0005420D02*
Y0004987D01*
X-0004240Y0005981D02*
Y0004880D01*
X-0003520Y0005420D02*
Y0005077D01*
X-0003970Y0006973D02*
Y0005836D01*
X-0004060Y0006936D02*
Y0006456D01*
X-0000730Y0006050D02*
X-0001459D01*
X-0004753Y0006860D02*
X-0005134D01*
X-0003790Y0005361D02*
Y0005107D01*
X-0004060Y0006064D02*
Y0005024D01*
X0001607Y0005690D02*
X0000060D01*
X-0000892Y0004610D02*
X-0003074D01*
X-0003070Y0007497D02*
Y0005860D01*
X0002960Y0011670D02*
Y0007028D01*
X-0000823Y0004970D02*
X-0003317D01*
X-0000370Y0004699D02*
Y0004626D01*
X-0000927Y0004790D02*
X-0003153D01*
X-0000838Y0004430D02*
X-0003050D01*
X-0001323Y0006770D02*
X-0002021D01*
X0000323Y0003440D02*
X0000151D01*
X-0000838Y0004160D02*
X-0003106D01*
X-0000838Y0003530D02*
X-0004097D01*
X0002210Y0006140D02*
X0001421D01*
X0002907Y0005140D02*
X0000241D01*
X0001070Y0005809D02*
Y0005140D01*
X0000350Y0005790D02*
Y0005140D01*
X0002150Y0007369D02*
Y0005140D01*
X0000890Y0005790D02*
Y0005140D01*
X0000684Y0006230D02*
X0000333D01*
X0000260Y0004700D02*
Y0004671D01*
X0000800Y0005790D02*
Y0005140D01*
X0001160Y0007614D02*
Y0007509D01*
Y0005879D02*
Y0005140D01*
X0001520Y0006239D02*
Y0005140D01*
X0000350Y0008027D02*
Y0006230D01*
X0000620Y0004700D02*
Y0004626D01*
X0000260Y0005748D02*
Y0005140D01*
X0001250Y0005969D02*
Y0005140D01*
X0002087Y0007432D02*
X0002210Y0007309D01*
X0001880Y0005291D02*
Y0005140D01*
X0001190Y0006590D02*
X0001067D01*
X0001180Y0007580D02*
X-0002657D01*
X0002150Y0010150D02*
Y0007988D01*
X0002440Y0007940D02*
X0002280D01*
X0001066Y0010010D02*
X-0001299D01*
X0002440Y0007850D02*
X0002362D01*
X0001196Y0009830D02*
X0000655D01*
X0000260Y0009434D02*
Y0009186D01*
X0002440Y0008750D02*
X0002080D01*
X0003825Y0008480D02*
X0002880D01*
X0002210Y0006770D02*
X0001630D01*
X0000980Y0007000D02*
Y0006702D01*
X0002440Y0008930D02*
X0002080D01*
X0001070Y0006959D02*
Y0006584D01*
X0001565Y0006284D02*
X0001136Y0005855D01*
X0000170Y0010150D02*
Y0006290D01*
X0000620Y0006274D02*
Y0006230D01*
X0000800Y0010150D02*
Y0006760D01*
X0002151Y0005960D02*
X0001241D01*
X0000260Y0008091D02*
Y0006271D01*
X0002193Y0005780D02*
X0002045D01*
X-0001516Y0007310D02*
X-0002592D01*
X0001610Y0009454D02*
Y0008491D01*
X0002015Y0008274D02*
X0001950Y0008209D01*
X0002870Y0006062D02*
Y0005140D01*
X0001529Y0008390D02*
X0000723D01*
X0000531Y0006500D02*
X0000024D01*
X-0000684Y0007215D02*
X-0000004Y0006535D01*
X0000380Y0014024D02*
X0000648Y0014016D01*
X0002299Y0010820D02*
X0002221D01*
X0002330Y0005668D02*
Y0005140D01*
X0003825Y0010370D02*
X0002471D01*
X-0001620Y0007220D02*
X-0002506D01*
X0003410Y0013150D02*
Y0004830D01*
X-0002568Y0011090D02*
X-0002591D01*
X0004169Y0012915D02*
X0004235Y0012850D01*
X0003825Y0010010D02*
X0002035D01*
X0002370Y0011450D02*
X0002230D01*
X0002370Y0011360D02*
X0002230D01*
X0000155Y0011180D02*
X-0001426D01*
X0002370Y0012530D02*
X0002230D01*
X0002370Y0013070D02*
X0002230D01*
Y0011750D02*
Y0010880D01*
X0002745Y0010644D02*
X0002316Y0010215D01*
X-0000010Y0011440D02*
Y0010780D01*
X0001072Y0010150D02*
X-0001159D01*
X0002150Y0010709D02*
Y0010671D01*
X0001790Y0011180D02*
X0000584D01*
X-0002350Y0008187D02*
Y0006692D01*
X-0001188Y0008930D02*
X-0001489D01*
X0001160Y0013438D02*
Y0011082D01*
X0000260Y0014024D02*
Y0011257D01*
X0000170Y0013778D02*
Y0013422D01*
X0000779Y0013970D02*
X0000190D01*
X-0000838Y0004070D02*
X-0003153D01*
X0000138Y0000269D02*
X0000072D01*
X0000231Y0000271D01*
X0000389Y0000278D01*
X0000546Y0000290D01*
X0000701Y0000307D01*
X0000856Y0000328D01*
X0001009Y0000354D01*
X0001160Y0000386D01*
X0001235Y0000403D01*
X0001310Y0000422D01*
X0001384Y0000442D01*
X0001457Y0000464D01*
X0001530Y0000486D01*
X0001603Y0000510D01*
X0001675Y0000536D01*
X0001746Y0000563D01*
X0001816Y0000591D01*
X0001886Y0000620D01*
X0001955Y0000651D01*
X0002024Y0000683D01*
X0002092Y0000717D01*
X0002159Y0000752D01*
X0002225Y0000788D01*
X0002291Y0000826D01*
X0002355Y0000866D01*
X0002419Y0000906D01*
X0002482Y0000948D01*
X0002544Y0000992D01*
X0002606Y0001037D01*
X0002666Y0001083D01*
X0002726Y0001130D01*
X0002785Y0001179D01*
X0002900Y0001279D01*
X0003012Y0001384D01*
X0003121Y0001492D01*
X0003227Y0001603D01*
X0003330Y0001717D01*
X0003430Y0001833D01*
X0003527Y0001951D01*
X0003622Y0002070D01*
X0003713Y0002191D01*
X0003888Y0002432D01*
X0004052Y0002673D01*
X0004207Y0002909D01*
X0004352Y0003143D01*
X0004488Y0003378D01*
X0004616Y0003617D01*
X0004677Y0003739D01*
X0004737Y0003862D01*
X0004794Y0003988D01*
X0004850Y0004117D01*
X0004905Y0004248D01*
X0004958Y0004383D01*
X0005060Y0004665D01*
X0005158Y0004964D01*
X0005250Y0005279D01*
X0005335Y0005611D01*
X0005415Y0005956D01*
X0005487Y0006316D01*
X0005552Y0006687D01*
X0005608Y0007070D01*
X0005656Y0007464D01*
X0005694Y0007866D01*
X0005721Y0008275D01*
X0005735Y0008689D01*
X0005736Y0008898D01*
X0005734Y0009107D01*
X0005727Y0009316D01*
X0005715Y0009525D01*
X0005699Y0009734D01*
X0005678Y0009943D01*
X0005651Y0010150D01*
X0005619Y0010357D01*
X0005582Y0010563D01*
X0005538Y0010767D01*
X0005488Y0010969D01*
X0005432Y0011169D01*
X0005401Y0011268D01*
X0005369Y0011366D01*
X0005335Y0011464D01*
X0005299Y0011560D01*
X0005261Y0011656D01*
X0005222Y0011751D01*
X0005181Y0011844D01*
X0005138Y0011937D01*
X0005093Y0012028D01*
X0005046Y0012118D01*
X0004998Y0012207D01*
X0004947Y0012295D01*
X0004895Y0012381D01*
X0004840Y0012465D01*
X0004783Y0012549D01*
X0004725Y0012630D01*
X0004664Y0012710D01*
X0004601Y0012788D01*
X0004536Y0012864D01*
X0004469Y0012939D01*
X0004400Y0013011D01*
X0004328Y0013082D01*
X0004254Y0013151D01*
X0004178Y0013217D01*
X0004100Y0013281D01*
X0004019Y0013344D01*
X0003936Y0013403D01*
X0003851Y0013461D01*
X0003763Y0013516D01*
X0003673Y0013569D01*
X0003581Y0013620D01*
X0003486Y0013668D01*
X0003389Y0013714D01*
X0003290Y0013758D01*
X0003189Y0013799D01*
X0003086Y0013839D01*
X0002981Y0013876D01*
X0002873Y0013912D01*
X0002764Y0013945D01*
X0002653Y0013977D01*
X0002540Y0014006D01*
X0002426Y0014034D01*
X0002309Y0014060D01*
X0002191Y0014084D01*
X0001950Y0014127D01*
X0001702Y0014163D01*
X0001449Y0014193D01*
X0001190Y0014216D01*
X0000925Y0014234D01*
X0000656Y0014246D01*
X0000383Y0014254D01*
X-0000172D01*
X-0000446Y0014246D01*
X-0000715Y0014234D01*
X-0000979Y0014216D01*
X-0001238Y0014193D01*
X-0001491Y0014163D01*
X-0001739Y0014127D01*
X-0001980Y0014084D01*
X-0002098Y0014060D01*
X-0002215Y0014034D01*
X-0002330Y0014006D01*
X-0002442Y0013977D01*
X-0002554Y0013945D01*
X-0002663Y0013912D01*
X-0002770Y0013876D01*
X-0002875Y0013839D01*
X-0002978Y0013799D01*
X-0003080Y0013758D01*
X-0003179Y0013714D01*
X-0003275Y0013668D01*
X-0003370Y0013620D01*
X-0003463Y0013569D01*
X-0003553Y0013516D01*
X-0003640Y0013461D01*
X-0003726Y0013403D01*
X-0003809Y0013344D01*
X-0003889Y0013281D01*
X-0003968Y0013217D01*
X-0004044Y0013151D01*
X-0004117Y0013082D01*
X-0004189Y0013011D01*
X-0004258Y0012939D01*
X-0004325Y0012864D01*
X-0004390Y0012788D01*
X-0004453Y0012710D01*
X-0004514Y0012630D01*
X-0004573Y0012549D01*
X-0004629Y0012465D01*
X-0004684Y0012381D01*
X-0004736Y0012295D01*
X-0004787Y0012207D01*
X-0004836Y0012118D01*
X-0004882Y0012028D01*
X-0004927Y0011937D01*
X-0004970Y0011844D01*
X-0005011Y0011751D01*
X-0005051Y0011656D01*
X-0005088Y0011560D01*
X-0005124Y0011464D01*
X-0005158Y0011366D01*
X-0005190Y0011268D01*
X-0005221Y0011169D01*
X-0005277Y0010969D01*
X-0005327Y0010767D01*
X-0005371Y0010563D01*
X-0005408Y0010357D01*
X-0005440Y0010150D01*
X-0005467Y0009943D01*
X-0005488Y0009734D01*
X-0005504Y0009525D01*
X-0005516Y0009316D01*
X-0005523Y0009107D01*
X-0005526Y0008898D01*
X-0005524Y0008689D01*
X-0005510Y0008275D01*
X-0005484Y0007866D01*
X-0005445Y0007464D01*
X-0005398Y0007070D01*
X-0005341Y0006687D01*
X-0005276Y0006316D01*
X-0005204Y0005956D01*
X-0005125Y0005611D01*
X-0005039Y0005279D01*
X-0004947Y0004964D01*
X-0004850Y0004665D01*
X-0004747Y0004383D01*
X-0004694Y0004248D01*
X-0004640Y0004117D01*
X-0004584Y0003988D01*
X-0004526Y0003862D01*
X-0004466Y0003739D01*
X-0004405Y0003617D01*
X-0004277Y0003378D01*
X-0004141Y0003143D01*
X-0003996Y0002909D01*
X-0003841Y0002673D01*
X-0003677Y0002432D01*
X-0003502Y0002191D01*
X-0003411Y0002070D01*
X-0003317Y0001951D01*
X-0003220Y0001833D01*
X-0003120Y0001717D01*
X-0003017Y0001603D01*
X-0002911Y0001492D01*
X-0002802Y0001384D01*
X-0002689Y0001279D01*
X-0002574Y0001179D01*
X-0002515Y0001130D01*
X-0002456Y0001083D01*
X-0002395Y0001037D01*
X-0002334Y0000992D01*
X-0002271Y0000948D01*
X-0002208Y0000906D01*
X-0002145Y0000866D01*
X-0002080Y0000826D01*
X-0002014Y0000788D01*
X-0001948Y0000752D01*
X-0001881Y0000717D01*
X-0001813Y0000683D01*
X-0001745Y0000651D01*
X-0001675Y0000620D01*
X-0001605Y0000591D01*
X-0001535Y0000563D01*
X-0001464Y0000536D01*
X-0001392Y0000510D01*
X-0001320Y0000486D01*
X-0001247Y0000464D01*
X-0001173Y0000442D01*
X-0001099Y0000422D01*
X-0001025Y0000403D01*
X-0000950Y0000386D01*
X-0000798Y0000354D01*
X-0000645Y0000328D01*
X-0000491Y0000307D01*
X-0000335Y0000290D01*
X-0000178Y0000278D01*
X-0000020Y0000271D01*
X0000138Y0000269D01*
G01X-0001985Y0006145D02*
G03X-0002049Y0005990I0000155J0000155D01*
G01X-0001674Y0005624D02*
G03X-0001609Y0005780I0000156J0000156D01*
G01X-0001350Y0006650D02*
G03X-0001348Y0006617I0000280J0000000D01*
G01X-0001390Y0006780D02*
G03X-0001312Y0006791I0000000J0000280D01*
G01X-0001424Y0006084D02*
G03X-0001359Y0006240I0000156J0000156D01*
G01X-0001302Y0006493D02*
G03X-0001070Y0006370I0000232J0000157D01*
G01X-0001580Y0006740D02*
G03X-0001854Y0006516I0000000J0000280D01*
G01X-0002590Y0008910D02*
G03X-0002415Y0008650I0000280J0000000D01*
G01X-0001830Y0008490D02*
G03X-0001550Y0008770I0000000J0000280D01*
G01X-0001348Y0006617D02*
G03X-0001580Y0006740I0000232J0000157D01*
G01X-0001494Y0008924D02*
G03X-0001429Y0009080I0000156J0000156D01*
G01X0002160Y0010150D02*
G03X0002315Y0010214I0000000J0000220D01*
G01X0002907Y0004700D02*
G03X0003080Y0004640I0000173J0000220D01*
G01X0002040Y0010060D02*
G03X0002025Y0010150I0000280J0000000D01*
G01X0002745Y0010644D02*
G03X0002810Y0010800I0000155J0000156D01*
G01X0000199Y0011711D02*
G03X0000063Y0011951I0000280J0000000D01*
G01X0002165Y0010724D02*
G03X0002230Y0010880I0000155J0000156D01*
G01X-0000022Y0012465D02*
G03X0000199Y0012739I0000059J0000274D01*
G01X-0001970Y0005420D02*
G03X-0001814Y0005484I0000000J0000220D01*
G01X-0002015Y0010245D02*
G03X-0002079Y0010090I0000155J0000155D01*
G01X-0002015Y0010245D02*
G03X-0002079Y0010090I0000155J0000155D01*
G01X-0001963Y0008523D02*
G03X-0001830Y0008489I0000133J0000247D01*
G01X-0002310Y0009190D02*
G03X-0002590Y0008910I0000000J0000280D01*
G01X-0000081Y0013621D02*
G03X0000199Y0013901I0000000J0000280D01*
G01X-0000134Y0013626D02*
G03X-0000081Y0013621I0000053J0000275D01*
Y0013019D02*
G03X0000199Y0013299I0000000J0000280D01*
G03X-0000081Y0013579I0000280J0000000D01*
G01X-0000138Y0013024D02*
G03X-0000081Y0013018I0000057J0000275D01*
G01X0000199Y0012739D02*
G03X-0000081Y0013019I0000280J0000000D01*
Y0013579D02*
G03X-0000134Y0013573I0000000J0000280D01*
G01X-0003790Y0011120D02*
G03X-0003840Y0011280I0000280J0000000D01*
G01X-0003370Y0009170D02*
G03X-0003585Y0009069I0000000J0000280D01*
G01X-0003730Y0011120D02*
G03X-0003450Y0010840I0000280J0000000D01*
G03X-0003170Y0011120I0000000J0000280D01*
G03X-0003220Y0011280I0000280J0000000D01*
G01X-0003680D02*
G03X-0003730Y0011120I0000230J0000160D01*
G01X-0002590D02*
G03X-0002640Y0011280I0000280J0000000D01*
G01X0004960Y0011060D02*
G03X0004680Y0011340I0000280J0000000D01*
G03X0004400Y0011060I0000000J0000280D01*
G03X0004413Y0010975I0000280J0000000D01*
G01X-0001985Y0006145D02*
G03X-0002049Y0005990I0000155J0000155D01*
G01X-0004400Y0007210D02*
G03X-0004120Y0006930I0000280J0000000D01*
G03X-0003840Y0007210I0000000J0000280D01*
G03X-0004120Y0007490I0000280J0000000D01*
G03X-0004400Y0007210I0000000J0000280D01*
G01X-0000500Y0008967D02*
G03X-0000220Y0008687I0000280J0000000D01*
G03X0000060Y0008967I0000000J0000280D01*
G03X-0000220Y0009247I0000280J0000000D01*
G03X-0000500Y0008967I0000000J0000280D01*
G01X0000185Y0009625D02*
G03X0000465Y0009345I0000280J0000000D01*
G03X0000745Y0009625I0000000J0000280D01*
G03X0000465Y0009905I0000280J0000000D01*
G03X0000185Y0009625I0000000J0000280D01*
Y0008995D02*
G03X0000465Y0008715I0000280J0000000D01*
G03X0000745Y0008995I0000000J0000280D01*
G03X0000465Y0009275I0000280J0000000D01*
G03X0000185Y0008995I0000000J0000280D01*
G01X-0000532Y0009608D02*
G03X-0000252Y0009328I0000280J0000000D01*
G03X0000028Y0009608I0000000J0000280D01*
G03X-0000252Y0009888I0000280J0000000D01*
G03X-0000532Y0009608I0000000J0000280D01*
G01X-0001198D02*
G03X-0000918Y0009328I0000280J0000000D01*
G03X-0000638Y0009608I0000000J0000280D01*
G03X-0000918Y0009888I0000280J0000000D01*
G03X-0001198Y0009608I0000000J0000280D01*
Y0008858D02*
G03X-0000918Y0008578I0000280J0000000D01*
G03X-0000638Y0008858I0000000J0000280D01*
G03X-0000918Y0009138I0000280J0000000D01*
G03X-0001198Y0008858I0000000J0000280D01*
Y0008282D02*
G03X-0000918Y0008002I0000280J0000000D01*
G03X-0000638Y0008282I0000000J0000280D01*
G03X-0000918Y0008562I0000280J0000000D01*
G03X-0001198Y0008282I0000000J0000280D01*
G01X-0000488D02*
G03X-0000208Y0008002I0000280J0000000D01*
G03X0000072Y0008282I0000000J0000280D01*
G03X-0000208Y0008562I0000280J0000000D01*
G03X-0000488Y0008282I0000000J0000280D01*
G01X0000185D02*
G03X0000465Y0008002I0000280J0000000D01*
G03X0000745Y0008282I0000000J0000280D01*
G03X0000465Y0008562I0000280J0000000D01*
G03X0000185Y0008282I0000000J0000280D01*
G01X0004490Y0008050D02*
G03X0004770Y0007770I0000280J0000000D01*
G03X0005050Y0008050I0000000J0000280D01*
G01X0003270Y0006750D02*
G03X0002990Y0007030I0000280J0000000D01*
G01X0000160Y0005730D02*
G03X0000333Y0005790I0000000J0000280D01*
Y0006230D02*
G03X0000160Y0006290I0000173J0000220D01*
G01X0001090Y0006480D02*
G03X0000810Y0006760I0000280J0000000D01*
G03X0000530Y0006480I0000000J0000280D01*
G01X0001580Y0005570D02*
G03X0001860Y0005290I0000280J0000000D01*
G03X0002140Y0005570I0000000J0000280D01*
G03X0001860Y0005850I0000280J0000000D01*
G03X0001580Y0005570I0000000J0000280D01*
G01X-0002414Y0006514D02*
G03X-0002134Y0006234I0000280J0000000D01*
Y0006794D02*
G03X-0002414Y0006514I0000000J0000280D01*
G01X-0004860Y0006640D02*
G03X-0004580Y0006360I0000280J0000000D01*
G01X-0004300Y0006640D02*
G03X-0004580Y0006920I0000280J0000000D01*
G03X-0004860Y0006640I0000000J0000280D01*
G01X-0004540Y0006260D02*
G03X-0004260Y0005980I0000280J0000000D01*
G03X-0003980Y0006260I0000000J0000280D01*
G03X-0004260Y0006540I0000280J0000000D01*
G01X-0003026Y0007076D02*
G03X-0002746Y0006796I0000280J0000000D01*
G03X-0002466Y0007076I0000000J0000280D01*
G03X-0002746Y0007356I0000280J0000000D01*
G03X-0003026Y0007076I0000000J0000280D01*
G01X0000860Y0007230D02*
G03X0001140Y0006950I0000280J0000000D01*
G01X0001630Y0006908D02*
G03X0001730Y0006890I0000100J0000262D01*
G01X0001140Y0007510D02*
G03X0000860Y0007230I0000000J0000280D01*
G01X-0003180Y0007720D02*
G03X-0002900Y0007440I0000280J0000000D01*
G03X-0002620Y0007720I0000000J0000280D01*
G01X-0002710Y0007925D02*
G03X-0002610Y0008140I0000180J0000215D01*
G03X-0002890Y0008420I0000280J0000000D01*
G03X-0003170Y0008140I0000000J0000280D01*
G01X-0002510Y0008440D02*
G03X-0002230Y0008160I0000280J0000000D01*
G03X-0001950Y0008440I0000000J0000280D01*
G01X0001545Y0009880D02*
G03X0001677Y0009792I0000215J0000180D01*
G01X-0003100Y0011280D02*
G03X-0003150Y0011120I0000230J0000160D01*
G01X-0000081Y0011431D02*
G03X0000199Y0011711I0000000J0000280D01*
G01X-0003010Y0010080D02*
G03X-0002730Y0010360I0000000J0000280D01*
G01X-0003150Y0011120D02*
G03X-0003134Y0011026I0000280J0000000D01*
G01X-0001510Y0010914D02*
G03X-0001420Y0011120I0000190J0000206D01*
G01X-0003280Y0010780D02*
G03X-0003190Y0010574I0000280J0000000D01*
G01X-0002820Y0010565D02*
G03X-0002720Y0010780I0000180J0000215D01*
G01X-0003585Y0009959D02*
G03X-0003380Y0009870I0000205J0000191D01*
G01X-0003370Y0008610D02*
G03X-0003090Y0008890I0000000J0000280D01*
G03X-0003370Y0009170I0000280J0000000D01*
G01X-0002260Y0001700D02*
G03X-0001980Y0001420I0000280J0000000D01*
G03X-0001700Y0001700I0000000J0000280D01*
G03X-0001980Y0001980I0000280J0000000D01*
G03X-0002260Y0001700I0000000J0000280D01*
G01X-0001430Y0001740D02*
G03X-0001150Y0001460I0000280J0000000D01*
G03X-0000870Y0001740I0000000J0000280D01*
G03X-0001150Y0002020I0000280J0000000D01*
G03X-0001430Y0001740I0000000J0000280D01*
G01X0000460Y0001390D02*
G03X0000740Y0001110I0000280J0000000D01*
G03X0001020Y0001390I0000000J0000280D01*
G03X0000740Y0001670I0000280J0000000D01*
G03X0000460Y0001390I0000000J0000280D01*
G01X0002840Y0011900D02*
G03X0003120Y0011620I0000280J0000000D01*
G03X0003400Y0011900I0000000J0000280D01*
G03X0003120Y0012180I0000280J0000000D01*
G03X0002840Y0011900I0000000J0000280D01*
G01X0000470Y0012060D02*
G03X0000750Y0011780I0000280J0000000D01*
G03X0001030Y0012060I0000000J0000280D01*
G03X0000750Y0012340I0000280J0000000D01*
G03X0000470Y0012060I0000000J0000280D01*
G01X0001626Y0010874D02*
G03X0001346Y0011154I0000280J0000000D01*
G03X0001066Y0010874I0000000J0000280D01*
G01X-0002570Y0011120D02*
G03X-0002290Y0010840I0000280J0000000D01*
G03X-0002010Y0011120I0000000J0000280D01*
G03X-0002060Y0011280I0000280J0000000D01*
G01X-0001390Y0010780D02*
G03X-0001421Y0010778I0000000J0000220D01*
G01X-0002520Y0011280D02*
G03X-0002570Y0011120I0000230J0000160D01*
G01X-0001420D02*
G03X-0001470Y0011280I0000280J0000000D01*
G01X0001060Y0010070D02*
G03X0001340Y0009790I0000280J0000000D01*
G01X0002140Y0009580D02*
G03X0001942Y0009847I0000280J0000000D01*
G01X0000650Y0011000D02*
G03X0000370Y0011280I0000280J0000000D01*
G03X0000090Y0011000I0000000J0000280D01*
G01X0000060Y0006380D02*
G03X-0000004Y0006535I0000220J0000000D01*
G01X0000747Y0013817D02*
G03X0001128Y0013436I0000381J0000000D01*
Y0013437D02*
G03X0001295Y0013475I0000000J0000380D01*
G01X0001611Y0013307D02*
G03X0001778Y0013346I0000000J0000381D01*
G01X0002240Y0011750D02*
G03X0002370Y0011782I0000000J0000280D01*
G01X0003060Y0012919D02*
G03X0003441Y0013300I0000000J0000381D01*
G01X-0004410Y0004430D02*
G03X-0003730Y0003750I0000680J0000000D01*
G03X-0003050Y0004430I0000000J0000680D01*
G03X-0003730Y0005110I0000680J0000000D01*
G03X-0004410Y0004430I0000000J0000680D01*
G01X0003280D02*
G03X0003960Y0003750I0000680J0000000D01*
G03X0004640Y0004430I0000000J0000680D01*
G03X0003960Y0005110I0000680J0000000D01*
G03X0003280Y0004430I0000000J0000680D01*
G01X0001778Y0013346D02*
G03X0001790Y0013329I0000316J0000213D01*
G01X-0005271Y0008140D02*
G03X-0005150Y0008095I0000121J0000140D01*
G01X0004947Y0010975D02*
G03X0004960Y0011060I0000267J0000085D01*
G01X0002745Y0010644D02*
G03X0002810Y0010800I0000155J0000156D01*
G01X0001066Y0010874D02*
G03X0001082Y0010780I0000280J0000000D01*
G01X0000215Y0003504D02*
G03X0000280Y0003660I0000155J0000156D01*
G01X-0001494Y0008924D02*
G03X-0001429Y0009080I0000156J0000156D01*
G01X0002370Y0012278D02*
G03X0002240Y0012310I0000130J0000248D01*
G01X-0004321Y0006533D02*
G03X-0004300Y0006640I0000259J0000107D01*
G01X-0004260Y0006540D02*
G03X-0004321Y0006533I0000000J0000280D01*
G01X-0001980Y0011120D02*
G03X-0001880Y0010905I0000280J0000000D01*
G01X-0002736Y0010874D02*
G03X-0002590Y0011120I0000134J0000246D01*
G01X-0002620Y0007720D02*
G03X-0002710Y0007925I0000280J0000000D01*
G01X-0003170Y0008140D02*
G03X-0003080Y0007934I0000280J0000000D01*
G01X-0001424Y0006084D02*
G03X-0001359Y0006240I0000156J0000156D01*
G01X-0000730Y0005150D02*
G03X-0000692Y0005027I0000220J0000000D01*
G01X-0001674Y0005624D02*
G03X-0001609Y0005780I0000156J0000156D01*
G01X0004497Y0008115D02*
G03X0004489Y0008050I0000273J0000065D01*
G01X-0001860Y0006458D02*
G03X-0001818Y0006313I0000280J0000002D01*
G01X-0001487Y0000787D02*
G03X-0001516Y0000802I0000119J0000196D01*
G01X-0001077Y0000651D02*
G03X-0001108Y0000662I0000096J0000209D01*
G01X-0000759Y0000581D02*
G03X-0000798Y0000584I0000039J0000227D01*
G01X-0000614Y0000556D02*
G03X-0000645Y0000558I0000031J0000228D01*
G01X-0000466Y0000535D02*
G03X-0000491Y0000536I0000025J0000228D01*
G01X-0000318Y0000519D02*
G03X-0000335Y0000520I0000017J0000229D01*
G01X-0000168Y0000508D02*
G03X-0000178Y0000508I0000010J0000230D01*
G01X-0000017Y0000501D02*
G03X-0000020Y0000501I0000003J0000230D01*
G01X-0000684Y0007215D02*
G03X-0000840Y0007280I0000156J0000155D01*
G01X-0001670Y0007060D02*
G03X-0001390Y0006780I0000280J0000000D01*
Y0007340D02*
G03X-0001670Y0007060I0000000J0000280D01*
G01X-0001950Y0008440D02*
G03X-0001963Y0008523I0000280J0000000D01*
G01X-0000684Y0007215D02*
G03X-0000840Y0007280I0000156J0000155D01*
G01X-0001217D02*
G03X-0001390Y0007340I0000173J0000220D01*
G01X0002120Y0007990D02*
G03X0001950Y0007932I0000000J0000280D01*
G01X0003080Y0004640D02*
G03X0003360Y0004920I0000000J0000280D01*
G03X0003080Y0005200I0000280J0000000D01*
G01X0000280Y0004580D02*
G03X0000244Y0004700I0000220J0000000D01*
G01X0002480Y0009540D02*
G03X0002200Y0009260I0000000J0000280D01*
G01X0002990Y0007030D02*
G03X0002880Y0007007I0000000J0000280D01*
Y0009080D02*
G03X0002815Y0009235I0000220J0000000D01*
G01X0002790Y0006050D02*
G03X0003070Y0006330I0000000J0000280D01*
G01X0002015Y0008274D02*
G03X0002080Y0008430I0000155J0000156D01*
G01X0001580Y0009580D02*
G03X0001640Y0009407I0000280J0000000D01*
G01X0002200Y0009260D02*
G03X0002440Y0008983I0000280J0000000D01*
G01X0002015Y0008274D02*
G03X0002080Y0008430I0000155J0000156D01*
G01X0001574Y0008455D02*
G03X0001510Y0008300I0000156J0000155D01*
G01X0001730Y0006890D02*
G03X0002010Y0007170I0000000J0000280D01*
G01X0001950Y0007487D02*
G03X0002087Y0007432I0000170J0000223D01*
G01X0001565Y0006284D02*
G03X0001630Y0006440I0000155J0000156D01*
G01X0001510Y0008001D02*
G03X0001410Y0008020I0000100J0000261D01*
G03X0001130Y0007740I0000000J0000280D01*
G01X0002210Y0006103D02*
G03X0002150Y0005930I0000220J0000173D01*
G01X0001130Y0007740D02*
G03X0001190Y0007567I0000280J0000000D01*
G01X0000980Y0005790D02*
G03X0001135Y0005854I0000000J0000220D01*
G01X0002150Y0005930D02*
G03X0002430Y0005650I0000280J0000000D01*
G03X0002710Y0005930I0000000J0000280D01*
G01X-0000040Y0003340D02*
G03X0000115Y0003404I0000000J0000220D01*
G01X0000215Y0003504D02*
G03X0000280Y0003660I0000155J0000156D01*
G01X0002080Y0009407D02*
G03X0002140Y0009580I0000220J0000173D01*
G01X-0004050Y0005640D02*
G03X-0003770Y0005360I0000280J0000000D01*
Y0005920D02*
G03X-0004050Y0005640I0000000J0000280D01*
G01X-0003770Y0005360D02*
G03X-0003597Y0005420I0000000J0000280D01*
G01X-0001070Y0006370D02*
G03X-0000935Y0006404I0000000J0000280D01*
G01X-0001970Y0005420D02*
G03X-0001814Y0005484I0000000J0000220D01*
G01X0000199Y0012191D02*
G03X-0000022Y0012465I0000280J0000000D01*
G01X0003441Y0013300D02*
G03X0003410Y0013448I0000381J0000000D01*
G01X-0001930Y0011280D02*
G03X-0001980Y0011120I0000230J0000160D01*
G01X-0003190Y0010574D02*
G03X-0003285Y0010413I0000180J0000214D01*
G01X-0000081Y0013019D02*
G03X-0000138Y0013013I0000000J0000280D01*
G01X0000063Y0011951D02*
G03X0000199Y0012191I0000144J0000240D01*
G01X0002758Y0009293D02*
G03X0002480Y0009540I0000278J0000033D01*
G01X-0003770Y0008095D02*
G03X-0003585Y0008280I0000000J0000185D01*
Y0010770D02*
G03X-0003770Y0010955I0000185J0000000D01*
G01X0003825Y0008300D02*
G03X0004010Y0008115I0000185J0000000D01*
Y0010975D02*
G03X0003825Y0010790I0000000J0000185D01*
G01X0005171Y0010921D02*
G03X0005040Y0010975I0000131J0000131D01*
G01X0000389Y0000508D02*
G03X0000378Y0000508I0000000J0000230D01*
G01X0000546Y0000520D02*
G03X0000528Y0000519I0000000J0000230D01*
G01X0000701Y0000537D02*
G03X0000677Y0000535I0000000J0000230D01*
G01X0000856Y0000558D02*
G03X0000824Y0000556I0000000J0000230D01*
G01X0001009Y0000584D02*
G03X0000970Y0000581I0000000J0000230D01*
G01X0001147Y0000615D02*
G03X0001114Y0000611I0000013J0000229D01*
G01X0001356Y0000670D02*
G03X0001324Y0000664I0000028J0000228D01*
G01X0001762Y0000814D02*
G03X0001731Y0000804I0000054J0000223D01*
G01X0001677Y0009792D02*
G03X0001580Y0009580I0000183J0000212D01*
G01X0001295Y0013475D02*
G03X0001611Y0013307I0000316J0000213D01*
G01X0002160Y0010150D02*
G03X0002315Y0010214I0000000J0000220D01*
G01X0002261Y0013217D02*
G03X0002370Y0013110I0000316J0000212D01*
G01X0000799Y0014009D02*
G03X0000747Y0013817I0000329J0000192D01*
G01X0002165Y0010724D02*
G03X0002230Y0010880I0000155J0000156D01*
G01X0001615Y0010796D02*
G03X0001626Y0010874I0000269J0000078D01*
G01X-0000692Y0005027D02*
G03X-0000930Y0004750I0000042J0000277D01*
G01X-0003380Y0010430D02*
G03X-0003585Y0010341I0000000J0000280D01*
G01X-0002730Y0010360D02*
G03X-0002820Y0010565I0000280J0000000D01*
G01X-0002720Y0010780D02*
G03X-0002736Y0010874I0000280J0000000D01*
G01X0005050Y0008050D02*
G03X0005042Y0008115I0000280J0000000D01*
G01X0000530Y0006480D02*
G03X0000684Y0006230I0000280J0000000D01*
G01X-0001390Y0010780D02*
G03X-0001421Y0010778I0000000J0000220D01*
G01X0002710Y0005930D02*
G03X0002667Y0006078I0000280J0000000D01*
G01X0001942Y0009847D02*
G03X0002040Y0010060I0000182J0000213D01*
G01X0005390Y0008115D02*
G03X0005482Y0008139I0000000J0000185D01*
G01X-0000040Y0003340D02*
G03X0000115Y0003404I0000000J0000220D01*
G01X0003070Y0006330D02*
G03X0003031Y0006473I0000280J0000000D01*
G01X0001140Y0006950D02*
G03X0001190Y0006954I0000000J0000280D01*
G01X0001085Y0006426D02*
G03X0001090Y0006480I0000275J0000054D01*
G01X0002010Y0007170D02*
G03X0001950Y0007343I0000280J0000000D01*
G01X0003031Y0006473D02*
G03X0003270Y0006750I0000041J0000277D01*
G01X-0002134Y0006234D02*
G03X-0001860Y0006458I0000000J0000280D01*
G01X-0004519Y0006367D02*
G03X-0004540Y0006260I0000259J0000107D01*
G01X-0003597Y0005860D02*
G03X-0003770Y0005920I0000173J0000220D01*
G01X0001340Y0009790D02*
G03X0001545Y0009880I0000000J0000280D01*
G01X-0001854Y0006516D02*
G03X-0002134Y0006794I0000280J0000002D01*
G01X-0001312Y0006791D02*
G03X-0001350Y0006650I0000242J0000141D01*
G01X-0003080Y0007934D02*
G03X-0003180Y0007720I0000180J0000214D01*
G01X-0001550Y0008770D02*
G03X-0001563Y0008855I0000280J0000000D01*
G01X0000543Y0010780D02*
G03X0000650Y0011000I0000173J0000220D01*
G01X0002810Y0013013D02*
G03X0003060Y0012919I0000250J0000287D01*
G01X-0003844Y0010955D02*
G03X-0003790Y0011120I0000226J0000165D01*
G01X-0003285Y0010413D02*
G03X-0003380Y0010430I0000095J0000263D01*
Y0009870D02*
G03X-0003105Y0010096I0000000J0000280D01*
G01X-0003585Y0008710D02*
G03X-0003370Y0008610I0000215J0000180D01*
G01X-0000149Y0011439D02*
G03X-0000081Y0011431I0000068J0000272D01*
G01X-0003105Y0010096D02*
G03X-0003010Y0010079I0000095J0000264D01*
G01X-0002248Y0009183D02*
G03X-0002310Y0009190I0000062J0000273D01*
G01X-0000730Y0005150D02*
G03X-0000692Y0005027I0000220J0000000D01*
G01X-0001360Y0006287D02*
G03X-0001300Y0006460I0000220J0000173D01*
G01X0000199Y0013901D02*
G03X0000170Y0014024I0000280J0000000D01*
G01X0000090Y0011000D02*
G03X0000197Y0010780I0000280J0000000D01*
G01X-0001880Y0010905D02*
G03X-0001970Y0010700I0000190J0000205D01*
G03X-0001813Y0010448I0000280J0000000D01*
G01X-0003134Y0011026D02*
G03X-0003280Y0010780I0000134J0000246D01*
G01X-0001421Y0010778D02*
G03X-0001510Y0010914I0000269J0000078D01*
G01X-0001300Y0006460D02*
G03X-0001302Y0006493I0000280J0000000D01*
G01X-0000930Y0004750D02*
G03X-0000838Y0004543I0000280J0000000D01*
G01X0001574Y0008455D02*
G03X0001510Y0008300I0000156J0000155D01*
G01X0001072Y0010150D02*
G03X0001060Y0010070I0000268J0000080D01*
G01X-0002415Y0008650D02*
G03X-0002510Y0008440I0000185J0000210D01*
G01X-0004580Y0006360D02*
G03X-0004519Y0006367I0000000J0000280D01*
G01X-0000399Y0004626D02*
G03X-0000374Y0004703I0000251J0000124D01*
G01X0001565Y0006284D02*
G03X0001630Y0006440I0000155J0000156D01*
G01X0002398Y0007743D02*
G03X0002120Y0007990I0000278J0000033D01*
G01X0003080Y0005200D02*
G03X0002907Y0005140I0000000J0000280D01*
G01X0002667Y0006078D02*
G03X0002790Y0006050I0000123J0000252D01*
G01X0000980Y0005790D02*
G03X0001135Y0005854I0000000J0000220D01*
G01X0000060Y0005748D02*
G03X0000160Y0005730I0000100J0000262D01*
Y0006290D02*
G03X0000060Y0006271I0000000J0000280D01*
G01X0001190Y0007505D02*
G03X0001140Y0007510I0000050J0000275D01*
G01X0002230Y0013203D02*
G03X0002261Y0013217I0000136J0000356D01*
G54D29*
G01X-0000650Y0004750D02*
X-0000461Y0004561D01*
Y0004308D01*
X-0001390Y0007060D02*
X-0000840D01*
X-0000160Y0006380D01*
Y0005230D01*
X0000150Y0004920D01*
X0003080D01*
X0002480Y0009260D02*
X0002660Y0009080D01*
Y0006530D01*
X0002790Y0006400D01*
Y0006330D01*
X0001860Y0009580D02*
Y0008430D01*
X0001730Y0008300D01*
Y0007170D01*
X0001410Y0007740D02*
Y0006440D01*
X0000980Y0006010D01*
X0000160D01*
X0002120Y0007710D02*
X0002430Y0007400D01*
Y0005930D01*
X-0000461Y0003560D02*
X-0000040D01*
X0000060Y0003660D01*
Y0004580D01*
X-0000510Y0005150D01*
Y0006290D01*
X-0000870Y0006650D01*
X-0001070D01*
X-0003770Y0005640D02*
X-0001970D01*
X-0001830Y0005780D01*
Y0005990D01*
X-0001580Y0006240D01*
Y0006460D01*
X-0001830Y0008770D02*
Y0008900D01*
X-0001650Y0009080D01*
Y0009970D01*
X-0001250Y0010370D01*
X0002160D01*
X0002590Y0010800D01*
Y0013416D01*
X0002577Y0013429D01*
X0002094Y0013559D02*
X0002010Y0013474D01*
Y0010880D01*
X0001690Y0010560D01*
X-0001390D01*
X-0001860Y0010090D01*
Y0009260D01*
X-0002210Y0008910D01*
X-0002310D01*
G54D33*
G01X-0003770Y0010770D02*
X-0004720D01*
X-0003770D02*
Y0008280D01*
X-0005150D01*
Y0010340D02*
Y0008280D01*
X-0004720Y0010770D02*
X-0005150Y0010340D01*
X-0003778Y0010770D02*
Y0008280D01*
X-0003787Y0010770D02*
Y0008280D01*
X-0003796Y0010770D02*
Y0008280D01*
X-0003805Y0010770D02*
Y0008280D01*
X-0003814Y0010770D02*
Y0008280D01*
X-0003823Y0010770D02*
Y0008280D01*
X-0003832Y0010770D02*
Y0008280D01*
X-0003841Y0010770D02*
Y0008280D01*
X-0003850Y0010770D02*
Y0008280D01*
X-0003859Y0010770D02*
Y0008280D01*
X-0003868Y0010770D02*
Y0008280D01*
X-0003877Y0010770D02*
Y0008280D01*
X-0003886Y0010770D02*
Y0008280D01*
X-0003895Y0010770D02*
Y0008280D01*
X-0003904Y0010770D02*
Y0008280D01*
X-0003913Y0010770D02*
Y0008280D01*
X-0003922Y0010770D02*
Y0008280D01*
X-0003931Y0010770D02*
Y0008280D01*
X-0003940Y0010770D02*
Y0008280D01*
X-0003949Y0010770D02*
Y0008280D01*
X-0003958Y0010770D02*
Y0008280D01*
X-0003967Y0010770D02*
Y0008280D01*
X-0003976Y0010770D02*
Y0008280D01*
X-0003985Y0010770D02*
Y0008280D01*
X-0003994Y0010770D02*
Y0008280D01*
X-0004003Y0010770D02*
Y0008280D01*
X-0004012Y0010770D02*
Y0008280D01*
X-0004021Y0010770D02*
Y0008280D01*
X-0004030Y0010770D02*
Y0008280D01*
X-0004039Y0010770D02*
Y0008280D01*
X-0004048Y0010770D02*
Y0008280D01*
X-0004057Y0010770D02*
Y0008280D01*
X-0004066Y0010770D02*
Y0008280D01*
X-0004075Y0010770D02*
Y0008280D01*
X-0004084Y0010770D02*
Y0008280D01*
X-0004093Y0010770D02*
Y0008280D01*
X-0004102Y0010770D02*
Y0008280D01*
X-0004111Y0010770D02*
Y0008280D01*
X-0004120Y0010770D02*
Y0008280D01*
X-0004129Y0010770D02*
Y0008280D01*
X-0004138Y0010770D02*
Y0008280D01*
X-0004147Y0010770D02*
Y0008280D01*
X-0004156Y0010770D02*
Y0008280D01*
X-0004165Y0010770D02*
Y0008280D01*
X-0004174Y0010770D02*
Y0008280D01*
X-0004183Y0010770D02*
Y0008280D01*
X-0004192Y0010770D02*
Y0008280D01*
X-0004201Y0010770D02*
Y0008280D01*
X-0004210Y0010770D02*
Y0008280D01*
X-0004219Y0010770D02*
Y0008280D01*
X-0004228Y0010770D02*
Y0008280D01*
X-0004237Y0010770D02*
Y0008280D01*
X-0004246Y0010770D02*
Y0008280D01*
X-0004255Y0010770D02*
Y0008280D01*
X-0004264Y0010770D02*
Y0008280D01*
X-0004273Y0010770D02*
Y0008280D01*
X-0004282Y0010770D02*
Y0008280D01*
X-0004291Y0010770D02*
Y0008280D01*
X-0004300Y0010770D02*
Y0008280D01*
X-0004309Y0010770D02*
Y0008280D01*
X-0004318Y0010770D02*
Y0008280D01*
X-0004327Y0010770D02*
Y0008280D01*
X-0004336Y0010770D02*
Y0008280D01*
X-0004345Y0010770D02*
Y0008280D01*
X-0004354Y0010770D02*
Y0008280D01*
X-0004363Y0010770D02*
Y0008280D01*
X-0004372Y0010770D02*
Y0008280D01*
X-0004381Y0010770D02*
Y0008280D01*
X-0004390Y0010770D02*
Y0008280D01*
X-0004399Y0010770D02*
Y0008280D01*
X-0004408Y0010770D02*
Y0008280D01*
X-0004417Y0010770D02*
Y0008280D01*
X-0004426Y0010770D02*
Y0008280D01*
X-0004435Y0010770D02*
Y0008280D01*
X-0004444Y0010770D02*
Y0008280D01*
X-0004453Y0010770D02*
Y0008280D01*
X-0004462Y0010770D02*
Y0008280D01*
X-0004471Y0010770D02*
Y0008280D01*
X-0004480Y0010770D02*
Y0008280D01*
X-0004489Y0010770D02*
Y0008280D01*
X-0004498Y0010770D02*
Y0008280D01*
X-0004507Y0010770D02*
Y0008280D01*
X-0004516Y0010770D02*
Y0008280D01*
X-0004525Y0010770D02*
Y0008280D01*
X-0004534Y0010770D02*
Y0008280D01*
X-0004543Y0010770D02*
Y0008280D01*
X-0004552Y0010770D02*
Y0008280D01*
X-0004561Y0010770D02*
Y0008280D01*
X-0004570Y0010770D02*
Y0008280D01*
X-0004579Y0010770D02*
Y0008280D01*
X-0004588Y0010770D02*
Y0008280D01*
X-0004597Y0010770D02*
Y0008280D01*
X-0004606Y0010770D02*
Y0008280D01*
X-0004615Y0010770D02*
Y0008280D01*
X-0004624Y0010770D02*
Y0008280D01*
X-0004633Y0010770D02*
Y0008280D01*
X-0004642Y0010770D02*
Y0008280D01*
X-0004651Y0010770D02*
Y0008280D01*
X-0004660Y0010770D02*
Y0008280D01*
X-0004669Y0010770D02*
Y0008280D01*
X-0004678Y0010770D02*
Y0008280D01*
X-0004687Y0010770D02*
Y0008280D01*
X-0004696Y0010770D02*
Y0008280D01*
X-0004705Y0010770D02*
Y0008280D01*
X-0004714Y0010770D02*
Y0008280D01*
X-0004723Y0010767D02*
Y0008280D01*
X-0004732Y0010758D02*
Y0008280D01*
X-0004741Y0010749D02*
Y0008280D01*
X-0004750Y0010740D02*
Y0008280D01*
X-0004759Y0010731D02*
Y0008280D01*
X-0004768Y0010722D02*
Y0008280D01*
X-0004777Y0010713D02*
Y0008280D01*
X-0004786Y0010704D02*
Y0008280D01*
X-0004795Y0010695D02*
Y0008280D01*
X-0004804Y0010686D02*
Y0008280D01*
X-0004813Y0010677D02*
Y0008280D01*
X-0004822Y0010668D02*
Y0008280D01*
X-0004831Y0010659D02*
Y0008280D01*
X-0004840Y0010650D02*
Y0008280D01*
X-0004849Y0010641D02*
Y0008280D01*
X-0004858Y0010632D02*
Y0008280D01*
X-0004867Y0010623D02*
Y0008280D01*
X-0004876Y0010614D02*
Y0008280D01*
X-0004885Y0010605D02*
Y0008280D01*
X-0004894Y0010596D02*
Y0008280D01*
X-0004903Y0010587D02*
Y0008280D01*
X-0004912Y0010578D02*
Y0008280D01*
X-0004921Y0010569D02*
Y0008280D01*
X-0004930Y0010560D02*
Y0008280D01*
X-0004939Y0010551D02*
Y0008280D01*
X-0004948Y0010542D02*
Y0008280D01*
X-0004957Y0010533D02*
Y0008280D01*
X-0004966Y0010524D02*
Y0008280D01*
X-0004975Y0010515D02*
Y0008280D01*
X-0004984Y0010506D02*
Y0008280D01*
X-0004993Y0010497D02*
Y0008280D01*
X-0005002Y0010488D02*
Y0008280D01*
X-0005011Y0010479D02*
Y0008280D01*
X-0005020Y0010470D02*
Y0008280D01*
X-0005029Y0010461D02*
Y0008280D01*
X-0005038Y0010452D02*
Y0008280D01*
X-0005047Y0010443D02*
Y0008280D01*
X-0005056Y0010434D02*
Y0008280D01*
X-0005065Y0010425D02*
Y0008280D01*
X-0005074Y0010416D02*
Y0008280D01*
X-0005083Y0010407D02*
Y0008280D01*
X-0005092Y0010398D02*
Y0008280D01*
X-0005101Y0010389D02*
Y0008280D01*
X-0005110Y0010380D02*
Y0008280D01*
X-0005119Y0010371D02*
Y0008280D01*
X-0005128Y0010362D02*
Y0008280D01*
X-0005137Y0010353D02*
Y0008280D01*
X-0003770Y0010759D02*
X-0004731D01*
X-0003770Y0010750D02*
X-0004740D01*
X-0003770Y0010741D02*
X-0004749D01*
X-0003770Y0010732D02*
X-0004758D01*
X-0003770Y0010723D02*
X-0004767D01*
X-0003770Y0010714D02*
X-0004776D01*
X-0003770Y0010705D02*
X-0004785D01*
X-0003770Y0010696D02*
X-0004794D01*
X-0003770Y0010687D02*
X-0004803D01*
X-0003770Y0010678D02*
X-0004812D01*
X-0003770Y0010669D02*
X-0004821D01*
X-0003770Y0010660D02*
X-0004830D01*
X-0003770Y0010651D02*
X-0004839D01*
X-0003770Y0010642D02*
X-0004848D01*
X-0003770Y0010633D02*
X-0004857D01*
X-0003770Y0010624D02*
X-0004866D01*
X-0003770Y0010615D02*
X-0004875D01*
X-0003770Y0010606D02*
X-0004884D01*
X-0003770Y0010597D02*
X-0004893D01*
X-0003770Y0010588D02*
X-0004902D01*
X-0003770Y0010579D02*
X-0004911D01*
X-0003770Y0010570D02*
X-0004920D01*
X-0003770Y0010561D02*
X-0004929D01*
X-0003770Y0010552D02*
X-0004938D01*
X-0003770Y0010543D02*
X-0004947D01*
X-0003770Y0010534D02*
X-0004956D01*
X-0003770Y0010525D02*
X-0004965D01*
X-0003770Y0010516D02*
X-0004974D01*
X-0003770Y0010507D02*
X-0004983D01*
X-0003770Y0010498D02*
X-0004992D01*
X-0003770Y0010489D02*
X-0005001D01*
X-0003770Y0010480D02*
X-0005010D01*
X-0003770Y0010471D02*
X-0005019D01*
X-0003770Y0010462D02*
X-0005028D01*
X-0003770Y0010453D02*
X-0005037D01*
X-0003770Y0010444D02*
X-0005046D01*
X-0003770Y0010435D02*
X-0005055D01*
X-0003770Y0010426D02*
X-0005064D01*
X-0003770Y0010417D02*
X-0005073D01*
X-0003770Y0010408D02*
X-0005082D01*
X-0003770Y0010399D02*
X-0005091D01*
X-0003770Y0010390D02*
X-0005100D01*
X-0003770Y0010381D02*
X-0005109D01*
X-0003770Y0010372D02*
X-0005118D01*
X-0003770Y0010363D02*
X-0005127D01*
X-0003770Y0010354D02*
X-0005136D01*
X-0003770Y0010345D02*
X-0005145D01*
X-0003770Y0010336D02*
X-0005150D01*
X-0003770Y0010327D02*
X-0005150D01*
X-0003770Y0010318D02*
X-0005150D01*
X-0003770Y0010309D02*
X-0005150D01*
X-0003770Y0010300D02*
X-0005150D01*
X-0003770Y0010291D02*
X-0005150D01*
X-0003770Y0010282D02*
X-0005150D01*
X-0003770Y0010273D02*
X-0005150D01*
X-0003770Y0010264D02*
X-0005150D01*
X-0003770Y0010255D02*
X-0005150D01*
X-0003770Y0010246D02*
X-0005150D01*
X-0003770Y0010237D02*
X-0005150D01*
X-0003770Y0010228D02*
X-0005150D01*
X-0003770Y0010219D02*
X-0005150D01*
X-0003770Y0010210D02*
X-0005150D01*
X-0003770Y0010201D02*
X-0005150D01*
X-0003770Y0010192D02*
X-0005150D01*
X-0003770Y0010183D02*
X-0005150D01*
X-0003770Y0010174D02*
X-0005150D01*
X-0003770Y0010165D02*
X-0005150D01*
X-0003770Y0010156D02*
X-0005150D01*
X-0003770Y0010147D02*
X-0005150D01*
X-0003770Y0010138D02*
X-0005150D01*
X-0003770Y0010129D02*
X-0005150D01*
X-0003770Y0010120D02*
X-0005150D01*
X-0003770Y0010111D02*
X-0005150D01*
X-0003770Y0010102D02*
X-0005150D01*
X-0003770Y0010093D02*
X-0005150D01*
X-0003770Y0010084D02*
X-0005150D01*
X-0003770Y0010075D02*
X-0005150D01*
X-0003770Y0010066D02*
X-0005150D01*
X-0003770Y0010057D02*
X-0005150D01*
X-0003770Y0010048D02*
X-0005150D01*
X-0003770Y0010039D02*
X-0005150D01*
X-0003770Y0010030D02*
X-0005150D01*
X-0003770Y0010021D02*
X-0005150D01*
X-0003770Y0010012D02*
X-0005150D01*
X-0003770Y0010003D02*
X-0005150D01*
X-0003770Y0009994D02*
X-0005150D01*
X-0003770Y0009985D02*
X-0005150D01*
X-0003770Y0009976D02*
X-0005150D01*
X-0003770Y0009967D02*
X-0005150D01*
X-0003770Y0009958D02*
X-0005150D01*
X-0003770Y0009949D02*
X-0005150D01*
X-0003770Y0009940D02*
X-0005150D01*
X-0003770Y0009931D02*
X-0005150D01*
X-0003770Y0009922D02*
X-0005150D01*
X-0003770Y0009913D02*
X-0005150D01*
X-0003770Y0009904D02*
X-0005150D01*
X-0003770Y0009895D02*
X-0005150D01*
X-0003770Y0009886D02*
X-0005150D01*
X-0003770Y0009877D02*
X-0005150D01*
X-0003770Y0009868D02*
X-0005150D01*
X-0003770Y0009859D02*
X-0005150D01*
X-0003770Y0009850D02*
X-0005150D01*
X-0003770Y0009841D02*
X-0005150D01*
X-0003770Y0009832D02*
X-0005150D01*
X-0003770Y0009823D02*
X-0005150D01*
X-0003770Y0009814D02*
X-0005150D01*
X-0003770Y0009805D02*
X-0005150D01*
X-0003770Y0009796D02*
X-0005150D01*
X-0003770Y0009787D02*
X-0005150D01*
X-0003770Y0009778D02*
X-0005150D01*
X-0003770Y0009769D02*
X-0005150D01*
X-0003770Y0009760D02*
X-0005150D01*
X-0003770Y0009751D02*
X-0005150D01*
X-0003770Y0009742D02*
X-0005150D01*
X-0003770Y0009733D02*
X-0005150D01*
X-0003770Y0009724D02*
X-0005150D01*
X-0003770Y0009715D02*
X-0005150D01*
X-0003770Y0009706D02*
X-0005150D01*
X-0003770Y0009697D02*
X-0005150D01*
X-0003770Y0009688D02*
X-0005150D01*
X-0003770Y0009679D02*
X-0005150D01*
X-0003770Y0009670D02*
X-0005150D01*
X-0003770Y0009661D02*
X-0005150D01*
X-0003770Y0009652D02*
X-0005150D01*
X-0003770Y0009643D02*
X-0005150D01*
X-0003770Y0009634D02*
X-0005150D01*
X-0003770Y0009625D02*
X-0005150D01*
X-0003770Y0009616D02*
X-0005150D01*
X-0003770Y0009607D02*
X-0005150D01*
X-0003770Y0009598D02*
X-0005150D01*
X-0003770Y0009589D02*
X-0005150D01*
X-0003770Y0009580D02*
X-0005150D01*
X-0003770Y0009571D02*
X-0005150D01*
X-0003770Y0009562D02*
X-0005150D01*
X-0003770Y0009553D02*
X-0005150D01*
X-0003770Y0009544D02*
X-0005150D01*
X-0003770Y0009535D02*
X-0005150D01*
X-0003770Y0009526D02*
X-0005150D01*
X-0003770Y0009517D02*
X-0005150D01*
X-0003770Y0009508D02*
X-0005150D01*
X-0003770Y0009499D02*
X-0005150D01*
X-0003770Y0009490D02*
X-0005150D01*
X-0003770Y0009481D02*
X-0005150D01*
X-0003770Y0009472D02*
X-0005150D01*
X-0003770Y0009463D02*
X-0005150D01*
X-0003770Y0009454D02*
X-0005150D01*
X-0003770Y0009445D02*
X-0005150D01*
X-0003770Y0009436D02*
X-0005150D01*
X-0003770Y0009427D02*
X-0005150D01*
X-0003770Y0009418D02*
X-0005150D01*
X-0003770Y0009409D02*
X-0005150D01*
X-0003770Y0009400D02*
X-0005150D01*
X-0003770Y0009391D02*
X-0005150D01*
X-0003770Y0009382D02*
X-0005150D01*
X-0003770Y0009373D02*
X-0005150D01*
X-0003770Y0009364D02*
X-0005150D01*
X-0003770Y0009355D02*
X-0005150D01*
X-0003770Y0009346D02*
X-0005150D01*
X-0003770Y0009337D02*
X-0005150D01*
X-0003770Y0009328D02*
X-0005150D01*
X-0003770Y0009319D02*
X-0005150D01*
X-0003770Y0009310D02*
X-0005150D01*
X-0003770Y0009301D02*
X-0005150D01*
X-0003770Y0009292D02*
X-0005150D01*
X-0003770Y0009283D02*
X-0005150D01*
X-0003770Y0009274D02*
X-0005150D01*
X-0003770Y0009265D02*
X-0005150D01*
X-0003770Y0009256D02*
X-0005150D01*
X-0003770Y0009247D02*
X-0005150D01*
X-0003770Y0009238D02*
X-0005150D01*
X-0003770Y0009229D02*
X-0005150D01*
X-0003770Y0009220D02*
X-0005150D01*
X-0003770Y0009211D02*
X-0005150D01*
X-0003770Y0009202D02*
X-0005150D01*
X-0003770Y0009193D02*
X-0005150D01*
X-0003770Y0009184D02*
X-0005150D01*
X-0003770Y0009175D02*
X-0005150D01*
X-0003770Y0009166D02*
X-0005150D01*
X-0003770Y0009157D02*
X-0005150D01*
X-0003770Y0009148D02*
X-0005150D01*
X-0003770Y0009139D02*
X-0005150D01*
X-0003770Y0009130D02*
X-0005150D01*
X-0003770Y0009121D02*
X-0005150D01*
X-0003770Y0009112D02*
X-0005150D01*
X-0003770Y0009103D02*
X-0005150D01*
X-0003770Y0009094D02*
X-0005150D01*
X-0003770Y0009085D02*
X-0005150D01*
X-0003770Y0009076D02*
X-0005150D01*
X-0003770Y0009067D02*
X-0005150D01*
X-0003770Y0009058D02*
X-0005150D01*
X-0003770Y0009049D02*
X-0005150D01*
X-0003770Y0009040D02*
X-0005150D01*
X-0003770Y0009031D02*
X-0005150D01*
X-0003770Y0009022D02*
X-0005150D01*
X-0003770Y0009013D02*
X-0005150D01*
X-0003770Y0009004D02*
X-0005150D01*
X-0003770Y0008995D02*
X-0005150D01*
X-0003770Y0008986D02*
X-0005150D01*
X-0003770Y0008977D02*
X-0005150D01*
X-0003770Y0008968D02*
X-0005150D01*
X-0003770Y0008959D02*
X-0005150D01*
X-0003770Y0008950D02*
X-0005150D01*
X-0003770Y0008941D02*
X-0005150D01*
X-0003770Y0008932D02*
X-0005150D01*
X-0003770Y0008923D02*
X-0005150D01*
X-0003770Y0008914D02*
X-0005150D01*
X-0003770Y0008905D02*
X-0005150D01*
X-0003770Y0008896D02*
X-0005150D01*
X-0003770Y0008887D02*
X-0005150D01*
X-0003770Y0008878D02*
X-0005150D01*
X-0003770Y0008869D02*
X-0005150D01*
X-0003770Y0008860D02*
X-0005150D01*
X-0003770Y0008851D02*
X-0005150D01*
X-0003770Y0008842D02*
X-0005150D01*
X-0003770Y0008833D02*
X-0005150D01*
X-0003770Y0008824D02*
X-0005150D01*
X-0003770Y0008815D02*
X-0005150D01*
X-0003770Y0008806D02*
X-0005150D01*
X-0003770Y0008797D02*
X-0005150D01*
X-0003770Y0008788D02*
X-0005150D01*
X-0003770Y0008779D02*
X-0005150D01*
X-0003770Y0008770D02*
X-0005150D01*
X-0003770Y0008761D02*
X-0005150D01*
X-0003770Y0008752D02*
X-0005150D01*
X-0003770Y0008743D02*
X-0005150D01*
X-0003770Y0008734D02*
X-0005150D01*
X-0003770Y0008725D02*
X-0005150D01*
X-0003770Y0008716D02*
X-0005150D01*
X-0003770Y0008707D02*
X-0005150D01*
X-0003770Y0008698D02*
X-0005150D01*
X-0003770Y0008689D02*
X-0005150D01*
X-0003770Y0008680D02*
X-0005150D01*
X-0003770Y0008671D02*
X-0005150D01*
X-0003770Y0008662D02*
X-0005150D01*
X-0003770Y0008653D02*
X-0005150D01*
X-0003770Y0008644D02*
X-0005150D01*
X-0003770Y0008635D02*
X-0005150D01*
X-0003770Y0008626D02*
X-0005150D01*
X-0003770Y0008617D02*
X-0005150D01*
X-0003770Y0008608D02*
X-0005150D01*
X-0003770Y0008599D02*
X-0005150D01*
X-0003770Y0008590D02*
X-0005150D01*
X-0003770Y0008581D02*
X-0005150D01*
X-0003770Y0008572D02*
X-0005150D01*
X-0003770Y0008563D02*
X-0005150D01*
X-0003770Y0008554D02*
X-0005150D01*
X-0003770Y0008545D02*
X-0005150D01*
X-0003770Y0008536D02*
X-0005150D01*
X-0003770Y0008527D02*
X-0005150D01*
X-0003770Y0008518D02*
X-0005150D01*
X-0003770Y0008509D02*
X-0005150D01*
X-0003770Y0008500D02*
X-0005150D01*
X-0003770Y0008491D02*
X-0005150D01*
X-0003770Y0008482D02*
X-0005150D01*
X-0003770Y0008473D02*
X-0005150D01*
X-0003770Y0008464D02*
X-0005150D01*
X-0003770Y0008455D02*
X-0005150D01*
X-0003770Y0008446D02*
X-0005150D01*
X-0003770Y0008437D02*
X-0005150D01*
X-0003770Y0008428D02*
X-0005150D01*
X-0003770Y0008419D02*
X-0005150D01*
X-0003770Y0008410D02*
X-0005150D01*
X-0003770Y0008401D02*
X-0005150D01*
X-0003770Y0008392D02*
X-0005150D01*
X-0003770Y0008383D02*
X-0005150D01*
X-0003770Y0008374D02*
X-0005150D01*
X-0003770Y0008365D02*
X-0005150D01*
X-0003770Y0008356D02*
X-0005150D01*
X-0003770Y0008347D02*
X-0005150D01*
X-0003770Y0008338D02*
X-0005150D01*
X-0003770Y0008329D02*
X-0005150D01*
X-0003770Y0008320D02*
X-0005150D01*
X-0003770Y0008311D02*
X-0005150D01*
X-0003770Y0008302D02*
X-0005150D01*
X-0003770Y0008293D02*
X-0005150D01*
X0004260Y0010790D02*
X0004010D01*
Y0008300D01*
X0005390D02*
X0004010D01*
X0005390Y0010440D02*
Y0008300D01*
X0005040Y0010790D02*
X0005390Y0010440D01*
X0005040Y0010790D02*
X0004260D01*
X0005382Y0010448D02*
Y0008300D01*
X0005373Y0010457D02*
Y0008300D01*
X0005364Y0010466D02*
Y0008300D01*
X0005355Y0010475D02*
Y0008300D01*
X0005346Y0010484D02*
Y0008300D01*
X0005337Y0010493D02*
Y0008300D01*
X0005328Y0010502D02*
Y0008300D01*
X0005319Y0010511D02*
Y0008300D01*
X0005310Y0010520D02*
Y0008300D01*
X0005301Y0010529D02*
Y0008300D01*
X0005292Y0010538D02*
Y0008300D01*
X0005283Y0010547D02*
Y0008300D01*
X0005274Y0010556D02*
Y0008300D01*
X0005265Y0010565D02*
Y0008300D01*
X0005256Y0010574D02*
Y0008300D01*
X0005247Y0010583D02*
Y0008300D01*
X0005238Y0010592D02*
Y0008300D01*
X0005229Y0010601D02*
Y0008300D01*
X0005220Y0010610D02*
Y0008300D01*
X0005211Y0010619D02*
Y0008300D01*
X0005202Y0010628D02*
Y0008300D01*
X0005193Y0010637D02*
Y0008300D01*
X0005184Y0010646D02*
Y0008300D01*
X0005175Y0010655D02*
Y0008300D01*
X0005166Y0010664D02*
Y0008300D01*
X0005157Y0010673D02*
Y0008300D01*
X0005148Y0010682D02*
Y0008300D01*
X0005139Y0010691D02*
Y0008300D01*
X0005130Y0010700D02*
Y0008300D01*
X0005121Y0010709D02*
Y0008300D01*
X0005112Y0010718D02*
Y0008300D01*
X0005103Y0010727D02*
Y0008300D01*
X0005094Y0010736D02*
Y0008300D01*
X0005085Y0010745D02*
Y0008300D01*
X0005076Y0010754D02*
Y0008300D01*
X0005067Y0010763D02*
Y0008300D01*
X0005058Y0010772D02*
Y0008300D01*
X0005049Y0010781D02*
Y0008300D01*
X0005040Y0010790D02*
Y0008300D01*
X0005031Y0010790D02*
Y0008300D01*
X0005022Y0010790D02*
Y0008300D01*
X0005013Y0010790D02*
Y0008300D01*
X0005004Y0010790D02*
Y0008300D01*
X0004995Y0010790D02*
Y0008300D01*
X0004986Y0010790D02*
Y0008300D01*
X0004977Y0010790D02*
Y0008300D01*
X0004968Y0010790D02*
Y0008300D01*
X0004959Y0010790D02*
Y0008300D01*
X0004950Y0010790D02*
Y0008300D01*
X0004941Y0010790D02*
Y0008300D01*
X0004932Y0010790D02*
Y0008300D01*
X0004923Y0010790D02*
Y0008300D01*
X0004914Y0010790D02*
Y0008300D01*
X0004905Y0010790D02*
Y0008300D01*
X0004896Y0010790D02*
Y0008300D01*
X0004887Y0010790D02*
Y0008300D01*
X0004878Y0010790D02*
Y0008300D01*
X0004869Y0010790D02*
Y0008300D01*
X0004860Y0010790D02*
Y0008300D01*
X0004851Y0010790D02*
Y0008300D01*
X0004842Y0010790D02*
Y0008300D01*
X0004833Y0010790D02*
Y0008300D01*
X0004824Y0010790D02*
Y0008300D01*
X0004815Y0010790D02*
Y0008300D01*
X0004806Y0010790D02*
Y0008300D01*
X0004797Y0010790D02*
Y0008300D01*
X0004788Y0010790D02*
Y0008300D01*
X0004779Y0010790D02*
Y0008300D01*
X0004770Y0010790D02*
Y0008300D01*
X0004761Y0010790D02*
Y0008300D01*
X0004752Y0010790D02*
Y0008300D01*
X0004743Y0010790D02*
Y0008300D01*
X0004734Y0010790D02*
Y0008300D01*
X0004725Y0010790D02*
Y0008300D01*
X0004716Y0010790D02*
Y0008300D01*
X0004707Y0010790D02*
Y0008300D01*
X0004698Y0010790D02*
Y0008300D01*
X0004689Y0010790D02*
Y0008300D01*
X0004680Y0010790D02*
Y0008300D01*
X0004671Y0010790D02*
Y0008300D01*
X0004662Y0010790D02*
Y0008300D01*
X0004653Y0010790D02*
Y0008300D01*
X0004644Y0010790D02*
Y0008300D01*
X0004635Y0010790D02*
Y0008300D01*
X0004626Y0010790D02*
Y0008300D01*
X0004617Y0010790D02*
Y0008300D01*
X0004608Y0010790D02*
Y0008300D01*
X0004599Y0010790D02*
Y0008300D01*
X0004590Y0010790D02*
Y0008300D01*
X0004581Y0010790D02*
Y0008300D01*
X0004572Y0010790D02*
Y0008300D01*
X0004563Y0010790D02*
Y0008300D01*
X0004554Y0010790D02*
Y0008300D01*
X0004545Y0010790D02*
Y0008300D01*
X0004536Y0010790D02*
Y0008300D01*
X0004527Y0010790D02*
Y0008300D01*
X0004518Y0010790D02*
Y0008300D01*
X0004509Y0010790D02*
Y0008300D01*
X0004500Y0010790D02*
Y0008300D01*
X0004491Y0010790D02*
Y0008300D01*
X0004482Y0010790D02*
Y0008300D01*
X0004473Y0010790D02*
Y0008300D01*
X0004464Y0010790D02*
Y0008300D01*
X0004455Y0010790D02*
Y0008300D01*
X0004446Y0010790D02*
Y0008300D01*
X0004437Y0010790D02*
Y0008300D01*
X0004428Y0010790D02*
Y0008300D01*
X0004419Y0010790D02*
Y0008300D01*
X0004410Y0010790D02*
Y0008300D01*
X0004401Y0010790D02*
Y0008300D01*
X0004392Y0010790D02*
Y0008300D01*
X0004383Y0010790D02*
Y0008300D01*
X0004374Y0010790D02*
Y0008300D01*
X0004365Y0010790D02*
Y0008300D01*
X0004356Y0010790D02*
Y0008300D01*
X0004347Y0010790D02*
Y0008300D01*
X0004338Y0010790D02*
Y0008300D01*
X0004329Y0010790D02*
Y0008300D01*
X0004320Y0010790D02*
Y0008300D01*
X0004311Y0010790D02*
Y0008300D01*
X0004302Y0010790D02*
Y0008300D01*
X0004293Y0010790D02*
Y0008300D01*
X0004284Y0010790D02*
Y0008300D01*
X0004275Y0010790D02*
Y0008300D01*
X0004266Y0010790D02*
Y0008300D01*
X0004257Y0010790D02*
Y0008300D01*
X0004248Y0010790D02*
Y0008300D01*
X0004239Y0010790D02*
Y0008300D01*
X0004230Y0010790D02*
Y0008300D01*
X0004221Y0010790D02*
Y0008300D01*
X0004212Y0010790D02*
Y0008300D01*
X0004203Y0010790D02*
Y0008300D01*
X0004194Y0010790D02*
Y0008300D01*
X0004185Y0010790D02*
Y0008300D01*
X0004176Y0010790D02*
Y0008300D01*
X0004167Y0010790D02*
Y0008300D01*
X0004158Y0010790D02*
Y0008300D01*
X0004149Y0010790D02*
Y0008300D01*
X0004140Y0010790D02*
Y0008300D01*
X0004131Y0010790D02*
Y0008300D01*
X0004122Y0010790D02*
Y0008300D01*
X0004113Y0010790D02*
Y0008300D01*
X0004104Y0010790D02*
Y0008300D01*
X0004095Y0010790D02*
Y0008300D01*
X0004086Y0010790D02*
Y0008300D01*
X0004077Y0010790D02*
Y0008300D01*
X0004068Y0010790D02*
Y0008300D01*
X0004059Y0010790D02*
Y0008300D01*
X0004050Y0010790D02*
Y0008300D01*
X0004041Y0010790D02*
Y0008300D01*
X0004032Y0010790D02*
Y0008300D01*
X0004023Y0010790D02*
Y0008300D01*
X0005042Y0010788D02*
X0004010D01*
X0005051Y0010779D02*
X0004010D01*
X0005060Y0010770D02*
X0004010D01*
X0005069Y0010761D02*
X0004010D01*
X0005078Y0010752D02*
X0004010D01*
X0005087Y0010743D02*
X0004010D01*
X0005096Y0010734D02*
X0004010D01*
X0005105Y0010725D02*
X0004010D01*
X0005114Y0010716D02*
X0004010D01*
X0005123Y0010707D02*
X0004010D01*
X0005132Y0010698D02*
X0004010D01*
X0005141Y0010689D02*
X0004010D01*
X0005150Y0010680D02*
X0004010D01*
X0005159Y0010671D02*
X0004010D01*
X0005168Y0010662D02*
X0004010D01*
X0005177Y0010653D02*
X0004010D01*
X0005186Y0010644D02*
X0004010D01*
X0005195Y0010635D02*
X0004010D01*
X0005204Y0010626D02*
X0004010D01*
X0005213Y0010617D02*
X0004010D01*
X0005222Y0010608D02*
X0004010D01*
X0005231Y0010599D02*
X0004010D01*
X0005240Y0010590D02*
X0004010D01*
X0005249Y0010581D02*
X0004010D01*
X0005258Y0010572D02*
X0004010D01*
X0005267Y0010563D02*
X0004010D01*
X0005276Y0010554D02*
X0004010D01*
X0005285Y0010545D02*
X0004010D01*
X0005294Y0010536D02*
X0004010D01*
X0005303Y0010527D02*
X0004010D01*
X0005312Y0010518D02*
X0004010D01*
X0005321Y0010509D02*
X0004010D01*
X0005330Y0010500D02*
X0004010D01*
X0005339Y0010491D02*
X0004010D01*
X0005348Y0010482D02*
X0004010D01*
X0005357Y0010473D02*
X0004010D01*
X0005366Y0010464D02*
X0004010D01*
X0005375Y0010455D02*
X0004010D01*
X0005384Y0010446D02*
X0004010D01*
X0005390Y0010437D02*
X0004010D01*
X0005390Y0010428D02*
X0004010D01*
X0005390Y0010419D02*
X0004010D01*
X0005390Y0010410D02*
X0004010D01*
X0005390Y0010401D02*
X0004010D01*
X0005390Y0010392D02*
X0004010D01*
X0005390Y0010383D02*
X0004010D01*
X0005390Y0010374D02*
X0004010D01*
X0005390Y0010365D02*
X0004010D01*
X0005390Y0010356D02*
X0004010D01*
X0005390Y0010347D02*
X0004010D01*
X0005390Y0010338D02*
X0004010D01*
X0005390Y0010329D02*
X0004010D01*
X0005390Y0010320D02*
X0004010D01*
X0005390Y0010311D02*
X0004010D01*
X0005390Y0010302D02*
X0004010D01*
X0005390Y0010293D02*
X0004010D01*
X0005390Y0010284D02*
X0004010D01*
X0005390Y0010275D02*
X0004010D01*
X0005390Y0010266D02*
X0004010D01*
X0005390Y0010257D02*
X0004010D01*
X0005390Y0010248D02*
X0004010D01*
X0005390Y0010239D02*
X0004010D01*
X0005390Y0010230D02*
X0004010D01*
X0005390Y0010221D02*
X0004010D01*
X0005390Y0010212D02*
X0004010D01*
X0005390Y0010203D02*
X0004010D01*
X0005390Y0010194D02*
X0004010D01*
X0005390Y0010185D02*
X0004010D01*
X0005390Y0010176D02*
X0004010D01*
X0005390Y0010167D02*
X0004010D01*
X0005390Y0010158D02*
X0004010D01*
X0005390Y0010149D02*
X0004010D01*
X0005390Y0010140D02*
X0004010D01*
X0005390Y0010131D02*
X0004010D01*
X0005390Y0010122D02*
X0004010D01*
X0005390Y0010113D02*
X0004010D01*
X0005390Y0010104D02*
X0004010D01*
X0005390Y0010095D02*
X0004010D01*
X0005390Y0010086D02*
X0004010D01*
X0005390Y0010077D02*
X0004010D01*
X0005390Y0010068D02*
X0004010D01*
X0005390Y0010059D02*
X0004010D01*
X0005390Y0010050D02*
X0004010D01*
X0005390Y0010041D02*
X0004010D01*
X0005390Y0010032D02*
X0004010D01*
X0005390Y0010023D02*
X0004010D01*
X0005390Y0010014D02*
X0004010D01*
X0005390Y0010005D02*
X0004010D01*
X0005390Y0009996D02*
X0004010D01*
X0005390Y0009987D02*
X0004010D01*
X0005390Y0009978D02*
X0004010D01*
X0005390Y0009969D02*
X0004010D01*
X0005390Y0009960D02*
X0004010D01*
X0005390Y0009951D02*
X0004010D01*
X0005390Y0009942D02*
X0004010D01*
X0005390Y0009933D02*
X0004010D01*
X0005390Y0009924D02*
X0004010D01*
X0005390Y0009915D02*
X0004010D01*
X0005390Y0009906D02*
X0004010D01*
X0005390Y0009897D02*
X0004010D01*
X0005390Y0009888D02*
X0004010D01*
X0005390Y0009879D02*
X0004010D01*
X0005390Y0009870D02*
X0004010D01*
X0005390Y0009861D02*
X0004010D01*
X0005390Y0009852D02*
X0004010D01*
X0005390Y0009843D02*
X0004010D01*
X0005390Y0009834D02*
X0004010D01*
X0005390Y0009825D02*
X0004010D01*
X0005390Y0009816D02*
X0004010D01*
X0005390Y0009807D02*
X0004010D01*
X0005390Y0009798D02*
X0004010D01*
X0005390Y0009789D02*
X0004010D01*
X0005390Y0009780D02*
X0004010D01*
X0005390Y0009771D02*
X0004010D01*
X0005390Y0009762D02*
X0004010D01*
X0005390Y0009753D02*
X0004010D01*
X0005390Y0009744D02*
X0004010D01*
X0005390Y0009735D02*
X0004010D01*
X0005390Y0009726D02*
X0004010D01*
X0005390Y0009717D02*
X0004010D01*
X0005390Y0009708D02*
X0004010D01*
X0005390Y0009699D02*
X0004010D01*
X0005390Y0009690D02*
X0004010D01*
X0005390Y0009681D02*
X0004010D01*
X0005390Y0009672D02*
X0004010D01*
X0005390Y0009663D02*
X0004010D01*
X0005390Y0009654D02*
X0004010D01*
X0005390Y0009645D02*
X0004010D01*
X0005390Y0009636D02*
X0004010D01*
X0005390Y0009627D02*
X0004010D01*
X0005390Y0009618D02*
X0004010D01*
X0005390Y0009609D02*
X0004010D01*
X0005390Y0009600D02*
X0004010D01*
X0005390Y0009591D02*
X0004010D01*
X0005390Y0009582D02*
X0004010D01*
X0005390Y0009573D02*
X0004010D01*
X0005390Y0009564D02*
X0004010D01*
X0005390Y0009555D02*
X0004010D01*
X0005390Y0009546D02*
X0004010D01*
X0005390Y0009537D02*
X0004010D01*
X0005390Y0009528D02*
X0004010D01*
X0005390Y0009519D02*
X0004010D01*
X0005390Y0009510D02*
X0004010D01*
X0005390Y0009501D02*
X0004010D01*
X0005390Y0009492D02*
X0004010D01*
X0005390Y0009483D02*
X0004010D01*
X0005390Y0009474D02*
X0004010D01*
X0005390Y0009465D02*
X0004010D01*
X0005390Y0009456D02*
X0004010D01*
X0005390Y0009447D02*
X0004010D01*
X0005390Y0009438D02*
X0004010D01*
X0005390Y0009429D02*
X0004010D01*
X0005390Y0009420D02*
X0004010D01*
X0005390Y0009411D02*
X0004010D01*
X0005390Y0009402D02*
X0004010D01*
X0005390Y0009393D02*
X0004010D01*
X0005390Y0009384D02*
X0004010D01*
X0005390Y0009375D02*
X0004010D01*
X0005390Y0009366D02*
X0004010D01*
X0005390Y0009357D02*
X0004010D01*
X0005390Y0009348D02*
X0004010D01*
X0005390Y0009339D02*
X0004010D01*
X0005390Y0009330D02*
X0004010D01*
X0005390Y0009321D02*
X0004010D01*
X0005390Y0009312D02*
X0004010D01*
X0005390Y0009303D02*
X0004010D01*
X0005390Y0009294D02*
X0004010D01*
X0005390Y0009285D02*
X0004010D01*
X0005390Y0009276D02*
X0004010D01*
X0005390Y0009267D02*
X0004010D01*
X0005390Y0009258D02*
X0004010D01*
X0005390Y0009249D02*
X0004010D01*
X0005390Y0009240D02*
X0004010D01*
X0005390Y0009231D02*
X0004010D01*
X0005390Y0009222D02*
X0004010D01*
X0005390Y0009213D02*
X0004010D01*
X0005390Y0009204D02*
X0004010D01*
X0005390Y0009195D02*
X0004010D01*
X0005390Y0009186D02*
X0004010D01*
X0005390Y0009177D02*
X0004010D01*
X0005390Y0009168D02*
X0004010D01*
X0005390Y0009159D02*
X0004010D01*
X0005390Y0009150D02*
X0004010D01*
X0005390Y0009141D02*
X0004010D01*
X0005390Y0009132D02*
X0004010D01*
X0005390Y0009123D02*
X0004010D01*
X0005390Y0009114D02*
X0004010D01*
X0005390Y0009105D02*
X0004010D01*
X0005390Y0009096D02*
X0004010D01*
X0005390Y0009087D02*
X0004010D01*
X0005390Y0009078D02*
X0004010D01*
X0005390Y0009069D02*
X0004010D01*
X0005390Y0009060D02*
X0004010D01*
X0005390Y0009051D02*
X0004010D01*
X0005390Y0009042D02*
X0004010D01*
X0005390Y0009033D02*
X0004010D01*
X0005390Y0009024D02*
X0004010D01*
X0005390Y0009015D02*
X0004010D01*
X0005390Y0009006D02*
X0004010D01*
X0005390Y0008997D02*
X0004010D01*
X0005390Y0008988D02*
X0004010D01*
X0005390Y0008979D02*
X0004010D01*
X0005390Y0008970D02*
X0004010D01*
X0005390Y0008961D02*
X0004010D01*
X0005390Y0008952D02*
X0004010D01*
X0005390Y0008943D02*
X0004010D01*
X0005390Y0008934D02*
X0004010D01*
X0005390Y0008925D02*
X0004010D01*
X0005390Y0008916D02*
X0004010D01*
X0005390Y0008907D02*
X0004010D01*
X0005390Y0008898D02*
X0004010D01*
X0005390Y0008889D02*
X0004010D01*
X0005390Y0008880D02*
X0004010D01*
X0005390Y0008871D02*
X0004010D01*
X0005390Y0008862D02*
X0004010D01*
X0005390Y0008853D02*
X0004010D01*
X0005390Y0008844D02*
X0004010D01*
X0005390Y0008835D02*
X0004010D01*
X0005390Y0008826D02*
X0004010D01*
X0005390Y0008817D02*
X0004010D01*
X0005390Y0008808D02*
X0004010D01*
X0005390Y0008799D02*
X0004010D01*
X0005390Y0008790D02*
X0004010D01*
X0005390Y0008781D02*
X0004010D01*
X0005390Y0008772D02*
X0004010D01*
X0005390Y0008763D02*
X0004010D01*
X0005390Y0008754D02*
X0004010D01*
X0005390Y0008745D02*
X0004010D01*
X0005390Y0008736D02*
X0004010D01*
X0005390Y0008727D02*
X0004010D01*
X0005390Y0008718D02*
X0004010D01*
X0005390Y0008709D02*
X0004010D01*
X0005390Y0008700D02*
X0004010D01*
X0005390Y0008691D02*
X0004010D01*
X0005390Y0008682D02*
X0004010D01*
X0005390Y0008673D02*
X0004010D01*
X0005390Y0008664D02*
X0004010D01*
X0005390Y0008655D02*
X0004010D01*
X0005390Y0008646D02*
X0004010D01*
X0005390Y0008637D02*
X0004010D01*
X0005390Y0008628D02*
X0004010D01*
X0005390Y0008619D02*
X0004010D01*
X0005390Y0008610D02*
X0004010D01*
X0005390Y0008601D02*
X0004010D01*
X0005390Y0008592D02*
X0004010D01*
X0005390Y0008583D02*
X0004010D01*
X0005390Y0008574D02*
X0004010D01*
X0005390Y0008565D02*
X0004010D01*
X0005390Y0008556D02*
X0004010D01*
X0005390Y0008547D02*
X0004010D01*
X0005390Y0008538D02*
X0004010D01*
X0005390Y0008529D02*
X0004010D01*
X0005390Y0008520D02*
X0004010D01*
X0005390Y0008511D02*
X0004010D01*
X0005390Y0008502D02*
X0004010D01*
X0005390Y0008493D02*
X0004010D01*
X0005390Y0008484D02*
X0004010D01*
X0005390Y0008475D02*
X0004010D01*
X0005390Y0008466D02*
X0004010D01*
X0005390Y0008457D02*
X0004010D01*
X0005390Y0008448D02*
X0004010D01*
X0005390Y0008439D02*
X0004010D01*
X0005390Y0008430D02*
X0004010D01*
X0005390Y0008421D02*
X0004010D01*
X0005390Y0008412D02*
X0004010D01*
X0005390Y0008403D02*
X0004010D01*
X0005390Y0008394D02*
X0004010D01*
X0005390Y0008385D02*
X0004010D01*
X0005390Y0008376D02*
X0004010D01*
X0005390Y0008367D02*
X0004010D01*
X0005390Y0008358D02*
X0004010D01*
X0005390Y0008349D02*
X0004010D01*
X0005390Y0008340D02*
X0004010D01*
X0005390Y0008331D02*
X0004010D01*
X0005390Y0008322D02*
X0004010D01*
X0005390Y0008313D02*
X0004010D01*
G54D15*
X0003060Y0013300D03*
X0002577Y0013429D03*
X0002094Y0013559D03*
X0001611Y0013688D03*
X0001128Y0013817D03*
G54D27*
X-0000081Y0013901D03*
Y0013299D03*
Y0012739D03*
Y0012191D03*
X-0003910Y0009020D03*
X-0003940Y0008540D03*
X-0004430Y0008550D03*
X-0004910D03*
Y0009010D03*
X-0004420Y0009020D03*
X-0004600Y0011120D03*
X-0004070D03*
X-0003450D03*
X-0002870D03*
X0004680Y0011060D03*
X0004190Y0009050D03*
Y0008570D03*
X0004630D03*
X0005180Y0008610D03*
Y0009020D03*
X0004680D03*
X0001760Y0010060D03*
X-0004120Y0007210D03*
X-0000220Y0008967D03*
X0000465Y0009625D03*
Y0008995D03*
X-0000252Y0009608D03*
X-0000918D03*
Y0008858D03*
Y0008282D03*
X-0000208D03*
X0000465D03*
X0004770Y0008050D03*
X-0000650Y0004750D03*
X0002990Y0006750D03*
X0000810Y0006480D03*
X0001860Y0005570D03*
X-0002134Y0006514D03*
X-0004580Y0006640D03*
X-0004260Y0006260D03*
X-0002746Y0007076D03*
X0001140Y0007230D03*
X-0002900Y0007720D03*
X-0002890Y0008140D03*
X-0002230Y0008440D03*
X-0000081Y0011711D03*
X-0003010Y0010360D03*
X-0003000Y0010780D03*
X-0003380Y0010150D03*
X-0003370Y0008890D03*
X-0001980Y0001700D03*
X-0001150Y0001740D03*
X0000740Y0001390D03*
X0003120Y0011900D03*
X0000750Y0012060D03*
X0002240Y0012030D03*
X0001346Y0010874D03*
X-0002290Y0011120D03*
X-0001700D03*
X-0001690Y0010700D03*
X0001340Y0010070D03*
X0000370Y0011000D03*
G54D30*
X-0001390Y0007060D03*
X0003080Y0004920D03*
X0002480Y0009260D03*
X0002790Y0006330D03*
X0001860Y0009580D03*
X0001730Y0007170D03*
X0001410Y0007740D03*
X0000160Y0006010D03*
X0002120Y0007710D03*
X0002430Y0005930D03*
X-0001070Y0006650D03*
X-0003770Y0005640D03*
X-0001580Y0006460D03*
X-0001830Y0008770D03*
G54D31*
X-0003730Y0004430D03*
X0003960D03*
G54D32*
X-0000461Y0004308D03*
X0000700D03*
Y0003560D03*
X-0000461D03*
G54D34*
X-0002310Y0008910D03*
M02*
