*
G04 Mass Parameters ***
*
G04 Image ***
*
%INC:\DOCUMENTS AND SETTINGS\NAZGUL\MY DOCUMENTS\DROPBOX\BOARD DESIGN\GERBER FILES\BLE SPO2\BLE SPO2.SMB*%
%ICAS*%
%MOIN*%
%IPPOS*%
%ASAXBY*%
G74*%FSLAN2X34Y34*%
*
G04 Aperture Definitions ***
*
%AMTHERMAL36*
1,1,0.0679,0,0,*
1,0,0.0520,0,0,*
21,0,0.0680,0.0100,0,0,30.0*
21,0,0.0680,0.0100,0,0,120.0*%
%AMTHERMAL39*
1,1,0.0499,0,0,*
1,0,0.0340,0,0,*
21,0,0.0500,0.0100,0,0,45.0*
21,0,0.0500,0.0100,0,0,135.0*%
%ADD10C,0.1100*%
%ADD11R,0.0500X0.0500*%
%ADD12R,0.0220X0.0220*%
%ADD13R,0.0709X0.0590*%
%ADD14R,0.0320X0.0380*%
%ADD15C,0.0401*%
%ADD16R,0.0380X0.0320*%
%ADD17C,0.0020*%
%ADD18R,0.1575X0.1575*%
%ADD19O,0.0335X0.0110*%
%ADD20O,0.0110X0.0335*%
%ADD21R,0.0394X0.0138*%
%ADD22R,0.0315X0.0630*%
%ADD23R,0.0590X0.0197*%
%ADD24R,0.0433X0.0177*%
%ADD25R,0.0394X0.0197*%
%ADD26R,0.0256X0.0295*%
%ADD27C,0.0200*%
%ADD28C,0.0100*%
%ADD29C,0.0080*%
%ADD30C,0.0200*%
%ADD31C,0.1000*%
%ADD32R,0.0394X0.0276*%
%ADD33C,0.0010*%
%ADD34C,0.0200*%
%ADD35C,0.1400*%
%ADD36THERMAL36*%
%ADD37C,0.0450*%
%ADD38C,0.0250*%
%ADD39THERMAL39*%
%ADD40C,0.0250*%
%ADD41C,0.0200*%
%ADD42C,0.0250*%
%ADD43C,0.0450*%
%ADD44C,0.1050*%
%ADD45R,0.0549X0.0549*%
%ADD46R,0.0270X0.0270*%
%ADD47R,0.0758X0.0640*%
%ADD48R,0.0370X0.0430*%
%ADD49C,0.0450*%
%ADD50R,0.0430X0.0370*%
%ADD51R,0.1624X0.1624*%
%ADD52O,0.0384X0.0159*%
%ADD53O,0.0159X0.0384*%
%ADD54R,0.0443X0.0187*%
%ADD55R,0.0364X0.0679*%
%ADD56R,0.0640X0.0246*%
%ADD57R,0.0482X0.0226*%
%ADD58R,0.0443X0.0246*%
%ADD59R,0.0305X0.0344*%
%ADD60R,0.0443X0.0325*%
*
G04 Plot Data ***
*
G54D28*
G01X0003337Y-0001922D02*
Y-0001422D01*
X0003378Y-0001922D02*
X0003128D01*
X0003045Y-0001838D01*
Y-0001755D01*
X0003087Y-0001672D01*
X0003337D02*
X0003087D01*
X0003045Y-0001588D01*
Y-0001505D01*
X0003128Y-0001422D01*
X0003378D01*
X0003620Y-0001922D02*
Y-0001422D01*
X0003703Y-0001505D01*
X0003787Y-0001672D01*
X0003870Y-0001505D01*
X0003953Y-0001422D01*
Y-0001922D01*
X0004195Y-0001505D02*
X0004237Y-0001422D01*
X0004487D01*
X0004528Y-0001505D01*
Y-0001588D01*
X0004487Y-0001672D01*
X0004237D01*
X0004195Y-0001755D01*
Y-0001838D01*
X0004237Y-0001922D01*
X0004487D01*
X0004528Y-0001838D01*
X0000138Y0000269D02*
X0000072D01*
X0000231Y0000271D01*
X0000389Y0000278D01*
X0000546Y0000290D01*
X0000701Y0000307D01*
X0000856Y0000328D01*
X0001009Y0000354D01*
X0001160Y0000386D01*
X0001235Y0000403D01*
X0001310Y0000422D01*
X0001384Y0000442D01*
X0001457Y0000464D01*
X0001530Y0000486D01*
X0001603Y0000510D01*
X0001675Y0000536D01*
X0001746Y0000563D01*
X0001816Y0000591D01*
X0001886Y0000620D01*
X0001955Y0000651D01*
X0002024Y0000683D01*
X0002092Y0000717D01*
X0002159Y0000752D01*
X0002225Y0000788D01*
X0002291Y0000826D01*
X0002355Y0000866D01*
X0002419Y0000906D01*
X0002482Y0000948D01*
X0002544Y0000992D01*
X0002606Y0001037D01*
X0002666Y0001083D01*
X0002726Y0001130D01*
X0002785Y0001179D01*
X0002900Y0001279D01*
X0003012Y0001384D01*
X0003121Y0001492D01*
X0003227Y0001603D01*
X0003330Y0001717D01*
X0003430Y0001833D01*
X0003527Y0001951D01*
X0003622Y0002070D01*
X0003713Y0002191D01*
X0003888Y0002432D01*
X0004052Y0002673D01*
X0004207Y0002909D01*
X0004352Y0003143D01*
X0004488Y0003378D01*
X0004616Y0003617D01*
X0004677Y0003739D01*
X0004737Y0003862D01*
X0004794Y0003988D01*
X0004850Y0004117D01*
X0004905Y0004248D01*
X0004958Y0004383D01*
X0005060Y0004665D01*
X0005158Y0004964D01*
X0005250Y0005279D01*
X0005335Y0005611D01*
X0005415Y0005956D01*
X0005487Y0006316D01*
X0005552Y0006687D01*
X0005608Y0007070D01*
X0005656Y0007464D01*
X0005694Y0007866D01*
X0005721Y0008275D01*
X0005735Y0008689D01*
X0005736Y0008898D01*
X0005734Y0009107D01*
X0005727Y0009316D01*
X0005715Y0009525D01*
X0005699Y0009734D01*
X0005678Y0009943D01*
X0005651Y0010150D01*
X0005619Y0010357D01*
X0005582Y0010563D01*
X0005538Y0010767D01*
X0005488Y0010969D01*
X0005432Y0011169D01*
X0005401Y0011268D01*
X0005369Y0011366D01*
X0005335Y0011464D01*
X0005299Y0011560D01*
X0005261Y0011656D01*
X0005222Y0011751D01*
X0005181Y0011844D01*
X0005138Y0011937D01*
X0005093Y0012028D01*
X0005046Y0012118D01*
X0004998Y0012207D01*
X0004947Y0012295D01*
X0004895Y0012381D01*
X0004840Y0012465D01*
X0004783Y0012549D01*
X0004725Y0012630D01*
X0004664Y0012710D01*
X0004601Y0012788D01*
X0004536Y0012864D01*
X0004469Y0012939D01*
X0004400Y0013011D01*
X0004328Y0013082D01*
X0004254Y0013151D01*
X0004178Y0013217D01*
X0004100Y0013281D01*
X0004019Y0013344D01*
X0003936Y0013403D01*
X0003851Y0013461D01*
X0003763Y0013516D01*
X0003673Y0013569D01*
X0003581Y0013620D01*
X0003486Y0013668D01*
X0003389Y0013714D01*
X0003290Y0013758D01*
X0003189Y0013799D01*
X0003086Y0013839D01*
X0002981Y0013876D01*
X0002873Y0013912D01*
X0002764Y0013945D01*
X0002653Y0013977D01*
X0002540Y0014006D01*
X0002426Y0014034D01*
X0002309Y0014060D01*
X0002191Y0014084D01*
X0001950Y0014127D01*
X0001702Y0014163D01*
X0001449Y0014193D01*
X0001190Y0014216D01*
X0000925Y0014234D01*
X0000656Y0014246D01*
X0000383Y0014254D01*
X-0000172D01*
X-0000446Y0014246D01*
X-0000715Y0014234D01*
X-0000979Y0014216D01*
X-0001238Y0014193D01*
X-0001491Y0014163D01*
X-0001739Y0014127D01*
X-0001980Y0014084D01*
X-0002098Y0014060D01*
X-0002215Y0014034D01*
X-0002330Y0014006D01*
X-0002442Y0013977D01*
X-0002554Y0013945D01*
X-0002663Y0013912D01*
X-0002770Y0013876D01*
X-0002875Y0013839D01*
X-0002978Y0013799D01*
X-0003080Y0013758D01*
X-0003179Y0013714D01*
X-0003275Y0013668D01*
X-0003370Y0013620D01*
X-0003463Y0013569D01*
X-0003553Y0013516D01*
X-0003640Y0013461D01*
X-0003726Y0013403D01*
X-0003809Y0013344D01*
X-0003889Y0013281D01*
X-0003968Y0013217D01*
X-0004044Y0013151D01*
X-0004117Y0013082D01*
X-0004189Y0013011D01*
X-0004258Y0012939D01*
X-0004325Y0012864D01*
X-0004390Y0012788D01*
X-0004453Y0012710D01*
X-0004514Y0012630D01*
X-0004573Y0012549D01*
X-0004629Y0012465D01*
X-0004684Y0012381D01*
X-0004736Y0012295D01*
X-0004787Y0012207D01*
X-0004836Y0012118D01*
X-0004882Y0012028D01*
X-0004927Y0011937D01*
X-0004970Y0011844D01*
X-0005011Y0011751D01*
X-0005051Y0011656D01*
X-0005088Y0011560D01*
X-0005124Y0011464D01*
X-0005158Y0011366D01*
X-0005190Y0011268D01*
X-0005221Y0011169D01*
X-0005277Y0010969D01*
X-0005327Y0010767D01*
X-0005371Y0010563D01*
X-0005408Y0010357D01*
X-0005440Y0010150D01*
X-0005467Y0009943D01*
X-0005488Y0009734D01*
X-0005504Y0009525D01*
X-0005516Y0009316D01*
X-0005523Y0009107D01*
X-0005526Y0008898D01*
X-0005524Y0008689D01*
X-0005510Y0008275D01*
X-0005484Y0007866D01*
X-0005445Y0007464D01*
X-0005398Y0007070D01*
X-0005341Y0006687D01*
X-0005276Y0006316D01*
X-0005204Y0005956D01*
X-0005125Y0005611D01*
X-0005039Y0005279D01*
X-0004947Y0004964D01*
X-0004850Y0004665D01*
X-0004747Y0004383D01*
X-0004694Y0004248D01*
X-0004640Y0004117D01*
X-0004584Y0003988D01*
X-0004526Y0003862D01*
X-0004466Y0003739D01*
X-0004405Y0003617D01*
X-0004277Y0003378D01*
X-0004141Y0003143D01*
X-0003996Y0002909D01*
X-0003841Y0002673D01*
X-0003677Y0002432D01*
X-0003502Y0002191D01*
X-0003411Y0002070D01*
X-0003317Y0001951D01*
X-0003220Y0001833D01*
X-0003120Y0001717D01*
X-0003017Y0001603D01*
X-0002911Y0001492D01*
X-0002802Y0001384D01*
X-0002689Y0001279D01*
X-0002574Y0001179D01*
X-0002515Y0001130D01*
X-0002456Y0001083D01*
X-0002395Y0001037D01*
X-0002334Y0000992D01*
X-0002271Y0000948D01*
X-0002208Y0000906D01*
X-0002145Y0000866D01*
X-0002080Y0000826D01*
X-0002014Y0000788D01*
X-0001948Y0000752D01*
X-0001881Y0000717D01*
X-0001813Y0000683D01*
X-0001745Y0000651D01*
X-0001675Y0000620D01*
X-0001605Y0000591D01*
X-0001535Y0000563D01*
X-0001464Y0000536D01*
X-0001392Y0000510D01*
X-0001320Y0000486D01*
X-0001247Y0000464D01*
X-0001173Y0000442D01*
X-0001099Y0000422D01*
X-0001025Y0000403D01*
X-0000950Y0000386D01*
X-0000798Y0000354D01*
X-0000645Y0000328D01*
X-0000491Y0000307D01*
X-0000335Y0000290D01*
X-0000178Y0000278D01*
X-0000020Y0000271D01*
X0000138Y0000269D01*
G54D33*
G01X0005040Y0010790D02*
X0004260D01*
X0005040D02*
X0005390Y0010440D01*
Y0008300D01*
X0004010D01*
Y0010790D02*
Y0008300D01*
X0004260Y0010790D02*
X0004010D01*
X0005382Y0010448D02*
Y0008300D01*
X0005373Y0010457D02*
Y0008300D01*
X0005364Y0010466D02*
Y0008300D01*
X0005355Y0010475D02*
Y0008300D01*
X0005346Y0010484D02*
Y0008300D01*
X0005337Y0010493D02*
Y0008300D01*
X0005328Y0010502D02*
Y0008300D01*
X0005319Y0010511D02*
Y0008300D01*
X0005310Y0010520D02*
Y0008300D01*
X0005301Y0010529D02*
Y0008300D01*
X0005292Y0010538D02*
Y0008300D01*
X0005283Y0010547D02*
Y0008300D01*
X0005274Y0010556D02*
Y0008300D01*
X0005265Y0010565D02*
Y0008300D01*
X0005256Y0010574D02*
Y0008300D01*
X0005247Y0010583D02*
Y0008300D01*
X0005238Y0010592D02*
Y0008300D01*
X0005229Y0010601D02*
Y0008300D01*
X0005220Y0010610D02*
Y0008300D01*
X0005211Y0010619D02*
Y0008300D01*
X0005202Y0010628D02*
Y0008300D01*
X0005193Y0010637D02*
Y0008300D01*
X0005184Y0010646D02*
Y0008300D01*
X0005175Y0010655D02*
Y0008300D01*
X0005166Y0010664D02*
Y0008300D01*
X0005157Y0010673D02*
Y0008300D01*
X0005148Y0010682D02*
Y0008300D01*
X0005139Y0010691D02*
Y0008300D01*
X0005130Y0010700D02*
Y0008300D01*
X0005121Y0010709D02*
Y0008300D01*
X0005112Y0010718D02*
Y0008300D01*
X0005103Y0010727D02*
Y0008300D01*
X0005094Y0010736D02*
Y0008300D01*
X0005085Y0010745D02*
Y0008300D01*
X0005076Y0010754D02*
Y0008300D01*
X0005067Y0010763D02*
Y0008300D01*
X0005058Y0010772D02*
Y0008300D01*
X0005049Y0010781D02*
Y0008300D01*
X0005040Y0010790D02*
Y0008300D01*
X0005031Y0010790D02*
Y0008300D01*
X0005022Y0010790D02*
Y0008300D01*
X0005013Y0010790D02*
Y0008300D01*
X0005004Y0010790D02*
Y0008300D01*
X0004995Y0010790D02*
Y0008300D01*
X0004986Y0010790D02*
Y0008300D01*
X0004977Y0010790D02*
Y0008300D01*
X0004968Y0010790D02*
Y0008300D01*
X0004959Y0010790D02*
Y0008300D01*
X0004950Y0010790D02*
Y0008300D01*
X0004941Y0010790D02*
Y0008300D01*
X0004932Y0010790D02*
Y0008300D01*
X0004923Y0010790D02*
Y0008300D01*
X0004914Y0010790D02*
Y0008300D01*
X0004905Y0010790D02*
Y0008300D01*
X0004896Y0010790D02*
Y0008300D01*
X0004887Y0010790D02*
Y0008300D01*
X0004878Y0010790D02*
Y0008300D01*
X0004869Y0010790D02*
Y0008300D01*
X0004860Y0010790D02*
Y0008300D01*
X0004851Y0010790D02*
Y0008300D01*
X0004842Y0010790D02*
Y0008300D01*
X0004833Y0010790D02*
Y0008300D01*
X0004824Y0010790D02*
Y0008300D01*
X0004815Y0010790D02*
Y0008300D01*
X0004806Y0010790D02*
Y0008300D01*
X0004797Y0010790D02*
Y0008300D01*
X0004788Y0010790D02*
Y0008300D01*
X0004779Y0010790D02*
Y0008300D01*
X0004770Y0010790D02*
Y0008300D01*
X0004761Y0010790D02*
Y0008300D01*
X0004752Y0010790D02*
Y0008300D01*
X0004743Y0010790D02*
Y0008300D01*
X0004734Y0010790D02*
Y0008300D01*
X0004725Y0010790D02*
Y0008300D01*
X0004716Y0010790D02*
Y0008300D01*
X0004707Y0010790D02*
Y0008300D01*
X0004698Y0010790D02*
Y0008300D01*
X0004689Y0010790D02*
Y0008300D01*
X0004680Y0010790D02*
Y0008300D01*
X0004671Y0010790D02*
Y0008300D01*
X0004662Y0010790D02*
Y0008300D01*
X0004653Y0010790D02*
Y0008300D01*
X0004644Y0010790D02*
Y0008300D01*
X0004635Y0010790D02*
Y0008300D01*
X0004626Y0010790D02*
Y0008300D01*
X0004617Y0010790D02*
Y0008300D01*
X0004608Y0010790D02*
Y0008300D01*
X0004599Y0010790D02*
Y0008300D01*
X0004590Y0010790D02*
Y0008300D01*
X0004581Y0010790D02*
Y0008300D01*
X0004572Y0010790D02*
Y0008300D01*
X0004563Y0010790D02*
Y0008300D01*
X0004554Y0010790D02*
Y0008300D01*
X0004545Y0010790D02*
Y0008300D01*
X0004536Y0010790D02*
Y0008300D01*
X0004527Y0010790D02*
Y0008300D01*
X0004518Y0010790D02*
Y0008300D01*
X0004509Y0010790D02*
Y0008300D01*
X0004500Y0010790D02*
Y0008300D01*
X0004491Y0010790D02*
Y0008300D01*
X0004482Y0010790D02*
Y0008300D01*
X0004473Y0010790D02*
Y0008300D01*
X0004464Y0010790D02*
Y0008300D01*
X0004455Y0010790D02*
Y0008300D01*
X0004446Y0010790D02*
Y0008300D01*
X0004437Y0010790D02*
Y0008300D01*
X0004428Y0010790D02*
Y0008300D01*
X0004419Y0010790D02*
Y0008300D01*
X0004410Y0010790D02*
Y0008300D01*
X0004401Y0010790D02*
Y0008300D01*
X0004392Y0010790D02*
Y0008300D01*
X0004383Y0010790D02*
Y0008300D01*
X0004374Y0010790D02*
Y0008300D01*
X0004365Y0010790D02*
Y0008300D01*
X0004356Y0010790D02*
Y0008300D01*
X0004347Y0010790D02*
Y0008300D01*
X0004338Y0010790D02*
Y0008300D01*
X0004329Y0010790D02*
Y0008300D01*
X0004320Y0010790D02*
Y0008300D01*
X0004311Y0010790D02*
Y0008300D01*
X0004302Y0010790D02*
Y0008300D01*
X0004293Y0010790D02*
Y0008300D01*
X0004284Y0010790D02*
Y0008300D01*
X0004275Y0010790D02*
Y0008300D01*
X0004266Y0010790D02*
Y0008300D01*
X0004257Y0010790D02*
Y0008300D01*
X0004248Y0010790D02*
Y0008300D01*
X0004239Y0010790D02*
Y0008300D01*
X0004230Y0010790D02*
Y0008300D01*
X0004221Y0010790D02*
Y0008300D01*
X0004212Y0010790D02*
Y0008300D01*
X0004203Y0010790D02*
Y0008300D01*
X0004194Y0010790D02*
Y0008300D01*
X0004185Y0010790D02*
Y0008300D01*
X0004176Y0010790D02*
Y0008300D01*
X0004167Y0010790D02*
Y0008300D01*
X0004158Y0010790D02*
Y0008300D01*
X0004149Y0010790D02*
Y0008300D01*
X0004140Y0010790D02*
Y0008300D01*
X0004131Y0010790D02*
Y0008300D01*
X0004122Y0010790D02*
Y0008300D01*
X0004113Y0010790D02*
Y0008300D01*
X0004104Y0010790D02*
Y0008300D01*
X0004095Y0010790D02*
Y0008300D01*
X0004086Y0010790D02*
Y0008300D01*
X0004077Y0010790D02*
Y0008300D01*
X0004068Y0010790D02*
Y0008300D01*
X0004059Y0010790D02*
Y0008300D01*
X0004050Y0010790D02*
Y0008300D01*
X0004041Y0010790D02*
Y0008300D01*
X0004032Y0010790D02*
Y0008300D01*
X0004023Y0010790D02*
Y0008300D01*
X0005042Y0010788D02*
X0004010D01*
X0005051Y0010779D02*
X0004010D01*
X0005060Y0010770D02*
X0004010D01*
X0005069Y0010761D02*
X0004010D01*
X0005078Y0010752D02*
X0004010D01*
X0005087Y0010743D02*
X0004010D01*
X0005096Y0010734D02*
X0004010D01*
X0005105Y0010725D02*
X0004010D01*
X0005114Y0010716D02*
X0004010D01*
X0005123Y0010707D02*
X0004010D01*
X0005132Y0010698D02*
X0004010D01*
X0005141Y0010689D02*
X0004010D01*
X0005150Y0010680D02*
X0004010D01*
X0005159Y0010671D02*
X0004010D01*
X0005168Y0010662D02*
X0004010D01*
X0005177Y0010653D02*
X0004010D01*
X0005186Y0010644D02*
X0004010D01*
X0005195Y0010635D02*
X0004010D01*
X0005204Y0010626D02*
X0004010D01*
X0005213Y0010617D02*
X0004010D01*
X0005222Y0010608D02*
X0004010D01*
X0005231Y0010599D02*
X0004010D01*
X0005240Y0010590D02*
X0004010D01*
X0005249Y0010581D02*
X0004010D01*
X0005258Y0010572D02*
X0004010D01*
X0005267Y0010563D02*
X0004010D01*
X0005276Y0010554D02*
X0004010D01*
X0005285Y0010545D02*
X0004010D01*
X0005294Y0010536D02*
X0004010D01*
X0005303Y0010527D02*
X0004010D01*
X0005312Y0010518D02*
X0004010D01*
X0005321Y0010509D02*
X0004010D01*
X0005330Y0010500D02*
X0004010D01*
X0005339Y0010491D02*
X0004010D01*
X0005348Y0010482D02*
X0004010D01*
X0005357Y0010473D02*
X0004010D01*
X0005366Y0010464D02*
X0004010D01*
X0005375Y0010455D02*
X0004010D01*
X0005384Y0010446D02*
X0004010D01*
X0005390Y0010437D02*
X0004010D01*
X0005390Y0010428D02*
X0004010D01*
X0005390Y0010419D02*
X0004010D01*
X0005390Y0010410D02*
X0004010D01*
X0005390Y0010401D02*
X0004010D01*
X0005390Y0010392D02*
X0004010D01*
X0005390Y0010383D02*
X0004010D01*
X0005390Y0010374D02*
X0004010D01*
X0005390Y0010365D02*
X0004010D01*
X0005390Y0010356D02*
X0004010D01*
X0005390Y0010347D02*
X0004010D01*
X0005390Y0010338D02*
X0004010D01*
X0005390Y0010329D02*
X0004010D01*
X0005390Y0010320D02*
X0004010D01*
X0005390Y0010311D02*
X0004010D01*
X0005390Y0010302D02*
X0004010D01*
X0005390Y0010293D02*
X0004010D01*
X0005390Y0010284D02*
X0004010D01*
X0005390Y0010275D02*
X0004010D01*
X0005390Y0010266D02*
X0004010D01*
X0005390Y0010257D02*
X0004010D01*
X0005390Y0010248D02*
X0004010D01*
X0005390Y0010239D02*
X0004010D01*
X0005390Y0010230D02*
X0004010D01*
X0005390Y0010221D02*
X0004010D01*
X0005390Y0010212D02*
X0004010D01*
X0005390Y0010203D02*
X0004010D01*
X0005390Y0010194D02*
X0004010D01*
X0005390Y0010185D02*
X0004010D01*
X0005390Y0010176D02*
X0004010D01*
X0005390Y0010167D02*
X0004010D01*
X0005390Y0010158D02*
X0004010D01*
X0005390Y0010149D02*
X0004010D01*
X0005390Y0010140D02*
X0004010D01*
X0005390Y0010131D02*
X0004010D01*
X0005390Y0010122D02*
X0004010D01*
X0005390Y0010113D02*
X0004010D01*
X0005390Y0010104D02*
X0004010D01*
X0005390Y0010095D02*
X0004010D01*
X0005390Y0010086D02*
X0004010D01*
X0005390Y0010077D02*
X0004010D01*
X0005390Y0010068D02*
X0004010D01*
X0005390Y0010059D02*
X0004010D01*
X0005390Y0010050D02*
X0004010D01*
X0005390Y0010041D02*
X0004010D01*
X0005390Y0010032D02*
X0004010D01*
X0005390Y0010023D02*
X0004010D01*
X0005390Y0010014D02*
X0004010D01*
X0005390Y0010005D02*
X0004010D01*
X0005390Y0009996D02*
X0004010D01*
X0005390Y0009987D02*
X0004010D01*
X0005390Y0009978D02*
X0004010D01*
X0005390Y0009969D02*
X0004010D01*
X0005390Y0009960D02*
X0004010D01*
X0005390Y0009951D02*
X0004010D01*
X0005390Y0009942D02*
X0004010D01*
X0005390Y0009933D02*
X0004010D01*
X0005390Y0009924D02*
X0004010D01*
X0005390Y0009915D02*
X0004010D01*
X0005390Y0009906D02*
X0004010D01*
X0005390Y0009897D02*
X0004010D01*
X0005390Y0009888D02*
X0004010D01*
X0005390Y0009879D02*
X0004010D01*
X0005390Y0009870D02*
X0004010D01*
X0005390Y0009861D02*
X0004010D01*
X0005390Y0009852D02*
X0004010D01*
X0005390Y0009843D02*
X0004010D01*
X0005390Y0009834D02*
X0004010D01*
X0005390Y0009825D02*
X0004010D01*
X0005390Y0009816D02*
X0004010D01*
X0005390Y0009807D02*
X0004010D01*
X0005390Y0009798D02*
X0004010D01*
X0005390Y0009789D02*
X0004010D01*
X0005390Y0009780D02*
X0004010D01*
X0005390Y0009771D02*
X0004010D01*
X0005390Y0009762D02*
X0004010D01*
X0005390Y0009753D02*
X0004010D01*
X0005390Y0009744D02*
X0004010D01*
X0005390Y0009735D02*
X0004010D01*
X0005390Y0009726D02*
X0004010D01*
X0005390Y0009717D02*
X0004010D01*
X0005390Y0009708D02*
X0004010D01*
X0005390Y0009699D02*
X0004010D01*
X0005390Y0009690D02*
X0004010D01*
X0005390Y0009681D02*
X0004010D01*
X0005390Y0009672D02*
X0004010D01*
X0005390Y0009663D02*
X0004010D01*
X0005390Y0009654D02*
X0004010D01*
X0005390Y0009645D02*
X0004010D01*
X0005390Y0009636D02*
X0004010D01*
X0005390Y0009627D02*
X0004010D01*
X0005390Y0009618D02*
X0004010D01*
X0005390Y0009609D02*
X0004010D01*
X0005390Y0009600D02*
X0004010D01*
X0005390Y0009591D02*
X0004010D01*
X0005390Y0009582D02*
X0004010D01*
X0005390Y0009573D02*
X0004010D01*
X0005390Y0009564D02*
X0004010D01*
X0005390Y0009555D02*
X0004010D01*
X0005390Y0009546D02*
X0004010D01*
X0005390Y0009537D02*
X0004010D01*
X0005390Y0009528D02*
X0004010D01*
X0005390Y0009519D02*
X0004010D01*
X0005390Y0009510D02*
X0004010D01*
X0005390Y0009501D02*
X0004010D01*
X0005390Y0009492D02*
X0004010D01*
X0005390Y0009483D02*
X0004010D01*
X0005390Y0009474D02*
X0004010D01*
X0005390Y0009465D02*
X0004010D01*
X0005390Y0009456D02*
X0004010D01*
X0005390Y0009447D02*
X0004010D01*
X0005390Y0009438D02*
X0004010D01*
X0005390Y0009429D02*
X0004010D01*
X0005390Y0009420D02*
X0004010D01*
X0005390Y0009411D02*
X0004010D01*
X0005390Y0009402D02*
X0004010D01*
X0005390Y0009393D02*
X0004010D01*
X0005390Y0009384D02*
X0004010D01*
X0005390Y0009375D02*
X0004010D01*
X0005390Y0009366D02*
X0004010D01*
X0005390Y0009357D02*
X0004010D01*
X0005390Y0009348D02*
X0004010D01*
X0005390Y0009339D02*
X0004010D01*
X0005390Y0009330D02*
X0004010D01*
X0005390Y0009321D02*
X0004010D01*
X0005390Y0009312D02*
X0004010D01*
X0005390Y0009303D02*
X0004010D01*
X0005390Y0009294D02*
X0004010D01*
X0005390Y0009285D02*
X0004010D01*
X0005390Y0009276D02*
X0004010D01*
X0005390Y0009267D02*
X0004010D01*
X0005390Y0009258D02*
X0004010D01*
X0005390Y0009249D02*
X0004010D01*
X0005390Y0009240D02*
X0004010D01*
X0005390Y0009231D02*
X0004010D01*
X0005390Y0009222D02*
X0004010D01*
X0005390Y0009213D02*
X0004010D01*
X0005390Y0009204D02*
X0004010D01*
X0005390Y0009195D02*
X0004010D01*
X0005390Y0009186D02*
X0004010D01*
X0005390Y0009177D02*
X0004010D01*
X0005390Y0009168D02*
X0004010D01*
X0005390Y0009159D02*
X0004010D01*
X0005390Y0009150D02*
X0004010D01*
X0005390Y0009141D02*
X0004010D01*
X0005390Y0009132D02*
X0004010D01*
X0005390Y0009123D02*
X0004010D01*
X0005390Y0009114D02*
X0004010D01*
X0005390Y0009105D02*
X0004010D01*
X0005390Y0009096D02*
X0004010D01*
X0005390Y0009087D02*
X0004010D01*
X0005390Y0009078D02*
X0004010D01*
X0005390Y0009069D02*
X0004010D01*
X0005390Y0009060D02*
X0004010D01*
X0005390Y0009051D02*
X0004010D01*
X0005390Y0009042D02*
X0004010D01*
X0005390Y0009033D02*
X0004010D01*
X0005390Y0009024D02*
X0004010D01*
X0005390Y0009015D02*
X0004010D01*
X0005390Y0009006D02*
X0004010D01*
X0005390Y0008997D02*
X0004010D01*
X0005390Y0008988D02*
X0004010D01*
X0005390Y0008979D02*
X0004010D01*
X0005390Y0008970D02*
X0004010D01*
X0005390Y0008961D02*
X0004010D01*
X0005390Y0008952D02*
X0004010D01*
X0005390Y0008943D02*
X0004010D01*
X0005390Y0008934D02*
X0004010D01*
X0005390Y0008925D02*
X0004010D01*
X0005390Y0008916D02*
X0004010D01*
X0005390Y0008907D02*
X0004010D01*
X0005390Y0008898D02*
X0004010D01*
X0005390Y0008889D02*
X0004010D01*
X0005390Y0008880D02*
X0004010D01*
X0005390Y0008871D02*
X0004010D01*
X0005390Y0008862D02*
X0004010D01*
X0005390Y0008853D02*
X0004010D01*
X0005390Y0008844D02*
X0004010D01*
X0005390Y0008835D02*
X0004010D01*
X0005390Y0008826D02*
X0004010D01*
X0005390Y0008817D02*
X0004010D01*
X0005390Y0008808D02*
X0004010D01*
X0005390Y0008799D02*
X0004010D01*
X0005390Y0008790D02*
X0004010D01*
X0005390Y0008781D02*
X0004010D01*
X0005390Y0008772D02*
X0004010D01*
X0005390Y0008763D02*
X0004010D01*
X0005390Y0008754D02*
X0004010D01*
X0005390Y0008745D02*
X0004010D01*
X0005390Y0008736D02*
X0004010D01*
X0005390Y0008727D02*
X0004010D01*
X0005390Y0008718D02*
X0004010D01*
X0005390Y0008709D02*
X0004010D01*
X0005390Y0008700D02*
X0004010D01*
X0005390Y0008691D02*
X0004010D01*
X0005390Y0008682D02*
X0004010D01*
X0005390Y0008673D02*
X0004010D01*
X0005390Y0008664D02*
X0004010D01*
X0005390Y0008655D02*
X0004010D01*
X0005390Y0008646D02*
X0004010D01*
X0005390Y0008637D02*
X0004010D01*
X0005390Y0008628D02*
X0004010D01*
X0005390Y0008619D02*
X0004010D01*
X0005390Y0008610D02*
X0004010D01*
X0005390Y0008601D02*
X0004010D01*
X0005390Y0008592D02*
X0004010D01*
X0005390Y0008583D02*
X0004010D01*
X0005390Y0008574D02*
X0004010D01*
X0005390Y0008565D02*
X0004010D01*
X0005390Y0008556D02*
X0004010D01*
X0005390Y0008547D02*
X0004010D01*
X0005390Y0008538D02*
X0004010D01*
X0005390Y0008529D02*
X0004010D01*
X0005390Y0008520D02*
X0004010D01*
X0005390Y0008511D02*
X0004010D01*
X0005390Y0008502D02*
X0004010D01*
X0005390Y0008493D02*
X0004010D01*
X0005390Y0008484D02*
X0004010D01*
X0005390Y0008475D02*
X0004010D01*
X0005390Y0008466D02*
X0004010D01*
X0005390Y0008457D02*
X0004010D01*
X0005390Y0008448D02*
X0004010D01*
X0005390Y0008439D02*
X0004010D01*
X0005390Y0008430D02*
X0004010D01*
X0005390Y0008421D02*
X0004010D01*
X0005390Y0008412D02*
X0004010D01*
X0005390Y0008403D02*
X0004010D01*
X0005390Y0008394D02*
X0004010D01*
X0005390Y0008385D02*
X0004010D01*
X0005390Y0008376D02*
X0004010D01*
X0005390Y0008367D02*
X0004010D01*
X0005390Y0008358D02*
X0004010D01*
X0005390Y0008349D02*
X0004010D01*
X0005390Y0008340D02*
X0004010D01*
X0005390Y0008331D02*
X0004010D01*
X0005390Y0008322D02*
X0004010D01*
X0005390Y0008313D02*
X0004010D01*
X-0003770Y0010770D02*
X-0004720D01*
X-0003770D02*
Y0008280D01*
X-0005150D01*
Y0010340D02*
Y0008280D01*
X-0004720Y0010770D02*
X-0005150Y0010340D01*
X-0003778Y0010770D02*
Y0008280D01*
X-0003787Y0010770D02*
Y0008280D01*
X-0003796Y0010770D02*
Y0008280D01*
X-0003805Y0010770D02*
Y0008280D01*
X-0003814Y0010770D02*
Y0008280D01*
X-0003823Y0010770D02*
Y0008280D01*
X-0003832Y0010770D02*
Y0008280D01*
X-0003841Y0010770D02*
Y0008280D01*
X-0003850Y0010770D02*
Y0008280D01*
X-0003859Y0010770D02*
Y0008280D01*
X-0003868Y0010770D02*
Y0008280D01*
X-0003877Y0010770D02*
Y0008280D01*
X-0003886Y0010770D02*
Y0008280D01*
X-0003895Y0010770D02*
Y0008280D01*
X-0003904Y0010770D02*
Y0008280D01*
X-0003913Y0010770D02*
Y0008280D01*
X-0003922Y0010770D02*
Y0008280D01*
X-0003931Y0010770D02*
Y0008280D01*
X-0003940Y0010770D02*
Y0008280D01*
X-0003949Y0010770D02*
Y0008280D01*
X-0003958Y0010770D02*
Y0008280D01*
X-0003967Y0010770D02*
Y0008280D01*
X-0003976Y0010770D02*
Y0008280D01*
X-0003985Y0010770D02*
Y0008280D01*
X-0003994Y0010770D02*
Y0008280D01*
X-0004003Y0010770D02*
Y0008280D01*
X-0004012Y0010770D02*
Y0008280D01*
X-0004021Y0010770D02*
Y0008280D01*
X-0004030Y0010770D02*
Y0008280D01*
X-0004039Y0010770D02*
Y0008280D01*
X-0004048Y0010770D02*
Y0008280D01*
X-0004057Y0010770D02*
Y0008280D01*
X-0004066Y0010770D02*
Y0008280D01*
X-0004075Y0010770D02*
Y0008280D01*
X-0004084Y0010770D02*
Y0008280D01*
X-0004093Y0010770D02*
Y0008280D01*
X-0004102Y0010770D02*
Y0008280D01*
X-0004111Y0010770D02*
Y0008280D01*
X-0004120Y0010770D02*
Y0008280D01*
X-0004129Y0010770D02*
Y0008280D01*
X-0004138Y0010770D02*
Y0008280D01*
X-0004147Y0010770D02*
Y0008280D01*
X-0004156Y0010770D02*
Y0008280D01*
X-0004165Y0010770D02*
Y0008280D01*
X-0004174Y0010770D02*
Y0008280D01*
X-0004183Y0010770D02*
Y0008280D01*
X-0004192Y0010770D02*
Y0008280D01*
X-0004201Y0010770D02*
Y0008280D01*
X-0004210Y0010770D02*
Y0008280D01*
X-0004219Y0010770D02*
Y0008280D01*
X-0004228Y0010770D02*
Y0008280D01*
X-0004237Y0010770D02*
Y0008280D01*
X-0004246Y0010770D02*
Y0008280D01*
X-0004255Y0010770D02*
Y0008280D01*
X-0004264Y0010770D02*
Y0008280D01*
X-0004273Y0010770D02*
Y0008280D01*
X-0004282Y0010770D02*
Y0008280D01*
X-0004291Y0010770D02*
Y0008280D01*
X-0004300Y0010770D02*
Y0008280D01*
X-0004309Y0010770D02*
Y0008280D01*
X-0004318Y0010770D02*
Y0008280D01*
X-0004327Y0010770D02*
Y0008280D01*
X-0004336Y0010770D02*
Y0008280D01*
X-0004345Y0010770D02*
Y0008280D01*
X-0004354Y0010770D02*
Y0008280D01*
X-0004363Y0010770D02*
Y0008280D01*
X-0004372Y0010770D02*
Y0008280D01*
X-0004381Y0010770D02*
Y0008280D01*
X-0004390Y0010770D02*
Y0008280D01*
X-0004399Y0010770D02*
Y0008280D01*
X-0004408Y0010770D02*
Y0008280D01*
X-0004417Y0010770D02*
Y0008280D01*
X-0004426Y0010770D02*
Y0008280D01*
X-0004435Y0010770D02*
Y0008280D01*
X-0004444Y0010770D02*
Y0008280D01*
X-0004453Y0010770D02*
Y0008280D01*
X-0004462Y0010770D02*
Y0008280D01*
X-0004471Y0010770D02*
Y0008280D01*
X-0004480Y0010770D02*
Y0008280D01*
X-0004489Y0010770D02*
Y0008280D01*
X-0004498Y0010770D02*
Y0008280D01*
X-0004507Y0010770D02*
Y0008280D01*
X-0004516Y0010770D02*
Y0008280D01*
X-0004525Y0010770D02*
Y0008280D01*
X-0004534Y0010770D02*
Y0008280D01*
X-0004543Y0010770D02*
Y0008280D01*
X-0004552Y0010770D02*
Y0008280D01*
X-0004561Y0010770D02*
Y0008280D01*
X-0004570Y0010770D02*
Y0008280D01*
X-0004579Y0010770D02*
Y0008280D01*
X-0004588Y0010770D02*
Y0008280D01*
X-0004597Y0010770D02*
Y0008280D01*
X-0004606Y0010770D02*
Y0008280D01*
X-0004615Y0010770D02*
Y0008280D01*
X-0004624Y0010770D02*
Y0008280D01*
X-0004633Y0010770D02*
Y0008280D01*
X-0004642Y0010770D02*
Y0008280D01*
X-0004651Y0010770D02*
Y0008280D01*
X-0004660Y0010770D02*
Y0008280D01*
X-0004669Y0010770D02*
Y0008280D01*
X-0004678Y0010770D02*
Y0008280D01*
X-0004687Y0010770D02*
Y0008280D01*
X-0004696Y0010770D02*
Y0008280D01*
X-0004705Y0010770D02*
Y0008280D01*
X-0004714Y0010770D02*
Y0008280D01*
X-0004723Y0010767D02*
Y0008280D01*
X-0004732Y0010758D02*
Y0008280D01*
X-0004741Y0010749D02*
Y0008280D01*
X-0004750Y0010740D02*
Y0008280D01*
X-0004759Y0010731D02*
Y0008280D01*
X-0004768Y0010722D02*
Y0008280D01*
X-0004777Y0010713D02*
Y0008280D01*
X-0004786Y0010704D02*
Y0008280D01*
X-0004795Y0010695D02*
Y0008280D01*
X-0004804Y0010686D02*
Y0008280D01*
X-0004813Y0010677D02*
Y0008280D01*
X-0004822Y0010668D02*
Y0008280D01*
X-0004831Y0010659D02*
Y0008280D01*
X-0004840Y0010650D02*
Y0008280D01*
X-0004849Y0010641D02*
Y0008280D01*
X-0004858Y0010632D02*
Y0008280D01*
X-0004867Y0010623D02*
Y0008280D01*
X-0004876Y0010614D02*
Y0008280D01*
X-0004885Y0010605D02*
Y0008280D01*
X-0004894Y0010596D02*
Y0008280D01*
X-0004903Y0010587D02*
Y0008280D01*
X-0004912Y0010578D02*
Y0008280D01*
X-0004921Y0010569D02*
Y0008280D01*
X-0004930Y0010560D02*
Y0008280D01*
X-0004939Y0010551D02*
Y0008280D01*
X-0004948Y0010542D02*
Y0008280D01*
X-0004957Y0010533D02*
Y0008280D01*
X-0004966Y0010524D02*
Y0008280D01*
X-0004975Y0010515D02*
Y0008280D01*
X-0004984Y0010506D02*
Y0008280D01*
X-0004993Y0010497D02*
Y0008280D01*
X-0005002Y0010488D02*
Y0008280D01*
X-0005011Y0010479D02*
Y0008280D01*
X-0005020Y0010470D02*
Y0008280D01*
X-0005029Y0010461D02*
Y0008280D01*
X-0005038Y0010452D02*
Y0008280D01*
X-0005047Y0010443D02*
Y0008280D01*
X-0005056Y0010434D02*
Y0008280D01*
X-0005065Y0010425D02*
Y0008280D01*
X-0005074Y0010416D02*
Y0008280D01*
X-0005083Y0010407D02*
Y0008280D01*
X-0005092Y0010398D02*
Y0008280D01*
X-0005101Y0010389D02*
Y0008280D01*
X-0005110Y0010380D02*
Y0008280D01*
X-0005119Y0010371D02*
Y0008280D01*
X-0005128Y0010362D02*
Y0008280D01*
X-0005137Y0010353D02*
Y0008280D01*
X-0003770Y0010759D02*
X-0004731D01*
X-0003770Y0010750D02*
X-0004740D01*
X-0003770Y0010741D02*
X-0004749D01*
X-0003770Y0010732D02*
X-0004758D01*
X-0003770Y0010723D02*
X-0004767D01*
X-0003770Y0010714D02*
X-0004776D01*
X-0003770Y0010705D02*
X-0004785D01*
X-0003770Y0010696D02*
X-0004794D01*
X-0003770Y0010687D02*
X-0004803D01*
X-0003770Y0010678D02*
X-0004812D01*
X-0003770Y0010669D02*
X-0004821D01*
X-0003770Y0010660D02*
X-0004830D01*
X-0003770Y0010651D02*
X-0004839D01*
X-0003770Y0010642D02*
X-0004848D01*
X-0003770Y0010633D02*
X-0004857D01*
X-0003770Y0010624D02*
X-0004866D01*
X-0003770Y0010615D02*
X-0004875D01*
X-0003770Y0010606D02*
X-0004884D01*
X-0003770Y0010597D02*
X-0004893D01*
X-0003770Y0010588D02*
X-0004902D01*
X-0003770Y0010579D02*
X-0004911D01*
X-0003770Y0010570D02*
X-0004920D01*
X-0003770Y0010561D02*
X-0004929D01*
X-0003770Y0010552D02*
X-0004938D01*
X-0003770Y0010543D02*
X-0004947D01*
X-0003770Y0010534D02*
X-0004956D01*
X-0003770Y0010525D02*
X-0004965D01*
X-0003770Y0010516D02*
X-0004974D01*
X-0003770Y0010507D02*
X-0004983D01*
X-0003770Y0010498D02*
X-0004992D01*
X-0003770Y0010489D02*
X-0005001D01*
X-0003770Y0010480D02*
X-0005010D01*
X-0003770Y0010471D02*
X-0005019D01*
X-0003770Y0010462D02*
X-0005028D01*
X-0003770Y0010453D02*
X-0005037D01*
X-0003770Y0010444D02*
X-0005046D01*
X-0003770Y0010435D02*
X-0005055D01*
X-0003770Y0010426D02*
X-0005064D01*
X-0003770Y0010417D02*
X-0005073D01*
X-0003770Y0010408D02*
X-0005082D01*
X-0003770Y0010399D02*
X-0005091D01*
X-0003770Y0010390D02*
X-0005100D01*
X-0003770Y0010381D02*
X-0005109D01*
X-0003770Y0010372D02*
X-0005118D01*
X-0003770Y0010363D02*
X-0005127D01*
X-0003770Y0010354D02*
X-0005136D01*
X-0003770Y0010345D02*
X-0005145D01*
X-0003770Y0010336D02*
X-0005150D01*
X-0003770Y0010327D02*
X-0005150D01*
X-0003770Y0010318D02*
X-0005150D01*
X-0003770Y0010309D02*
X-0005150D01*
X-0003770Y0010300D02*
X-0005150D01*
X-0003770Y0010291D02*
X-0005150D01*
X-0003770Y0010282D02*
X-0005150D01*
X-0003770Y0010273D02*
X-0005150D01*
X-0003770Y0010264D02*
X-0005150D01*
X-0003770Y0010255D02*
X-0005150D01*
X-0003770Y0010246D02*
X-0005150D01*
X-0003770Y0010237D02*
X-0005150D01*
X-0003770Y0010228D02*
X-0005150D01*
X-0003770Y0010219D02*
X-0005150D01*
X-0003770Y0010210D02*
X-0005150D01*
X-0003770Y0010201D02*
X-0005150D01*
X-0003770Y0010192D02*
X-0005150D01*
X-0003770Y0010183D02*
X-0005150D01*
X-0003770Y0010174D02*
X-0005150D01*
X-0003770Y0010165D02*
X-0005150D01*
X-0003770Y0010156D02*
X-0005150D01*
X-0003770Y0010147D02*
X-0005150D01*
X-0003770Y0010138D02*
X-0005150D01*
X-0003770Y0010129D02*
X-0005150D01*
X-0003770Y0010120D02*
X-0005150D01*
X-0003770Y0010111D02*
X-0005150D01*
X-0003770Y0010102D02*
X-0005150D01*
X-0003770Y0010093D02*
X-0005150D01*
X-0003770Y0010084D02*
X-0005150D01*
X-0003770Y0010075D02*
X-0005150D01*
X-0003770Y0010066D02*
X-0005150D01*
X-0003770Y0010057D02*
X-0005150D01*
X-0003770Y0010048D02*
X-0005150D01*
X-0003770Y0010039D02*
X-0005150D01*
X-0003770Y0010030D02*
X-0005150D01*
X-0003770Y0010021D02*
X-0005150D01*
X-0003770Y0010012D02*
X-0005150D01*
X-0003770Y0010003D02*
X-0005150D01*
X-0003770Y0009994D02*
X-0005150D01*
X-0003770Y0009985D02*
X-0005150D01*
X-0003770Y0009976D02*
X-0005150D01*
X-0003770Y0009967D02*
X-0005150D01*
X-0003770Y0009958D02*
X-0005150D01*
X-0003770Y0009949D02*
X-0005150D01*
X-0003770Y0009940D02*
X-0005150D01*
X-0003770Y0009931D02*
X-0005150D01*
X-0003770Y0009922D02*
X-0005150D01*
X-0003770Y0009913D02*
X-0005150D01*
X-0003770Y0009904D02*
X-0005150D01*
X-0003770Y0009895D02*
X-0005150D01*
X-0003770Y0009886D02*
X-0005150D01*
X-0003770Y0009877D02*
X-0005150D01*
X-0003770Y0009868D02*
X-0005150D01*
X-0003770Y0009859D02*
X-0005150D01*
X-0003770Y0009850D02*
X-0005150D01*
X-0003770Y0009841D02*
X-0005150D01*
X-0003770Y0009832D02*
X-0005150D01*
X-0003770Y0009823D02*
X-0005150D01*
X-0003770Y0009814D02*
X-0005150D01*
X-0003770Y0009805D02*
X-0005150D01*
X-0003770Y0009796D02*
X-0005150D01*
X-0003770Y0009787D02*
X-0005150D01*
X-0003770Y0009778D02*
X-0005150D01*
X-0003770Y0009769D02*
X-0005150D01*
X-0003770Y0009760D02*
X-0005150D01*
X-0003770Y0009751D02*
X-0005150D01*
X-0003770Y0009742D02*
X-0005150D01*
X-0003770Y0009733D02*
X-0005150D01*
X-0003770Y0009724D02*
X-0005150D01*
X-0003770Y0009715D02*
X-0005150D01*
X-0003770Y0009706D02*
X-0005150D01*
X-0003770Y0009697D02*
X-0005150D01*
X-0003770Y0009688D02*
X-0005150D01*
X-0003770Y0009679D02*
X-0005150D01*
X-0003770Y0009670D02*
X-0005150D01*
X-0003770Y0009661D02*
X-0005150D01*
X-0003770Y0009652D02*
X-0005150D01*
X-0003770Y0009643D02*
X-0005150D01*
X-0003770Y0009634D02*
X-0005150D01*
X-0003770Y0009625D02*
X-0005150D01*
X-0003770Y0009616D02*
X-0005150D01*
X-0003770Y0009607D02*
X-0005150D01*
X-0003770Y0009598D02*
X-0005150D01*
X-0003770Y0009589D02*
X-0005150D01*
X-0003770Y0009580D02*
X-0005150D01*
X-0003770Y0009571D02*
X-0005150D01*
X-0003770Y0009562D02*
X-0005150D01*
X-0003770Y0009553D02*
X-0005150D01*
X-0003770Y0009544D02*
X-0005150D01*
X-0003770Y0009535D02*
X-0005150D01*
X-0003770Y0009526D02*
X-0005150D01*
X-0003770Y0009517D02*
X-0005150D01*
X-0003770Y0009508D02*
X-0005150D01*
X-0003770Y0009499D02*
X-0005150D01*
X-0003770Y0009490D02*
X-0005150D01*
X-0003770Y0009481D02*
X-0005150D01*
X-0003770Y0009472D02*
X-0005150D01*
X-0003770Y0009463D02*
X-0005150D01*
X-0003770Y0009454D02*
X-0005150D01*
X-0003770Y0009445D02*
X-0005150D01*
X-0003770Y0009436D02*
X-0005150D01*
X-0003770Y0009427D02*
X-0005150D01*
X-0003770Y0009418D02*
X-0005150D01*
X-0003770Y0009409D02*
X-0005150D01*
X-0003770Y0009400D02*
X-0005150D01*
X-0003770Y0009391D02*
X-0005150D01*
X-0003770Y0009382D02*
X-0005150D01*
X-0003770Y0009373D02*
X-0005150D01*
X-0003770Y0009364D02*
X-0005150D01*
X-0003770Y0009355D02*
X-0005150D01*
X-0003770Y0009346D02*
X-0005150D01*
X-0003770Y0009337D02*
X-0005150D01*
X-0003770Y0009328D02*
X-0005150D01*
X-0003770Y0009319D02*
X-0005150D01*
X-0003770Y0009310D02*
X-0005150D01*
X-0003770Y0009301D02*
X-0005150D01*
X-0003770Y0009292D02*
X-0005150D01*
X-0003770Y0009283D02*
X-0005150D01*
X-0003770Y0009274D02*
X-0005150D01*
X-0003770Y0009265D02*
X-0005150D01*
X-0003770Y0009256D02*
X-0005150D01*
X-0003770Y0009247D02*
X-0005150D01*
X-0003770Y0009238D02*
X-0005150D01*
X-0003770Y0009229D02*
X-0005150D01*
X-0003770Y0009220D02*
X-0005150D01*
X-0003770Y0009211D02*
X-0005150D01*
X-0003770Y0009202D02*
X-0005150D01*
X-0003770Y0009193D02*
X-0005150D01*
X-0003770Y0009184D02*
X-0005150D01*
X-0003770Y0009175D02*
X-0005150D01*
X-0003770Y0009166D02*
X-0005150D01*
X-0003770Y0009157D02*
X-0005150D01*
X-0003770Y0009148D02*
X-0005150D01*
X-0003770Y0009139D02*
X-0005150D01*
X-0003770Y0009130D02*
X-0005150D01*
X-0003770Y0009121D02*
X-0005150D01*
X-0003770Y0009112D02*
X-0005150D01*
X-0003770Y0009103D02*
X-0005150D01*
X-0003770Y0009094D02*
X-0005150D01*
X-0003770Y0009085D02*
X-0005150D01*
X-0003770Y0009076D02*
X-0005150D01*
X-0003770Y0009067D02*
X-0005150D01*
X-0003770Y0009058D02*
X-0005150D01*
X-0003770Y0009049D02*
X-0005150D01*
X-0003770Y0009040D02*
X-0005150D01*
X-0003770Y0009031D02*
X-0005150D01*
X-0003770Y0009022D02*
X-0005150D01*
X-0003770Y0009013D02*
X-0005150D01*
X-0003770Y0009004D02*
X-0005150D01*
X-0003770Y0008995D02*
X-0005150D01*
X-0003770Y0008986D02*
X-0005150D01*
X-0003770Y0008977D02*
X-0005150D01*
X-0003770Y0008968D02*
X-0005150D01*
X-0003770Y0008959D02*
X-0005150D01*
X-0003770Y0008950D02*
X-0005150D01*
X-0003770Y0008941D02*
X-0005150D01*
X-0003770Y0008932D02*
X-0005150D01*
X-0003770Y0008923D02*
X-0005150D01*
X-0003770Y0008914D02*
X-0005150D01*
X-0003770Y0008905D02*
X-0005150D01*
X-0003770Y0008896D02*
X-0005150D01*
X-0003770Y0008887D02*
X-0005150D01*
X-0003770Y0008878D02*
X-0005150D01*
X-0003770Y0008869D02*
X-0005150D01*
X-0003770Y0008860D02*
X-0005150D01*
X-0003770Y0008851D02*
X-0005150D01*
X-0003770Y0008842D02*
X-0005150D01*
X-0003770Y0008833D02*
X-0005150D01*
X-0003770Y0008824D02*
X-0005150D01*
X-0003770Y0008815D02*
X-0005150D01*
X-0003770Y0008806D02*
X-0005150D01*
X-0003770Y0008797D02*
X-0005150D01*
X-0003770Y0008788D02*
X-0005150D01*
X-0003770Y0008779D02*
X-0005150D01*
X-0003770Y0008770D02*
X-0005150D01*
X-0003770Y0008761D02*
X-0005150D01*
X-0003770Y0008752D02*
X-0005150D01*
X-0003770Y0008743D02*
X-0005150D01*
X-0003770Y0008734D02*
X-0005150D01*
X-0003770Y0008725D02*
X-0005150D01*
X-0003770Y0008716D02*
X-0005150D01*
X-0003770Y0008707D02*
X-0005150D01*
X-0003770Y0008698D02*
X-0005150D01*
X-0003770Y0008689D02*
X-0005150D01*
X-0003770Y0008680D02*
X-0005150D01*
X-0003770Y0008671D02*
X-0005150D01*
X-0003770Y0008662D02*
X-0005150D01*
X-0003770Y0008653D02*
X-0005150D01*
X-0003770Y0008644D02*
X-0005150D01*
X-0003770Y0008635D02*
X-0005150D01*
X-0003770Y0008626D02*
X-0005150D01*
X-0003770Y0008617D02*
X-0005150D01*
X-0003770Y0008608D02*
X-0005150D01*
X-0003770Y0008599D02*
X-0005150D01*
X-0003770Y0008590D02*
X-0005150D01*
X-0003770Y0008581D02*
X-0005150D01*
X-0003770Y0008572D02*
X-0005150D01*
X-0003770Y0008563D02*
X-0005150D01*
X-0003770Y0008554D02*
X-0005150D01*
X-0003770Y0008545D02*
X-0005150D01*
X-0003770Y0008536D02*
X-0005150D01*
X-0003770Y0008527D02*
X-0005150D01*
X-0003770Y0008518D02*
X-0005150D01*
X-0003770Y0008509D02*
X-0005150D01*
X-0003770Y0008500D02*
X-0005150D01*
X-0003770Y0008491D02*
X-0005150D01*
X-0003770Y0008482D02*
X-0005150D01*
X-0003770Y0008473D02*
X-0005150D01*
X-0003770Y0008464D02*
X-0005150D01*
X-0003770Y0008455D02*
X-0005150D01*
X-0003770Y0008446D02*
X-0005150D01*
X-0003770Y0008437D02*
X-0005150D01*
X-0003770Y0008428D02*
X-0005150D01*
X-0003770Y0008419D02*
X-0005150D01*
X-0003770Y0008410D02*
X-0005150D01*
X-0003770Y0008401D02*
X-0005150D01*
X-0003770Y0008392D02*
X-0005150D01*
X-0003770Y0008383D02*
X-0005150D01*
X-0003770Y0008374D02*
X-0005150D01*
X-0003770Y0008365D02*
X-0005150D01*
X-0003770Y0008356D02*
X-0005150D01*
X-0003770Y0008347D02*
X-0005150D01*
X-0003770Y0008338D02*
X-0005150D01*
X-0003770Y0008329D02*
X-0005150D01*
X-0003770Y0008320D02*
X-0005150D01*
X-0003770Y0008311D02*
X-0005150D01*
X-0003770Y0008302D02*
X-0005150D01*
X-0003770Y0008293D02*
X-0005150D01*
G54D41*
G01X0000135Y0009569D02*
X-0000695D01*
X0000392Y0009369D02*
X-0000952D01*
X0000527Y0009169D02*
X-0001087D01*
X0000598Y0008969D02*
X-0001158D01*
X0000621Y0008769D02*
X-0001181D01*
X0000598Y0008569D02*
X-0001158D01*
X0000527Y0008369D02*
X-0001087D01*
X0000391Y0008169D02*
X-0000951D01*
X0000132Y0007969D02*
X-0000692D01*
G01X0000621Y0008770D02*
G03X-0000280Y0009671I0000901J0000000D01*
Y0007869D02*
G03X0000621Y0008770I0000000J0000901D01*
G01X-0001181D02*
G03X-0000280Y0007869I0000901J0000000D01*
Y0009671D02*
G03X-0001181Y0008770I0000000J0000901D01*
G54D44*
X-0003730Y0004430D03*
X0003960D03*
G54D60*
X-0000461Y0004308D03*
X0000700D03*
Y0003560D03*
X-0000461D03*
M02*
