*
G04 Mass Parameters ***
*
G04 Image ***
*
%INC:\DOCUMENTS AND SETTINGS\NAZGUL\MY DOCUMENTS\DROPBOX\BOARD DESIGN\GERBER FILES\BLE SPO2\BLE SPO2.SMT*%
%ICAS*%
%MOIN*%
%IPPOS*%
%ASAXBY*%
G74*%FSLAN2X34Y34*%
*
G04 Aperture Definitions ***
*
%AMTHERMAL36*
1,1,0.0679,0,0,*
1,0,0.0520,0,0,*
21,0,0.0680,0.0100,0,0,30.0*
21,0,0.0680,0.0100,0,0,120.0*%
%AMTHERMAL39*
1,1,0.0499,0,0,*
1,0,0.0340,0,0,*
21,0,0.0500,0.0100,0,0,45.0*
21,0,0.0500,0.0100,0,0,135.0*%
%ADD10C,0.1100*%
%ADD11R,0.0500X0.0500*%
%ADD12R,0.0220X0.0220*%
%ADD13R,0.0709X0.0590*%
%ADD14R,0.0320X0.0380*%
%ADD15C,0.0401*%
%ADD16R,0.0380X0.0320*%
%ADD17C,0.0020*%
%ADD18R,0.1575X0.1575*%
%ADD19O,0.0335X0.0110*%
%ADD20O,0.0110X0.0335*%
%ADD21R,0.0394X0.0138*%
%ADD22R,0.0315X0.0630*%
%ADD23R,0.0590X0.0197*%
%ADD24R,0.0433X0.0177*%
%ADD25R,0.0394X0.0197*%
%ADD26R,0.0256X0.0295*%
%ADD27C,0.0200*%
%ADD28C,0.0100*%
%ADD29C,0.0080*%
%ADD30C,0.0200*%
%ADD31C,0.1000*%
%ADD32R,0.0394X0.0276*%
%ADD33C,0.0010*%
%ADD34C,0.0200*%
%ADD35C,0.1400*%
%ADD36THERMAL36*%
%ADD37C,0.0450*%
%ADD38C,0.0250*%
%ADD39THERMAL39*%
%ADD40C,0.0250*%
%ADD41C,0.0200*%
%ADD42C,0.0250*%
%ADD43C,0.0450*%
%ADD44C,0.1050*%
%ADD45R,0.0549X0.0549*%
%ADD46R,0.0270X0.0270*%
%ADD47R,0.0758X0.0640*%
%ADD48R,0.0370X0.0430*%
%ADD49C,0.0450*%
%ADD50R,0.0430X0.0370*%
%ADD51R,0.1624X0.1624*%
%ADD52O,0.0384X0.0159*%
%ADD53O,0.0159X0.0384*%
%ADD54R,0.0443X0.0187*%
%ADD55R,0.0364X0.0679*%
%ADD56R,0.0640X0.0246*%
%ADD57R,0.0482X0.0226*%
%ADD58R,0.0443X0.0246*%
%ADD59R,0.0305X0.0344*%
*
G04 Plot Data ***
*
G54D17*
G01X0004094Y0011413D02*
X0004068D01*
X0003720Y0011761D02*
X0004081Y0011400D01*
X0004279Y0012320D02*
X0003720Y0011761D01*
X0004279Y0012320D02*
X0004640Y0011959D01*
X0004081Y0011400D01*
X0004617Y0011981D02*
Y0011936D01*
X0004599Y0011999D02*
Y0011918D01*
X0004582Y0012016D02*
Y0011901D01*
X0004564Y0012034D02*
Y0011883D01*
X0004546Y0012052D02*
Y0011865D01*
X0004529Y0012069D02*
Y0011848D01*
X0004511Y0012087D02*
Y0011830D01*
X0004493Y0012105D02*
Y0011812D01*
X0004476Y0012122D02*
Y0011795D01*
X0004458Y0012140D02*
Y0011777D01*
X0004440Y0012158D02*
Y0011759D01*
X0004423Y0012175D02*
Y0011742D01*
X0004405Y0012193D02*
Y0011724D01*
X0004387Y0012211D02*
Y0011706D01*
X0004370Y0012228D02*
Y0011689D01*
X0004352Y0012246D02*
Y0011671D01*
X0004334Y0012264D02*
Y0011653D01*
X0004316Y0012282D02*
Y0011635D01*
X0004299Y0012299D02*
Y0011618D01*
X0004281Y0012317D02*
Y0011600D01*
X0004263Y0012304D02*
Y0011582D01*
X0004246Y0012287D02*
Y0011565D01*
X0004228Y0012269D02*
Y0011547D01*
X0004210Y0012251D02*
Y0011529D01*
X0004193Y0012234D02*
Y0011512D01*
X0004175Y0012216D02*
Y0011494D01*
X0004157Y0012198D02*
Y0011476D01*
X0004140Y0012181D02*
Y0011459D01*
X0004122Y0012163D02*
Y0011441D01*
X0004104Y0012145D02*
Y0011423D01*
X0004087Y0012128D02*
Y0011406D01*
X0004069Y0012110D02*
Y0011412D01*
X0004051Y0012092D02*
Y0011430D01*
X0004033Y0012074D02*
Y0011447D01*
X0004016Y0012057D02*
Y0011465D01*
X0003998Y0012039D02*
Y0011483D01*
X0003980Y0012021D02*
Y0011500D01*
X0003963Y0012004D02*
Y0011518D01*
X0003945Y0011986D02*
Y0011536D01*
X0003927Y0011968D02*
Y0011553D01*
X0003910Y0011951D02*
Y0011571D01*
X0003892Y0011933D02*
Y0011589D01*
X0003874Y0011915D02*
Y0011606D01*
X0003857Y0011898D02*
Y0011624D01*
X0003839Y0011880D02*
Y0011642D01*
X0003821Y0011862D02*
Y0011659D01*
X0003804Y0011845D02*
Y0011677D01*
X0003786Y0011827D02*
Y0011695D01*
X0003768Y0011809D02*
Y0011713D01*
X0003750Y0011791D02*
Y0011730D01*
X0003733Y0011774D02*
Y0011748D01*
X0004301Y0012297D02*
X0004256D01*
X0004319Y0012279D02*
X0004238D01*
X0004336Y0012262D02*
X0004221D01*
X0004354Y0012244D02*
X0004203D01*
X0004372Y0012226D02*
X0004185D01*
X0004389Y0012209D02*
X0004168D01*
X0004407Y0012191D02*
X0004150D01*
X0004425Y0012173D02*
X0004132D01*
X0004442Y0012156D02*
X0004115D01*
X0004460Y0012138D02*
X0004097D01*
X0004478Y0012120D02*
X0004079D01*
X0004495Y0012103D02*
X0004062D01*
X0004513Y0012085D02*
X0004044D01*
X0004531Y0012067D02*
X0004026D01*
X0004548Y0012050D02*
X0004009D01*
X0004566Y0012032D02*
X0003991D01*
X0004584Y0012014D02*
X0003973D01*
X0004602Y0011996D02*
X0003955D01*
X0004619Y0011979D02*
X0003938D01*
X0004637Y0011961D02*
X0003920D01*
X0004624Y0011943D02*
X0003902D01*
X0004607Y0011926D02*
X0003885D01*
X0004589Y0011908D02*
X0003867D01*
X0004571Y0011890D02*
X0003849D01*
X0004554Y0011873D02*
X0003832D01*
X0004536Y0011855D02*
X0003814D01*
X0004518Y0011837D02*
X0003796D01*
X0004501Y0011820D02*
X0003779D01*
X0004483Y0011802D02*
X0003761D01*
X0004465Y0011784D02*
X0003743D01*
X0004448Y0011767D02*
X0003726D01*
X0004430Y0011749D02*
X0003732D01*
X0004412Y0011731D02*
X0003750D01*
X0004394Y0011713D02*
X0003767D01*
X0004377Y0011696D02*
X0003785D01*
X0004359Y0011678D02*
X0003803D01*
X0004341Y0011660D02*
X0003820D01*
X0004324Y0011643D02*
X0003838D01*
X0004306Y0011625D02*
X0003856D01*
X0004288Y0011607D02*
X0003873D01*
X0004271Y0011590D02*
X0003891D01*
X0004253Y0011572D02*
X0003909D01*
X0004235Y0011554D02*
X0003926D01*
X0004218Y0011537D02*
X0003944D01*
X0004200Y0011519D02*
X0003962D01*
X0004182Y0011501D02*
X0003979D01*
X0004165Y0011484D02*
X0003997D01*
X0004147Y0011466D02*
X0004015D01*
X0004129Y0011448D02*
X0004033D01*
X0004111Y0011430D02*
X0004050D01*
X0003535Y0011971D02*
X0003510D01*
X0003720Y0012878D02*
X0004081Y0012517D01*
X0003523Y0011959D01*
X0003162Y0012320D02*
X0003523Y0011959D01*
X0003720Y0012878D02*
X0003162Y0012320D01*
X0004059Y0012540D02*
Y0012495D01*
X0004041Y0012557D02*
Y0012477D01*
X0004023Y0012575D02*
Y0012459D01*
X0004006Y0012593D02*
Y0012442D01*
X0003988Y0012610D02*
Y0012424D01*
X0003970Y0012628D02*
Y0012406D01*
X0003953Y0012646D02*
Y0012389D01*
X0003935Y0012663D02*
Y0012371D01*
X0003917Y0012681D02*
Y0012353D01*
X0003900Y0012699D02*
Y0012336D01*
X0003882Y0012716D02*
Y0012318D01*
X0003864Y0012734D02*
Y0012300D01*
X0003847Y0012752D02*
Y0012283D01*
X0003829Y0012769D02*
Y0012265D01*
X0003811Y0012787D02*
Y0012247D01*
X0003794Y0012805D02*
Y0012230D01*
X0003776Y0012823D02*
Y0012212D01*
X0003758Y0012840D02*
Y0012194D01*
X0003740Y0012858D02*
Y0012176D01*
X0003723Y0012876D02*
Y0012159D01*
X0003705Y0012863D02*
Y0012141D01*
X0003687Y0012845D02*
Y0012123D01*
X0003670Y0012828D02*
Y0012106D01*
X0003652Y0012810D02*
Y0012088D01*
X0003634Y0012792D02*
Y0012070D01*
X0003617Y0012775D02*
Y0012053D01*
X0003599Y0012757D02*
Y0012035D01*
X0003581Y0012739D02*
Y0012017D01*
X0003564Y0012722D02*
Y0012000D01*
X0003546Y0012704D02*
Y0011982D01*
X0003528Y0012686D02*
Y0011964D01*
X0003511Y0012669D02*
Y0011971D01*
X0003493Y0012651D02*
Y0011988D01*
X0003475Y0012633D02*
Y0012006D01*
X0003457Y0012615D02*
Y0012024D01*
X0003440Y0012598D02*
Y0012041D01*
X0003422Y0012580D02*
Y0012059D01*
X0003404Y0012562D02*
Y0012077D01*
X0003387Y0012545D02*
Y0012094D01*
X0003369Y0012527D02*
Y0012112D01*
X0003351Y0012509D02*
Y0012130D01*
X0003334Y0012492D02*
Y0012147D01*
X0003316Y0012474D02*
Y0012165D01*
X0003298Y0012456D02*
Y0012183D01*
X0003281Y0012439D02*
Y0012200D01*
X0003263Y0012421D02*
Y0012218D01*
X0003245Y0012403D02*
Y0012236D01*
X0003228Y0012386D02*
Y0012254D01*
X0003210Y0012368D02*
Y0012271D01*
X0003192Y0012350D02*
Y0012289D01*
X0003174Y0012332D02*
Y0012307D01*
X0003743Y0012856D02*
X0003698D01*
X0003760Y0012838D02*
X0003680D01*
X0003778Y0012820D02*
X0003662D01*
X0003796Y0012803D02*
X0003645D01*
X0003813Y0012785D02*
X0003627D01*
X0003831Y0012767D02*
X0003609D01*
X0003849Y0012750D02*
X0003592D01*
X0003866Y0012732D02*
X0003574D01*
X0003884Y0012714D02*
X0003556D01*
X0003902Y0012697D02*
X0003539D01*
X0003919Y0012679D02*
X0003521D01*
X0003937Y0012661D02*
X0003503D01*
X0003955Y0012644D02*
X0003486D01*
X0003972Y0012626D02*
X0003468D01*
X0003990Y0012608D02*
X0003450D01*
X0004008Y0012591D02*
X0003433D01*
X0004026Y0012573D02*
X0003415D01*
X0004043Y0012555D02*
X0003397D01*
X0004061Y0012537D02*
X0003379D01*
X0004079Y0012520D02*
X0003362D01*
X0004066Y0012502D02*
X0003344D01*
X0004048Y0012484D02*
X0003326D01*
X0004031Y0012467D02*
X0003309D01*
X0004013Y0012449D02*
X0003291D01*
X0003995Y0012431D02*
X0003273D01*
X0003978Y0012414D02*
X0003256D01*
X0003960Y0012396D02*
X0003238D01*
X0003942Y0012378D02*
X0003220D01*
X0003925Y0012361D02*
X0003203D01*
X0003907Y0012343D02*
X0003185D01*
X0003889Y0012325D02*
X0003167D01*
X0003872Y0012308D02*
X0003174D01*
X0003854Y0012290D02*
X0003191D01*
X0003836Y0012272D02*
X0003209D01*
X0003818Y0012254D02*
X0003227D01*
X0003801Y0012237D02*
X0003244D01*
X0003783Y0012219D02*
X0003262D01*
X0003765Y0012201D02*
X0003280D01*
X0003748Y0012184D02*
X0003297D01*
X0003730Y0012166D02*
X0003315D01*
X0003712Y0012148D02*
X0003333D01*
X0003695Y0012131D02*
X0003350D01*
X0003677Y0012113D02*
X0003368D01*
X0003659Y0012095D02*
X0003386D01*
X0003642Y0012078D02*
X0003403D01*
X0003624Y0012060D02*
X0003421D01*
X0003606Y0012042D02*
X0003439D01*
X0003589Y0012025D02*
X0003457D01*
X0003571Y0012007D02*
X0003474D01*
X0003553Y0011989D02*
X0003492D01*
X0003478Y0011279D02*
X0003468D01*
X0003496Y0011261D02*
X0003450D01*
X0003513Y0011243D02*
X0003432D01*
X0003531Y0011225D02*
X0003415D01*
X0003549Y0011208D02*
X0003397D01*
X0003566Y0011190D02*
X0003379D01*
X0003584Y0011172D02*
X0003362D01*
X0003602Y0011155D02*
X0003344D01*
X0003619Y0011137D02*
X0003326D01*
X0003637Y0011119D02*
X0003309D01*
X0003645Y0011102D02*
X0003301D01*
X0003627Y0011084D02*
X0003318D01*
X0003610Y0011066D02*
X0003336D01*
X0003592Y0011049D02*
X0003354D01*
X0003574Y0011031D02*
X0003371D01*
X0003557Y0011013D02*
X0003389D01*
X0003539Y0010996D02*
X0003407D01*
X0003521Y0010978D02*
X0003425D01*
X0003503Y0010960D02*
X0003442D01*
X0003645Y0011112D02*
Y0011102D01*
X0003627Y0011129D02*
Y0011084D01*
X0003609Y0011147D02*
Y0011066D01*
X0003592Y0011165D02*
Y0011048D01*
X0003574Y0011182D02*
Y0011031D01*
X0003556Y0011200D02*
Y0011013D01*
X0003539Y0011218D02*
Y0010995D01*
X0003521Y0011235D02*
Y0010978D01*
X0003503Y0011253D02*
Y0010960D01*
X0003486Y0011271D02*
Y0010942D01*
X0003468Y0011279D02*
Y0010934D01*
X0003450Y0011261D02*
Y0010952D01*
X0003433Y0011243D02*
Y0010970D01*
X0003415Y0011226D02*
Y0010987D01*
X0003397Y0011208D02*
Y0011005D01*
X0003380Y0011190D02*
Y0011023D01*
X0003362Y0011173D02*
Y0011041D01*
X0003344Y0011155D02*
Y0011058D01*
X0003326Y0011137D02*
Y0011076D01*
X0003309Y0011119D02*
Y0011094D01*
X0003486Y0010942D02*
X0003460D01*
X0003296Y0011107D02*
X0003473Y0010930D01*
Y0011284D02*
X0003296Y0011107D01*
X0003473Y0011284D02*
X0003650Y0011107D01*
X0003473Y0010930D01*
X0003775Y0010982D02*
X0003765D01*
X0003793Y0010964D02*
X0003747D01*
X0003810Y0010946D02*
X0003729D01*
X0003828Y0010929D02*
X0003712D01*
X0003846Y0010911D02*
X0003694D01*
X0003863Y0010893D02*
X0003676D01*
X0003881Y0010876D02*
X0003659D01*
X0003899Y0010858D02*
X0003641D01*
X0003916Y0010840D02*
X0003623D01*
X0003934Y0010823D02*
X0003606D01*
X0003942Y0010805D02*
X0003598D01*
X0003924Y0010787D02*
X0003615D01*
X0003907Y0010770D02*
X0003633D01*
X0003889Y0010752D02*
X0003651D01*
X0003871Y0010734D02*
X0003668D01*
X0003854Y0010717D02*
X0003686D01*
X0003836Y0010699D02*
X0003704D01*
X0003818Y0010681D02*
X0003722D01*
X0003800Y0010663D02*
X0003739D01*
X0003942Y0010815D02*
Y0010805D01*
X0003924Y0010833D02*
Y0010787D01*
X0003906Y0010850D02*
Y0010769D01*
X0003889Y0010868D02*
Y0010752D01*
X0003871Y0010886D02*
Y0010734D01*
X0003853Y0010903D02*
Y0010716D01*
X0003836Y0010921D02*
Y0010699D01*
X0003818Y0010939D02*
Y0010681D01*
X0003800Y0010956D02*
Y0010663D01*
X0003783Y0010974D02*
Y0010646D01*
X0003765Y0010982D02*
Y0010638D01*
X0003747Y0010964D02*
Y0010655D01*
X0003730Y0010947D02*
Y0010673D01*
X0003712Y0010929D02*
Y0010691D01*
X0003694Y0010911D02*
Y0010708D01*
X0003677Y0010894D02*
Y0010726D01*
X0003659Y0010876D02*
Y0010744D01*
X0003641Y0010858D02*
Y0010762D01*
X0003623Y0010840D02*
Y0010779D01*
X0003606Y0010823D02*
Y0010797D01*
X0003783Y0010646D02*
X0003757D01*
X0003593Y0010810D02*
X0003770Y0010633D01*
Y0010987D02*
X0003593Y0010810D01*
X0003770Y0010987D02*
X0003947Y0010810D01*
X0003770Y0010633D01*
G54D28*
G01X0002548Y-0001962D02*
Y-0001462D01*
X0002715D02*
X0002382D01*
X0002140Y-0001962D02*
Y-0001462D01*
X0002057Y-0001545D01*
X0001973Y-0001712D01*
X0001890Y-0001545D01*
X0001807Y-0001462D01*
Y-0001962D01*
X0001565Y-0001545D02*
X0001523Y-0001462D01*
X0001273D01*
X0001232Y-0001545D01*
Y-0001628D01*
X0001273Y-0001712D01*
X0001523D01*
X0001565Y-0001795D01*
Y-0001878D01*
X0001523Y-0001962D01*
X0001273D01*
X0001232Y-0001878D01*
X0000138Y0000269D02*
X0000072D01*
X0000231Y0000271D01*
X0000389Y0000278D01*
X0000546Y0000290D01*
X0000701Y0000307D01*
X0000856Y0000328D01*
X0001009Y0000354D01*
X0001160Y0000386D01*
X0001235Y0000403D01*
X0001310Y0000422D01*
X0001384Y0000442D01*
X0001457Y0000464D01*
X0001530Y0000486D01*
X0001603Y0000510D01*
X0001675Y0000536D01*
X0001746Y0000563D01*
X0001816Y0000591D01*
X0001886Y0000620D01*
X0001955Y0000651D01*
X0002024Y0000683D01*
X0002092Y0000717D01*
X0002159Y0000752D01*
X0002225Y0000788D01*
X0002291Y0000826D01*
X0002355Y0000866D01*
X0002419Y0000906D01*
X0002482Y0000948D01*
X0002544Y0000992D01*
X0002606Y0001037D01*
X0002666Y0001083D01*
X0002726Y0001130D01*
X0002785Y0001179D01*
X0002900Y0001279D01*
X0003012Y0001384D01*
X0003121Y0001492D01*
X0003227Y0001603D01*
X0003330Y0001717D01*
X0003430Y0001833D01*
X0003527Y0001951D01*
X0003622Y0002070D01*
X0003713Y0002191D01*
X0003888Y0002432D01*
X0004052Y0002673D01*
X0004207Y0002909D01*
X0004352Y0003143D01*
X0004488Y0003378D01*
X0004616Y0003617D01*
X0004677Y0003739D01*
X0004737Y0003862D01*
X0004794Y0003988D01*
X0004850Y0004117D01*
X0004905Y0004248D01*
X0004958Y0004383D01*
X0005060Y0004665D01*
X0005158Y0004964D01*
X0005250Y0005279D01*
X0005335Y0005611D01*
X0005415Y0005956D01*
X0005487Y0006316D01*
X0005552Y0006687D01*
X0005608Y0007070D01*
X0005656Y0007464D01*
X0005694Y0007866D01*
X0005721Y0008275D01*
X0005735Y0008689D01*
X0005736Y0008898D01*
X0005734Y0009107D01*
X0005727Y0009316D01*
X0005715Y0009525D01*
X0005699Y0009734D01*
X0005678Y0009943D01*
X0005651Y0010150D01*
X0005619Y0010357D01*
X0005582Y0010563D01*
X0005538Y0010767D01*
X0005488Y0010969D01*
X0005432Y0011169D01*
X0005401Y0011268D01*
X0005369Y0011366D01*
X0005335Y0011464D01*
X0005299Y0011560D01*
X0005261Y0011656D01*
X0005222Y0011751D01*
X0005181Y0011844D01*
X0005138Y0011937D01*
X0005093Y0012028D01*
X0005046Y0012118D01*
X0004998Y0012207D01*
X0004947Y0012295D01*
X0004895Y0012381D01*
X0004840Y0012465D01*
X0004783Y0012549D01*
X0004725Y0012630D01*
X0004664Y0012710D01*
X0004601Y0012788D01*
X0004536Y0012864D01*
X0004469Y0012939D01*
X0004400Y0013011D01*
X0004328Y0013082D01*
X0004254Y0013151D01*
X0004178Y0013217D01*
X0004100Y0013281D01*
X0004019Y0013344D01*
X0003936Y0013403D01*
X0003851Y0013461D01*
X0003763Y0013516D01*
X0003673Y0013569D01*
X0003581Y0013620D01*
X0003486Y0013668D01*
X0003389Y0013714D01*
X0003290Y0013758D01*
X0003189Y0013799D01*
X0003086Y0013839D01*
X0002981Y0013876D01*
X0002873Y0013912D01*
X0002764Y0013945D01*
X0002653Y0013977D01*
X0002540Y0014006D01*
X0002426Y0014034D01*
X0002309Y0014060D01*
X0002191Y0014084D01*
X0001950Y0014127D01*
X0001702Y0014163D01*
X0001449Y0014193D01*
X0001190Y0014216D01*
X0000925Y0014234D01*
X0000656Y0014246D01*
X0000383Y0014254D01*
X-0000172D01*
X-0000446Y0014246D01*
X-0000715Y0014234D01*
X-0000979Y0014216D01*
X-0001238Y0014193D01*
X-0001491Y0014163D01*
X-0001739Y0014127D01*
X-0001980Y0014084D01*
X-0002098Y0014060D01*
X-0002215Y0014034D01*
X-0002330Y0014006D01*
X-0002442Y0013977D01*
X-0002554Y0013945D01*
X-0002663Y0013912D01*
X-0002770Y0013876D01*
X-0002875Y0013839D01*
X-0002978Y0013799D01*
X-0003080Y0013758D01*
X-0003179Y0013714D01*
X-0003275Y0013668D01*
X-0003370Y0013620D01*
X-0003463Y0013569D01*
X-0003553Y0013516D01*
X-0003640Y0013461D01*
X-0003726Y0013403D01*
X-0003809Y0013344D01*
X-0003889Y0013281D01*
X-0003968Y0013217D01*
X-0004044Y0013151D01*
X-0004117Y0013082D01*
X-0004189Y0013011D01*
X-0004258Y0012939D01*
X-0004325Y0012864D01*
X-0004390Y0012788D01*
X-0004453Y0012710D01*
X-0004514Y0012630D01*
X-0004573Y0012549D01*
X-0004629Y0012465D01*
X-0004684Y0012381D01*
X-0004736Y0012295D01*
X-0004787Y0012207D01*
X-0004836Y0012118D01*
X-0004882Y0012028D01*
X-0004927Y0011937D01*
X-0004970Y0011844D01*
X-0005011Y0011751D01*
X-0005051Y0011656D01*
X-0005088Y0011560D01*
X-0005124Y0011464D01*
X-0005158Y0011366D01*
X-0005190Y0011268D01*
X-0005221Y0011169D01*
X-0005277Y0010969D01*
X-0005327Y0010767D01*
X-0005371Y0010563D01*
X-0005408Y0010357D01*
X-0005440Y0010150D01*
X-0005467Y0009943D01*
X-0005488Y0009734D01*
X-0005504Y0009525D01*
X-0005516Y0009316D01*
X-0005523Y0009107D01*
X-0005526Y0008898D01*
X-0005524Y0008689D01*
X-0005510Y0008275D01*
X-0005484Y0007866D01*
X-0005445Y0007464D01*
X-0005398Y0007070D01*
X-0005341Y0006687D01*
X-0005276Y0006316D01*
X-0005204Y0005956D01*
X-0005125Y0005611D01*
X-0005039Y0005279D01*
X-0004947Y0004964D01*
X-0004850Y0004665D01*
X-0004747Y0004383D01*
X-0004694Y0004248D01*
X-0004640Y0004117D01*
X-0004584Y0003988D01*
X-0004526Y0003862D01*
X-0004466Y0003739D01*
X-0004405Y0003617D01*
X-0004277Y0003378D01*
X-0004141Y0003143D01*
X-0003996Y0002909D01*
X-0003841Y0002673D01*
X-0003677Y0002432D01*
X-0003502Y0002191D01*
X-0003411Y0002070D01*
X-0003317Y0001951D01*
X-0003220Y0001833D01*
X-0003120Y0001717D01*
X-0003017Y0001603D01*
X-0002911Y0001492D01*
X-0002802Y0001384D01*
X-0002689Y0001279D01*
X-0002574Y0001179D01*
X-0002515Y0001130D01*
X-0002456Y0001083D01*
X-0002395Y0001037D01*
X-0002334Y0000992D01*
X-0002271Y0000948D01*
X-0002208Y0000906D01*
X-0002145Y0000866D01*
X-0002080Y0000826D01*
X-0002014Y0000788D01*
X-0001948Y0000752D01*
X-0001881Y0000717D01*
X-0001813Y0000683D01*
X-0001745Y0000651D01*
X-0001675Y0000620D01*
X-0001605Y0000591D01*
X-0001535Y0000563D01*
X-0001464Y0000536D01*
X-0001392Y0000510D01*
X-0001320Y0000486D01*
X-0001247Y0000464D01*
X-0001173Y0000442D01*
X-0001099Y0000422D01*
X-0001025Y0000403D01*
X-0000950Y0000386D01*
X-0000798Y0000354D01*
X-0000645Y0000328D01*
X-0000491Y0000307D01*
X-0000335Y0000290D01*
X-0000178Y0000278D01*
X-0000020Y0000271D01*
X0000138Y0000269D01*
G54D44*
X-0003730Y0004430D03*
X0003960D03*
G54D45*
X-0001150Y0003150D03*
Y0002310D03*
X-0001980Y0003140D03*
Y0002300D03*
X0004680Y0009600D03*
Y0010440D03*
X-0004370Y0009570D03*
Y0010410D03*
G54D46*
X-0001140Y0003930D03*
Y0004350D03*
X-0001980Y0003930D03*
Y0004350D03*
X0004760Y0007220D03*
X0004340D03*
X0003920Y0008240D03*
X0004340D03*
Y0007720D03*
X0003920D03*
X0004360Y0006190D03*
Y0006610D03*
X-0002020Y0010360D03*
Y0010780D03*
X0004800Y0006610D03*
Y0006190D03*
X0001760Y0010360D03*
X0001340D03*
X-0002560Y0010780D03*
Y0010360D03*
X-0002590Y0008140D03*
X-0002170D03*
X0000810Y0006810D03*
Y0007230D03*
X-0002170Y0007720D03*
X-0002590D03*
X-0002950Y0009260D03*
X-0003370D03*
X-0002960Y0009840D03*
X-0003380D03*
X0002240Y0011670D03*
Y0011250D03*
X0000750Y0011700D03*
Y0011280D03*
X-0001370Y0011120D03*
Y0010700D03*
G54D47*
X0001640Y0001390D03*
Y0004106D03*
G54D48*
X0003220Y0007720D03*
X0002660D03*
G54D49*
X0003060Y0013300D03*
X0002577Y0013429D03*
X0002094Y0013559D03*
X0001611Y0013688D03*
X0001128Y0013817D03*
G54D50*
X-0004590Y0007770D03*
Y0007210D03*
G54D51*
X-0000224Y0008971D03*
G54D52*
X0000947Y0008085D03*
Y0008282D03*
Y0008479D03*
Y0008676D03*
Y0008873D03*
Y0009070D03*
Y0009266D03*
Y0009463D03*
Y0009660D03*
Y0009857D03*
X-0001395D03*
Y0009660D03*
Y0009463D03*
Y0009266D03*
Y0009069D03*
Y0008872D03*
Y0008675D03*
Y0008478D03*
Y0008281D03*
Y0008084D03*
G54D53*
X-0001110Y0007800D03*
X-0000913D03*
X-0000716D03*
X-0000519D03*
X-0000323D03*
X-0000126D03*
X0000071D03*
X0000268D03*
X0000465D03*
X0000661D03*
X0000662Y0010142D03*
X0000465D03*
X0000268D03*
X0000071D03*
X-0000126D03*
X-0000322D03*
X-0000519D03*
X-0000716D03*
X-0000913D03*
X-0001110D03*
G54D54*
X-0000790Y0011430D03*
Y0011174D03*
Y0010918D03*
X-0000081D03*
Y0011174D03*
Y0011430D03*
G54D55*
X-0000791Y0013450D03*
X-0002130D03*
G54D56*
X0001860Y0006750D03*
Y0006494D03*
Y0006238D03*
Y0005982D03*
X0003553D03*
Y0006238D03*
Y0006494D03*
Y0006750D03*
G54D57*
X-0003770Y0006770D03*
X-0002746D03*
X-0003770Y0006514D03*
X-0002746D03*
X-0003770Y0006258D03*
X-0002746D03*
X-0003770Y0006002D03*
X-0002746D03*
G54D58*
X-0002220Y0009320D03*
Y0009753D03*
G54D59*
X0001740Y0011260D03*
Y0011772D03*
X0001346D03*
Y0011260D03*
M02*
