*
G04 Mass Parameters ***
*
G04 Image ***
*
%INC:\DOCUMENTS AND SETTINGS\NAZGUL\MY DOCUMENTS\DROPBOX\BOARD DESIGN\GERBER FILES\BLE SPO2\BLE SPO2.GND*%
%ICAS*%
%MOIN*%
%IPPOS*%
%ASAXBY*%
G74*%FSLAN2X34Y34*%
*
G04 Aperture Definitions ***
*
%AMTHERMAL36*
1,1,0.0679,0,0,*
1,0,0.0520,0,0,*
21,0,0.0680,0.0100,0,0,30.0*
21,0,0.0680,0.0100,0,0,120.0*%
%AMTHERMAL39*
1,1,0.0499,0,0,*
1,0,0.0340,0,0,*
21,0,0.0500,0.0100,0,0,45.0*
21,0,0.0500,0.0100,0,0,135.0*%
%ADD10C,0.1100*%
%ADD11R,0.0500X0.0500*%
%ADD12R,0.0220X0.0220*%
%ADD13R,0.0709X0.0590*%
%ADD14R,0.0320X0.0380*%
%ADD15C,0.0401*%
%ADD16R,0.0380X0.0320*%
%ADD17C,0.0020*%
%ADD18R,0.1575X0.1575*%
%ADD19O,0.0335X0.0110*%
%ADD20O,0.0110X0.0335*%
%ADD21R,0.0394X0.0138*%
%ADD22R,0.0315X0.0630*%
%ADD23R,0.0590X0.0197*%
%ADD24R,0.0433X0.0177*%
%ADD25R,0.0394X0.0197*%
%ADD26R,0.0256X0.0295*%
%ADD27C,0.0200*%
%ADD28C,0.0100*%
%ADD29C,0.0080*%
%ADD30C,0.0200*%
%ADD31C,0.1000*%
%ADD32R,0.0394X0.0276*%
%ADD33C,0.0010*%
%ADD34C,0.0200*%
%ADD35C,0.1400*%
%ADD36THERMAL36*%
%ADD37C,0.0450*%
%ADD38C,0.0250*%
%ADD39THERMAL39*%
%ADD40C,0.0250*%
%ADD41C,0.0200*%
%ADD42C,0.0250*%
*
G04 Plot Data ***
*
G54D36*
X0001128Y0013817D03*
G54D39*
X0004680Y0011060D03*
X0001760Y0010060D03*
X-0004120Y0007210D03*
X-0000220Y0008967D03*
X0000465Y0009625D03*
Y0008995D03*
X-0000252Y0009608D03*
X-0000918D03*
Y0008858D03*
Y0008282D03*
X-0000208D03*
X0000465D03*
X0004770Y0008050D03*
X-0000650Y0004750D03*
X0000810Y0006480D03*
X0001860Y0005570D03*
X-0002134Y0006514D03*
X-0004260Y0006260D03*
X-0002900Y0007720D03*
X-0002890Y0008140D03*
X-0003000Y0010780D03*
X-0003380Y0010150D03*
X-0003370Y0008890D03*
X-0001980Y0001700D03*
X-0001150Y0001740D03*
X0000740Y0001390D03*
X0003120Y0011900D03*
X0000750Y0012060D03*
X0002240Y0012030D03*
X0001346Y0010874D03*
G54D28*
G01X-0002463Y-0001962D02*
Y-0001462D01*
X-0002422Y-0001962D02*
X-0002672D01*
X-0002755Y-0001795D01*
Y-0001628D01*
X-0002672Y-0001462D01*
X-0002422D01*
X-0002180D02*
Y-0001962D01*
X-0002097Y-0001878D01*
X-0001930Y-0001545D01*
X-0001847Y-0001462D01*
Y-0001962D01*
X-0001438Y-0001712D02*
X-0001605D01*
Y-0001878D01*
X-0001563Y-0001962D01*
X-0001313D01*
X-0001272Y-0001878D01*
Y-0001545D01*
X-0001313Y-0001462D01*
X-0001563D01*
X-0001605Y-0001545D01*
X-0000170Y0013990D02*
X-0001260D01*
X-0000170Y0013940D02*
X-0001481D01*
X-0000170Y0013890D02*
X-0001702D01*
X-0000170Y0013840D02*
X-0001923D01*
X-0000170Y0013790D02*
X-0002144D01*
X-0000170Y0013740D02*
X-0002365D01*
X-0000170Y0013690D02*
X-0002586D01*
X-0000170Y0013640D02*
X-0002709D01*
X-0000170Y0013590D02*
X-0002808D01*
X-0000170Y0013540D02*
X-0002907D01*
X-0000170Y0013490D02*
X-0003006D01*
X-0000170Y0013440D02*
X-0003105D01*
X-0000170Y0013390D02*
X-0003205D01*
X-0000170Y0013340D02*
X-0003304D01*
X-0000170Y0013290D02*
X-0003403D01*
X-0000170Y0013240D02*
X-0003502D01*
X-0000170Y0013190D02*
X-0003601D01*
X-0000170Y0013140D02*
X-0003700D01*
X-0000170Y0013090D02*
X-0003747D01*
X-0000170Y0013040D02*
X-0003795D01*
X-0000170Y0012990D02*
X-0003842D01*
X-0000170Y0012940D02*
X-0003889D01*
X-0000170Y0012890D02*
X-0003936D01*
X-0000170Y0012840D02*
X-0003984D01*
X-0000170Y0012790D02*
X-0004031D01*
X-0000170Y0012740D02*
X-0004078D01*
X-0000170Y0012690D02*
X-0004126D01*
X-0000170Y0012640D02*
X-0004173D01*
X-0000170Y0012590D02*
X-0004220D01*
X-0000170Y0012540D02*
X-0004267D01*
X-0000170Y0012490D02*
X-0004315D01*
X-0000170Y0012440D02*
X-0004362D01*
X-0000170Y0012390D02*
X-0004406D01*
X-0000170Y0012340D02*
X-0004439D01*
X-0000170Y0012290D02*
X-0004472D01*
X-0000170Y0012240D02*
X-0004505D01*
X-0000170Y0012190D02*
X-0004538D01*
X-0000170Y0012140D02*
X-0004571D01*
X-0000170Y0012090D02*
X-0004603D01*
X-0000170Y0012040D02*
X-0004626D01*
X-0000170Y0011990D02*
X-0004645D01*
X-0000170Y0011940D02*
X-0004665D01*
X-0000170Y0011890D02*
X-0004685D01*
X-0000170Y0011840D02*
X-0004704D01*
X-0000170Y0011790D02*
X-0004724D01*
X-0000170Y0011740D02*
X-0004744D01*
X-0000170Y0011690D02*
X-0004763D01*
X-0000170Y0011640D02*
X-0004783D01*
X-0000170Y0011590D02*
X-0004803D01*
X-0000170Y0011540D02*
X-0004822D01*
X-0000170Y0011490D02*
X-0004842D01*
X-0000170Y0011440D02*
X-0004862D01*
X-0000170Y0011390D02*
X-0004881D01*
X-0000170Y0011340D02*
X-0004901D01*
X-0000170Y0011290D02*
X-0004921D01*
X-0000170Y0011240D02*
X-0004940D01*
X-0000170Y0011190D02*
X-0004960D01*
X0000138Y0000269D02*
X0000072D01*
X0000231Y0000271D01*
X0000389Y0000278D01*
X0000546Y0000290D01*
X0000701Y0000307D01*
X0000856Y0000328D01*
X0001009Y0000354D01*
X0001160Y0000386D01*
X0001235Y0000403D01*
X0001310Y0000422D01*
X0001384Y0000442D01*
X0001457Y0000464D01*
X0001530Y0000486D01*
X0001603Y0000510D01*
X0001675Y0000536D01*
X0001746Y0000563D01*
X0001816Y0000591D01*
X0001886Y0000620D01*
X0001955Y0000651D01*
X0002024Y0000683D01*
X0002092Y0000717D01*
X0002159Y0000752D01*
X0002225Y0000788D01*
X0002291Y0000826D01*
X0002355Y0000866D01*
X0002419Y0000906D01*
X0002482Y0000948D01*
X0002544Y0000992D01*
X0002606Y0001037D01*
X0002666Y0001083D01*
X0002726Y0001130D01*
X0002785Y0001179D01*
X0002900Y0001279D01*
X0003012Y0001384D01*
X0003121Y0001492D01*
X0003227Y0001603D01*
X0003330Y0001717D01*
X0003430Y0001833D01*
X0003527Y0001951D01*
X0003622Y0002070D01*
X0003713Y0002191D01*
X0003888Y0002432D01*
X0004052Y0002673D01*
X0004207Y0002909D01*
X0004352Y0003143D01*
X0004488Y0003378D01*
X0004616Y0003617D01*
X0004677Y0003739D01*
X0004737Y0003862D01*
X0004794Y0003988D01*
X0004850Y0004117D01*
X0004905Y0004248D01*
X0004958Y0004383D01*
X0005060Y0004665D01*
X0005158Y0004964D01*
X0005250Y0005279D01*
X0005335Y0005611D01*
X0005415Y0005956D01*
X0005487Y0006316D01*
X0005552Y0006687D01*
X0005608Y0007070D01*
X0005656Y0007464D01*
X0005694Y0007866D01*
X0005721Y0008275D01*
X0005735Y0008689D01*
X0005736Y0008898D01*
X0005734Y0009107D01*
X0005727Y0009316D01*
X0005715Y0009525D01*
X0005699Y0009734D01*
X0005678Y0009943D01*
X0005651Y0010150D01*
X0005619Y0010357D01*
X0005582Y0010563D01*
X0005538Y0010767D01*
X0005488Y0010969D01*
X0005432Y0011169D01*
X0005401Y0011268D01*
X0005369Y0011366D01*
X0005335Y0011464D01*
X0005299Y0011560D01*
X0005261Y0011656D01*
X0005222Y0011751D01*
X0005181Y0011844D01*
X0005138Y0011937D01*
X0005093Y0012028D01*
X0005046Y0012118D01*
X0004998Y0012207D01*
X0004947Y0012295D01*
X0004895Y0012381D01*
X0004840Y0012465D01*
X0004783Y0012549D01*
X0004725Y0012630D01*
X0004664Y0012710D01*
X0004601Y0012788D01*
X0004536Y0012864D01*
X0004469Y0012939D01*
X0004400Y0013011D01*
X0004328Y0013082D01*
X0004254Y0013151D01*
X0004178Y0013217D01*
X0004100Y0013281D01*
X0004019Y0013344D01*
X0003936Y0013403D01*
X0003851Y0013461D01*
X0003763Y0013516D01*
X0003673Y0013569D01*
X0003581Y0013620D01*
X0003486Y0013668D01*
X0003389Y0013714D01*
X0003290Y0013758D01*
X0003189Y0013799D01*
X0003086Y0013839D01*
X0002981Y0013876D01*
X0002873Y0013912D01*
X0002764Y0013945D01*
X0002653Y0013977D01*
X0002540Y0014006D01*
X0002426Y0014034D01*
X0002309Y0014060D01*
X0002191Y0014084D01*
X0001950Y0014127D01*
X0001702Y0014163D01*
X0001449Y0014193D01*
X0001190Y0014216D01*
X0000925Y0014234D01*
X0000656Y0014246D01*
X0000383Y0014254D01*
X-0000172D01*
X-0000446Y0014246D01*
X-0000715Y0014234D01*
X-0000979Y0014216D01*
X-0001238Y0014193D01*
X-0001491Y0014163D01*
X-0001739Y0014127D01*
X-0001980Y0014084D01*
X-0002098Y0014060D01*
X-0002215Y0014034D01*
X-0002330Y0014006D01*
X-0002442Y0013977D01*
X-0002554Y0013945D01*
X-0002663Y0013912D01*
X-0002770Y0013876D01*
X-0002875Y0013839D01*
X-0002978Y0013799D01*
X-0003080Y0013758D01*
X-0003179Y0013714D01*
X-0003275Y0013668D01*
X-0003370Y0013620D01*
X-0003463Y0013569D01*
X-0003553Y0013516D01*
X-0003640Y0013461D01*
X-0003726Y0013403D01*
X-0003809Y0013344D01*
X-0003889Y0013281D01*
X-0003968Y0013217D01*
X-0004044Y0013151D01*
X-0004117Y0013082D01*
X-0004189Y0013011D01*
X-0004258Y0012939D01*
X-0004325Y0012864D01*
X-0004390Y0012788D01*
X-0004453Y0012710D01*
X-0004514Y0012630D01*
X-0004573Y0012549D01*
X-0004629Y0012465D01*
X-0004684Y0012381D01*
X-0004736Y0012295D01*
X-0004787Y0012207D01*
X-0004836Y0012118D01*
X-0004882Y0012028D01*
X-0004927Y0011937D01*
X-0004970Y0011844D01*
X-0005011Y0011751D01*
X-0005051Y0011656D01*
X-0005088Y0011560D01*
X-0005124Y0011464D01*
X-0005158Y0011366D01*
X-0005190Y0011268D01*
X-0005221Y0011169D01*
X-0005277Y0010969D01*
X-0005327Y0010767D01*
X-0005371Y0010563D01*
X-0005408Y0010357D01*
X-0005440Y0010150D01*
X-0005467Y0009943D01*
X-0005488Y0009734D01*
X-0005504Y0009525D01*
X-0005516Y0009316D01*
X-0005523Y0009107D01*
X-0005526Y0008898D01*
X-0005524Y0008689D01*
X-0005510Y0008275D01*
X-0005484Y0007866D01*
X-0005445Y0007464D01*
X-0005398Y0007070D01*
X-0005341Y0006687D01*
X-0005276Y0006316D01*
X-0005204Y0005956D01*
X-0005125Y0005611D01*
X-0005039Y0005279D01*
X-0004947Y0004964D01*
X-0004850Y0004665D01*
X-0004747Y0004383D01*
X-0004694Y0004248D01*
X-0004640Y0004117D01*
X-0004584Y0003988D01*
X-0004526Y0003862D01*
X-0004466Y0003739D01*
X-0004405Y0003617D01*
X-0004277Y0003378D01*
X-0004141Y0003143D01*
X-0003996Y0002909D01*
X-0003841Y0002673D01*
X-0003677Y0002432D01*
X-0003502Y0002191D01*
X-0003411Y0002070D01*
X-0003317Y0001951D01*
X-0003220Y0001833D01*
X-0003120Y0001717D01*
X-0003017Y0001603D01*
X-0002911Y0001492D01*
X-0002802Y0001384D01*
X-0002689Y0001279D01*
X-0002574Y0001179D01*
X-0002515Y0001130D01*
X-0002456Y0001083D01*
X-0002395Y0001037D01*
X-0002334Y0000992D01*
X-0002271Y0000948D01*
X-0002208Y0000906D01*
X-0002145Y0000866D01*
X-0002080Y0000826D01*
X-0002014Y0000788D01*
X-0001948Y0000752D01*
X-0001881Y0000717D01*
X-0001813Y0000683D01*
X-0001745Y0000651D01*
X-0001675Y0000620D01*
X-0001605Y0000591D01*
X-0001535Y0000563D01*
X-0001464Y0000536D01*
X-0001392Y0000510D01*
X-0001320Y0000486D01*
X-0001247Y0000464D01*
X-0001173Y0000442D01*
X-0001099Y0000422D01*
X-0001025Y0000403D01*
X-0000950Y0000386D01*
X-0000798Y0000354D01*
X-0000645Y0000328D01*
X-0000491Y0000307D01*
X-0000335Y0000290D01*
X-0000178Y0000278D01*
X-0000020Y0000271D01*
X0000138Y0000269D01*
X0000072D01*
X0000231Y0000271D01*
X0000389Y0000278D01*
X0000546Y0000290D01*
X0000701Y0000307D01*
X0000856Y0000328D01*
X0001009Y0000354D01*
X0001160Y0000386D01*
X0001235Y0000403D01*
X0001310Y0000422D01*
X0001384Y0000442D01*
X0001457Y0000464D01*
X0001530Y0000486D01*
X0001603Y0000510D01*
X0001675Y0000536D01*
X0001746Y0000563D01*
X0001816Y0000591D01*
X0001886Y0000620D01*
X0001955Y0000651D01*
X0002024Y0000683D01*
X0002092Y0000717D01*
X0002159Y0000752D01*
X0002225Y0000788D01*
X0002291Y0000826D01*
X0002355Y0000866D01*
X0002419Y0000906D01*
X0002482Y0000948D01*
X0002544Y0000992D01*
X0002606Y0001037D01*
X0002666Y0001083D01*
X0002726Y0001130D01*
X0002785Y0001179D01*
X0002900Y0001279D01*
X0003012Y0001384D01*
X0003121Y0001492D01*
X0003227Y0001603D01*
X0003330Y0001717D01*
X0003430Y0001833D01*
X0003527Y0001951D01*
X0003622Y0002070D01*
X0003713Y0002191D01*
X0003888Y0002432D01*
X0004052Y0002673D01*
X0004207Y0002909D01*
X0004352Y0003143D01*
X0004488Y0003378D01*
X0004616Y0003617D01*
X0004677Y0003739D01*
X0004737Y0003862D01*
X0004794Y0003988D01*
X0004850Y0004117D01*
X0004905Y0004248D01*
X0004958Y0004383D01*
X0005060Y0004665D01*
X0005158Y0004964D01*
X0005250Y0005279D01*
X0005335Y0005611D01*
X0005415Y0005956D01*
X0005487Y0006316D01*
X0005552Y0006687D01*
X0005608Y0007070D01*
X0005656Y0007464D01*
X0005694Y0007866D01*
X0005721Y0008275D01*
X0005735Y0008689D01*
X0005736Y0008898D01*
X0005734Y0009107D01*
X0005727Y0009316D01*
X0005715Y0009525D01*
X0005699Y0009734D01*
X0005678Y0009943D01*
X0005651Y0010150D01*
X0005619Y0010357D01*
X0005582Y0010563D01*
X0005538Y0010767D01*
X0005488Y0010969D01*
X0005432Y0011169D01*
X0005401Y0011268D01*
X0005369Y0011366D01*
X0005335Y0011464D01*
X0005299Y0011560D01*
X0005261Y0011656D01*
X0005222Y0011751D01*
X0005181Y0011844D01*
X0005138Y0011937D01*
X0005093Y0012028D01*
X0005046Y0012118D01*
X0004998Y0012207D01*
X0004947Y0012295D01*
X0004895Y0012381D01*
X0004840Y0012465D01*
X0004783Y0012549D01*
X0004725Y0012630D01*
X0004664Y0012710D01*
X0004601Y0012788D01*
X0004536Y0012864D01*
X0004469Y0012939D01*
X0004400Y0013011D01*
X0004328Y0013082D01*
X0004254Y0013151D01*
X0004178Y0013217D01*
X0004100Y0013281D01*
X0004019Y0013344D01*
X0003936Y0013403D01*
X0003851Y0013461D01*
X0003763Y0013516D01*
X0003673Y0013569D01*
X0003581Y0013620D01*
X0003486Y0013668D01*
X0003389Y0013714D01*
X0003290Y0013758D01*
X0003189Y0013799D01*
X0003086Y0013839D01*
X0002981Y0013876D01*
X0002873Y0013912D01*
X0002764Y0013945D01*
X0002653Y0013977D01*
X0002540Y0014006D01*
X0002426Y0014034D01*
X0002309Y0014060D01*
X0002191Y0014084D01*
X0001950Y0014127D01*
X0001702Y0014163D01*
X0001449Y0014193D01*
X0001190Y0014216D01*
X0000925Y0014234D01*
X0000656Y0014246D01*
X0000383Y0014254D01*
X-0000172D01*
X-0000446Y0014246D01*
X-0000715Y0014234D01*
X-0000979Y0014216D01*
X-0001238Y0014193D01*
X-0001491Y0014163D01*
X-0001739Y0014127D01*
X-0001980Y0014084D01*
X-0002098Y0014060D01*
X-0002215Y0014034D01*
X-0002330Y0014006D01*
X-0002442Y0013977D01*
X-0002554Y0013945D01*
X-0002663Y0013912D01*
X-0002770Y0013876D01*
X-0002875Y0013839D01*
X-0002978Y0013799D01*
X-0003080Y0013758D01*
X-0003179Y0013714D01*
X-0003275Y0013668D01*
X-0003370Y0013620D01*
X-0003463Y0013569D01*
X-0003553Y0013516D01*
X-0003640Y0013461D01*
X-0003726Y0013403D01*
X-0003809Y0013344D01*
X-0003889Y0013281D01*
X-0003968Y0013217D01*
X-0004044Y0013151D01*
X-0004117Y0013082D01*
X-0004189Y0013011D01*
X-0004258Y0012939D01*
X-0004325Y0012864D01*
X-0004390Y0012788D01*
X-0004453Y0012710D01*
X-0004514Y0012630D01*
X-0004573Y0012549D01*
X-0004629Y0012465D01*
X-0004684Y0012381D01*
X-0004736Y0012295D01*
X-0004787Y0012207D01*
X-0004836Y0012118D01*
X-0004882Y0012028D01*
X-0004927Y0011937D01*
X-0004970Y0011844D01*
X-0005011Y0011751D01*
X-0005051Y0011656D01*
X-0005088Y0011560D01*
X-0005124Y0011464D01*
X-0005158Y0011366D01*
X-0005190Y0011268D01*
X-0005221Y0011169D01*
X-0005277Y0010969D01*
X-0005327Y0010767D01*
X-0005371Y0010563D01*
X-0005408Y0010357D01*
X-0005440Y0010150D01*
X-0005467Y0009943D01*
X-0005488Y0009734D01*
X-0005504Y0009525D01*
X-0005516Y0009316D01*
X-0005523Y0009107D01*
X-0005526Y0008898D01*
X-0005524Y0008689D01*
X-0005510Y0008275D01*
X-0005484Y0007866D01*
X-0005445Y0007464D01*
X-0005398Y0007070D01*
X-0005341Y0006687D01*
X-0005276Y0006316D01*
X-0005204Y0005956D01*
X-0005125Y0005611D01*
X-0005039Y0005279D01*
X-0004947Y0004964D01*
X-0004850Y0004665D01*
X-0004747Y0004383D01*
X-0004694Y0004248D01*
X-0004640Y0004117D01*
X-0004584Y0003988D01*
X-0004526Y0003862D01*
X-0004466Y0003739D01*
X-0004405Y0003617D01*
X-0004277Y0003378D01*
X-0004141Y0003143D01*
X-0003996Y0002909D01*
X-0003841Y0002673D01*
X-0003677Y0002432D01*
X-0003502Y0002191D01*
X-0003411Y0002070D01*
X-0003317Y0001951D01*
X-0003220Y0001833D01*
X-0003120Y0001717D01*
X-0003017Y0001603D01*
X-0002911Y0001492D01*
X-0002802Y0001384D01*
X-0002689Y0001279D01*
X-0002574Y0001179D01*
X-0002515Y0001130D01*
X-0002456Y0001083D01*
X-0002395Y0001037D01*
X-0002334Y0000992D01*
X-0002271Y0000948D01*
X-0002208Y0000906D01*
X-0002145Y0000866D01*
X-0002080Y0000826D01*
X-0002014Y0000788D01*
X-0001948Y0000752D01*
X-0001881Y0000717D01*
X-0001813Y0000683D01*
X-0001745Y0000651D01*
X-0001675Y0000620D01*
X-0001605Y0000591D01*
X-0001535Y0000563D01*
X-0001464Y0000536D01*
X-0001392Y0000510D01*
X-0001320Y0000486D01*
X-0001247Y0000464D01*
X-0001173Y0000442D01*
X-0001099Y0000422D01*
X-0001025Y0000403D01*
X-0000950Y0000386D01*
X-0000798Y0000354D01*
X-0000645Y0000328D01*
X-0000491Y0000307D01*
X-0000335Y0000290D01*
X-0000178Y0000278D01*
X-0000020Y0000271D01*
X0000138Y0000269D01*
G54D41*
G01X-0004530Y0004190D02*
X-0004890Y0005200D01*
X-0005120Y0006190D01*
X-0005320Y0007530D01*
X-0005420Y0008750D01*
X-0005390Y0009160D01*
X-0005240Y0010560D01*
X-0004910Y0011680D01*
X-0004340Y0012640D01*
X-0003720Y0013250D01*
X-0002740Y0013770D01*
X-0001440Y0014040D01*
X0000070Y0014120D01*
X0001610Y0014040D01*
X0002930Y0013780D01*
X0004080Y0013140D01*
X0004530Y0012700D01*
X0004980Y0011960D01*
X0005430Y0010650D01*
X0005620Y0009310D01*
X0005510Y0007110D01*
X0005290Y0005950D01*
X0004960Y0004760D01*
X0004160Y0003050D01*
X0003170Y0001730D01*
X0002740Y0001330D01*
X0002240Y0000960D01*
X0001870Y0000750D01*
X0001210Y0000510D01*
X0000150Y0000390D01*
X-0001030Y0000520D01*
X-0001890Y0000870D01*
X-0002490Y0001270D01*
X-0002970Y0001740D01*
X-0003500Y0002410D01*
X-0003630Y0002640D01*
X-0004230Y0003530D01*
X-0004530Y0004180D01*
G54D35*
X-0003730Y0004430D03*
X0003960D03*
G54D37*
X0003060Y0013300D03*
X0002577Y0013429D03*
X0002094Y0013559D03*
X0001611Y0013688D03*
G54D38*
X-0002290Y0011120D03*
X-0001700D03*
X-0001690Y0010700D03*
X0001340Y0010070D03*
X0000370Y0011000D03*
G54D40*
X-0000081Y0013901D03*
Y0013299D03*
Y0012739D03*
Y0012191D03*
X-0003910Y0009020D03*
X-0003940Y0008540D03*
X-0004430Y0008550D03*
X-0004910D03*
Y0009010D03*
X-0004420Y0009020D03*
X-0004600Y0011120D03*
X-0004070D03*
X-0003450D03*
X-0002870D03*
X0004190Y0009050D03*
Y0008570D03*
X0004630D03*
X0005180Y0008610D03*
Y0009020D03*
X0004680D03*
X0002990Y0006750D03*
X-0004580Y0006640D03*
X-0002746Y0007076D03*
X0001140Y0007230D03*
X-0002230Y0008440D03*
X-0000081Y0011711D03*
X-0003010Y0010360D03*
G54D42*
X-0001390Y0007060D03*
X0003080Y0004920D03*
X0002480Y0009260D03*
X0002790Y0006330D03*
X0001860Y0009580D03*
X0001730Y0007170D03*
X0001410Y0007740D03*
X0000160Y0006010D03*
X0002120Y0007710D03*
X0002430Y0005930D03*
X-0001070Y0006650D03*
X-0003770Y0005640D03*
X-0001580Y0006460D03*
X-0001830Y0008770D03*
X-0002310Y0008910D03*
M02*
