*
G04 Mass Parameters ***
*
G04 Image ***
*
%INC:\DOCUMENTS AND SETTINGS\NAZGUL\MY DOCUMENTS\DROPBOX\BOARD DESIGN\GERBER FILES\BLE SPO2\BLE SPO2.SSB*%
%ICAS*%
%MOIN*%
%IPPOS*%
%ASAXBY*%
G74*%FSLAN2X34Y34*%
*
G04 Aperture Definitions ***
*
%AMTHERMAL36*
1,1,0.0679,0,0,*
1,0,0.0520,0,0,*
21,0,0.0680,0.0100,0,0,30.0*
21,0,0.0680,0.0100,0,0,120.0*%
%AMTHERMAL39*
1,1,0.0499,0,0,*
1,0,0.0340,0,0,*
21,0,0.0500,0.0100,0,0,45.0*
21,0,0.0500,0.0100,0,0,135.0*%
%ADD10C,0.1100*%
%ADD11R,0.0500X0.0500*%
%ADD12R,0.0220X0.0220*%
%ADD13R,0.0709X0.0590*%
%ADD14R,0.0320X0.0380*%
%ADD15C,0.0401*%
%ADD16R,0.0380X0.0320*%
%ADD17C,0.0020*%
%ADD18R,0.1575X0.1575*%
%ADD19O,0.0335X0.0110*%
%ADD20O,0.0110X0.0335*%
%ADD21R,0.0394X0.0138*%
%ADD22R,0.0315X0.0630*%
%ADD23R,0.0590X0.0197*%
%ADD24R,0.0433X0.0177*%
%ADD25R,0.0394X0.0197*%
%ADD26R,0.0256X0.0295*%
%ADD27C,0.0200*%
%ADD28C,0.0100*%
%ADD29C,0.0080*%
%ADD30C,0.0200*%
%ADD31C,0.1000*%
%ADD32R,0.0394X0.0276*%
%ADD33C,0.0010*%
%ADD34C,0.0200*%
%ADD35C,0.1400*%
%ADD36THERMAL36*%
%ADD37C,0.0450*%
%ADD38C,0.0250*%
%ADD39THERMAL39*%
%ADD40C,0.0250*%
%ADD41C,0.0200*%
%ADD42C,0.0250*%
%ADD43C,0.0450*%
%ADD44C,0.1050*%
%ADD45R,0.0549X0.0549*%
%ADD46R,0.0270X0.0270*%
%ADD47R,0.0758X0.0640*%
%ADD48R,0.0370X0.0430*%
%ADD49C,0.0450*%
%ADD50R,0.0430X0.0370*%
%ADD51R,0.1624X0.1624*%
%ADD52O,0.0384X0.0159*%
%ADD53O,0.0159X0.0384*%
%ADD54R,0.0443X0.0187*%
%ADD55R,0.0364X0.0679*%
%ADD56R,0.0640X0.0246*%
%ADD57R,0.0482X0.0226*%
%ADD58R,0.0443X0.0246*%
%ADD59R,0.0305X0.0344*%
%ADD60R,0.0443X0.0325*%
%ADD61C,0.0060*%
%ADD62C,0.0050*%
%ADD63C,0.0070*%
*
G04 Plot Data ***
*
G54D28*
G01X0007137Y-0001882D02*
Y-0001382D01*
X0007178Y-0001882D02*
X0006928D01*
X0006845Y-0001798D01*
Y-0001715D01*
X0006887Y-0001632D01*
X0007137D02*
X0006887D01*
X0006845Y-0001548D01*
Y-0001465D01*
X0006928Y-0001382D01*
X0007178D01*
X0007420Y-0001465D02*
X0007462Y-0001382D01*
X0007712D01*
X0007753Y-0001465D01*
Y-0001548D01*
X0007712Y-0001632D01*
X0007462D01*
X0007420Y-0001715D01*
Y-0001798D01*
X0007462Y-0001882D01*
X0007712D01*
X0007753Y-0001798D01*
X0007995Y-0001465D02*
X0008037Y-0001382D01*
X0008287D01*
X0008328Y-0001465D01*
Y-0001548D01*
X0008287Y-0001632D01*
X0008037D01*
X0007995Y-0001715D01*
Y-0001798D01*
X0008037Y-0001882D01*
X0008287D01*
X0008328Y-0001798D01*
X-0000150Y0003000D03*
X-0000160D01*
X-0000170D01*
X-0000180D01*
X-0000190D01*
X-0000200D01*
X-0000210D01*
X-0000220D01*
X-0000230D01*
X-0000240D01*
X-0000250D01*
X-0000260D01*
Y0002990D01*
X-0000270D01*
X-0000280D01*
X-0000290D01*
Y0002980D01*
X-0000300D01*
X-0000320Y0002970D01*
X-0000350Y0002950D01*
X-0000400Y0002930D01*
X-0000450Y0002900D01*
X-0000470Y0002890D01*
X-0000490Y0002870D01*
X-0000500D01*
X-0000510Y0002860D01*
X-0000520Y0002850D01*
X-0000530D01*
Y0002840D01*
X-0000540Y0002830D01*
X-0000550D01*
Y0002820D01*
X-0000560Y0002810D01*
X-0000570D01*
X-0000580Y0002800D01*
X-0000590Y0002780D01*
X-0000600Y0002770D01*
X-0000610D01*
Y0002760D01*
Y0002770D01*
X-0000620D01*
Y0002780D01*
X-0000630D01*
X-0000650Y0002820D01*
X-0000660Y0002830D01*
X-0000670Y0002850D01*
X-0000680Y0002860D01*
X-0000690D01*
Y0002870D01*
X-0000700Y0002880D01*
X-0000710Y0002890D01*
X-0000720Y0002900D01*
X-0000730Y0002910D01*
X-0000740D01*
Y0002920D01*
X-0000750D01*
X-0000760Y0002930D01*
X-0000770Y0002940D01*
X-0000780D01*
Y0002950D01*
X-0000790D01*
X-0000800D01*
X-0000810Y0002960D01*
X-0000820D01*
X-0000830Y0002970D01*
X-0000840D01*
X-0000850D01*
X-0000860D01*
X-0000870Y0002980D01*
X-0000880D01*
X-0000890D01*
X-0000900D01*
X-0000910D01*
X-0000920D01*
X-0000930Y0002990D01*
X-0000940D01*
X-0000950D01*
X-0000960D01*
X-0000970D01*
X-0000980D01*
X-0000990D01*
X-0001000D01*
Y0002980D01*
X-0001020D01*
X-0001030D01*
X-0001050D01*
X-0001060D01*
X-0001070Y0002970D01*
X-0001080D01*
X-0001090D01*
X-0001100D01*
X-0001110Y0002960D01*
X-0001120D01*
Y0002950D01*
X-0001130D01*
Y0002940D01*
X-0001120D01*
Y0002930D01*
X-0001110D01*
X-0001100Y0002920D01*
X-0001060Y0002900D01*
X-0001050D01*
X-0001040D01*
Y0002890D01*
X-0001030D01*
X-0001020D01*
Y0002880D01*
X-0001010D01*
Y0002870D01*
X-0001000D01*
Y0002860D01*
X-0000990D01*
X-0000980Y0002850D01*
Y0002840D01*
X-0000970D01*
Y0002830D01*
X-0000960Y0002820D01*
X-0000950Y0002810D01*
Y0002800D01*
Y0002790D01*
X-0000940Y0002780D01*
Y0002770D01*
X-0000930Y0002760D01*
Y0002750D01*
X-0000920Y0002730D01*
Y0002720D01*
X-0000910Y0002700D01*
Y0002670D01*
X-0000900Y0002630D01*
X-0000890Y0002560D01*
X-0000870Y0002470D01*
X-0000850Y0002280D01*
X-0000830Y0002180D01*
X-0000810Y0002080D01*
X-0000800Y0002030D01*
X-0000790Y0001980D01*
X-0000780Y0001940D01*
X-0000770Y0001890D01*
X-0000750Y0001840D01*
X-0000740Y0001800D01*
X-0000730Y0001780D01*
X-0000720Y0001760D01*
X-0000710Y0001730D01*
X-0000700Y0001710D01*
X-0000690Y0001690D01*
X-0000680Y0001680D01*
Y0001660D01*
X-0000660Y0001640D01*
X-0000650Y0001620D01*
X-0000640Y0001600D01*
X-0000630Y0001580D01*
X-0000620Y0001570D01*
X-0000610Y0001550D01*
X-0000600Y0001530D01*
X-0000580Y0001520D01*
X-0000570Y0001500D01*
X-0000550Y0001490D01*
X-0000540Y0001470D01*
X-0000520Y0001450D01*
X-0000510Y0001440D01*
X-0000490Y0001420D01*
X-0000480Y0001410D01*
X-0000460Y0001400D01*
X-0000450Y0001390D01*
X-0000440Y0001380D01*
X-0000430D01*
X-0000420Y0001370D01*
X-0000410Y0001360D01*
X-0000400Y0001350D01*
X-0000390D01*
X-0000380Y0001340D01*
X-0000360Y0001330D01*
X-0000350D01*
X-0000340Y0001320D01*
X-0000320Y0001310D01*
X-0000310D01*
X-0000300Y0001300D01*
X-0000260Y0001290D01*
X-0000230Y0001280D01*
X-0000190Y0001270D01*
X-0000150Y0001250D01*
X-0000110Y0001240D01*
X-0000060Y0001230D01*
Y0000450D01*
X0000140D01*
Y0001230D01*
X0000180Y0001240D01*
X0000230Y0001250D01*
X0000270Y0001270D01*
X0000300Y0001280D01*
X0000340Y0001290D01*
X0000370Y0001300D01*
X0000380Y0001310D01*
X0000400D01*
X0000410Y0001320D01*
X0000430Y0001330D01*
X0000440D01*
X0000450Y0001340D01*
X0000460Y0001350D01*
X0000470D01*
X0000480Y0001360D01*
X0000490Y0001370D01*
X0000500Y0001380D01*
X0000510D01*
X0000520Y0001390D01*
X0000530Y0001400D01*
X0000550Y0001410D01*
X0000570Y0001420D01*
X0000580Y0001440D01*
X0000600Y0001450D01*
X0000610Y0001470D01*
X0000630Y0001490D01*
X0000640Y0001500D01*
X0000660Y0001520D01*
X0000670Y0001530D01*
X0000680Y0001550D01*
X0000690Y0001570D01*
X0000710Y0001580D01*
X0000720Y0001600D01*
X0000730Y0001620D01*
X0000740Y0001640D01*
X0000750Y0001660D01*
X0000760Y0001680D01*
X0000770Y0001690D01*
X0000780Y0001710D01*
X0000790Y0001730D01*
X0000800Y0001760D01*
Y0001780D01*
X0000810Y0001800D01*
X0000830Y0001840D01*
X0000840Y0001890D01*
X0000850Y0001940D01*
X0000870Y0001980D01*
X0000880Y0002030D01*
X0000890Y0002080D01*
X0000910Y0002180D01*
X0000920Y0002280D01*
X0000950Y0002470D01*
X0000960Y0002560D01*
X0000970Y0002630D01*
X0000980Y0002670D01*
X0000990Y0002700D01*
Y0002720D01*
X0001000Y0002730D01*
Y0002750D01*
X0001010Y0002760D01*
Y0002770D01*
Y0002780D01*
X0001020Y0002790D01*
Y0002800D01*
X0001030Y0002810D01*
Y0002820D01*
X0001040D01*
Y0002830D01*
Y0002840D01*
X0001050D01*
Y0002850D01*
X0001060D01*
Y0002860D01*
X0001070D01*
Y0002870D01*
X0001080D01*
X0001090Y0002880D01*
X0001100Y0002890D01*
X0001110D01*
X0001120Y0002900D01*
X0001130D01*
X0001180Y0002920D01*
Y0002930D01*
X0001190D01*
X0001200D01*
Y0002940D01*
Y0002950D01*
Y0002960D01*
X0001190D01*
X0001180D01*
Y0002970D01*
X0001170D01*
X0001160D01*
X0001150D01*
X0001140Y0002980D01*
X0001120D01*
X0001110D01*
X0001090D01*
X0001080D01*
X0001070Y0002990D01*
X0001060D01*
X0001050D01*
X0001040D01*
X0001030D01*
X0001020D01*
X0001010D01*
X0001000Y0002980D01*
X0000990D01*
X0000980D01*
X0000970D01*
X0000960D01*
X0000950D01*
X0000940Y0002970D01*
X0000930D01*
X0000920D01*
X0000910D01*
X0000890Y0002960D01*
X0000880D01*
X0000870Y0002950D01*
X0000860D01*
X0000850Y0002940D01*
X0000840D01*
Y0002930D01*
X0000830D01*
X0000820Y0002920D01*
X0000810Y0002910D01*
X0000800D01*
Y0002900D01*
X0000790D01*
X0000780Y0002890D01*
X0000770Y0002880D01*
Y0002870D01*
X0000760Y0002860D01*
X0000750D01*
Y0002850D01*
X0000740Y0002830D01*
X0000730Y0002820D01*
X0000700Y0002780D01*
Y0002770D01*
X0000690D01*
X0000680D01*
Y0002760D01*
Y0002770D01*
X0000670D01*
Y0002780D01*
X0000650Y0002800D01*
X0000640Y0002810D01*
X0000630D01*
Y0002820D01*
X0000620Y0002830D01*
X0000610Y0002840D01*
X0000600Y0002850D01*
X0000590D01*
X0000580Y0002860D01*
X0000570Y0002870D01*
X0000560D01*
X0000550Y0002880D01*
X0000540Y0002890D01*
X0000530D01*
X0000520Y0002900D01*
X0000510Y0002910D01*
X0000490D01*
X0000460Y0002930D01*
X0000430Y0002940D01*
X0000400Y0002950D01*
X0000370Y0002970D01*
X0000340Y0002980D01*
X0000310Y0002990D01*
X0000280Y0003000D01*
X0000240Y0003010D01*
X0000210D01*
X0000170Y0003020D01*
X0000140Y0003030D01*
Y0003050D01*
X-0000060D01*
Y0001350D01*
X-0000070D01*
X-0000080Y0001360D01*
X-0000090D01*
X-0000100D01*
Y0001370D01*
X-0000110D01*
X-0000120D01*
X-0000130Y0001380D01*
X-0000140D01*
X-0000150Y0001390D01*
X-0000160Y0001400D01*
X-0000170D01*
X-0000190Y0001420D01*
X-0000200Y0001430D01*
X-0000220Y0001440D01*
X-0000240Y0001460D01*
X-0000250Y0001470D01*
X-0000270Y0001490D01*
X-0000280Y0001500D01*
X-0000290Y0001510D01*
X-0000300Y0001520D01*
X-0000310Y0001530D01*
Y0001540D01*
X-0000320Y0001550D01*
Y0001560D01*
X-0000330D01*
X-0000340Y0001570D01*
Y0001580D01*
X-0000350Y0001590D01*
Y0001600D01*
X-0000360Y0001620D01*
X-0000370Y0001640D01*
X-0000380Y0001660D01*
X-0000390Y0001690D01*
X-0000400Y0001720D01*
X-0000410Y0001740D01*
X-0000420Y0001770D01*
X-0000430Y0001800D01*
X-0000440Y0001830D01*
X-0000450Y0001860D01*
Y0001890D01*
X-0000460Y0001920D01*
X-0000470Y0001950D01*
Y0001980D01*
Y0002010D01*
X-0000480Y0002040D01*
Y0002060D01*
Y0002110D01*
Y0002160D01*
Y0002210D01*
Y0002230D01*
Y0002260D01*
Y0002280D01*
Y0002310D01*
Y0002330D01*
X-0000470Y0002360D01*
Y0002380D01*
Y0002410D01*
X-0000460Y0002430D01*
Y0002460D01*
X-0000450Y0002480D01*
X-0000440Y0002510D01*
Y0002530D01*
X-0000430Y0002550D01*
X-0000420Y0002580D01*
X-0000410Y0002600D01*
X-0000400Y0002620D01*
X-0000390Y0002640D01*
Y0002660D01*
X-0000370Y0002680D01*
X-0000360Y0002690D01*
X-0000350Y0002710D01*
X-0000340Y0002730D01*
X-0000330Y0002750D01*
X-0000320D01*
Y0002760D01*
X-0000310Y0002770D01*
X-0000300Y0002780D01*
X-0000290Y0002790D01*
X-0000280Y0002800D01*
Y0002810D01*
X-0000270D01*
X-0000260Y0002820D01*
X-0000250Y0002830D01*
X-0000230Y0002840D01*
X-0000180Y0002880D01*
X-0000170Y0002890D01*
X-0000160D01*
Y0002900D01*
X-0000150D01*
Y0002910D01*
X-0000140D01*
Y0002920D01*
Y0002930D01*
X-0000130D01*
Y0002940D01*
Y0002950D01*
Y0002960D01*
Y0002970D01*
Y0002980D01*
X0000580Y0002530D02*
X0000540Y0002640D01*
X0000610Y0002660D01*
X0000210Y0002960D01*
X0000690Y0002700D01*
X0000660Y0002510D01*
X0000600Y0002610D01*
X0000630Y0002150D01*
X0000760Y0002720D01*
X0000850Y0002840D01*
X0000890Y0002490D01*
X0000710Y0001680D01*
X0000570Y0001510D01*
X0000860Y0002540D01*
X0001040Y0002920D01*
X0000910Y0002890D01*
X0000510Y0001480D01*
X0000290Y0001350D01*
X0000050Y0001340D01*
X0000100Y0002960D01*
X0000010Y0002980D01*
X-0000010Y0001320D01*
X0000100Y0001300D01*
Y0000510D01*
X0000020D01*
X0000040Y0000990D01*
Y0001100D01*
X0000050Y0001180D01*
X-0000010Y0001270D01*
X-0000500Y0001520D01*
X-0000520Y0001810D01*
X-0000660Y0002580D01*
X-0000630Y0002310D01*
X-0000570Y0002230D01*
Y0002350D01*
X-0000500Y0002560D01*
X-0000510Y0002600D01*
X-0000620Y0002440D01*
X-0000690Y0002290D01*
X-0000610Y0001830D01*
X-0000450Y0001670D01*
X-0000540Y0001680D01*
X-0000100Y0001300D01*
X-0000550Y0001550D01*
X-0000770Y0002190D01*
X-0000690Y0002560D01*
X-0000740Y0002530D01*
Y0002720D01*
X-0000590Y0002660D01*
X-0000650Y0002630D01*
X-0000760Y0002660D01*
Y0002770D01*
X-0000840Y0002760D01*
X-0000780Y0002370D01*
X-0000240Y0002910D01*
X-0000390Y0002880D01*
X-0000540Y0002730D01*
X-0000650D01*
X-0000770Y0002850D01*
X-0000830D01*
X-0000880Y0002900D01*
Y0002820D01*
X-0000980Y0002920D01*
X0000130Y0002980D02*
X0000410Y0002910D01*
X0000510Y0002670D01*
X0000650Y0002090D01*
Y0001610D01*
X0000180Y0001300D01*
X0000010Y0001100D01*
X-0000030Y0001270D01*
X-0000400Y0001460D01*
X-0000540Y0002170D01*
X-0000820Y0002280D01*
X-0000470Y0002610D01*
X-0000200Y0002950D01*
X0000140Y0002920D02*
Y0001350D01*
Y0002920D03*
Y0001350D01*
X0000170D01*
X0000180Y0001360D01*
X0000190D01*
X0000200D01*
X0000210Y0001370D01*
X0000220D01*
X0000230D01*
X0000240Y0001380D01*
X0000250D01*
X0000260D01*
X0000270Y0001390D01*
X0000280Y0001400D01*
X0000290D01*
X0000300Y0001410D01*
X0000310Y0001420D01*
X0000320Y0001430D01*
X0000330D01*
X0000340Y0001440D01*
Y0001450D01*
X0000360Y0001460D01*
X0000370Y0001480D01*
X0000390Y0001490D01*
X0000400Y0001510D01*
X0000420Y0001530D01*
X0000430Y0001540D01*
X0000440Y0001560D01*
X0000450Y0001570D01*
Y0001580D01*
X0000460D01*
Y0001590D01*
X0000470Y0001600D01*
Y0001610D01*
X0000480Y0001620D01*
Y0001630D01*
X0000490Y0001640D01*
Y0001650D01*
X0000500Y0001660D01*
Y0001670D01*
X0000510Y0001690D01*
Y0001700D01*
X0000520Y0001720D01*
X0000530Y0001750D01*
Y0001780D01*
X0000540Y0001810D01*
X0000550Y0001840D01*
Y0001860D01*
X0000560Y0001890D01*
Y0001920D01*
Y0001940D01*
X0000570Y0001970D01*
Y0001990D01*
Y0002020D01*
Y0002040D01*
Y0002060D01*
Y0002090D01*
Y0002140D01*
Y0002200D01*
X0000560Y0002250D01*
Y0002310D01*
X0000550Y0002360D01*
X0000540Y0002390D01*
Y0002420D01*
X0000530Y0002440D01*
Y0002470D01*
X0000520Y0002500D01*
X0000510Y0002520D01*
X0000500Y0002550D01*
Y0002580D01*
X0000490Y0002600D01*
X0000480Y0002630D01*
X0000460Y0002650D01*
X0000450Y0002670D01*
X0000440Y0002690D01*
Y0002700D01*
X0000430Y0002710D01*
Y0002720D01*
X0000420Y0002730D01*
X0000410Y0002740D01*
Y0002750D01*
X0000400Y0002760D01*
X0000390Y0002770D01*
X0000380Y0002780D01*
X0000370Y0002790D01*
Y0002800D01*
X0000360D01*
X0000350Y0002810D01*
X0000340D01*
X0000330Y0002830D01*
X0000310Y0002840D01*
X0000300D01*
X0000290Y0002850D01*
X0000280D01*
X0000270Y0002860D01*
X0000260Y0002870D01*
X0000250D01*
X0000240Y0002880D01*
X0000230D01*
X0000210Y0002890D01*
X0000200D01*
X0000190Y0002900D01*
X0000170Y0002910D01*
X0000150D01*
X0000140Y0002920D01*
X0000138Y0000269D02*
X0000072D01*
X0000231Y0000271D01*
X0000389Y0000278D01*
X0000546Y0000290D01*
X0000701Y0000307D01*
X0000856Y0000328D01*
X0001009Y0000354D01*
X0001160Y0000386D01*
X0001235Y0000403D01*
X0001310Y0000422D01*
X0001384Y0000442D01*
X0001457Y0000464D01*
X0001530Y0000486D01*
X0001603Y0000510D01*
X0001675Y0000536D01*
X0001746Y0000563D01*
X0001816Y0000591D01*
X0001886Y0000620D01*
X0001955Y0000651D01*
X0002024Y0000683D01*
X0002092Y0000717D01*
X0002159Y0000752D01*
X0002225Y0000788D01*
X0002291Y0000826D01*
X0002355Y0000866D01*
X0002419Y0000906D01*
X0002482Y0000948D01*
X0002544Y0000992D01*
X0002606Y0001037D01*
X0002666Y0001083D01*
X0002726Y0001130D01*
X0002785Y0001179D01*
X0002900Y0001279D01*
X0003012Y0001384D01*
X0003121Y0001492D01*
X0003227Y0001603D01*
X0003330Y0001717D01*
X0003430Y0001833D01*
X0003527Y0001951D01*
X0003622Y0002070D01*
X0003713Y0002191D01*
X0003888Y0002432D01*
X0004052Y0002673D01*
X0004207Y0002909D01*
X0004352Y0003143D01*
X0004488Y0003378D01*
X0004616Y0003617D01*
X0004677Y0003739D01*
X0004737Y0003862D01*
X0004794Y0003988D01*
X0004850Y0004117D01*
X0004905Y0004248D01*
X0004958Y0004383D01*
X0005060Y0004665D01*
X0005158Y0004964D01*
X0005250Y0005279D01*
X0005335Y0005611D01*
X0005415Y0005956D01*
X0005487Y0006316D01*
X0005552Y0006687D01*
X0005608Y0007070D01*
X0005656Y0007464D01*
X0005694Y0007866D01*
X0005721Y0008275D01*
X0005735Y0008689D01*
X0005736Y0008898D01*
X0005734Y0009107D01*
X0005727Y0009316D01*
X0005715Y0009525D01*
X0005699Y0009734D01*
X0005678Y0009943D01*
X0005651Y0010150D01*
X0005619Y0010357D01*
X0005582Y0010563D01*
X0005538Y0010767D01*
X0005488Y0010969D01*
X0005432Y0011169D01*
X0005401Y0011268D01*
X0005369Y0011366D01*
X0005335Y0011464D01*
X0005299Y0011560D01*
X0005261Y0011656D01*
X0005222Y0011751D01*
X0005181Y0011844D01*
X0005138Y0011937D01*
X0005093Y0012028D01*
X0005046Y0012118D01*
X0004998Y0012207D01*
X0004947Y0012295D01*
X0004895Y0012381D01*
X0004840Y0012465D01*
X0004783Y0012549D01*
X0004725Y0012630D01*
X0004664Y0012710D01*
X0004601Y0012788D01*
X0004536Y0012864D01*
X0004469Y0012939D01*
X0004400Y0013011D01*
X0004328Y0013082D01*
X0004254Y0013151D01*
X0004178Y0013217D01*
X0004100Y0013281D01*
X0004019Y0013344D01*
X0003936Y0013403D01*
X0003851Y0013461D01*
X0003763Y0013516D01*
X0003673Y0013569D01*
X0003581Y0013620D01*
X0003486Y0013668D01*
X0003389Y0013714D01*
X0003290Y0013758D01*
X0003189Y0013799D01*
X0003086Y0013839D01*
X0002981Y0013876D01*
X0002873Y0013912D01*
X0002764Y0013945D01*
X0002653Y0013977D01*
X0002540Y0014006D01*
X0002426Y0014034D01*
X0002309Y0014060D01*
X0002191Y0014084D01*
X0001950Y0014127D01*
X0001702Y0014163D01*
X0001449Y0014193D01*
X0001190Y0014216D01*
X0000925Y0014234D01*
X0000656Y0014246D01*
X0000383Y0014254D01*
X-0000172D01*
X-0000446Y0014246D01*
X-0000715Y0014234D01*
X-0000979Y0014216D01*
X-0001238Y0014193D01*
X-0001491Y0014163D01*
X-0001739Y0014127D01*
X-0001980Y0014084D01*
X-0002098Y0014060D01*
X-0002215Y0014034D01*
X-0002330Y0014006D01*
X-0002442Y0013977D01*
X-0002554Y0013945D01*
X-0002663Y0013912D01*
X-0002770Y0013876D01*
X-0002875Y0013839D01*
X-0002978Y0013799D01*
X-0003080Y0013758D01*
X-0003179Y0013714D01*
X-0003275Y0013668D01*
X-0003370Y0013620D01*
X-0003463Y0013569D01*
X-0003553Y0013516D01*
X-0003640Y0013461D01*
X-0003726Y0013403D01*
X-0003809Y0013344D01*
X-0003889Y0013281D01*
X-0003968Y0013217D01*
X-0004044Y0013151D01*
X-0004117Y0013082D01*
X-0004189Y0013011D01*
X-0004258Y0012939D01*
X-0004325Y0012864D01*
X-0004390Y0012788D01*
X-0004453Y0012710D01*
X-0004514Y0012630D01*
X-0004573Y0012549D01*
X-0004629Y0012465D01*
X-0004684Y0012381D01*
X-0004736Y0012295D01*
X-0004787Y0012207D01*
X-0004836Y0012118D01*
X-0004882Y0012028D01*
X-0004927Y0011937D01*
X-0004970Y0011844D01*
X-0005011Y0011751D01*
X-0005051Y0011656D01*
X-0005088Y0011560D01*
X-0005124Y0011464D01*
X-0005158Y0011366D01*
X-0005190Y0011268D01*
X-0005221Y0011169D01*
X-0005277Y0010969D01*
X-0005327Y0010767D01*
X-0005371Y0010563D01*
X-0005408Y0010357D01*
X-0005440Y0010150D01*
X-0005467Y0009943D01*
X-0005488Y0009734D01*
X-0005504Y0009525D01*
X-0005516Y0009316D01*
X-0005523Y0009107D01*
X-0005526Y0008898D01*
X-0005524Y0008689D01*
X-0005510Y0008275D01*
X-0005484Y0007866D01*
X-0005445Y0007464D01*
X-0005398Y0007070D01*
X-0005341Y0006687D01*
X-0005276Y0006316D01*
X-0005204Y0005956D01*
X-0005125Y0005611D01*
X-0005039Y0005279D01*
X-0004947Y0004964D01*
X-0004850Y0004665D01*
X-0004747Y0004383D01*
X-0004694Y0004248D01*
X-0004640Y0004117D01*
X-0004584Y0003988D01*
X-0004526Y0003862D01*
X-0004466Y0003739D01*
X-0004405Y0003617D01*
X-0004277Y0003378D01*
X-0004141Y0003143D01*
X-0003996Y0002909D01*
X-0003841Y0002673D01*
X-0003677Y0002432D01*
X-0003502Y0002191D01*
X-0003411Y0002070D01*
X-0003317Y0001951D01*
X-0003220Y0001833D01*
X-0003120Y0001717D01*
X-0003017Y0001603D01*
X-0002911Y0001492D01*
X-0002802Y0001384D01*
X-0002689Y0001279D01*
X-0002574Y0001179D01*
X-0002515Y0001130D01*
X-0002456Y0001083D01*
X-0002395Y0001037D01*
X-0002334Y0000992D01*
X-0002271Y0000948D01*
X-0002208Y0000906D01*
X-0002145Y0000866D01*
X-0002080Y0000826D01*
X-0002014Y0000788D01*
X-0001948Y0000752D01*
X-0001881Y0000717D01*
X-0001813Y0000683D01*
X-0001745Y0000651D01*
X-0001675Y0000620D01*
X-0001605Y0000591D01*
X-0001535Y0000563D01*
X-0001464Y0000536D01*
X-0001392Y0000510D01*
X-0001320Y0000486D01*
X-0001247Y0000464D01*
X-0001173Y0000442D01*
X-0001099Y0000422D01*
X-0001025Y0000403D01*
X-0000950Y0000386D01*
X-0000798Y0000354D01*
X-0000645Y0000328D01*
X-0000491Y0000307D01*
X-0000335Y0000290D01*
X-0000178Y0000278D01*
X-0000020Y0000271D01*
X0000138Y0000269D01*
G01X-0000130Y0002980D02*
G03X-0000150Y0003000I0000026J0000006D01*
G01X-0000130Y0002980D02*
G03X-0000150Y0003000I0000026J0000006D01*
G54D62*
G01X0001350Y0004055D02*
Y0003805D01*
X0001375Y0003755D01*
X0001450Y0003905D01*
Y0003955D02*
Y0003905D01*
X0001525Y0003755D01*
X0001550Y0003805D01*
Y0004055D01*
X0001675Y0004005D02*
X0001700Y0004055D01*
X0001850D01*
X0001875Y0004005D01*
Y0003955D01*
X0001850Y0003905D01*
X0001700D01*
X0001675Y0003855D01*
Y0003805D01*
X0001700Y0003755D01*
X0001850D01*
X0001875Y0003805D01*
G54D63*
G01X0000645Y0013777D02*
X0000356D01*
X0003580Y0013092D02*
Y0012803D01*
X0003725Y0012947D02*
X0003436D01*
M02*
