*
G04 Mass Parameters ***
*
G04 Image ***
*
%INC:\DOCUMENTS AND SETTINGS\NAZGUL\MY DOCUMENTS\DROPBOX\BOARD DESIGN\GERBER FILES\BLE SPO2\BLE SPO2.TOP*%
%ICAS*%
%MOIN*%
%IPPOS*%
%ASAXBY*%
G74*%FSLAN2X34Y34*%
*
G04 Aperture Definitions ***
*
%ADD10C,0.1100*%
%ADD11R,0.0500X0.0500*%
%ADD12R,0.0220X0.0220*%
%ADD13R,0.0709X0.0590*%
%ADD14R,0.0320X0.0380*%
%ADD15C,0.0401*%
%ADD16R,0.0380X0.0320*%
%ADD17C,0.0020*%
%ADD18R,0.1575X0.1575*%
%ADD19O,0.0335X0.0110*%
%ADD20O,0.0110X0.0335*%
%ADD21R,0.0394X0.0138*%
%ADD22R,0.0315X0.0630*%
%ADD23R,0.0590X0.0197*%
%ADD24R,0.0433X0.0177*%
%ADD25R,0.0394X0.0197*%
%ADD26R,0.0256X0.0295*%
%ADD27C,0.0200*%
%ADD28C,0.0100*%
%ADD29C,0.0080*%
%ADD30C,0.0200*%
*
G04 Plot Data ***
*
G54D17*
G01X0004094Y0011448D02*
X0004068D01*
X0003756Y0011761D02*
X0004081Y0011436D01*
X0004279Y0012284D02*
X0003756Y0011761D01*
X0004279Y0012284D02*
X0004604Y0011959D01*
X0004081Y0011436D01*
X0004582Y0011981D02*
Y0011936D01*
X0004564Y0011998D02*
Y0011919D01*
X0004547Y0012016D02*
Y0011901D01*
X0004529Y0012034D02*
Y0011883D01*
X0004511Y0012051D02*
Y0011866D01*
X0004494Y0012069D02*
Y0011848D01*
X0004476Y0012087D02*
Y0011830D01*
X0004458Y0012104D02*
Y0011813D01*
X0004441Y0012122D02*
Y0011795D01*
X0004423Y0012140D02*
Y0011777D01*
X0004405Y0012157D02*
Y0011760D01*
X0004388Y0012175D02*
Y0011742D01*
X0004370Y0012193D02*
Y0011724D01*
X0004352Y0012211D02*
Y0011707D01*
X0004334Y0012228D02*
Y0011689D01*
X0004317Y0012246D02*
Y0011671D01*
X0004299Y0012264D02*
Y0011654D01*
X0004281Y0012281D02*
Y0011636D01*
X0004264Y0012269D02*
Y0011618D01*
X0004246Y0012252D02*
Y0011601D01*
X0004228Y0012234D02*
Y0011583D01*
X0004211Y0012216D02*
Y0011565D01*
X0004193Y0012199D02*
Y0011548D01*
X0004175Y0012181D02*
Y0011530D01*
X0004158Y0012163D02*
Y0011512D01*
X0004140Y0012145D02*
Y0011495D01*
X0004122Y0012128D02*
Y0011477D01*
X0004105Y0012110D02*
Y0011459D01*
X0004087Y0012092D02*
Y0011441D01*
X0004069Y0012075D02*
Y0011447D01*
X0004051Y0012057D02*
Y0011465D01*
X0004034Y0012039D02*
Y0011483D01*
X0004016Y0012022D02*
Y0011500D01*
X0003998Y0012004D02*
Y0011518D01*
X0003981Y0011986D02*
Y0011536D01*
X0003963Y0011968D02*
Y0011553D01*
X0003945Y0011951D02*
Y0011571D01*
X0003928Y0011933D02*
Y0011589D01*
X0003910Y0011915D02*
Y0011606D01*
X0003892Y0011898D02*
Y0011624D01*
X0003875Y0011880D02*
Y0011642D01*
X0003857Y0011862D02*
Y0011659D01*
X0003839Y0011845D02*
Y0011677D01*
X0003822Y0011827D02*
Y0011695D01*
X0003804Y0011809D02*
Y0011713D01*
X0003786Y0011791D02*
Y0011730D01*
X0003768Y0011774D02*
Y0011748D01*
X0004301Y0012262D02*
X0004256D01*
X0004318Y0012244D02*
X0004239D01*
X0004336Y0012227D02*
X0004221D01*
X0004354Y0012209D02*
X0004203D01*
X0004371Y0012191D02*
X0004186D01*
X0004389Y0012174D02*
X0004168D01*
X0004407Y0012156D02*
X0004150D01*
X0004424Y0012138D02*
X0004133D01*
X0004442Y0012121D02*
X0004115D01*
X0004460Y0012103D02*
X0004097D01*
X0004477Y0012085D02*
X0004080D01*
X0004495Y0012068D02*
X0004062D01*
X0004513Y0012050D02*
X0004044D01*
X0004531Y0012032D02*
X0004027D01*
X0004548Y0012014D02*
X0004009D01*
X0004566Y0011997D02*
X0003991D01*
X0004584Y0011979D02*
X0003974D01*
X0004601Y0011961D02*
X0003956D01*
X0004589Y0011944D02*
X0003938D01*
X0004572Y0011926D02*
X0003921D01*
X0004554Y0011908D02*
X0003903D01*
X0004536Y0011891D02*
X0003885D01*
X0004519Y0011873D02*
X0003868D01*
X0004501Y0011855D02*
X0003850D01*
X0004483Y0011838D02*
X0003832D01*
X0004465Y0011820D02*
X0003815D01*
X0004448Y0011802D02*
X0003797D01*
X0004430Y0011785D02*
X0003779D01*
X0004412Y0011767D02*
X0003761D01*
X0004395Y0011749D02*
X0003767D01*
X0004377Y0011731D02*
X0003785D01*
X0004359Y0011714D02*
X0003803D01*
X0004342Y0011696D02*
X0003820D01*
X0004324Y0011678D02*
X0003838D01*
X0004306Y0011661D02*
X0003856D01*
X0004288Y0011643D02*
X0003873D01*
X0004271Y0011625D02*
X0003891D01*
X0004253Y0011608D02*
X0003909D01*
X0004235Y0011590D02*
X0003926D01*
X0004218Y0011572D02*
X0003944D01*
X0004200Y0011555D02*
X0003962D01*
X0004182Y0011537D02*
X0003979D01*
X0004165Y0011519D02*
X0003997D01*
X0004147Y0011502D02*
X0004015D01*
X0004129Y0011484D02*
X0004033D01*
X0004111Y0011466D02*
X0004050D01*
X0003535Y0012007D02*
X0003510D01*
X0003720Y0012843D02*
X0004046Y0012517D01*
X0003523Y0011994D01*
X0003197Y0012320D02*
X0003523Y0011994D01*
X0003720Y0012843D02*
X0003197Y0012320D01*
X0004023Y0012539D02*
Y0012495D01*
X0004006Y0012557D02*
Y0012477D01*
X0003988Y0012575D02*
Y0012460D01*
X0003970Y0012592D02*
Y0012442D01*
X0003953Y0012610D02*
Y0012424D01*
X0003935Y0012628D02*
Y0012407D01*
X0003917Y0012645D02*
Y0012389D01*
X0003900Y0012663D02*
Y0012371D01*
X0003882Y0012681D02*
Y0012353D01*
X0003864Y0012698D02*
Y0012336D01*
X0003847Y0012716D02*
Y0012318D01*
X0003829Y0012734D02*
Y0012300D01*
X0003811Y0012752D02*
Y0012283D01*
X0003793Y0012769D02*
Y0012265D01*
X0003776Y0012787D02*
Y0012247D01*
X0003758Y0012805D02*
Y0012230D01*
X0003740Y0012822D02*
Y0012212D01*
X0003723Y0012840D02*
Y0012194D01*
X0003705Y0012827D02*
Y0012176D01*
X0003687Y0012810D02*
Y0012159D01*
X0003670Y0012792D02*
Y0012141D01*
X0003652Y0012774D02*
Y0012123D01*
X0003634Y0012757D02*
Y0012106D01*
X0003617Y0012739D02*
Y0012088D01*
X0003599Y0012721D02*
Y0012070D01*
X0003581Y0012704D02*
Y0012053D01*
X0003564Y0012686D02*
Y0012035D01*
X0003546Y0012668D02*
Y0012017D01*
X0003528Y0012651D02*
Y0011999D01*
X0003510Y0012633D02*
Y0012006D01*
X0003493Y0012615D02*
Y0012024D01*
X0003475Y0012598D02*
Y0012041D01*
X0003457Y0012580D02*
Y0012059D01*
X0003440Y0012562D02*
Y0012077D01*
X0003422Y0012545D02*
Y0012094D01*
X0003404Y0012527D02*
Y0012112D01*
X0003387Y0012509D02*
Y0012130D01*
X0003369Y0012492D02*
Y0012147D01*
X0003351Y0012474D02*
Y0012165D01*
X0003334Y0012456D02*
Y0012183D01*
X0003316Y0012438D02*
Y0012200D01*
X0003298Y0012421D02*
Y0012218D01*
X0003281Y0012403D02*
Y0012236D01*
X0003263Y0012385D02*
Y0012254D01*
X0003245Y0012368D02*
Y0012271D01*
X0003227Y0012350D02*
Y0012289D01*
X0003210Y0012332D02*
Y0012307D01*
X0003742Y0012820D02*
X0003698D01*
X0003760Y0012803D02*
X0003680D01*
X0003778Y0012785D02*
X0003663D01*
X0003795Y0012767D02*
X0003645D01*
X0003813Y0012750D02*
X0003627D01*
X0003831Y0012732D02*
X0003610D01*
X0003848Y0012714D02*
X0003592D01*
X0003866Y0012697D02*
X0003574D01*
X0003884Y0012679D02*
X0003556D01*
X0003901Y0012661D02*
X0003539D01*
X0003919Y0012644D02*
X0003521D01*
X0003937Y0012626D02*
X0003503D01*
X0003955Y0012608D02*
X0003486D01*
X0003972Y0012590D02*
X0003468D01*
X0003990Y0012573D02*
X0003450D01*
X0004008Y0012555D02*
X0003433D01*
X0004025Y0012537D02*
X0003415D01*
X0004043Y0012520D02*
X0003397D01*
X0004030Y0012502D02*
X0003379D01*
X0004013Y0012484D02*
X0003362D01*
X0003995Y0012467D02*
X0003344D01*
X0003977Y0012449D02*
X0003326D01*
X0003960Y0012431D02*
X0003309D01*
X0003942Y0012414D02*
X0003291D01*
X0003924Y0012396D02*
X0003273D01*
X0003907Y0012378D02*
X0003256D01*
X0003889Y0012361D02*
X0003238D01*
X0003871Y0012343D02*
X0003220D01*
X0003854Y0012325D02*
X0003202D01*
X0003836Y0012307D02*
X0003209D01*
X0003818Y0012290D02*
X0003227D01*
X0003801Y0012272D02*
X0003244D01*
X0003783Y0012254D02*
X0003262D01*
X0003765Y0012237D02*
X0003280D01*
X0003748Y0012219D02*
X0003297D01*
X0003730Y0012201D02*
X0003315D01*
X0003712Y0012184D02*
X0003333D01*
X0003695Y0012166D02*
X0003350D01*
X0003677Y0012148D02*
X0003368D01*
X0003659Y0012131D02*
X0003386D01*
X0003641Y0012113D02*
X0003403D01*
X0003624Y0012095D02*
X0003421D01*
X0003606Y0012078D02*
X0003439D01*
X0003588Y0012060D02*
X0003457D01*
X0003571Y0012042D02*
X0003474D01*
X0003553Y0012024D02*
X0003492D01*
X0003548Y0011173D02*
X0003398D01*
X0003566Y0011155D02*
X0003380D01*
X0003584Y0011137D02*
X0003362D01*
X0003601Y0011120D02*
X0003345D01*
X0003610Y0011102D02*
X0003336D01*
X0003592Y0011084D02*
X0003354D01*
X0003574Y0011067D02*
X0003371D01*
X0003557Y0011049D02*
X0003389D01*
X0003539Y0011031D02*
X0003407D01*
X0003521Y0011013D02*
X0003425D01*
X0003504Y0010996D02*
X0003442D01*
X0003451Y0011226D02*
Y0010987D01*
X0003433Y0011208D02*
Y0011005D01*
X0003415Y0011190D02*
Y0011023D01*
X0003398Y0011173D02*
Y0011041D01*
X0003380Y0011155D02*
Y0011058D01*
X0003362Y0011137D02*
Y0011076D01*
X0003344Y0011119D02*
Y0011094D01*
X0003495Y0011226D02*
X0003450D01*
X0003513Y0011208D02*
X0003433D01*
X0003531Y0011190D02*
X0003415D01*
X0003615Y0011107D02*
X0003473Y0010965D01*
X0003592Y0011129D02*
Y0011084D01*
X0003574Y0011147D02*
Y0011066D01*
X0003557Y0011164D02*
Y0011049D01*
X0003539Y0011182D02*
Y0011031D01*
X0003521Y0011200D02*
Y0011014D01*
X0003504Y0011217D02*
Y0010996D01*
X0003486Y0011235D02*
Y0010978D01*
X0003468Y0011244D02*
Y0010970D01*
X0003486Y0010978D02*
X0003460D01*
X0003332Y0011107D02*
X0003473Y0010965D01*
Y0011248D02*
X0003332Y0011107D01*
X0003473Y0011248D02*
X0003615Y0011107D01*
X0003845Y0010876D02*
X0003694D01*
X0003863Y0010858D02*
X0003676D01*
X0003881Y0010840D02*
X0003659D01*
X0003898Y0010823D02*
X0003641D01*
X0003906Y0010805D02*
X0003633D01*
X0003889Y0010787D02*
X0003651D01*
X0003871Y0010770D02*
X0003668D01*
X0003853Y0010752D02*
X0003686D01*
X0003836Y0010734D02*
X0003704D01*
X0003818Y0010716D02*
X0003722D01*
X0003800Y0010699D02*
X0003739D01*
X0003747Y0010929D02*
Y0010691D01*
X0003730Y0010911D02*
Y0010708D01*
X0003712Y0010893D02*
Y0010726D01*
X0003694Y0010876D02*
Y0010744D01*
X0003676Y0010858D02*
Y0010762D01*
X0003659Y0010840D02*
Y0010779D01*
X0003641Y0010823D02*
Y0010797D01*
X0003792Y0010929D02*
X0003747D01*
X0003810Y0010911D02*
X0003730D01*
X0003828Y0010893D02*
X0003712D01*
X0003911Y0010810D02*
X0003770Y0010668D01*
X0003889Y0010832D02*
Y0010787D01*
X0003871Y0010850D02*
Y0010770D01*
X0003853Y0010868D02*
Y0010752D01*
X0003836Y0010885D02*
Y0010734D01*
X0003818Y0010903D02*
Y0010716D01*
X0003800Y0010921D02*
Y0010699D01*
X0003783Y0010938D02*
Y0010681D01*
X0003765Y0010946D02*
Y0010673D01*
X0003783Y0010681D02*
X0003757D01*
X0003628Y0010810D02*
X0003770Y0010668D01*
Y0010951D02*
X0003628Y0010810D01*
X0003770Y0010951D02*
X0003911Y0010810D01*
G54D28*
G01X-0005608Y-0001652D02*
X-0005358D01*
X-0005275Y-0001568D01*
Y-0001485D01*
X-0005358Y-0001402D01*
X-0005608D01*
Y-0001902D01*
X-0006142D02*
X-0006183Y-0001818D01*
Y-0001485D01*
X-0006142Y-0001402D01*
X-0005892D01*
X-0005850Y-0001485D01*
Y-0001818D01*
X-0005892Y-0001902D01*
X-0006142D01*
X-0006592D02*
Y-0001402D01*
X-0006425D02*
X-0006758D01*
X-0002200Y0003570D02*
X-0002410D01*
X-0001411Y0001640D02*
X-0001706D01*
X0004250Y0009650D02*
X0003870D01*
X0001654Y0010932D02*
X0001620D01*
X0000890Y0006212D02*
Y0001626D01*
X0002330Y0010719D02*
Y0010421D01*
X-0001900Y0007140D02*
Y0006667D01*
X0001520Y0007482D02*
Y0007355D01*
X0002459Y0010550D02*
X0002161D01*
X-0003250Y0005500D02*
Y0004980D01*
X-0003681Y0007490D02*
X-0004220D01*
X0002979Y0009560D02*
X0002139D01*
X0002320Y0008030D02*
X0001621D01*
X0001843Y0007670D02*
X0001681D01*
X0001450Y0008241D02*
X0001563Y0008127D01*
X0000889Y0007631D02*
X0000965Y0007555D01*
X0002240Y0008456D02*
Y0007963D01*
X0001100Y0007520D02*
X0000994D01*
X0001180Y0007580D02*
X0000941D01*
X0001284Y0007490D02*
X0001244D01*
X0000896Y0007850D02*
Y0007688D01*
X-0004330Y0005989D02*
Y0004846D01*
X-0004150Y0007620D02*
Y0007488D01*
X-0003442Y0008619D02*
X-0004001Y0008060D01*
X-0001586Y0006860D02*
X-0002350D01*
X0003720Y0013111D02*
X0002928Y0012319D01*
X0000295Y0011423D02*
Y0011270D01*
X0005504Y0008660D02*
X0005455D01*
X0002510Y0010820D02*
X0002427D01*
X0003805Y0013214D02*
X0003882Y0013159D01*
X0005310Y0010730D02*
X0005110D01*
X-0002260Y0005450D02*
Y0004640D01*
X-0000460Y0004544D02*
Y0000534D01*
X-0003850Y0005150D02*
X-0004762D01*
X-0002270Y0004640D02*
Y0004220D01*
X-0002350Y0006335D02*
Y0006271D01*
X-0002270Y0004220D02*
Y0004060D01*
X0005462Y0007850D02*
X0004966D01*
X0005320Y0007130D02*
Y0006695D01*
X0005492Y0008300D02*
X0004896D01*
X-0002270Y0003890D02*
X-0003239D01*
X0005475Y0008030D02*
X0005049D01*
X0003630Y0008530D02*
Y0008010D01*
X0005345Y0006860D02*
X0005320D01*
X-0003148Y0011090D02*
X-0003171D01*
X0001106Y0003980D02*
X-0000850D01*
X0005504Y0009104D02*
X0005506Y0008896D01*
X0003970Y0008840D02*
X0003271D01*
X0003911Y0009020D02*
X0003451D01*
X0002600Y0007350D02*
Y0007261D01*
X0002236Y0001062D02*
X0002174Y0001025D01*
X0001106Y0004070D02*
X-0000850D01*
X0001106Y0004340D02*
X-0000850D01*
X-0003340Y0005589D02*
Y0005047D01*
X0001392Y0000684D02*
X0001321Y0000663D01*
X-0002270Y0003800D02*
X-0003361D01*
X0003080Y0010550D02*
X0002950D01*
X0003860Y0011182D02*
Y0011130D01*
X0003473Y0011517D02*
X0003063Y0011107D01*
X0003870Y0010500D02*
Y0009530D01*
X0004250Y0010010D02*
X0003870D01*
X-0002526Y0011270D02*
X-0002633D01*
X0001139Y0006500D02*
X0001089D01*
X-0004960Y0007940D02*
X-0005258D01*
X-0004220Y0008110D02*
X-0004960D01*
Y0007040D02*
X-0005161D01*
X-0004960Y0008110D02*
Y0007550D01*
X0003139Y0012530D02*
X0002641D01*
X0000170Y0013175D02*
Y0012862D01*
X0001350Y0013411D02*
Y0012690D01*
X0002008Y0007203D02*
X0002015Y0007195D01*
X-0003430Y0008009D02*
Y0007580D01*
X0001871Y0013250D02*
X0001790D01*
Y0012781D02*
X0001971Y0012600D01*
X0002469Y0007130D02*
X0002061D01*
X0003609Y0013340D02*
X0003438D01*
X0001700Y0012249D02*
Y0012099D01*
X0004098Y0003170D02*
X-0000720D01*
X-0002200Y0003640D02*
X-0002270D01*
X-0002200D02*
Y0003570D01*
X0005050Y0007510D02*
X0004630D01*
X0004412Y0003723D02*
X0004287Y0003490D01*
X-0002410Y0002730D02*
Y0002710D01*
Y0003570D02*
Y0002730D01*
X0001844Y0007760D02*
X0001689D01*
X0003926Y0002900D02*
X-0000720D01*
X0002510Y0007350D02*
Y0007171D01*
X-0001771Y0007130D02*
X-0002471D01*
X0001106Y0004581D02*
Y0003631D01*
X0002174D02*
X0001106D01*
X0002174Y0004581D02*
Y0003631D01*
Y0001865D02*
X0001106D01*
Y0000915D01*
X0003080Y0010100D02*
X0002631D01*
X-0000910Y0003640D02*
Y0003580D01*
X0002150Y0003631D02*
Y0001865D01*
X0001790Y0005299D02*
Y0004901D01*
X0001106Y0001460D02*
X0001011D01*
X-0004878Y0011090D02*
X-0005004D01*
X0002189Y0010280D02*
X0002050D01*
X-0001930Y0011280D02*
X-0002060D01*
X-0003395Y0005644D02*
X-0003265Y0005514D01*
X0005371Y0007040D02*
X0005320D01*
X0003344Y0002090D02*
X-0000720D01*
X0001430Y0007461D02*
Y0007028D01*
X-0003430Y0010841D02*
Y0010425D01*
X0002583Y0001310D02*
X0002523Y0001263D01*
X0000525Y0000519D02*
X0000375Y0000508D01*
X-0003430Y0005689D02*
Y0005095D01*
X-0003160Y0008066D02*
Y0007824D01*
X-0003670Y0009920D02*
X-0003940D01*
X-0005132Y0008840D02*
X-0005295D01*
X-0003080Y0009550D02*
X-0003090D01*
X-0003670Y0009560D02*
X-0003940D01*
X-0003340Y0008099D02*
Y0007580D01*
X0001520Y0012429D02*
Y0012099D01*
X-0003670Y0010130D02*
Y0009550D01*
X0002150Y0007431D02*
Y0007028D01*
X-0002410Y0002810D02*
X-0003656D01*
X-0004853Y0011000D02*
X-0005030D01*
X-0003090Y0009550D02*
X-0003240D01*
X0002960Y0011670D02*
Y0009541D01*
X0003080Y0010640D02*
X0002950D01*
X0001039Y0010990D02*
Y0010932D01*
X0000980Y0013466D02*
Y0012220D01*
Y0006140D02*
X0000700D01*
X0000080Y0012510D02*
Y0012420D01*
X0000460Y0011570D02*
Y0011410D01*
Y0011990D02*
Y0011570D01*
X0003320Y0013022D02*
Y0012711D01*
X-0002565Y0011070D02*
X-0002594D01*
X0003590Y0011658D02*
Y0011535D01*
X0003630Y0008300D02*
X0001342D01*
X0004250Y0010870D02*
Y0010030D01*
X0003590Y0009159D02*
Y0007940D01*
X0003860Y0009464D02*
Y0008530D01*
X0004250Y0010030D02*
Y0010010D01*
X-0003940Y0010840D02*
X-0004800D01*
Y0010000D01*
X0005390Y0008425D02*
Y0007180D01*
X-0004240Y0008320D02*
Y0008110D01*
X-0004800Y0010000D02*
Y0009980D01*
X-0004600Y0006361D02*
Y0004650D01*
X-0004870Y0011280D02*
Y0011194D01*
X-0002880Y0008430D02*
Y0008420D01*
X0003140Y0011621D02*
Y0011184D01*
X0003333Y0005510D02*
X0002133D01*
X0000635Y0005684D02*
X-0000124Y0004925D01*
X-0002890Y0005450D02*
Y0001806D01*
X-0002410Y0002450D02*
X-0003406D01*
X-0004099Y0005060D02*
X-0004735D01*
X0004940Y0010956D02*
Y0010870D01*
X-0002563Y0011180D02*
X-0002596D01*
X0002960Y0006107D02*
Y0005173D01*
X0005110Y0010030D02*
Y0010010D01*
X0002689Y0007350D02*
X0002335Y0006996D01*
X0004529Y0003962D02*
X0004470Y0003840D01*
X0004130Y0003720D02*
Y0003222D01*
X0003862Y0002802D02*
X0003700Y0002565D01*
X0003078Y0006274D02*
Y0006261D01*
X-0001936Y0011270D02*
X-0002053D01*
X0002690Y0005826D02*
Y0001401D01*
X-0001810Y0006300D02*
Y0006222D01*
X0001253Y0000645D02*
X0001181Y0000626D01*
X0002510Y0010730D02*
X0002341D01*
X0001716Y0005330D02*
X0001420D01*
X0000980Y0005960D02*
X0000700D01*
X0000375Y0000508D02*
X0000223Y0000501D01*
X0002150Y0008456D02*
Y0007988D01*
X-0001822Y0006320D02*
X-0001932D01*
X0000980Y0005870D02*
X0000700D01*
X-0001000Y0001503D02*
Y0000634D01*
X0001040Y0011089D02*
Y0010990D01*
X0000982Y0005150D02*
X0000101D01*
X-0000720Y0002740D02*
Y0002720D01*
X0003806D02*
X-0000720D01*
X-0005254Y0007884D02*
X-0005216Y0007488D01*
X-0004960Y0007850D02*
X-0005251D01*
X-0001450Y0001880D02*
Y0000776D01*
X-0002440Y0007140D02*
Y0007038D01*
X-0005275Y0009510D02*
X-0005286Y0009306D01*
X-0001348Y0006680D02*
X-0001407D01*
X-0004429Y0004209D02*
X-0004411Y0004167D01*
X-0002410Y0001910D02*
X-0002982D01*
X-0002410Y0002090D02*
X-0003133D01*
X-0003652Y0002802D02*
X-0003489Y0002565D01*
X-0003803Y0003035D02*
X-0003650Y0002800D01*
X-0002410Y0003440D02*
X-0004047D01*
X-0004150Y0003833D02*
Y0003628D01*
X-0004960Y0007400D02*
X-0005206D01*
X0000980Y0005600D02*
X0000551D01*
X-0004420Y0006030D02*
Y0004668D01*
X-0003610Y0007829D02*
Y0007550D01*
X-0003645Y0008840D02*
X-0003690D01*
X-0004437Y0004610D02*
X-0004585D01*
X-0003943Y0005420D02*
X-0004838D01*
X-0004166Y0005780D02*
X-0004928D01*
X0003630Y0008480D02*
X0002896D01*
X-0004330Y0011016D02*
Y0010840D01*
X-0003248Y0010910D02*
X-0003265D01*
X0002080Y0007040D02*
Y0007028D01*
X-0003250Y0009550D02*
X-0003660D01*
X0002928Y0012319D02*
X0003072Y0012176D01*
X-0001978Y0011090D02*
X-0002011D01*
X-0003940Y0010000D02*
Y0009980D01*
X-0004800Y0010550D02*
X-0005138D01*
X-0005140Y0010543D02*
Y0009170D01*
X-0005230Y0009983D02*
Y0007628D01*
X-0005145Y0010518D02*
X-0005182Y0010319D01*
X-0002660Y0009541D02*
Y0009531D01*
X-0004870Y0011046D02*
Y0009287D01*
X-0005259Y0009714D02*
X-0005275Y0009510D01*
X-0005116Y0009200D02*
X-0005290D01*
X-0003670Y0009740D02*
X-0003940D01*
X-0004800Y0009380D02*
X-0005282D01*
X-0004800Y0009650D02*
X-0005264D01*
X-0003670Y0010100D02*
X-0003940D01*
X0003499Y0012890D02*
X0001790D01*
X0003560Y0008090D02*
Y0007940D01*
X-0003970Y0007620D02*
Y0007446D01*
X-0003148Y0007850D02*
X-0003589D01*
X-0005140Y0008390D02*
X-0005284D01*
X-0004365Y0004790D02*
X-0004649D01*
X-0004822Y0006500D02*
X-0005075D01*
X-0004800Y0009920D02*
X-0005238D01*
X-0004740Y0006870D02*
X-0004960D01*
X0003630Y0007940D02*
X0003560D01*
X0001229Y0006590D02*
X0001100D01*
X-0004870Y0006870D02*
Y0005543D01*
X-0004538Y0006230D02*
X-0005025D01*
X-0003610Y0005410D02*
Y0005150D01*
X-0004960Y0008274D02*
Y0005920D01*
X-0004261Y0003842D02*
X-0004201Y0003723D01*
X-0003970Y0003740D02*
Y0003307D01*
X-0004960Y0007310D02*
X-0005195D01*
X-0004454Y0004520D02*
X-0004552D01*
X-0001641Y0005240D02*
X-0004788D01*
X-0004510Y0006134D02*
Y0004407D01*
X-0004437Y0004250D02*
X-0004446D01*
X-0004305Y0003980D02*
X-0004327D01*
X-0002410Y0003260D02*
X-0003943D01*
X-0004374Y0004084D02*
X-0004318Y0003960D01*
X-0004454Y0004340D02*
X-0004483D01*
X-0003880Y0003715D02*
Y0003158D01*
X-0003340Y0003813D02*
Y0002358D01*
X-0003070Y0004118D02*
Y0002013D01*
X-0003610Y0003710D02*
Y0002741D01*
X0001562Y0000740D02*
X-0001351D01*
X-0001550Y0001870D02*
X-0001757D01*
X-0003160Y0003974D02*
Y0002124D01*
X-0002980Y0005450D02*
Y0001907D01*
X0003590Y0003801D02*
Y0002413D01*
X-0001181Y0000684D02*
X-0001110Y0000663D01*
X-0000910Y0001596D02*
Y0000612D01*
X0000980Y0005330D02*
X0000281D01*
X-0001810Y0005450D02*
Y0004640D01*
X0000980Y0005240D02*
X0000191D01*
X0005480Y0008120D02*
X0005041D01*
X0000170Y0005219D02*
Y0000500D01*
X0005127Y0011360D02*
X0004274D01*
X-0001705Y0005150D02*
X-0003609D01*
X-0002080Y0005450D02*
Y0004640D01*
X-0001900Y0005450D02*
Y0004640D01*
X-0002270Y0004520D02*
X-0003005D01*
X-0003430Y0005690D02*
X-0003494D01*
X-0003790Y0005361D02*
Y0005157D01*
X-0001720Y0004970D02*
X-0003239D01*
X-0003160Y0007616D02*
Y0007580D01*
X-0001828Y0006590D02*
X-0001865D01*
X-0002170Y0001494D02*
Y0001158D01*
X0001520Y0008456D02*
Y0008171D01*
X0000080Y0005129D02*
Y0000500D01*
X0003333Y0005484D02*
X0003047Y0005198D01*
X0003617Y0002450D02*
X-0000720D01*
X-0001720Y0005070D02*
Y0004640D01*
Y0004700D02*
X-0003052D01*
X0003049Y0012440D02*
X0002731D01*
X-0000850Y0003640D02*
X-0000920D01*
X-0001431Y0005450D02*
X-0001655Y0005226D01*
X-0004166Y0005990D02*
Y0005734D01*
X-0001728Y0006222D02*
X-0002350D01*
X-0003880Y0005382D02*
Y0005144D01*
X-0004018Y0005510D02*
X-0004861D01*
X-0001720Y0004640D02*
X-0002270D01*
X0000350Y0005399D02*
Y0000507D01*
X0002320Y0007940D02*
X0002280D01*
X-0001740Y0006230D02*
X-0002350D01*
X0005166Y0007375D02*
X0005255Y0007285D01*
X0005495Y0008390D02*
X0005353D01*
X0005505Y0008693D02*
X0005491Y0008286D01*
X0000510Y0001550D02*
X-0000944D01*
X0001970Y0013199D02*
Y0012601D01*
X-0004960Y0007670D02*
X-0005234D01*
X0002308Y0013160D02*
X0001790D01*
X-0005130Y0008837D02*
Y0008723D01*
X0003473Y0011517D02*
X0003522Y0011467D01*
X-0002260Y0003640D02*
Y0003570D01*
X-0000314Y0000519D02*
X-0000165Y0000508D01*
X0001106Y0004160D02*
X-0000850D01*
X0001610Y0000915D02*
Y0000757D01*
X0003252Y0004610D02*
X0001860D01*
X0003978Y0011270D02*
X0003947D01*
X-0001900Y0006361D02*
Y0006222D01*
X-0002530Y0008460D02*
Y0008430D01*
X0001385Y0006950D02*
X0001100D01*
X0001288Y0006649D02*
X0001088Y0006449D01*
X0000980Y0006257D02*
Y0001534D01*
X0001420Y0005704D02*
Y0005271D01*
X0001385Y0006770D02*
X0001100D01*
X0003269Y0005420D02*
X0002096D01*
X0000800Y0006200D02*
Y0001663D01*
X0000980Y0006250D02*
Y0005180D01*
X0001880Y0003631D02*
Y0001865D01*
X0002060Y0005374D02*
Y0004581D01*
X0003282Y0004700D02*
X0003253D01*
X0001045Y0005024D02*
X0001420Y0004649D01*
X0002920Y0005150D02*
X0001541D01*
X-0000730Y0004482D02*
Y0003580D01*
X0002330Y0008456D02*
Y0008090D01*
X0002150Y0005704D02*
Y0004581D01*
X0001250Y0003631D02*
Y0001865D01*
X0001970Y0005312D02*
Y0004581D01*
X0001369Y0004700D02*
X-0000374D01*
X-0001720Y0005060D02*
X-0003361D01*
X0001015D02*
X0000011D01*
X-0001450Y0006786D02*
Y0006708D01*
X-0002350Y0006335D02*
Y0006271D01*
X0001059Y0007850D02*
X0000896D01*
X0001420Y0004581D02*
X0001106D01*
X0000980Y0006230D02*
X0000936D01*
X-0003520Y0008653D02*
Y0008541D01*
X-0003491Y0008570D02*
X-0003661D01*
X-0002890Y0008460D02*
Y0008420D01*
X-0003016Y0008390D02*
X-0003049D01*
X0003320Y0005704D02*
Y0005471D01*
X0002870Y0004735D02*
Y0001566D01*
X0002636Y0012535D02*
X0002885Y0012285D01*
X0001430Y0012519D02*
Y0012099D01*
X0000460Y0011410D02*
Y0011265D01*
X0001106Y0001370D02*
X0001019D01*
X-0001540Y0006823D02*
Y0006737D01*
X-0002510Y0008430D02*
X-0002880D01*
X0000460Y0011720D02*
X0000198D01*
X0000471Y0012080D02*
X0000175D01*
X0000646Y0014016D02*
X0000799Y0014009D01*
X0000980Y0007850D02*
Y0007539D01*
X-0003080Y0009550D02*
X-0003090D01*
X-0003142Y0007580D02*
X-0003500D01*
X-0003520Y0007919D02*
Y0007579D01*
X-0004690Y0008330D02*
Y0008110D01*
X-0002800Y0008460D02*
Y0008430D01*
X0001039Y0010990D02*
X0000970D01*
X-0003610Y0008746D02*
Y0008451D01*
X-0005296Y0008899D02*
X-0005294Y0008691D01*
X-0004420Y0008270D02*
Y0008110D01*
X0001361Y0012620D02*
X0000172D01*
X-0004420Y0010905D02*
Y0010840D01*
X0004250Y0009920D02*
X0003870D01*
X-0004944Y0011280D02*
X-0004971Y0011198D01*
X-0004323Y0011000D02*
X-0004347D01*
X0000295Y0011679D02*
X0000197D01*
X-0001392Y0001880D02*
X-0001550D01*
X0004400Y0011486D02*
Y0010870D01*
X0005030Y0007946D02*
Y0007510D01*
X0001610Y0008456D02*
Y0008061D01*
X0005501Y0008570D02*
X0005457D01*
X0005505Y0008750D02*
X0005422D01*
X0004130Y0010760D02*
Y0009323D01*
X0005498Y0008480D02*
X0005428D01*
X0005506Y0008840D02*
X0005400D01*
X0005076Y0008350D02*
X0004803D01*
X0004940D02*
Y0008272D01*
X0005030Y0008350D02*
Y0008154D01*
X0005497Y0009306D02*
X0005504Y0009102D01*
X0001970Y0008456D02*
Y0007946D01*
X0001960Y0007940D02*
X0001630D01*
X0003079Y0011090D02*
X0002950D01*
X-0005050Y0006358D02*
X-0004979Y0006005D01*
X0001430Y0005704D02*
Y0005261D01*
X0001070Y0010932D02*
Y0010919D01*
X-0003070Y0008369D02*
Y0008354D01*
X0003963Y0011285D02*
X0004081Y0011167D01*
X0001159Y0007865D02*
X0001142D01*
X-0001975Y0011070D02*
X-0002014D01*
X0002420Y0008456D02*
Y0008090D01*
X0002320Y0007490D02*
X0002293D01*
X0001385Y0006860D02*
X0001100D01*
X-0003261Y0005510D02*
X-0003522D01*
X0001340Y0004729D02*
Y0004581D01*
X-0002248Y0006770D02*
X-0002350D01*
X-0001855Y0006410D02*
X-0001874D01*
X-0001753Y0006680D02*
X-0001909D01*
X-0001630Y0005450D02*
Y0005251D01*
X-0002200Y0003620D02*
X-0004146D01*
X-0002350Y0005450D02*
Y0003570D01*
X-0002170Y0006236D02*
Y0006222D01*
X-0001781Y0007140D02*
X-0001668Y0007027D01*
X0001420Y0005271D02*
X0001795Y0004895D01*
X-0003671Y0008390D02*
X-0003703D01*
X0000530Y0014019D02*
Y0012233D01*
X0003078Y0006216D02*
Y0005960D01*
X-0003659Y0010130D02*
X-0003670D01*
X-0004240Y0010897D02*
Y0010840D01*
X0000980Y0005510D02*
X0000461D01*
X-0003216Y0010550D02*
X-0003940D01*
X-0003250Y0010924D02*
Y0010906D01*
Y0010654D02*
Y0010504D01*
X-0003700Y0008396D02*
Y0008361D01*
X-0003970Y0008261D02*
Y0008091D01*
X0003080Y0010460D02*
X0002944D01*
X-0003175Y0007670D02*
X-0003770D01*
X-0001418Y0001820D02*
X-0001727D01*
X-0001430Y0001730D02*
X-0001701D01*
X-0000755Y0000580D02*
X-0000610Y0000555D01*
X0002420Y0007350D02*
Y0007081D01*
X0003226Y0011270D02*
X0002950D01*
X0002960Y0012933D02*
Y0012351D01*
X0002870Y0012970D02*
Y0012301D01*
X0000460Y0011900D02*
X0000125D01*
X0001350Y0012890D02*
X0000154D01*
X0001880Y0013244D02*
Y0012691D01*
X-0004510Y0010855D02*
Y0010840D01*
X0003050Y0012198D02*
Y0012171D01*
X0001700Y0010932D02*
Y0010850D01*
X0000700Y0006222D02*
Y0005840D01*
X0004850Y0008350D02*
Y0008318D01*
X0000970Y0010990D02*
Y0010890D01*
X0001654Y0012099D02*
X0001432D01*
X0001921Y0010932D02*
X0001654D01*
X0001814Y0012170D02*
X0001007D01*
X0001432Y0012099D02*
X0001039D01*
X0001880Y0010932D02*
Y0010891D01*
X0001340Y0013421D02*
Y0012099D01*
X0001700Y0005340D02*
Y0004991D01*
X-0003120Y0008300D02*
X-0003139D01*
X-0005050Y0008307D02*
Y0006355D01*
X-0003970Y0005444D02*
Y0005119D01*
X0005400Y0008847D02*
Y0008783D01*
X0001340Y0007034D02*
Y0006688D01*
X-0002270Y0004250D02*
X-0003022D01*
X0002286Y0005690D02*
X0002113D01*
X0001100Y0006520D02*
X0001087D01*
X-0002260Y0007140D02*
Y0006764D01*
X0000980Y0005690D02*
X0000641D01*
X0003078Y0006230D02*
X0003051D01*
X0002330Y0009799D02*
Y0009496D01*
X0001385Y0007028D02*
Y0006772D01*
X0000980Y0010990D02*
Y0010850D01*
X0001106Y0003800D02*
X-0000850D01*
X0000460Y0011360D02*
X0000295D01*
X-0001356Y0001550D02*
X-0001743D01*
X-0002350Y0006246D02*
Y0006222D01*
X0000295Y0011679D02*
Y0011423D01*
X0001614Y0005704D02*
X0001420D01*
X-0003161Y0008210D02*
X-0003229D01*
X-0004533Y0006320D02*
X-0005043D01*
X-0001781Y0007140D02*
X-0002474D01*
X0001880Y0005291D02*
Y0004581D01*
X0002804Y0004970D02*
X0001721D01*
X0002803Y0004880D02*
X0001810D01*
X-0001360Y0006781D02*
Y0006633D01*
X0003078Y0006261D02*
Y0006216D01*
X0003333Y0005704D02*
Y0005484D01*
X-0003086Y0007940D02*
X-0003499D01*
X-0001990Y0006274D02*
Y0006222D01*
X-0003660Y0009470D02*
X-0003940D01*
X0003333Y0005704D02*
X0003078D01*
X0003950Y0010580D02*
Y0009194D01*
X0001487Y0007310D02*
X0001408D01*
X0003080Y0010190D02*
X0002721D01*
X0002870Y0006062D02*
Y0005105D01*
X0002907Y0004700D02*
X0001860D01*
X0003560Y0008090D02*
X0003000D01*
X0001279Y0004790D02*
X-0000373D01*
X0002320Y0007490D02*
X0002293D01*
X0002600Y0010069D02*
Y0009513D01*
X0002690Y0006068D02*
Y0006034D01*
X0002295Y0001100D02*
X0002174D01*
X0002780Y0010249D02*
Y0009361D01*
X0003078Y0006274D02*
Y0006261D01*
X0002060Y0007436D02*
Y0007131D01*
X0004474Y0010870D02*
X0004250D01*
X0004401Y0011090D02*
X0003900D01*
X0003320Y0008889D02*
Y0008090D01*
X0004220Y0011306D02*
Y0009328D01*
X0004250Y0010460D02*
X0003870D01*
X0004250Y0010730D02*
X0004100D01*
X0003410Y0013150D02*
Y0012801D01*
X0002240Y0007457D02*
Y0007028D01*
X0001610Y0007544D02*
Y0007423D01*
X0004040Y0010670D02*
Y0009286D01*
X0002335Y0007028D02*
Y0006996D01*
X0002780Y0008456D02*
Y0008090D01*
X0002510Y0008456D02*
Y0008090D01*
X0003080Y0010280D02*
X0002811D01*
X-0000100Y0004949D02*
Y0000505D01*
X0002510Y0010960D02*
X0002470D01*
X0003406Y0011450D02*
X0002950D01*
X-0001323Y0006770D02*
X-0002021D01*
X-0003700Y0007739D02*
Y0007471D01*
X0001689Y0012260D02*
X0000946D01*
X0003839Y0003710D02*
X0002174D01*
X0002050Y0010445D02*
Y0010141D01*
X0002320Y0007400D02*
X0001890D01*
X0002559Y0007220D02*
X0002005D01*
X0002320Y0008090D02*
Y0007930D01*
X0001899Y0010910D02*
X0001624D01*
X-0002979Y0008460D02*
X-0003754Y0007685D01*
X-0003851Y0008210D02*
X-0005276D01*
X0004250Y0010010D02*
Y0009323D01*
X0003644Y0013320D02*
X0003725Y0013269D01*
X0003651Y0011596D02*
X0003522Y0011467D01*
X0004250Y0010550D02*
X0003920D01*
X0003410Y0008979D02*
Y0008090D01*
X0004250Y0010640D02*
X0004010D01*
X-0001973Y0011180D02*
X-0002016D01*
X0002870Y0008469D02*
Y0008090D01*
X-0000850Y0004060D02*
Y0003640D01*
X0003333Y0005600D02*
X0002138D01*
X0001790Y0008456D02*
Y0007443D01*
X-0003581Y0008480D02*
X-0003666D01*
X0002960Y0008529D02*
Y0008090D01*
X0003950Y0011272D02*
Y0011040D01*
X0003595Y0011540D02*
X0002950D01*
X0002060Y0008456D02*
Y0007983D01*
X0001482Y0007040D02*
X0001346D01*
X0003050Y0008619D02*
Y0008090D01*
X0004046Y0009290D02*
X0003721D01*
X-0002270Y0003980D02*
X-0003155D01*
X0005469Y0007940D02*
X0005027D01*
X0005465Y0007884D02*
X0005427Y0007488D01*
X0004940Y0007827D02*
Y0007510D01*
X0005050D02*
Y0007436D01*
X0005380Y0007101D02*
X0005325Y0006723D01*
X0002099Y0010190D02*
X0002050D01*
X0003080Y0009920D02*
X0002451D01*
X0002832Y0004790D02*
X0001854D01*
X0001430Y0003631D02*
Y0001865D01*
X0002510Y0010960D02*
Y0010601D01*
X0003230Y0008799D02*
Y0008090D01*
X0003409Y0012800D02*
X0001790D01*
X-0002509Y0008460D02*
X-0002979D01*
X0002870Y0010339D02*
Y0009451D01*
X0001415Y0012534D02*
X0001724Y0012224D01*
X0003500Y0009069D02*
Y0008090D01*
X0001970Y0012160D02*
Y0012104D01*
X0002854Y0012980D02*
X0001790D01*
X0002799Y0009380D02*
X0002733D01*
X0002600Y0013049D02*
Y0012564D01*
X0001350Y0013340D02*
X0000195D01*
X0001790Y0013329D02*
Y0012781D01*
Y0012179D02*
Y0012099D01*
X0002379Y0007040D02*
X0002080D01*
X0004250Y0010370D02*
X0003870D01*
X0003618Y0011630D02*
X0003194D01*
X0004250Y0010190D02*
X0003870D01*
X0001350Y0012800D02*
X0000192D01*
X0001350Y0013160D02*
X0000162D01*
X0000479Y0011990D02*
X0000460D01*
X0002150Y0013182D02*
Y0012600D01*
X0002279Y0010370D02*
X0002050D01*
X0004250Y0010280D02*
X0003870D01*
X0002420Y0013082D02*
Y0012600D01*
X0000620Y0001137D02*
Y0000529D01*
X-0004800Y0010280D02*
X-0005188D01*
X0002510Y0009979D02*
Y0009538D01*
X0003080Y0010884D02*
Y0009661D01*
X0003230Y0011642D02*
Y0011274D01*
X0002796Y0008456D02*
X0001293D01*
X0002320Y0007930D02*
X0002293D01*
X-0002260Y0001870D02*
Y0001223D01*
X0000492Y0012170D02*
X0000198D01*
X0000966Y0000580D02*
X0000821Y0000555D01*
X0003770Y0009339D02*
Y0008530D01*
X0001970Y0007473D02*
Y0007314D01*
X0002510Y0010640D02*
X0002251D01*
X0001419Y0012530D02*
X0000105D01*
X-0002270Y0003710D02*
X-0003609D01*
X0005506Y0008930D02*
X0005445D01*
X0001623Y0005420D02*
X0001420D01*
X0001100Y0007520D02*
Y0007507D01*
X0001160Y0006951D02*
Y0006521D01*
X0003950Y0008906D02*
Y0008714D01*
X0001250Y0007510D02*
Y0007487D01*
X0003630Y0008390D02*
X0001277D01*
X0001070Y0007850D02*
Y0007520D01*
X0000980Y0006050D02*
X0000700D01*
X-0003450Y0005734D02*
X-0003506D01*
X-0004166Y0005960D02*
X-0004969D01*
X0000223Y0000501D02*
X0000105Y0000499D01*
X0003446Y0013430D02*
X0003418D01*
X-0000820Y0004527D02*
Y0003580D01*
X0004356Y0003620D02*
X-0000920D01*
X0004235Y0012850D02*
X0004300Y0012782D01*
X0001106Y0003890D02*
X-0000850D01*
X-0000920Y0003640D02*
Y0003580D01*
X0000260Y0014024D02*
Y0011679D01*
X0003080Y0010370D02*
X0002900D01*
X0002950Y0012130D02*
Y0012122D01*
X0003063Y0011107D02*
X0003137Y0011032D01*
X0004400Y0012670D02*
Y0012432D01*
X0004427Y0011180D02*
X0004094D01*
X0002510Y0010910D02*
X0002466D01*
X0005030Y0011613D02*
Y0010870D01*
X0003140Y0008709D02*
Y0008090D01*
X-0003657Y0010190D02*
X-0003940D01*
X0003089Y0005240D02*
X0001451D01*
X-0002980Y0008459D02*
Y0008405D01*
X-0004220Y0007620D02*
Y0007550D01*
X-0003880Y0007622D02*
Y0007354D01*
X-0004220Y0007550D02*
Y0007471D01*
X-0003761Y0008300D02*
X-0003796D01*
X-0001720Y0005450D02*
Y0005070D01*
X-0004960Y0008030D02*
X-0005264D01*
X0001331Y0013430D02*
X0000166D01*
X-0003700Y0010994D02*
Y0009205D01*
X-0004510Y0008282D02*
Y0008110D01*
X-0002710Y0008460D02*
Y0008430D01*
X-0003530Y0008660D02*
X-0003687D01*
X0002757Y0013070D02*
X0002702D01*
X-0005130Y0008750D02*
X-0005295D01*
X0001872Y0007580D02*
X0001640D01*
X-0003880Y0008266D02*
Y0008181D01*
X-0003728Y0011090D02*
X-0003791D01*
X0003078Y0006261D02*
Y0006216D01*
X0003333Y0005690D02*
X0002574D01*
X-0002681Y0009550D02*
X-0003080D01*
X0001152Y0007850D02*
X0000896D01*
X0002320Y0007490D02*
Y0007350D01*
X0002240Y0009709D02*
Y0009480D01*
X0003970Y0008877D02*
Y0008743D01*
X0004205Y0003350D02*
X-0000720D01*
X0002689Y0007350D02*
X0002320D01*
X0001630Y0007970D02*
Y0007913D01*
X0002600Y0008456D02*
Y0008090D01*
X0002988Y0012260D02*
X0002907D01*
X0001160Y0007614D02*
Y0007509D01*
X0003080Y0009661D02*
X0002750Y0009332D01*
X0001860Y0004740D02*
Y0004581D01*
X0002240Y0010629D02*
Y0010331D01*
X0003078Y0005870D02*
X0002703D01*
X0002837Y0005060D02*
X0001631D01*
X0001420Y0004649D02*
Y0004581D01*
X0003136Y0011180D02*
X0002950D01*
X0001250Y0006972D02*
Y0006611D01*
X0003230Y0005704D02*
Y0005381D01*
X0005416Y0007400D02*
X0005136D01*
X0003000Y0008090D02*
X0002880D01*
X-0002681Y0009550D02*
X-0003080D01*
X-0004960Y0007430D02*
Y0006870D01*
X-0002410Y0002710D02*
Y0001870D01*
X0001570Y0007400D02*
X0001362D01*
X0004257Y0003440D02*
X-0000720D01*
X0004040Y0003704D02*
Y0003077D01*
X0004670Y0007788D02*
Y0007510D01*
X0003630Y0007940D02*
X0003560D01*
X0001350Y0012980D02*
X0000060D01*
X0002265Y0005704D02*
X0002106D01*
X0001099Y0004970D02*
X-0000079D01*
X0003078Y0006050D02*
X0002683D01*
X-0002270Y0004070D02*
X-0003095D01*
X0004871Y0011957D02*
X0004081Y0011167D01*
X0000980Y0001246D02*
Y0000583D01*
X-0000850Y0004220D02*
Y0004060D01*
X0002960Y0012288D02*
Y0012130D01*
X0001072Y0010932D02*
X0001039D01*
X0001790Y0013329D02*
Y0012781D01*
X0002950Y0011677D02*
Y0010510D01*
X0003528Y0011720D02*
X0003334D01*
X0002420Y0010810D02*
Y0010511D01*
X0002959Y0012350D02*
X0002821D01*
X0002510Y0013054D02*
Y0012598D01*
X0001189Y0004880D02*
X-0000188D01*
X0002780Y0013042D02*
Y0012391D01*
X0003937Y0008930D02*
X0003361D01*
X0003080Y0010730D02*
X0002950D01*
X0003046Y0012170D02*
X0002946D01*
X0001106Y0004520D02*
X-0000490D01*
X0001839Y0010850D02*
X0001625D01*
X-0001630Y0006916D02*
Y0006735D01*
X-0002170Y0007140D02*
Y0006792D01*
X0004250Y0009470D02*
X0003861D01*
X0001160Y0013438D02*
Y0012099D01*
X0004029Y0013041D02*
X0004100Y0012979D01*
X-0000280Y0004860D02*
X-0000392D01*
X-0002170Y0005450D02*
Y0004640D01*
X-0000850Y0004554D02*
Y0004220D01*
X0004850Y0007782D02*
Y0007510D01*
X0004250Y0009830D02*
X0003870D01*
X0000460Y0011630D02*
X0000295D01*
X0005486Y0008210D02*
X0005000D01*
X0001340Y0003631D02*
Y0001865D01*
X0000980Y0005420D02*
X0000371D01*
X-0002410Y0002990D02*
X-0003774D01*
X-0003320Y0002330D02*
X-0003229Y0002210D01*
X-0002410Y0002630D02*
X-0003534D01*
X-0002410Y0003080D02*
X-0003831D01*
X-0002410Y0002360D02*
X-0003341D01*
X-0002258Y0001730D02*
X-0002820D01*
X-0004060Y0003779D02*
Y0003462D01*
X-0002410Y0002720D02*
X-0003595D01*
X-0003520Y0003731D02*
Y0002610D01*
X-0003250Y0003880D02*
Y0002238D01*
X-0002410Y0002270D02*
X-0003274D01*
X-0002410Y0002540D02*
X-0003471D01*
X-0001720Y0001870D02*
Y0001804D01*
X-0003430Y0003764D02*
Y0002483D01*
X-0002410Y0002180D02*
X-0003204D01*
X-0003230Y0002213D02*
X-0003138Y0002095D01*
X-0002410Y0002000D02*
X-0003059D01*
X0000461Y0001370D02*
X-0002443D01*
X-0003139Y0002097D02*
X-0003044Y0001981D01*
X-0003160Y0005456D02*
Y0004886D01*
X-0002233Y0001820D02*
X-0002903D01*
X-0002949Y0001871D02*
X-0002848Y0001760D01*
X-0002253Y0001640D02*
X-0002733D01*
X0001106Y0001100D02*
X-0002084D01*
X-0002850Y0001761D02*
X-0002746Y0001652D01*
X-0002710Y0005450D02*
Y0001616D01*
X-0003045Y0001983D02*
X-0002947Y0001869D01*
X-0002749Y0001655D02*
X-0002643Y0001550D01*
X-0002800Y0005450D02*
Y0001709D01*
X-0002316Y0001266D02*
X-0002255Y0001219D01*
X-0002440Y0005450D02*
Y0001367D01*
X-0002620Y0005450D02*
Y0001529D01*
X-0002428Y0001356D02*
X-0002369Y0001308D01*
X-0002259Y0001222D02*
X-0002198Y0001178D01*
X-0002201Y0001180D02*
X-0002139Y0001136D01*
X-0002530Y0005450D02*
Y0001445D01*
X0000544Y0001190D02*
X-0002215D01*
X-0001990Y0001420D02*
Y0001041D01*
X-0002144Y0001140D02*
X-0002081Y0001098D01*
X0000482Y0001280D02*
X-0002334D01*
X-0002372Y0001310D02*
X-0002313Y0001263D01*
X-0002085Y0001100D02*
X-0002021Y0001060D01*
X-0002535Y0001450D02*
X-0002426Y0001355D01*
X-0002025Y0001062D02*
X-0001960Y0001023D01*
X-0002350Y0001870D02*
Y0001293D01*
X-0001965Y0001025D02*
X-0001899Y0000987D01*
X-0002080Y0001438D02*
Y0001097D01*
X0001106Y0001010D02*
X-0001938D01*
X-0001903Y0000990D02*
X-0001837Y0000953D01*
X-0001842Y0000956D02*
X-0001775Y0000921D01*
X0001106Y0000920D02*
X-0001773D01*
X-0001778Y0000923D02*
X-0001711Y0000889D01*
X-0002124Y0001460D02*
X-0002546D01*
X-0001810Y0001477D02*
Y0000939D01*
X-0001715Y0000891D02*
X-0001647Y0000859D01*
X-0001651Y0000861D02*
X-0001582Y0000830D01*
X-0001519Y0000803D02*
X-0001450Y0000776D01*
X-0001454Y0000778D02*
X-0001383Y0000751D01*
X-0001586Y0000832D02*
X-0001519Y0000803D01*
X-0001387Y0000752D02*
X-0001315Y0000727D01*
X0000469Y0001460D02*
X-0001836D01*
X-0001251Y0000706D02*
X-0001180Y0000684D01*
X-0001270Y0001487D02*
Y0000712D01*
X0001520Y0000915D02*
Y0000725D01*
X-0001180Y0001461D02*
Y0000684D01*
X-0001113Y0000664D02*
X-0001041Y0000644D01*
X-0001900Y0001432D02*
Y0000988D01*
X-0001319Y0000728D02*
X-0001249Y0000705D01*
X-0001540Y0001880D02*
Y0000812D01*
X0001250Y0000915D02*
Y0000644D01*
X0001106Y0001730D02*
X-0000870D01*
X-0000463Y0000535D02*
X-0000314Y0000519D01*
X-0000820Y0001880D02*
Y0000594D01*
X-0000900Y0000610D02*
X-0000755Y0000580D01*
X-0001630Y0001870D02*
Y0000852D01*
X-0001042Y0000645D02*
X-0000970Y0000626D01*
X-0000610Y0000555D02*
X-0000463Y0000535D01*
X0000710Y0001111D02*
Y0000540D01*
X0000260Y0005309D02*
Y0000503D01*
X-0000973Y0000627D02*
X-0000900Y0000610D01*
X-0000370Y0004860D02*
Y0000525D01*
X0003630Y0008120D02*
X0001571D01*
X-0002080Y0006239D02*
Y0006222D01*
X0002060Y0010452D02*
Y0010151D01*
X0003916Y0009110D02*
X0003541D01*
X0002060Y0013179D02*
Y0012600D01*
X0002885Y0010354D02*
X0002166Y0009635D01*
X0003630Y0008210D02*
X0001481D01*
X0003080Y0009830D02*
X0002361D01*
X0002150Y0010539D02*
Y0010241D01*
X0000800Y0013624D02*
Y0012335D01*
X0005506Y0008899D02*
X0005505Y0008691D01*
X0005110Y0010010D02*
Y0009291D01*
X0001700Y0008456D02*
Y0007448D01*
X-0003660Y0009550D02*
Y0009146D01*
X0001160Y0004909D02*
Y0004581D01*
X0001350Y0012710D02*
X0000197D01*
X0002240Y0013207D02*
Y0012600D01*
X0000710Y0006218D02*
Y0001668D01*
X-0002202Y0001870D02*
X-0002410D01*
X-0004780Y0008302D02*
Y0008110D01*
X0003950Y0013106D02*
Y0012881D01*
X0000614Y0001640D02*
X-0000888D01*
X-0002216Y0001550D02*
X-0002643D01*
X-0000720Y0003580D02*
Y0002740D01*
X0003080Y0010010D02*
X0002541D01*
X0001350Y0013250D02*
X0000194D01*
X0002690Y0010159D02*
Y0009445D01*
X-0000720Y0001880D02*
X-0000907D01*
X0001970Y0003631D02*
Y0001865D01*
X0005110Y0010870D02*
Y0010030D01*
X0002330Y0013140D02*
Y0012600D01*
X0000170Y0012615D02*
Y0012315D01*
X0001880Y0012160D02*
Y0012099D01*
X0000080Y0013070D02*
Y0012967D01*
X-0003242Y0010640D02*
X-0003940D01*
X0001039Y0012099D02*
Y0011990D01*
X-0003143Y0011180D02*
X-0003176D01*
X-0001990Y0011280D02*
Y0011070D01*
X0003050Y0011629D02*
Y0009631D01*
X0003985Y0002990D02*
X-0000720D01*
X0004754Y0012170D02*
X0004662D01*
X-0004603Y0008330D02*
X-0004737D01*
X-0004150Y0008320D02*
Y0008060D01*
X0005384Y0007130D02*
X0005320D01*
X0004760Y0007770D02*
Y0007510D01*
X0005110Y0010870D02*
X0004886D01*
X0005240Y0011000D02*
X0004953D01*
X0003910Y0008570D02*
X0003001D01*
X0001430Y0008456D02*
Y0008258D01*
X0005491Y0008286D02*
X0005465Y0007884D01*
X-0002520Y0011280D02*
X-0002640D01*
X0003953Y0009200D02*
X0003631D01*
X-0003250Y0008189D02*
Y0007580D01*
X-0005167Y0008660D02*
X-0005293D01*
X-0004330Y0008288D02*
Y0008110D01*
X-0003612Y0008750D02*
X-0003690D01*
X-0004556Y0008300D02*
X-0004784D01*
X0000080Y0011962D02*
Y0011940D01*
X-0003177Y0007760D02*
X-0003679D01*
X-0004600Y0008327D02*
Y0008110D01*
X-0002270Y0004060D02*
Y0003640D01*
X-0004979Y0006005D02*
X-0004901Y0005664D01*
X0002150Y0009620D02*
Y0009480D01*
X0001131Y0007760D02*
X0000896D01*
X-0003771Y0007400D02*
X-0003914D01*
X-0001540Y0005450D02*
Y0005341D01*
X-0004220Y0008110D02*
Y0008060D01*
X-0002350Y0007038D02*
Y0006782D01*
X-0002620Y0008460D02*
Y0008430D01*
X-0003070Y0005450D02*
Y0004742D01*
X-0004800Y0010010D02*
X-0005226D01*
X-0002643Y0001550D02*
X-0002535Y0001450D01*
X-0001990Y0007140D02*
Y0006754D01*
X-0002350Y0007140D02*
Y0007038D01*
X-0005171Y0009110D02*
X-0005293D01*
X-0005294Y0008693D02*
X-0005281Y0008286D01*
X-0003940Y0010840D02*
Y0010000D01*
X0001790Y0010932D02*
Y0010850D01*
X0003883Y0011107D02*
X0004180Y0010810D01*
X-0005281Y0008286D02*
X-0005254Y0007884D01*
X0001453Y0007130D02*
X0001401D01*
X-0003910Y0007620D02*
X-0004220D01*
X0001992Y0012160D02*
X0001880D01*
X0002480Y0012600D02*
X0001971D01*
X-0003660Y0009200D02*
X-0003695D01*
X-0003635Y0010910D02*
X-0003885D01*
X-0004113Y0008320D02*
X-0004270D01*
X0001509Y0012440D02*
X0000047D01*
X-0000010Y0013028D02*
Y0013009D01*
X-0000138Y0013024D02*
Y0013013D01*
X-0004084Y0008300D02*
X-0004304D01*
X0002451Y0013070D02*
X0001790D01*
X-0000134Y0013626D02*
Y0013573D01*
X-0000100Y0013622D02*
Y0013578D01*
X-0005114Y0006723D02*
X-0005050Y0006358D01*
X-0003723Y0011180D02*
X-0003796D01*
X-0003106Y0011270D02*
X-0003213D01*
X-0003100Y0011280D02*
X-0003220D01*
X0005444Y0007670D02*
X0004630D01*
X-0003680Y0011280D02*
X-0003840D01*
X0004250Y0010820D02*
X0004170D01*
X-0003940Y0009980D02*
Y0009298D01*
X0003396Y0011852D02*
X0003487Y0011761D01*
X0000170Y0012068D02*
Y0011835D01*
X-0004800Y0010820D02*
X-0005077D01*
X-0003970Y0010858D02*
Y0010840D01*
X-0003703Y0011000D02*
X-0003817D01*
X-0004780Y0010905D02*
Y0010840D01*
X0000170Y0013778D02*
Y0013422D01*
X-0003670Y0009830D02*
X-0003940D01*
X0003680Y0003756D02*
Y0002537D01*
X0003913Y0008530D02*
X0003630D01*
X0004406Y0011000D02*
X0003990D01*
X0005497Y0009290D02*
X0005254D01*
X0000554Y0012260D02*
X0000190D01*
X0002510Y0010960D02*
Y0010601D01*
X0000460Y0011450D02*
X0000295D01*
X0001106Y0001550D02*
X0000970D01*
X0000460Y0011540D02*
X0000295D01*
X0002307Y0009480D02*
X0002121D01*
X0000748Y0013790D02*
X0000175D01*
X0000779Y0013970D02*
X0000190D01*
X0003229Y0012620D02*
X0001951D01*
X-0003660Y0009380D02*
X-0003940D01*
X-0003500Y0007580D02*
X-0004220D01*
X0001973Y0000915D02*
X0001921Y0000889D01*
X0002060Y0003631D02*
Y0001865D01*
X0002405Y0010794D02*
X0002086Y0010475D01*
X0003050Y0004641D02*
Y0001750D01*
X0000980Y0005780D02*
X0000691D01*
X0005210Y0008331D02*
Y0007331D01*
X0003080Y0010820D02*
X0002950D01*
X0005436Y0007580D02*
X0004630D01*
X0001100Y0006953D02*
Y0006940D01*
X0005427Y0007488D02*
X0005380Y0007101D01*
X0001106Y0001820D02*
X-0000882D01*
X0003963Y0011285D02*
X0003834Y0011156D01*
X0001067Y0010850D02*
X0000966D01*
X-0003941Y0008120D02*
X-0005270D01*
X0001340Y0007469D02*
Y0007426D01*
X-0000720Y0003580D02*
X-0000920D01*
X-0004060Y0007620D02*
Y0007483D01*
X-0003277Y0010820D02*
X-0003940D01*
X0003113Y0011000D02*
X0002950D01*
X0001610Y0012339D02*
Y0012099D01*
X-0001720Y0001596D02*
Y0000894D01*
X-0003850Y0003710D02*
X-0004194D01*
X-0003686Y0011270D02*
X-0003833D01*
X0003970Y0008750D02*
X0003181D01*
X0004250Y0010100D02*
X0003870D01*
X-0005140Y0008850D02*
Y0008710D01*
X-0004800Y0010730D02*
X-0005099D01*
X0000766Y0013700D02*
X0000113D01*
X0000350Y0014024D02*
Y0011279D01*
X0000752Y0013880D02*
X0000198D01*
X0001586Y0005510D02*
X0001420D01*
X0000620Y0014017D02*
Y0012308D01*
X-0002080Y0007140D02*
Y0006789D01*
X0005314Y0010715D02*
X0005356Y0010517D01*
X0000809Y0013610D02*
X-0000134D01*
X-0003655Y0007515D02*
X-0003859Y0007312D01*
X0003319Y0012710D02*
X0001861D01*
X-0004690Y0010855D02*
Y0010840D01*
X-0000810Y0004520D02*
X-0000850D01*
X-0001810Y0007140D02*
Y0006620D01*
X0001880Y0007566D02*
Y0007406D01*
X-0004870Y0008273D02*
Y0008110D01*
X0003474Y0013416D02*
X0003560Y0013368D01*
X0001350Y0013070D02*
X0000080D01*
X0003860Y0013175D02*
Y0012971D01*
X0003560Y0013368D02*
X0003644Y0013320D01*
X0003140Y0012928D02*
Y0012531D01*
X0003680Y0013297D02*
Y0013071D01*
X0003590Y0013351D02*
Y0012981D01*
X0003500Y0013402D02*
Y0012891D01*
X0003050Y0012919D02*
Y0012441D01*
X0002690Y0013066D02*
Y0012481D01*
X0001599Y0012350D02*
X0000149D01*
X0003679Y0013070D02*
X0003363D01*
X0000890Y0013520D02*
X0000090D01*
X0001039Y0011990D02*
X0001021D01*
X0000380Y0014024D02*
X0000648Y0014016D01*
X0001039Y0011990D02*
X0001021D01*
X-0000010Y0013630D02*
Y0013569D01*
X0001250Y0013457D02*
Y0012099D01*
X0003078Y0006274D02*
X0003064D01*
X-0002530Y0011280D02*
Y0011264D01*
X-0003160Y0011280D02*
Y0011010D01*
X-0002620Y0011280D02*
Y0011246D01*
X0002330Y0007350D02*
Y0007028D01*
X-0003610Y0010890D02*
Y0010310D01*
X-0003790Y0011280D02*
Y0009273D01*
X-0003173Y0011000D02*
X-0003197D01*
X-0003880Y0010914D02*
Y0009298D01*
X-0003690Y0008847D02*
Y0008666D01*
X-0003700Y0011280D02*
Y0011246D01*
X-0004800Y0009980D02*
Y0009267D01*
X-0004785Y0010910D02*
X-0005055D01*
X-0004836Y0011270D02*
X-0004948D01*
X-0004873Y0011180D02*
X-0004977D01*
X-0004255Y0010910D02*
X-0004415D01*
X-0004960Y0011232D02*
Y0009285D01*
X-0004830Y0011280D02*
X-0004944D01*
X-0005050Y0010928D02*
Y0009252D01*
X-0003628Y0010280D02*
X-0003940D01*
X-0004970Y0011200D02*
X-0005000Y0011104D01*
X-0005055Y0010910D01*
X-0005182Y0010319D02*
X-0005213Y0010118D01*
X-0004960Y0007580D02*
X-0005225D01*
X-0005103Y0010715D02*
X-0005145Y0010517D01*
X-0003670Y0009650D02*
X-0003940D01*
X-0004800Y0010370D02*
X-0005172D01*
X-0004800Y0010640D02*
X-0005119D01*
X-0003670Y0010010D02*
X-0003940D01*
X-0005286Y0009308D02*
X-0005293Y0009102D01*
X-0004800Y0010190D02*
X-0005202D01*
X-0004800Y0009740D02*
X-0005256D01*
X-0005238Y0009916D02*
X-0005259Y0009714D01*
X-0005293Y0009104D02*
X-0005296Y0008896D01*
X-0005294Y0008691D02*
Y0008689D01*
X-0004800Y0009470D02*
X-0005277D01*
X-0004800Y0009290D02*
X-0005287D01*
X-0005140Y0008390D02*
Y0006899D01*
X-0005055Y0010910D02*
X-0005103Y0010715D01*
X-0003169Y0008120D02*
X-0003319D01*
X-0005216Y0007488D02*
X-0005170Y0007101D01*
X-0004800Y0009560D02*
X-0005271D01*
X-0004753Y0006860D02*
X-0005134D01*
X-0005178Y0008930D02*
X-0005295D01*
X-0004857Y0006680D02*
X-0005106D01*
X-0004960Y0007760D02*
X-0005242D01*
X-0004513Y0006140D02*
X-0005007D01*
X-0005036Y0008300D02*
X-0005281D01*
X-0004150Y0005734D02*
Y0005027D01*
X-0004828Y0006770D02*
X-0005121D01*
X-0004445Y0006050D02*
X-0004988D01*
X-0004034Y0005734D02*
X-0004166D01*
X-0004740Y0006410D02*
X-0005059D01*
X-0004221Y0004970D02*
X-0004707D01*
X-0004960Y0007130D02*
X-0005173D01*
X-0004166Y0005870D02*
X-0004948D01*
X-0004408Y0004700D02*
X-0004618D01*
X-0004045Y0005690D02*
X-0004907D01*
X-0004960Y0006950D02*
X-0005147D01*
X-0004727Y0005032D02*
X-0004632Y0004740D01*
X-0001551Y0005330D02*
X-0004814D01*
X-0001461Y0005420D02*
X-0003597D01*
X-0004901Y0005664D02*
X-0004817Y0005340D01*
X-0004305Y0004880D02*
X-0004678D01*
X-0004780Y0006444D02*
Y0005212D01*
X-0004319Y0003962D02*
X-0004260Y0003840D01*
X-0004817Y0005340D02*
X-0004727Y0005031D01*
X-0004240Y0005981D02*
Y0004952D01*
X-0004690Y0006382D02*
Y0004917D01*
X-0004632Y0004740D02*
X-0004532Y0004464D01*
X-0004099Y0003800D02*
X-0004240D01*
X0003805Y0009374D02*
X0002952Y0008521D01*
X-0005190Y0009020D02*
X-0005294D01*
X-0001720Y0004880D02*
X-0003155D01*
X-0004460Y0004430D02*
X-0004519D01*
X-0002336Y0006320D02*
X-0002350D01*
X-0004482Y0004336D02*
X-0004428Y0004206D01*
X-0004855Y0006590D02*
X-0005091D01*
X-0004532Y0004464D02*
X-0004481Y0004334D01*
X-0004221Y0003890D02*
X-0004284D01*
X-0004330Y0004014D02*
Y0003986D01*
X-0004240Y0003908D02*
Y0003800D01*
X-0003943Y0003261D02*
X-0003802Y0003033D01*
X-0004076Y0003490D02*
X-0003943Y0003261D01*
X-0002410Y0003350D02*
X-0003995D01*
X-0002410Y0003170D02*
X-0003887D01*
X-0003700Y0003700D02*
Y0002876D01*
X-0003491Y0002567D02*
X-0003318Y0002328D01*
X-0004201Y0003723D02*
X-0004076Y0003490D01*
X-0000013Y0000501D02*
X0000105Y0000499D01*
X-0000280Y0004860D02*
Y0000516D01*
X-0001090Y0001466D02*
Y0000658D01*
X0000821Y0000555D02*
X0000673Y0000535D01*
X0001520Y0005704D02*
Y0005171D01*
X0001183Y0000627D02*
X0001111Y0000610D01*
X0000800Y0001116D02*
Y0000552D01*
X0001610Y0005444D02*
Y0005081D01*
X0001160Y0003631D02*
Y0001865D01*
X0001111Y0000610D02*
X0000966Y0000580D01*
X0000530Y0001205D02*
Y0000519D01*
X-0001360Y0001555D02*
Y0000743D01*
X0001106Y0001190D02*
X0000936D01*
X0001070Y0004999D02*
Y0000602D01*
X0001610Y0003631D02*
Y0001865D01*
X0003050Y0006226D02*
Y0005201D01*
X0001160Y0000915D02*
Y0000621D01*
X0001462Y0000706D02*
X0001391Y0000684D01*
X0001272Y0000650D02*
X-0001061D01*
X0001324Y0000664D02*
X0001252Y0000644D01*
X0001340Y0000915D02*
Y0000669D01*
X0001597Y0000752D02*
X0001525Y0000727D01*
X0001665Y0000778D02*
X0001594Y0000751D01*
X0001973Y0000915D02*
X0001106D01*
X0001790D02*
Y0000829D01*
X0001796Y0000832D02*
X0001729Y0000803D01*
X0001862Y0000861D02*
X0001793Y0000831D01*
X0001729Y0000803D02*
X0001661Y0000776D01*
X0001926Y0000891D02*
X0001857Y0000859D01*
X0001700Y0000915D02*
Y0000792D01*
X0000890Y0001153D02*
Y0000567D01*
X0001790Y0003631D02*
Y0001865D01*
X0002240Y0005704D02*
Y0001065D01*
X0001880Y0000915D02*
Y0000870D01*
X0001106Y0001640D02*
X0000866D01*
X0002330Y0005668D02*
Y0001123D01*
X0002544Y0001280D02*
X0002174D01*
X0001106D02*
X0000997D01*
X0002420Y0005650D02*
Y0001186D01*
X0002296Y0001100D02*
X0002232Y0001060D01*
X0002355Y0001140D02*
X0002292Y0001098D01*
X0002174Y0001865D02*
Y0001025D01*
X0002412Y0001180D02*
X0002350Y0001136D01*
X0003078Y0005960D02*
X0002708D01*
X0002470Y0001222D02*
X0002409Y0001178D01*
X0002425Y0001190D02*
X0002174D01*
X0001791Y0000830D02*
X-0001581D01*
X0002527Y0001266D02*
X0002466Y0001219D01*
X0001139Y0007670D02*
X0000896D01*
X0002638Y0001356D02*
X0002579Y0001308D01*
X0002654Y0001370D02*
X0002174D01*
X0002420Y0009889D02*
Y0009533D01*
X0002510Y0005662D02*
Y0001253D01*
X0002960Y0004667D02*
Y0001656D01*
X0002944Y0001640D02*
X0002174D01*
X0002600Y0005707D02*
Y0001324D01*
X0003256Y0001983D02*
X0003158Y0001869D01*
X0003031Y0001730D02*
X0002174D01*
X0002746Y0001450D02*
X0002636Y0001355D01*
X0003320Y0004079D02*
Y0002061D01*
X0003140Y0005704D02*
Y0005291D01*
X0002780Y0006050D02*
Y0001481D01*
X0002853Y0001550D02*
X0002746Y0001450D01*
X0003410Y0003950D02*
Y0002173D01*
X0003230Y0004683D02*
Y0001953D01*
X0002959Y0001655D02*
X0002853Y0001550D01*
X0003160Y0001871D02*
X0003059Y0001760D01*
X0002853Y0001550D02*
X0002174D01*
X0003113Y0001820D02*
X0002174D01*
X0003193Y0001910D02*
X-0000720D01*
X0002757Y0001460D02*
X0002174D01*
X0003061Y0001761D02*
X0002956Y0001652D01*
X0003682Y0002540D02*
X-0000720D01*
X0003270Y0002000D02*
X-0000720D01*
X0003552Y0002360D02*
X-0000720D01*
X0003484Y0002270D02*
X-0000720D01*
X0003350Y0002097D02*
X0003254Y0001981D01*
X0003441Y0002213D02*
X0003348Y0002095D01*
X0003700Y0002565D02*
X0003528Y0002327D01*
X0004153Y0003260D02*
X-0000720D01*
X0003530Y0002330D02*
X0003440Y0002211D01*
X0003744Y0002630D02*
X-0000720D01*
X0003867Y0002810D02*
X-0000720D01*
X0004014Y0003035D02*
X0003860Y0002800D01*
X0004042Y0003080D02*
X-0000720D01*
X0004400Y0003847D02*
Y0003701D01*
X0003950Y0003700D02*
Y0002936D01*
X0004154Y0003261D02*
X0004013Y0003033D01*
X0004220Y0003748D02*
Y0003375D01*
X0004308Y0003530D02*
X-0000720D01*
X0004405Y0003710D02*
X0004080D01*
X0004490Y0003928D02*
Y0003880D01*
X0004287Y0003490D02*
X0004154Y0003261D01*
X0003591Y0003800D02*
X0002174D01*
X0004450D02*
X0004329D01*
X0004471Y0003842D02*
X0004412Y0003723D01*
X0004542Y0003989D02*
X0004527Y0003958D01*
X0004494Y0003890D02*
X0004451D01*
X0004310Y0003789D02*
Y0003533D01*
X0003078Y0005960D02*
Y0005704D01*
X0003316Y0011360D02*
X0002950D01*
X0003069Y0009650D02*
X0002181D01*
X0003925Y0008660D02*
X0003091D01*
X0005427Y0007490D02*
X0005050D01*
X0005470Y0009714D02*
X0005485Y0009510D01*
X0005395Y0007220D02*
X0005301D01*
X0005406Y0007310D02*
X0005231D01*
X0005300Y0008357D02*
Y0007221D01*
X0005332Y0006770D02*
X0005320D01*
X0004630Y0007807D02*
Y0007510D01*
X0005120Y0008336D02*
Y0007410D01*
X0004250Y0009740D02*
X0003870D01*
X0005488Y0009470D02*
X0005110D01*
X0005475Y0009650D02*
X0005110D01*
X0005503Y0009110D02*
X0005445D01*
X0005423Y0010118D02*
X0005449Y0009916D01*
X0005505Y0009020D02*
X0005460D01*
X0005426Y0010100D02*
X0005110D01*
X0005493Y0009380D02*
X0005110D01*
X0005398Y0010280D02*
X0005110D01*
X0005449Y0009916D02*
X0005470Y0009714D01*
X0005482Y0009560D02*
X0005110D01*
X0005367Y0010460D02*
X0005110D01*
X0005392Y0010319D02*
X0005423Y0010118D01*
X0005458Y0009830D02*
X0005110D01*
X0005330Y0010640D02*
X0005110D01*
X0005265Y0010910D02*
X0005314Y0010715D01*
X0005437Y0010010D02*
X0005110D01*
X0005412Y0010190D02*
X0005110D01*
X0005390Y0010333D02*
Y0009205D01*
X0005356Y0010518D02*
X0005392Y0010319D01*
X0005383Y0010370D02*
X0005110D01*
X0005211Y0011104D02*
X0005265Y0010910D01*
X0005349Y0010550D02*
X0005110D01*
X0005288Y0010820D02*
X0005110D01*
X0005083Y0011481D02*
X0005118Y0011386D01*
X0005300Y0010771D02*
Y0009273D01*
X0005266Y0010910D02*
X0004916D01*
X-0002568Y0011090D02*
X-0002591D01*
X0005210Y0011107D02*
Y0009298D01*
X0004888Y0011924D02*
X0004930Y0011838D01*
X0005023Y0011630D02*
X0004544D01*
X0005181Y0011200D02*
X0005211Y0011104D01*
X0005158Y0011270D02*
X0004865D01*
X0005047Y0011572D02*
X0005084Y0011478D01*
X0005120Y0011381D02*
Y0009293D01*
X0004580Y0011666D02*
Y0011321D01*
X0005150Y0011294D02*
X0005182Y0011198D01*
X0004970Y0011752D02*
X0005010Y0011661D01*
X0005094Y0011450D02*
X0004364D01*
X0004929Y0011840D02*
X0004971Y0011750D01*
X0004984Y0011720D02*
X0004634D01*
X0004900Y0011900D02*
X0004814D01*
X0005060Y0011540D02*
X0004454D01*
X0004310Y0011396D02*
Y0010870D01*
X0004940Y0011817D02*
Y0011164D01*
X0005187Y0011180D02*
X0004933D01*
X0005009Y0011662D02*
X0005048Y0011569D01*
X0004670Y0012305D02*
Y0012162D01*
X0004943Y0011810D02*
X0004724D01*
X0005117Y0011388D02*
X0005151Y0011292D01*
X0004805Y0012080D02*
X0004752D01*
X0004850Y0011997D02*
Y0011982D01*
X0004314Y0012517D02*
X0004867Y0011965D01*
X0004512Y0012530D02*
X0004302D01*
X0004490Y0012559D02*
Y0012342D01*
X0004760Y0012159D02*
Y0012072D01*
X0004796Y0012097D02*
X0004843Y0012010D01*
X0004640Y0012350D02*
X0004482D01*
X0004854Y0011990D02*
X0004842D01*
X0004699Y0012260D02*
X0004572D01*
X0004283Y0012800D02*
X0004031D01*
X0004700Y0012258D02*
X0004749Y0012177D01*
X0004580Y0012437D02*
Y0012252D01*
X0004748Y0012180D02*
X0004797Y0012095D01*
X0004441Y0012620D02*
X0004211D01*
X0004595Y0012416D02*
X0004648Y0012338D01*
X0004298Y0012784D02*
X0004363Y0012712D01*
X0003410Y0011838D02*
Y0011454D01*
X0003995Y0013070D02*
X0003761D01*
X0004538Y0012495D02*
X0004595Y0012416D01*
X0004040Y0011208D02*
Y0010950D01*
X0004310Y0012771D02*
Y0012522D01*
X0004100Y0012980D02*
X0004169Y0012915D01*
X0004366Y0012710D02*
X0004121D01*
X0003752Y0013250D02*
X0003437D01*
X0003881Y0013160D02*
X0003414D01*
X0004578Y0012440D02*
X0004392D01*
X0004220Y0012866D02*
Y0012611D01*
X0003770Y0013238D02*
Y0013061D01*
X0004195Y0012890D02*
X0003941D01*
X0004100Y0012980D02*
X0003851D01*
X0003410Y0013448D02*
X0003474Y0013416D01*
X0004363Y0012712D02*
X0004424Y0012641D01*
X0002889Y0009470D02*
X0002665D01*
X0003500Y0011748D02*
Y0011490D01*
X0003230Y0012959D02*
Y0012621D01*
X0003725Y0013269D02*
X0003805Y0013214D01*
X0003957Y0013101D02*
X0004029Y0013041D01*
X0003320Y0011704D02*
Y0011364D01*
X0004169Y0012915D02*
X0004235Y0012850D01*
X0004443Y0010910D02*
X0004080D01*
X0004482Y0012569D02*
X0004540Y0012493D01*
X0004040Y0013032D02*
Y0012791D01*
X0003589Y0012980D02*
X0003266D01*
X0004130Y0012952D02*
Y0012701D01*
X0001040Y0011990D02*
Y0011955D01*
X0003882Y0013159D02*
X0003957Y0013101D01*
X0004647Y0012340D02*
X0004700Y0012258D01*
X-0002350Y0007038D02*
X-0002469D01*
X-0004001Y0008060D02*
X-0004220D01*
X-0004060Y0008287D02*
Y0008060D01*
X-0002270Y0004160D02*
X-0003052D01*
X0003500Y0003863D02*
Y0002290D01*
X0001106Y0004250D02*
X-0000850D01*
X0002174Y0004581D02*
X0001860D01*
X-0000720Y0002720D02*
Y0001880D01*
X-0001647Y0006950D02*
X-0002350D01*
X0001880Y0008456D02*
Y0007854D01*
X0004490Y0011576D02*
Y0011266D01*
X0003081Y0010910D02*
X0002950D01*
X0003630Y0008030D02*
X0003560D01*
X0004180Y0010810D02*
X0003870Y0010500D01*
X0005453Y0007760D02*
X0004630D01*
X0002690Y0008456D02*
Y0008090D01*
X0004250Y0009560D02*
X0003870D01*
X0001420Y0004610D02*
X-0000407D01*
X0001700Y0003631D02*
Y0001865D01*
X0003235Y0004520D02*
X0002174D01*
X0003230Y0004430D02*
X0002174D01*
X0003235Y0004340D02*
X0002174D01*
X0003252Y0004250D02*
X0002174D01*
X0003282Y0004160D02*
X0002174D01*
X0003325Y0004070D02*
X0002174D01*
X0003385Y0003980D02*
X0002174D01*
X0003469Y0003890D02*
X0002174D01*
X0003078Y0006140D02*
X0002996D01*
X0001326Y0006680D02*
X0001100D01*
X0003415Y0002180D02*
X-0000720D01*
X0001100Y0006940D02*
Y0006520D01*
X-0005170Y0007101D02*
X-0005114Y0006723D01*
X0001530Y0000728D02*
X0001459Y0000705D01*
X0003630Y0008010D02*
Y0007950D01*
X-0003160Y0008279D02*
Y0008214D01*
X0001877Y0007850D02*
X0001667D01*
X-0003271Y0010460D02*
X-0003940D01*
X0003046Y0011630D02*
X0002950D01*
X-0001681Y0007040D02*
X-0002469D01*
X-0003790Y0007655D02*
Y0007381D01*
X-0003660Y0009290D02*
X-0003836D01*
X0002369Y0010460D02*
X0002069D01*
X0000848Y0000560D02*
X-0000637D01*
X0000440Y0014022D02*
Y0011271D01*
X0000710Y0014013D02*
Y0012337D01*
X0003080Y0009740D02*
X0002271D01*
X0005467D02*
X0005110D01*
X0005485Y0009512D02*
X0005497Y0009306D01*
X0005500Y0009200D02*
X0005394D01*
X-0003275Y0010730D02*
X-0003940D01*
X-0005189Y0008570D02*
X-0005290D01*
X0004842Y0012012D02*
X0004888Y0011924D01*
X0004670Y0011756D02*
Y0011340D01*
X-0004150Y0010852D02*
Y0010840D01*
X0004424Y0012641D02*
X0004482Y0012569D01*
X0005215Y0011090D02*
X0004958D01*
X0004850Y0011936D02*
Y0011282D01*
X0004760Y0011846D02*
Y0011328D01*
X0005480Y0009582D02*
Y0008111D01*
X0005358Y0006950D02*
X0005320D01*
X-0003520Y0010849D02*
Y0010392D01*
X-0004800Y0009830D02*
X-0005247D01*
X-0003340Y0010862D02*
Y0010427D01*
X-0003553Y0010370D02*
X-0003940D01*
X-0003090Y0009550D02*
X-0003240D01*
X-0004060Y0005734D02*
Y0005081D01*
X-0005213Y0010118D02*
X-0005238Y0009916D01*
X-0002410Y0002900D02*
X-0003715D01*
X-0003790Y0003702D02*
Y0003014D01*
X-0004780Y0006870D02*
Y0006836D01*
X-0002270Y0004430D02*
X-0003000D01*
X-0004800Y0010460D02*
X-0005156D01*
X0001070Y0013441D02*
Y0012099D01*
X-0004960Y0007490D02*
X-0005217D01*
X-0004047Y0005600D02*
X-0004884D01*
X-0003520Y0005514D02*
Y0005129D01*
X0003770Y0003725D02*
Y0002667D01*
X-0000730Y0001880D02*
Y0000576D01*
X0002880Y0008090D02*
X0002320D01*
X-0001431Y0005450D02*
X-0003110D01*
X0003720Y0013111D02*
X0004279Y0012553D01*
X-0001720Y0004790D02*
X-0003095D01*
X-0003351Y0005600D02*
X-0003493D01*
X-0001450Y0005450D02*
Y0005431D01*
X-0002270Y0004610D02*
X-0003022D01*
X-0002270Y0004340D02*
X-0003005D01*
X0003860Y0003707D02*
Y0002799D01*
X0003438Y0011810D02*
X0003385D01*
X0001430Y0000915D02*
Y0000696D01*
X-0002410Y0003530D02*
X-0004097D01*
X0002649Y0007310D02*
X0001972D01*
X0003522Y0011725D02*
X0003651Y0011596D01*
X0000116Y0013703D02*
X-0000081Y0013901D01*
X0000380Y0014024D02*
X0000170D01*
X0000116Y0013101D02*
X-0000081Y0013299D01*
X0000116Y0013496D02*
X-0000081Y0013299D01*
X0000116Y0012541D02*
X-0000081Y0012739D01*
X0000116Y0012936D02*
X-0000081Y0012739D01*
X0000116Y0011993D02*
X-0000081Y0012191D01*
X0000116Y0012389D02*
X-0000081Y0012191D01*
X-0004402Y0010922D02*
X-0004600Y0011120D01*
X-0004798Y0010922D02*
X-0004600Y0011120D01*
X-0003872Y0010922D02*
X-0004070Y0011120D01*
X-0004268Y0010922D02*
X-0004070Y0011120D01*
X-0003252Y0010922D02*
X-0003450Y0011120D01*
X-0003648Y0010922D02*
X-0003450Y0011120D01*
X0004482Y0011258D02*
X0004680Y0011060D01*
X0004878Y0010862D02*
X0004680Y0011060D01*
X0004482Y0010862D02*
X0004680Y0011060D01*
X0004878Y0011258D02*
X0004680Y0011060D01*
X0000890Y0013520D02*
Y0012302D01*
X0002335Y0007028D02*
X0002080D01*
X0004068Y0011180D02*
X0003857D01*
X0001626Y0010874D02*
X0001346D01*
X-0004960Y0007220D02*
X-0005184D01*
X-0003922Y0007408D02*
X-0004120Y0007210D01*
X0001106Y0004430D02*
X-0000850D01*
X0001340Y0008456D02*
Y0008300D01*
X-0001990Y0005450D02*
Y0004640D01*
X-0003147Y0008030D02*
X-0003409D01*
X0001066Y0010874D02*
X0001346D01*
X0004968Y0007852D02*
X0004770Y0008050D01*
X0004968Y0008248D02*
X0004770Y0008050D01*
X0000530Y0005579D02*
Y0001575D01*
X-0000452Y0004552D02*
X-0000650Y0004750D01*
X0001581Y0005600D02*
X0001420D01*
X-0000165Y0000508D02*
X-0000013Y0000501D01*
X0001662Y0005768D02*
X0001860Y0005570D01*
X0002058Y0005372D02*
X0001860Y0005570D01*
X0001662Y0005372D02*
X0001860Y0005570D01*
X0002058Y0005768D02*
X0001860Y0005570D01*
X-0001936Y0006316D02*
X-0002134Y0006514D01*
X-0002260Y0006264D02*
Y0006222D01*
X-0001936Y0006712D02*
X-0002134Y0006514D01*
X-0004458Y0006062D02*
X-0004260Y0006260D01*
X-0003700Y0005369D02*
Y0005159D01*
X-0003098Y0007918D02*
X-0002900Y0007720D01*
X-0001720Y0007079D02*
Y0006702D01*
X-0003088Y0007942D02*
X-0002890Y0008140D01*
X0000116Y0011909D02*
X-0000081Y0011711D01*
X-0003198Y0010978D02*
X-0003000Y0010780D01*
X-0003198Y0010582D02*
X-0003000Y0010780D01*
X-0003578Y0010348D02*
X-0003380Y0010150D01*
X0000080Y0013672D02*
Y0013527D01*
X-0003568Y0008692D02*
X-0003370Y0008890D01*
X-0002178Y0001898D02*
X-0001980Y0001700D01*
X-0001782Y0001502D02*
X-0001980Y0001700D01*
X-0002178Y0001502D02*
X-0001980Y0001700D01*
X-0001782Y0001898D02*
X-0001980Y0001700D01*
X-0001348Y0001938D02*
X-0001150Y0001740D01*
X-0000952Y0001542D02*
X-0001150Y0001740D01*
X-0001348Y0001542D02*
X-0001150Y0001740D01*
X-0000952Y0001938D02*
X-0001150Y0001740D01*
X0000542Y0001588D02*
X0000740Y0001390D01*
X0000938Y0001192D02*
X0000740Y0001390D01*
X0000542Y0001192D02*
X0000740Y0001390D01*
X0000938Y0001588D02*
X0000740Y0001390D01*
X0003318Y0011702D02*
X0003120Y0011900D01*
X0004250Y0009380D02*
X0003811D01*
X0000552Y0012258D02*
X0000750Y0012060D01*
X0000810Y0006200D02*
Y0006480D01*
X0000948Y0012258D02*
X0000750Y0012060D01*
X0001385Y0006772D02*
Y0006706D01*
X0001969Y0012099D02*
X0001654D01*
X0000460Y0011990D02*
X0000113D01*
X-0004800Y0010100D02*
X-0005215D01*
X-0000190Y0004879D02*
Y0000510D01*
X0001740Y0012099D02*
Y0011772D01*
X-0003790Y0008303D02*
Y0008271D01*
X-0002350Y0006246D02*
Y0006222D01*
X0001069Y0010910D02*
X0000970D01*
X-0005181Y0008480D02*
X-0005287D01*
X0003078Y0005780D02*
X0002666D01*
X0001607Y0005690D02*
X0001420D01*
X0001947Y0007490D02*
X0001536D01*
X0003179Y0005330D02*
X0002004D01*
X-0000550Y0004488D02*
Y0000547D01*
X0000295Y0011430D02*
X-0000081D01*
X0001921Y0010932D02*
X0001839Y0010850D01*
X0001488Y0007028D02*
X0001385D01*
X0000460Y0011810D02*
X0000181D01*
X0004130Y0011216D02*
Y0010860D01*
X0003324Y0012715D02*
X0003621Y0012418D01*
X0004017Y0012814D02*
X0003621Y0012418D01*
X0003680Y0009249D02*
Y0008530D01*
X0003140Y0004646D02*
Y0001849D01*
X0004495Y0011270D02*
X0004184D01*
X-0002020Y0011070D02*
Y0010780D01*
X-0004960Y0007210D02*
X-0004590D01*
X0000798Y0013627D02*
X0001128Y0013817D01*
X-0000720Y0002310D02*
X-0001150D01*
X-0002410Y0002300D02*
X-0001980D01*
X0001640Y0000915D02*
Y0001390D01*
Y0001865D02*
Y0001390D01*
X0002174D02*
X0001640D01*
X0001106D02*
X0001640D01*
X0002050Y0010360D02*
X0001760D01*
X0001106Y0003710D02*
X-0000850D01*
X0001250Y0004819D02*
Y0004581D01*
X0005449Y0009920D02*
X0005110D01*
X-0002560Y0011070D02*
Y0010780D01*
X0002510Y0010601D02*
X0002050Y0010141D01*
X0001100Y0006810D02*
X0000810D01*
X-0003660Y0009260D02*
X-0003370D01*
Y0009550D02*
Y0009260D01*
X-0003670Y0009840D02*
X-0003380D01*
X0001454Y0007220D02*
X0001420D01*
X0000460Y0011700D02*
X0000750D01*
X0001520Y0003631D02*
Y0001865D01*
X0005110Y0010440D02*
X0004680D01*
X0004250D02*
X0004680D01*
X-0004370Y0010840D02*
Y0010410D01*
X-0003940D02*
X-0004370D01*
X-0004800D02*
X-0004370D01*
X0000620Y0005669D02*
Y0001643D01*
X0000231Y0000501D02*
X0000227D01*
X-0000010Y0005039D02*
Y0000501D01*
X-0000640Y0004470D02*
Y0000560D01*
X0000673Y0000535D02*
X0000525Y0000519D01*
X0000440Y0005489D02*
Y0000513D01*
X0000138Y0000269D02*
X0000072D01*
X0000231Y0000271D01*
X0000389Y0000278D01*
X0000546Y0000290D01*
X0000701Y0000307D01*
X0000856Y0000328D01*
X0001009Y0000354D01*
X0001160Y0000386D01*
X0001235Y0000403D01*
X0001310Y0000422D01*
X0001384Y0000442D01*
X0001457Y0000464D01*
X0001530Y0000486D01*
X0001603Y0000510D01*
X0001675Y0000536D01*
X0001746Y0000563D01*
X0001816Y0000591D01*
X0001886Y0000620D01*
X0001955Y0000651D01*
X0002024Y0000683D01*
X0002092Y0000717D01*
X0002159Y0000752D01*
X0002225Y0000788D01*
X0002291Y0000826D01*
X0002355Y0000866D01*
X0002419Y0000906D01*
X0002482Y0000948D01*
X0002544Y0000992D01*
X0002606Y0001037D01*
X0002666Y0001083D01*
X0002726Y0001130D01*
X0002785Y0001179D01*
X0002900Y0001279D01*
X0003012Y0001384D01*
X0003121Y0001492D01*
X0003227Y0001603D01*
X0003330Y0001717D01*
X0003430Y0001833D01*
X0003527Y0001951D01*
X0003622Y0002070D01*
X0003713Y0002191D01*
X0003888Y0002432D01*
X0004052Y0002673D01*
X0004207Y0002909D01*
X0004352Y0003143D01*
X0004488Y0003378D01*
X0004616Y0003617D01*
X0004677Y0003739D01*
X0004737Y0003862D01*
X0004794Y0003988D01*
X0004850Y0004117D01*
X0004905Y0004248D01*
X0004958Y0004383D01*
X0005060Y0004665D01*
X0005158Y0004964D01*
X0005250Y0005279D01*
X0005335Y0005611D01*
X0005415Y0005956D01*
X0005487Y0006316D01*
X0005552Y0006687D01*
X0005608Y0007070D01*
X0005656Y0007464D01*
X0005694Y0007866D01*
X0005721Y0008275D01*
X0005735Y0008689D01*
X0005736Y0008898D01*
X0005734Y0009107D01*
X0005727Y0009316D01*
X0005715Y0009525D01*
X0005699Y0009734D01*
X0005678Y0009943D01*
X0005651Y0010150D01*
X0005619Y0010357D01*
X0005582Y0010563D01*
X0005538Y0010767D01*
X0005488Y0010969D01*
X0005432Y0011169D01*
X0005401Y0011268D01*
X0005369Y0011366D01*
X0005335Y0011464D01*
X0005299Y0011560D01*
X0005261Y0011656D01*
X0005222Y0011751D01*
X0005181Y0011844D01*
X0005138Y0011937D01*
X0005093Y0012028D01*
X0005046Y0012118D01*
X0004998Y0012207D01*
X0004947Y0012295D01*
X0004895Y0012381D01*
X0004840Y0012465D01*
X0004783Y0012549D01*
X0004725Y0012630D01*
X0004664Y0012710D01*
X0004601Y0012788D01*
X0004536Y0012864D01*
X0004469Y0012939D01*
X0004400Y0013011D01*
X0004328Y0013082D01*
X0004254Y0013151D01*
X0004178Y0013217D01*
X0004100Y0013281D01*
X0004019Y0013344D01*
X0003936Y0013403D01*
X0003851Y0013461D01*
X0003763Y0013516D01*
X0003673Y0013569D01*
X0003581Y0013620D01*
X0003486Y0013668D01*
X0003389Y0013714D01*
X0003290Y0013758D01*
X0003189Y0013799D01*
X0003086Y0013839D01*
X0002981Y0013876D01*
X0002873Y0013912D01*
X0002764Y0013945D01*
X0002653Y0013977D01*
X0002540Y0014006D01*
X0002426Y0014034D01*
X0002309Y0014060D01*
X0002191Y0014084D01*
X0001950Y0014127D01*
X0001702Y0014163D01*
X0001449Y0014193D01*
X0001190Y0014216D01*
X0000925Y0014234D01*
X0000656Y0014246D01*
X0000383Y0014254D01*
X-0000172D01*
X-0000446Y0014246D01*
X-0000715Y0014234D01*
X-0000979Y0014216D01*
X-0001238Y0014193D01*
X-0001491Y0014163D01*
X-0001739Y0014127D01*
X-0001980Y0014084D01*
X-0002098Y0014060D01*
X-0002215Y0014034D01*
X-0002330Y0014006D01*
X-0002442Y0013977D01*
X-0002554Y0013945D01*
X-0002663Y0013912D01*
X-0002770Y0013876D01*
X-0002875Y0013839D01*
X-0002978Y0013799D01*
X-0003080Y0013758D01*
X-0003179Y0013714D01*
X-0003275Y0013668D01*
X-0003370Y0013620D01*
X-0003463Y0013569D01*
X-0003553Y0013516D01*
X-0003640Y0013461D01*
X-0003726Y0013403D01*
X-0003809Y0013344D01*
X-0003889Y0013281D01*
X-0003968Y0013217D01*
X-0004044Y0013151D01*
X-0004117Y0013082D01*
X-0004189Y0013011D01*
X-0004258Y0012939D01*
X-0004325Y0012864D01*
X-0004390Y0012788D01*
X-0004453Y0012710D01*
X-0004514Y0012630D01*
X-0004573Y0012549D01*
X-0004629Y0012465D01*
X-0004684Y0012381D01*
X-0004736Y0012295D01*
X-0004787Y0012207D01*
X-0004836Y0012118D01*
X-0004882Y0012028D01*
X-0004927Y0011937D01*
X-0004970Y0011844D01*
X-0005011Y0011751D01*
X-0005051Y0011656D01*
X-0005088Y0011560D01*
X-0005124Y0011464D01*
X-0005158Y0011366D01*
X-0005190Y0011268D01*
X-0005221Y0011169D01*
X-0005277Y0010969D01*
X-0005327Y0010767D01*
X-0005371Y0010563D01*
X-0005408Y0010357D01*
X-0005440Y0010150D01*
X-0005467Y0009943D01*
X-0005488Y0009734D01*
X-0005504Y0009525D01*
X-0005516Y0009316D01*
X-0005523Y0009107D01*
X-0005526Y0008898D01*
X-0005524Y0008689D01*
X-0005510Y0008275D01*
X-0005484Y0007866D01*
X-0005445Y0007464D01*
X-0005398Y0007070D01*
X-0005341Y0006687D01*
X-0005276Y0006316D01*
X-0005204Y0005956D01*
X-0005125Y0005611D01*
X-0005039Y0005279D01*
X-0004947Y0004964D01*
X-0004850Y0004665D01*
X-0004747Y0004383D01*
X-0004694Y0004248D01*
X-0004640Y0004117D01*
X-0004584Y0003988D01*
X-0004526Y0003862D01*
X-0004466Y0003739D01*
X-0004405Y0003617D01*
X-0004277Y0003378D01*
X-0004141Y0003143D01*
X-0003996Y0002909D01*
X-0003841Y0002673D01*
X-0003677Y0002432D01*
X-0003502Y0002191D01*
X-0003411Y0002070D01*
X-0003317Y0001951D01*
X-0003220Y0001833D01*
X-0003120Y0001717D01*
X-0003017Y0001603D01*
X-0002911Y0001492D01*
X-0002802Y0001384D01*
X-0002689Y0001279D01*
X-0002574Y0001179D01*
X-0002515Y0001130D01*
X-0002456Y0001083D01*
X-0002395Y0001037D01*
X-0002334Y0000992D01*
X-0002271Y0000948D01*
X-0002208Y0000906D01*
X-0002145Y0000866D01*
X-0002080Y0000826D01*
X-0002014Y0000788D01*
X-0001948Y0000752D01*
X-0001881Y0000717D01*
X-0001813Y0000683D01*
X-0001745Y0000651D01*
X-0001675Y0000620D01*
X-0001605Y0000591D01*
X-0001535Y0000563D01*
X-0001464Y0000536D01*
X-0001392Y0000510D01*
X-0001320Y0000486D01*
X-0001247Y0000464D01*
X-0001173Y0000442D01*
X-0001099Y0000422D01*
X-0001025Y0000403D01*
X-0000950Y0000386D01*
X-0000798Y0000354D01*
X-0000645Y0000328D01*
X-0000491Y0000307D01*
X-0000335Y0000290D01*
X-0000178Y0000278D01*
X-0000020Y0000271D01*
X0000138Y0000269D01*
G01X-0003500Y0007580D02*
G03X-0003655Y0007515I0000000J0000220D01*
G01X0001159Y0007865D02*
G03X0001130Y0007740I0000251J0000125D01*
G01X0002121Y0009480D02*
G03X0002140Y0009580I0000261J0000100D01*
G01X0001860Y0004740D02*
G03X0001795Y0004895I0000220J0000000D01*
G01X-0001655Y0005225D02*
G03X-0001719Y0005070I0000155J0000155D01*
G01X-0003265Y0005514D02*
G03X-0003110Y0005450I0000155J0000156D01*
G01X0002635Y0012535D02*
G03X0002480Y0012599I0000155J0000155D01*
G01X0000980Y0005180D02*
G03X0001044Y0005024I0000220J0000000D01*
G01X-0005190Y0009010D02*
G03X-0005130Y0008837I0000280J0000000D01*
G01X0000747Y0013817D02*
G03X0001128Y0013436I0000381J0000000D01*
G01X0003060Y0012919D02*
G03X0003441Y0013300I0000000J0000381D01*
G01X-0002641Y0009536D02*
G03X-0002660Y0009531I0000041J0000216D01*
G01X-0002202Y0001870D02*
G03X-0002260Y0001700I0000222J0000170D01*
G01X0000370Y0011280D02*
G03X0000295Y0011270I0000000J0000280D01*
G01X-0003190Y0010574D02*
G03X-0003285Y0010413I0000180J0000214D01*
G01X-0003648Y0008920D02*
G03X-0003650Y0008890I0000278J0000030D01*
G01X0001992Y0012160D02*
G03X0001969Y0012099I0000248J0000130D01*
G01X0001724Y0012224D02*
G03X0001880Y0012159I0000156J0000156D01*
G01X-0003910Y0009300D02*
G03X-0003940Y0009298I0000000J0000280D01*
G01X-0004880Y0011120D02*
G03X-0004600Y0010840I0000280J0000000D01*
G01X-0003730Y0003700D02*
G03X-0003000Y0004430I0000000J0000730D01*
G03X-0003730Y0005160I0000730J0000000D01*
G03X-0004460Y0004430I0000000J0000730D01*
G01X0003230D02*
G03X0003960Y0003700I0000730J0000000D01*
G01X0002094Y0013178D02*
G03X0002261Y0013217I0000000J0000381D01*
G01X0004775Y0008330D02*
G03X0004803Y0008350I0000145J0000240D01*
G01X0000980Y0006257D02*
G03X0000980Y0006250I0000220J0000007D01*
Y0006257D02*
G03X0000980Y0006250I0000220J0000007D01*
G01X-0003280Y0010780D02*
G03X-0003190Y0010574I0000280J0000000D01*
G01X0002261Y0013217D02*
G03X0002577Y0013048I0000316J0000212D01*
G01X-0001700Y0001700D02*
G03X-0001757Y0001870I0000280J0000000D01*
G01X0002667Y0006078D02*
G03X0002790Y0006050I0000123J0000252D01*
G01X0000199Y0013901D02*
G03X0000170Y0014024I0000280J0000000D01*
G01X-0003134Y0011026D02*
G03X-0003280Y0010780I0000134J0000246D01*
G01X-0002014Y0011070D02*
G03X-0002010Y0011120I0000276J0000050D01*
G01X-0003100Y0011280D02*
G03X-0003150Y0011120I0000230J0000160D01*
G01X-0003650Y0008890D02*
G03X-0003442Y0008619I0000280J0000000D01*
G01X-0004460Y0004430D02*
G03X-0004411Y0004167I0000730J0000000D01*
G01X-0000370Y0004750D02*
G03X-0000392Y0004860I0000280J0000000D01*
G01X-0000280D02*
G03X-0000124Y0004924I0000000J0000220D01*
G01X0000635Y0005684D02*
G03X0000700Y0005840I0000155J0000156D01*
G01X0000063Y0011951D02*
G03X0000199Y0012191I0000144J0000240D01*
G01X-0001312Y0006791D02*
G03X-0001350Y0006650I0000242J0000141D01*
G01X-0004050Y0005640D02*
G03X-0003770Y0005360I0000280J0000000D01*
G03X-0003490Y0005640I0000000J0000280D01*
G01X-0003450Y0005734D02*
G03X-0003395Y0005644I0000210J0000066D01*
G01X-0001390Y0006780D02*
G03X-0001312Y0006791I0000000J0000280D01*
G01X-0000280Y0004860D02*
G03X-0000124Y0004924I0000000J0000220D01*
G01X0003910Y0008570D02*
G03X0003913Y0008530I0000280J0000000D01*
G01X0000980Y0005180D02*
G03X0001044Y0005024I0000220J0000000D01*
G01X-0001860Y0006458D02*
G03X-0001728Y0006222I0000280J0000002D01*
G01X0002480Y0009540D02*
G03X0002307Y0009480I0000000J0000280D01*
G01X0001072Y0010932D02*
G03X0001066Y0010874I0000274J0000058D01*
G01X-0000081Y0013621D02*
G03X0000199Y0013901I0000000J0000280D01*
G01X-0000134Y0013626D02*
G03X-0000081Y0013621I0000053J0000275D01*
Y0013019D02*
G03X0000199Y0013299I0000000J0000280D01*
G03X-0000081Y0013579I0000280J0000000D01*
G01X-0000138Y0013024D02*
G03X-0000081Y0013018I0000057J0000275D01*
G01X0000199Y0012739D02*
G03X-0000081Y0013019I0000280J0000000D01*
G01X-0004113Y0008320D02*
G03X-0003940Y0008260I0000173J0000220D01*
G03X-0003660Y0008540I0000000J0000280D01*
G01X-0005190Y0008550D02*
G03X-0004910Y0008270I0000280J0000000D01*
Y0009290D02*
G03X-0005190Y0009010I0000000J0000280D01*
G01X-0003730Y0011120D02*
G03X-0003450Y0010840I0000280J0000000D01*
G03X-0003170Y0011120I0000000J0000280D01*
G03X-0003220Y0011280I0000280J0000000D01*
G01X-0003680D02*
G03X-0003730Y0011120I0000230J0000160D01*
G01X-0002590D02*
G03X-0002640Y0011280I0000280J0000000D01*
G01X0004960Y0011060D02*
G03X0004680Y0011340I0000280J0000000D01*
G03X0004400Y0011060I0000000J0000280D01*
G01X0004190Y0009330D02*
G03X0003910Y0009050I0000000J0000280D01*
G01X0005180Y0008330D02*
G03X0005460Y0008610I0000000J0000280D01*
Y0009020D02*
G03X0005180Y0009300I0000280J0000000D01*
G01X0002050Y0010445D02*
G03X0002085Y0010474I0000120J0000185D01*
G01X0004770Y0007770D02*
G03X0005050Y0008050I0000000J0000280D01*
G01X0005165Y0007375D02*
G03X0005050Y0007436I0000155J0000155D01*
G01X-0000650Y0004470D02*
G03X-0000370Y0004750I0000000J0000280D01*
G01X0001580Y0005570D02*
G03X0001860Y0005290I0000280J0000000D01*
G03X0002140Y0005570I0000000J0000280D01*
G01X-0002660Y0009541D02*
G03X-0002641Y0009536I0000070J0000209D01*
G01X-0004860Y0006640D02*
G03X-0004580Y0006360I0000280J0000000D01*
G01X-0004540Y0006260D02*
G03X-0004260Y0005980I0000280J0000000D01*
G01X-0003180Y0007720D02*
G03X-0003142Y0007580I0000280J0000000D01*
G01X0001140Y0006950D02*
G03X0001420Y0007230I0000000J0000280D01*
G03X0001140Y0007510I0000280J0000000D01*
G01X-0002890Y0008420D02*
G03X-0003170Y0008140I0000000J0000280D01*
G01X-0002570Y0011120D02*
G03X-0002565Y0011070I0000280J0000000D01*
G01X-0000022Y0012465D02*
G03X0000199Y0012739I0000059J0000274D01*
G01X0000460Y0011265D02*
G03X0000370Y0011280I0000090J0000265D01*
G01X-0003660Y0010150D02*
G03X-0003659Y0010130I0000280J0000000D01*
G01X-0003380Y0010430D02*
G03X-0003660Y0010150I0000000J0000280D01*
G01X-0002260Y0001700D02*
G03X-0001980Y0001420I0000280J0000000D01*
G03X-0001700Y0001700I0000000J0000280D01*
G01X-0001430Y0001740D02*
G03X-0001150Y0001460I0000280J0000000D01*
G03X-0000870Y0001740I0000000J0000280D01*
G01X0000460Y0001390D02*
G03X0000740Y0001110I0000280J0000000D01*
G03X0001020Y0001390I0000000J0000280D01*
G03X0000740Y0001670I0000280J0000000D01*
G03X0000460Y0001390I0000000J0000280D01*
G01X0001030Y0012060D02*
G03X0000750Y0012340I0000280J0000000D01*
G03X0000470Y0012060I0000000J0000280D01*
G01X0001066Y0010874D02*
G03X0001067Y0010850I0000280J0000000D01*
G01X-0002594Y0011070D02*
G03X-0002590Y0011120I0000276J0000050D01*
G01X-0002010D02*
G03X-0002060Y0011280I0000280J0000000D01*
G01X0003072Y0012176D02*
G03X0002950Y0012122I0000048J0000276D01*
G01X-0002520Y0011280D02*
G03X-0002570Y0011120I0000230J0000160D01*
G01X0000470Y0012060D02*
G03X0000479Y0011990I0000280J0000000D01*
G01X0001625Y0010850D02*
G03X0001626Y0010874I0000279J0000024D01*
G01X0001021Y0011990D02*
G03X0001030Y0012060I0000271J0000070D01*
G01X-0004430Y0008270D02*
G03X-0004270Y0008320I0000000J0000280D01*
G01X-0005130Y0008723D02*
G03X-0005190Y0008550I0000220J0000173D01*
G01X0005076Y0008350D02*
G03X0005180Y0008330I0000104J0000260D01*
G01X0002140Y0005570D02*
G03X0002106Y0005704I0000280J0000000D01*
G01X-0000081Y0013579D02*
G03X-0000134Y0013573I0000000J0000280D01*
G01X0000199Y0012191D02*
G03X-0000022Y0012465I0000280J0000000D01*
G01X0001385Y0006706D02*
G03X0001288Y0006649I0000059J0000212D01*
G01X0003120Y0011620D02*
G03X0003396Y0011852I0000000J0000280D01*
G01X-0001668Y0007027D02*
G03X-0001390Y0006780I0000278J0000033D01*
G01X0003047Y0005198D02*
G03X0002800Y0004920I0000033J0000278D01*
G03X0003080Y0004640I0000280J0000000D01*
G01X-0002660Y0009541D02*
G03X-0002641Y0009536I0000070J0000209D01*
G01X-0003170Y0008140D02*
G03X-0003080Y0007934I0000280J0000000D01*
G01X0001273Y0008381D02*
G03X0001293Y0008456I0000214J0000098D01*
G01X-0002350Y0006335D02*
G03X-0002134Y0006233I0000216J0000179D01*
G01X0003137Y0011032D02*
G03X0003080Y0010884I0000163J0000148D01*
G01X0002790Y0006050D02*
G03X0003064Y0006274I0000000J0000280D01*
G01X0003805Y0009374D02*
G03X0003870Y0009530I0000155J0000156D01*
G01X0002796Y0008456D02*
G03X0002951Y0008520I0000000J0000220D01*
G01X0001385Y0006706D02*
G03X0001288Y0006649I0000059J0000212D01*
G01X-0002641Y0009536D02*
G03X-0002660Y0009531I0000041J0000216D01*
G01X0000889Y0007631D02*
G03X0000896Y0007688I0000228J0000057D01*
G01X0002080Y0007040D02*
G03X0002015Y0007195I0000220J0000000D01*
G01X0002138Y0009611D02*
G03X0002165Y0009634I0000128J0000179D01*
G01X0001059Y0007850D02*
G03X0001142Y0007865I0000000J0000235D01*
G01X0001730Y0007450D02*
G03X0001450Y0007170I0000000J0000280D01*
G01X0002710Y0005930D02*
G03X0002667Y0006078I0000280J0000000D01*
G01X0001450Y0007170D02*
G03X0001488Y0007028I0000280J0000000D01*
G01X0003910Y0009050D02*
G03X0003970Y0008877I0000280J0000000D01*
G01X0004250Y0009323D02*
G03X0004190Y0009330I0000060J0000273D01*
G01X-0003859Y0007312D02*
G03X-0004120Y0007490I0000261J0000102D01*
G01X0005320Y0007130D02*
G03X0005255Y0007285I0000220J0000000D01*
G01X0003805Y0009374D02*
G03X0003870Y0009530I0000155J0000156D01*
G01X0001350Y0012690D02*
G03X0001414Y0012534I0000220J0000000D01*
G01X0002635Y0012535D02*
G03X0002480Y0012599I0000155J0000155D01*
G01X0001350Y0012690D02*
G03X0001414Y0012534I0000220J0000000D01*
G01X0002885Y0010354D02*
G03X0002950Y0010510I0000155J0000156D01*
G01X0002138Y0009611D02*
G03X0002165Y0009634I0000128J0000179D01*
G01X-0004580Y0006360D02*
G03X-0004519Y0006367I0000000J0000280D01*
G01X0002008Y0007203D02*
G03X0001730Y0007450I0000278J0000033D01*
G01X0001630Y0007970D02*
G03X0001565Y0008126I0000220J0000000D01*
G01X0001140Y0007510D02*
G03X0001100Y0007507I0000000J0000280D01*
G01X0001450Y0008241D02*
G03X0001294Y0008306I0000156J0000156D01*
G01X0001630Y0007970D02*
G03X0001565Y0008126I0000220J0000000D01*
G01X0001293Y0008305D02*
G03X0001273Y0008381I0000234J0000023D01*
G01X0001130Y0007740D02*
G03X0001410Y0007460I0000280J0000000D01*
G03X0001690Y0007740I0000000J0000280D01*
G01X0001450Y0008241D02*
G03X0001294Y0008306I0000156J0000156D01*
G01X-0001655Y0005225D02*
G03X-0001719Y0005070I0000155J0000155D01*
G01X0003137Y0011032D02*
G03X0003080Y0010884I0000163J0000148D01*
G01X-0003910Y0007620D02*
G03X-0003754Y0007684I0000000J0000220D01*
G01X-0001580Y0006740D02*
G03X-0001854Y0006516I0000000J0000280D01*
G01X0001100Y0006953D02*
G03X0001140Y0006950I0000040J0000277D01*
G01X-0004830Y0011280D02*
G03X-0004880Y0011120I0000230J0000160D01*
G01X-0003910Y0007620D02*
G03X-0003754Y0007684I0000000J0000220D01*
G01X-0003150Y0011120D02*
G03X-0003134Y0011026I0000280J0000000D01*
G01X-0000081Y0013019D02*
G03X-0000138Y0013013I0000000J0000280D01*
G01X0000966Y0010850D02*
G03X0000970Y0010890I0000216J0000040D01*
G01X0001840Y0007710D02*
G03X0002120Y0007430I0000280J0000000D01*
Y0007990D02*
G03X0001840Y0007710I0000000J0000280D01*
G01X0001690Y0007740D02*
G03X0001630Y0007913I0000280J0000000D01*
G01X0002430Y0005650D02*
G03X0002710Y0005930I0000000J0000280D01*
G01X0002293Y0007930D02*
G03X0002120Y0007990I0000173J0000220D01*
G01X-0004034Y0005734D02*
G03X-0004050Y0005640I0000264J0000094D01*
G01X0002140Y0009580D02*
G03X0002138Y0009611I0000280J0000000D01*
G01X0003306Y0004755D02*
G03X0003230Y0004430I0000654J0000325D01*
G01X0002885Y0010354D02*
G03X0002950Y0010510I0000155J0000156D01*
G01X0000810Y0006200D02*
G03X0000980Y0006257I0000000J0000280D01*
G01X0002405Y0010794D02*
G03X0002470Y0010950I0000155J0000156D01*
G01X0002050Y0010445D02*
G03X0002085Y0010474I0000120J0000185D01*
G01X-0002134Y0006234D02*
G03X-0001860Y0006458I0000000J0000280D01*
G01X0000966Y0010850D02*
G03X0000970Y0010890I0000216J0000040D01*
G01X-0001854Y0006516D02*
G03X-0002134Y0006794I0000280J0000002D01*
G01X0004630Y0007807D02*
G03X0004770Y0007770I0000140J0000243D01*
G01X0000635Y0005684D02*
G03X0000700Y0005840I0000155J0000156D01*
G01X0001088Y0006449D02*
G03X0001090Y0006480I0000278J0000031D01*
G01X-0001392Y0001880D02*
G03X-0001430Y0001740I0000242J0000140D01*
G01X-0001077Y0000651D02*
G03X-0001108Y0000662I0000096J0000209D01*
G01X-0000759Y0000581D02*
G03X-0000798Y0000584I0000039J0000227D01*
G01X-0000614Y0000556D02*
G03X-0000645Y0000558I0000031J0000228D01*
G01X-0000466Y0000535D02*
G03X-0000491Y0000536I0000025J0000228D01*
G01X-0000318Y0000519D02*
G03X-0000335Y0000520I0000017J0000229D01*
G01X-0000168Y0000508D02*
G03X-0000178Y0000508I0000010J0000230D01*
G01X-0000017Y0000501D02*
G03X-0000020Y0000501I0000003J0000230D01*
G01X0000197Y0011679D02*
G03X0000199Y0011711I0000278J0000032D01*
G01X-0002509Y0008460D02*
G03X-0002510Y0008440I0000279J0000020D01*
G01X0001128Y0013437D02*
G03X0001295Y0013475I0000000J0000380D01*
G01X-0003660Y0008540D02*
G03X-0003690Y0008666I0000280J0000000D01*
G01X0002950Y0011677D02*
G03X0003120Y0011620I0000170J0000223D01*
G01X0005460Y0008610D02*
G03X0005400Y0008783I0000280J0000000D01*
G01X0005050Y0008050D02*
G03X0004774Y0008330I0000280J0000000D01*
G01X0001614Y0005704D02*
G03X0001580Y0005570I0000246J0000134D01*
G01X-0004120Y0007490D02*
G03X-0004220Y0007471I0000000J0000280D01*
G01X-0002469Y0007038D02*
G03X-0002466Y0007076I0000277J0000038D01*
G01X-0003660Y0009146D02*
G03X-0003910Y0009300I0000250J0000126D01*
G01X-0003690Y0008847D02*
G03X-0003648Y0008920I0000220J0000173D01*
G01X-0004910Y0008270D02*
G03X-0004737Y0008330I0000000J0000280D01*
G01X0001790Y0013329D02*
G03X0002094Y0013178I0000304J0000230D01*
G01X0005180Y0009300D02*
G03X0005110Y0009291I0000000J0000280D01*
G01X0004886Y0010870D02*
G03X0004960Y0011060I0000206J0000190D01*
G01X0000199Y0011711D02*
G03X0000063Y0011951I0000280J0000000D01*
G01X0002405Y0010794D02*
G03X0002470Y0010950I0000155J0000156D01*
G01X-0001350Y0006650D02*
G03X-0001348Y0006617I0000280J0000000D01*
G01X-0004335Y0011029D02*
G03X-0004070Y0010840I0000265J0000091D01*
G01X0000994Y0007520D02*
G03X0000965Y0007555I0000184J0000120D01*
G01X-0002134Y0006794D02*
G03X-0002350Y0006692I0000000J0000280D01*
G01X-0001980Y0011120D02*
G03X-0001975Y0011070I0000280J0000000D01*
G01X-0004600Y0010840D02*
G03X-0004335Y0011029I0000000J0000280D01*
G01X-0003500Y0007580D02*
G03X-0003655Y0007515I0000000J0000220D01*
G01X0002744Y0013087D02*
G03X0003060Y0012919I0000316J0000213D01*
G01X0003441Y0013300D02*
G03X0003410Y0013448I0000381J0000000D01*
G01X0002750Y0009332D02*
G03X0002480Y0009539I0000270J0000072D01*
G01X-0003790Y0011120D02*
G03X-0003840Y0011280I0000280J0000000D01*
G01X-0001930D02*
G03X-0001980Y0011120I0000230J0000160D01*
G01X-0004519Y0006367D02*
G03X-0004540Y0006260I0000259J0000107D01*
G01X-0004385Y0004108D02*
G03X-0003730Y0003700I0000655J0000322D01*
G01X-0000850Y0004554D02*
G03X-0000650Y0004470I0000200J0000196D01*
G01X0000856Y0000558D02*
G03X0000824Y0000556I0000000J0000230D01*
G01X0001009Y0000584D02*
G03X0000970Y0000581I0000000J0000230D01*
G01X0001147Y0000615D02*
G03X0001114Y0000611I0000013J0000229D01*
G01X0001356Y0000670D02*
G03X0001324Y0000664I0000028J0000228D01*
G01X0001762Y0000814D02*
G03X0001731Y0000804I0000054J0000223D01*
G01X0003080Y0004640D02*
G03X0003306Y0004755I0000000J0000280D01*
G01X0005165Y0007375D02*
G03X0005050Y0007436I0000155J0000155D01*
G01X0005505Y0008691D02*
G03X0005505Y0008689I0000230J0000002D01*
G01X0004400Y0011060D02*
G03X0004474Y0010870I0000280J0000000D01*
G01X0003970Y0008743D02*
G03X0003910Y0008570I0000220J0000173D01*
G01X-0000870Y0001740D02*
G03X-0000907Y0001880I0000280J0000000D01*
G01X0002577Y0013049D02*
G03X0002744Y0013087I0000000J0000380D01*
G01X0002265Y0005704D02*
G03X0002430Y0005650I0000165J0000226D01*
G01X0001090Y0006480D02*
G03X0001087Y0006520I0000280J0000000D01*
G01X0000994Y0007520D02*
G03X0000965Y0007555I0000184J0000120D01*
G01X-0003080Y0007934D02*
G03X-0003180Y0007720I0000180J0000214D01*
G01X-0003285Y0010413D02*
G03X-0003380Y0010430I0000095J0000263D01*
G01X0005400Y0008847D02*
G03X0005460Y0009020I0000220J0000173D01*
G01X0001295Y0013475D02*
G03X0001350Y0013411I0000316J0000213D01*
G01X-0004070Y0010840D02*
G03X-0003790Y0011120I0000000J0000280D01*
G01X-0001348Y0006617D02*
G03X-0001580Y0006740I0000232J0000157D01*
G01X0003960Y0003700D02*
G03X0004542Y0003989I0000000J0000730D01*
G01X-0004740Y0006870D02*
G03X-0004860Y0006640I0000160J0000230D01*
G01X-0004260Y0005980D02*
G03X-0004166Y0005996I0000000J0000280D01*
G01X-0002466Y0007076D02*
G03X-0002474Y0007140I0000280J0000000D01*
G01X-0004603Y0008330D02*
G03X-0004430Y0008270I0000173J0000220D01*
G01X0002950Y0012130D02*
G03X0002885Y0012285I0000220J0000000D01*
G01X0001626Y0010874D02*
G03X0001620Y0010932I0000280J0000000D01*
G01X0000799Y0014009D02*
G03X0000747Y0013817I0000329J0000192D01*
G01X-0004800Y0009267D02*
G03X-0004910Y0009290I0000110J0000257D01*
G01X0002796Y0008456D02*
G03X0002951Y0008520I0000000J0000220D01*
G01X-0001487Y0000787D02*
G03X-0001516Y0000802I0000119J0000196D01*
G01X-0003450Y0005734D02*
G03X-0003395Y0005644I0000210J0000066D01*
G01X-0003490Y0005640D02*
G03X-0003506Y0005734I0000280J0000000D01*
G01X0002120Y0007430D02*
G03X0002293Y0007490I0000000J0000280D01*
G01X0000389Y0000508D02*
G03X0000378Y0000508I0000000J0000230D01*
G01X0000546Y0000520D02*
G03X0000528Y0000519I0000000J0000230D01*
G01X0000700Y0006222D02*
G03X0000810Y0006200I0000110J0000258D01*
G01X0000701Y0000537D02*
G03X0000677Y0000535I0000000J0000230D01*
G54D29*
G01X0000268Y0010142D02*
Y0010408D01*
X0000750Y0010890D01*
Y0011280D01*
X0001346Y0011772D02*
X0001162D01*
X0001040Y0011650D01*
Y0011390D01*
X0000930Y0011280D01*
X0000750D01*
X-0004420Y0009020D02*
X-0004430Y0009010D01*
X-0004910D01*
X-0001370Y0010700D02*
X-0001690D01*
X-0002560Y0010360D02*
X-0003010D01*
X-0000519Y0010142D02*
X-0000716D01*
X-0000913D01*
X0001340Y0010360D02*
Y0010070D01*
X0005180Y0009020D02*
X0004680D01*
X-0003910D02*
X-0004420D01*
X0005180D02*
Y0008610D01*
X0004190Y0009050D02*
Y0008570D01*
X0004630D02*
X0004190D01*
X-0004430Y0008550D02*
X-0004910D01*
Y0009010D02*
Y0008550D01*
X0001140Y0007230D02*
X0000810D01*
X-0002746Y0007076D02*
Y0006770D01*
X0003553Y0006750D02*
X0002990D01*
X-0003770Y0006514D02*
X-0004224D01*
X-0004350Y0006640D01*
X-0004580D01*
X-0002230Y0008440D02*
X-0002170Y0008380D01*
Y0008140D01*
X-0003910Y0009020D02*
Y0008570D01*
X-0003940Y0008540D01*
X-0004430Y0008550D02*
X-0004420Y0008540D01*
X-0003940D01*
X0005180Y0008610D02*
X0005140Y0008570D01*
X0004630D01*
X-0004370Y0009570D02*
X-0004420Y0009520D01*
Y0009020D01*
X0004680Y0009600D02*
Y0009020D01*
X-0000913Y0010142D02*
Y0010403D01*
X-0001210Y0010700D01*
X-0001370D01*
X0000071Y0010142D02*
Y0010501D01*
X0000370Y0010800D01*
Y0011000D01*
X0000662Y0010142D02*
X0000669Y0010150D01*
X0000860D01*
X0001070Y0010360D01*
X0001340D01*
X-0002170Y0008140D02*
X-0001870D01*
X-0001730Y0008280D01*
X-0001397D01*
X-0001395Y0008281D01*
X0000810Y0007230D02*
Y0007400D01*
X0000660Y0007550D01*
Y0007798D01*
X0000661Y0007800D01*
X-0002560Y0010360D02*
Y0010240D01*
X-0002310Y0009990D01*
X-0001810D01*
X-0001680Y0009860D01*
X-0001398D01*
X-0001395Y0009857D01*
X0001760Y0010360D02*
Y0010060D01*
X-0003380Y0010150D02*
Y0009840D01*
X-0000252Y0009608D02*
X-0000918D01*
X0000465Y0009625D02*
Y0008995D01*
X-0003370Y0009260D02*
Y0008890D01*
X-0000918Y0009608D02*
Y0008858D01*
X0000947Y0008282D02*
X0000465D01*
X-0000220Y0008967D02*
X0000465Y0008282D01*
Y0008995D02*
Y0008282D01*
X-0000208D01*
X-0000918Y0008858D02*
Y0008282D01*
X-0000208D02*
X-0000918D01*
X-0002590Y0008140D02*
X-0002890D01*
X-0002590Y0007720D02*
X-0002900D01*
X-0004120Y0007210D02*
X-0004590D01*
X-0002134Y0006514D02*
X-0002746D01*
X0000810Y0006810D02*
Y0006480D01*
X0001860Y0006238D02*
Y0005982D01*
Y0005570D01*
X-0001150Y0002310D02*
Y0001740D01*
X-0001980Y0002300D02*
Y0001700D01*
X0001640Y0001390D02*
X0000740D01*
X-0003770Y0006258D03*
X-0003772Y0006260D01*
X-0004260D01*
X0004770Y0008050D02*
X0004570Y0008250D01*
X0004350D01*
X0004340Y0008240D01*
X-0000252Y0009608D02*
Y0008999D01*
X-0000224Y0008971D01*
X-0001110Y0007800D02*
Y0008085D01*
X-0000224Y0008971D01*
X-0004370Y0010410D02*
X-0004360Y0010420D01*
Y0010880D01*
X-0004600Y0011120D01*
X-0002020Y0010780D02*
Y0011030D01*
X-0002110Y0011120D01*
X-0002290D01*
X-0000790Y0011174D02*
X-0001316D01*
X-0001370Y0011120D01*
X0002240Y0011670D02*
X0002040D01*
X0001938Y0011772D01*
X0001740D01*
X0003621Y0012418D02*
Y0012401D01*
X0003120Y0011900D01*
X0004680Y0011060D02*
Y0010440D01*
Y0009600D02*
Y0009050D01*
X0004190D01*
X-0002560Y0010780D02*
X-0003000D01*
X0001346Y0011260D02*
Y0010874D01*
X-0004070Y0011120D02*
X-0004600D01*
X-0003450D02*
X-0004070D01*
X-0002870D02*
X-0003450D01*
X-0002290D02*
X-0002870D01*
X-0001370D02*
X-0001700D01*
X-0000081Y0011174D02*
X-0000790D01*
X-0000081Y0011430D02*
Y0011174D01*
Y0011711D02*
Y0011430D01*
X0002240Y0012030D02*
Y0011670D01*
X0000750Y0012060D02*
Y0011700D01*
X-0000081Y0012191D02*
Y0011711D01*
Y0012739D02*
Y0012191D01*
Y0013299D02*
Y0012739D01*
Y0013901D02*
Y0013299D01*
X-0004430Y0009020D02*
X-0004420D01*
X-0002290Y0011120D02*
X-0001700D01*
X-0003770Y0006770D02*
Y0007090D01*
X-0003500Y0007360D01*
X-0001690D01*
X-0001390Y0007060D01*
X0003080Y0004920D02*
X0003553Y0005393D01*
Y0005982D01*
X-0002950Y0009260D02*
X-0002660D01*
X-0002600Y0009320D01*
X-0002220D01*
X0000947Y0009266D02*
X0000954Y0009260D01*
X0002480D01*
X0002790Y0006330D02*
X0002954Y0006494D01*
X0003553D01*
X0003770Y0010810D02*
Y0010760D01*
X0003650Y0010640D01*
Y0009530D01*
X0002796Y0008676D01*
X0000947D01*
Y0009463D02*
X0001743D01*
X0001860Y0009580D01*
X0001730Y0007170D02*
X0001860Y0007040D01*
Y0006750D01*
X-0002220Y0009320D02*
X-0002210Y0009330D01*
X-0001970D01*
X-0001837Y0009463D01*
X-0001395D01*
X0003473Y0011107D02*
Y0011057D01*
X0003300Y0010884D01*
Y0009570D01*
X0002603Y0008873D01*
X0000947D01*
Y0008676D02*
Y0008479D01*
X0004760Y0007220D02*
X0005010D01*
X0005100Y0007130D01*
Y0006310D01*
X0004980Y0006190D01*
X0004800D01*
X0001611Y0013688D02*
X0001570Y0013647D01*
Y0012690D01*
X0001880Y0012380D01*
X0002480D01*
X0002730Y0012130D01*
Y0010510D01*
X0002010Y0009790D01*
X0001237D01*
X0001170Y0009857D01*
X0000947D01*
X0003553Y0006494D02*
X0004094D01*
X0004210Y0006610D01*
X0004360D01*
X0000947Y0008085D02*
X0001294D01*
X0001410Y0007970D01*
Y0007740D01*
X0000160Y0006010D02*
X-0000480Y0005370D01*
X-0001200D01*
X-0001500Y0005070D01*
Y0004420D01*
X-0001570Y0004350D01*
X-0001980D01*
X-0000790Y0010918D02*
Y0010690D01*
X-0000670Y0010570D01*
X-0000450D01*
X-0000322Y0010442D01*
Y0010142D01*
X0004180Y0011860D02*
Y0011814D01*
X0003473Y0011107D01*
X-0001395Y0008478D02*
X-0001918D01*
X-0002120Y0008680D01*
X-0003070D01*
X-0003910Y0007840D01*
X-0004520D01*
X-0004590Y0007770D01*
X-0002220Y0009753D02*
X-0002223Y0009750D01*
X-0002590D01*
X-0002680Y0009840D01*
X-0002960D01*
X0002660Y0007720D02*
X0002650Y0007710D01*
X0002120D01*
X0002430Y0005930D02*
Y0006330D01*
X0002266Y0006494D01*
X0001860D01*
X0004800Y0006610D02*
X0004360D01*
X0001860Y0006750D02*
X0002400D01*
X0002870Y0007220D01*
X0004340D01*
X0003920Y0007720D02*
X0003220D01*
X-0000791Y0013450D02*
X-0000790Y0013448D01*
Y0011430D01*
X0003553Y0006238D02*
X0004312D01*
X0004360Y0006190D01*
X0002240Y0011250D02*
X0002250Y0011240D01*
Y0010950D01*
X0001930Y0010630D01*
X0000740D01*
X0000465Y0010355D01*
Y0010142D01*
X-0001070Y0006650D02*
X-0001050Y0006630D01*
X-0000740D01*
X-0000323Y0007047D01*
Y0007800D01*
X-0001140Y0003930D02*
Y0003160D01*
X-0001150Y0003150D01*
X0004340Y0007720D02*
Y0007220D01*
X0000465Y0007800D02*
X0000480Y0007785D01*
Y0005840D01*
X-0000280Y0005080D01*
X-0000910D01*
X-0001140Y0004850D01*
Y0004350D01*
X-0002746Y0006258D02*
X-0003102D01*
X-0003240Y0006120D01*
Y0005800D01*
X-0003110Y0005670D01*
X-0000660D01*
X0000268Y0006598D01*
Y0007800D01*
X-0001980Y0003930D02*
Y0003140D01*
X-0001110Y0010142D02*
X-0001602D01*
X-0001820Y0010360D01*
X-0002020D01*
X-0003770Y0006002D02*
Y0005640D01*
X-0001580Y0006460D02*
X-0001350Y0006230D01*
X-0000800D01*
X-0000126Y0006904D01*
Y0007800D01*
X0003920Y0008240D02*
Y0007720D01*
X-0000081Y0010918D02*
X-0000126Y0010874D01*
Y0010142D01*
X-0001395Y0009069D02*
X-0001681D01*
X-0001830Y0008920D01*
Y0008770D01*
X0004800Y0006190D02*
X0004360D01*
X-0001395Y0009660D02*
X-0001900D01*
X-0001993Y0009753D01*
X-0002220D01*
X-0000224Y0008971D02*
X-0000221D01*
X0000465Y0008285D01*
Y0008282D01*
X0001860Y0006494D02*
X0001444D01*
X0001200Y0006250D01*
Y0005180D01*
X0001640Y0004740D01*
Y0004106D01*
X-0002746Y0006002D02*
X-0000688D01*
X0000071Y0006761D01*
Y0007800D01*
X-0002310Y0008910D02*
X-0002300Y0008920D01*
X-0002120D01*
X-0001774Y0009266D01*
X-0001395D01*
X0001740Y0011260D02*
X0001750Y0011250D01*
X0002240D01*
X-0002170Y0007720D02*
X-0001490D01*
X-0001395Y0007814D01*
Y0008084D01*
G54D10*
X-0003730Y0004430D03*
X0003960D03*
G54D11*
X-0001150Y0003150D03*
Y0002310D03*
X-0001980Y0003140D03*
Y0002300D03*
X0004680Y0009600D03*
Y0010440D03*
X-0004370Y0009570D03*
Y0010410D03*
G54D12*
X-0001140Y0003930D03*
Y0004350D03*
X-0001980Y0003930D03*
Y0004350D03*
X0004760Y0007220D03*
X0004340D03*
X0003920Y0008240D03*
X0004340D03*
Y0007720D03*
X0003920D03*
X0004360Y0006190D03*
Y0006610D03*
X-0002020Y0010360D03*
Y0010780D03*
X0004800Y0006610D03*
Y0006190D03*
X0001760Y0010360D03*
X0001340D03*
X-0002560Y0010780D03*
Y0010360D03*
X-0002590Y0008140D03*
X-0002170D03*
X0000810Y0006810D03*
Y0007230D03*
X-0002170Y0007720D03*
X-0002590D03*
X-0002950Y0009260D03*
X-0003370D03*
X-0002960Y0009840D03*
X-0003380D03*
X0002240Y0011670D03*
Y0011250D03*
X0000750Y0011700D03*
Y0011280D03*
X-0001370Y0011120D03*
Y0010700D03*
G54D13*
X0001640Y0001390D03*
Y0004106D03*
G54D14*
X0003220Y0007720D03*
X0002660D03*
G54D15*
X0003060Y0013300D03*
X0002577Y0013429D03*
X0002094Y0013559D03*
X0001611Y0013688D03*
X0001128Y0013817D03*
G54D16*
X-0004590Y0007770D03*
Y0007210D03*
G54D18*
X-0000224Y0008971D03*
G54D19*
X0000947Y0008085D03*
Y0008282D03*
Y0008479D03*
Y0008676D03*
Y0008873D03*
Y0009070D03*
Y0009266D03*
Y0009463D03*
Y0009660D03*
Y0009857D03*
X-0001395D03*
Y0009660D03*
Y0009463D03*
Y0009266D03*
Y0009069D03*
Y0008872D03*
Y0008675D03*
Y0008478D03*
Y0008281D03*
Y0008084D03*
G54D20*
X-0001110Y0007800D03*
X-0000913D03*
X-0000716D03*
X-0000519D03*
X-0000323D03*
X-0000126D03*
X0000071D03*
X0000268D03*
X0000465D03*
X0000661D03*
X0000662Y0010142D03*
X0000465D03*
X0000268D03*
X0000071D03*
X-0000126D03*
X-0000322D03*
X-0000519D03*
X-0000716D03*
X-0000913D03*
X-0001110D03*
G54D21*
X-0000790Y0011430D03*
Y0011174D03*
Y0010918D03*
X-0000081D03*
Y0011174D03*
Y0011430D03*
G54D22*
X-0000791Y0013450D03*
X-0002130D03*
G54D23*
X0001860Y0006750D03*
Y0006494D03*
Y0006238D03*
Y0005982D03*
X0003553D03*
Y0006238D03*
Y0006494D03*
Y0006750D03*
G54D24*
X-0003770Y0006770D03*
X-0002746D03*
X-0003770Y0006514D03*
X-0002746D03*
X-0003770Y0006258D03*
X-0002746D03*
X-0003770Y0006002D03*
X-0002746D03*
G54D25*
X-0002220Y0009320D03*
Y0009753D03*
G54D26*
X0001740Y0011260D03*
Y0011772D03*
X0001346D03*
Y0011260D03*
G54D27*
X-0000081Y0013901D03*
Y0013299D03*
Y0012739D03*
Y0012191D03*
X-0003910Y0009020D03*
X-0003940Y0008540D03*
X-0004430Y0008550D03*
X-0004910D03*
Y0009010D03*
X-0004420Y0009020D03*
X-0004600Y0011120D03*
X-0004070D03*
X-0003450D03*
X-0002870D03*
X0004680Y0011060D03*
X0004190Y0009050D03*
Y0008570D03*
X0004630D03*
X0005180Y0008610D03*
Y0009020D03*
X0004680D03*
X0001760Y0010060D03*
X-0004120Y0007210D03*
X-0000220Y0008967D03*
X0000465Y0009625D03*
Y0008995D03*
X-0000252Y0009608D03*
X-0000918D03*
Y0008858D03*
Y0008282D03*
X-0000208D03*
X0000465D03*
X0004770Y0008050D03*
X-0000650Y0004750D03*
X0002990Y0006750D03*
X0000810Y0006480D03*
X0001860Y0005570D03*
X-0002134Y0006514D03*
X-0004580Y0006640D03*
X-0004260Y0006260D03*
X-0002746Y0007076D03*
X0001140Y0007230D03*
X-0002900Y0007720D03*
X-0002890Y0008140D03*
X-0002230Y0008440D03*
X-0000081Y0011711D03*
X-0003010Y0010360D03*
X-0003000Y0010780D03*
X-0003380Y0010150D03*
X-0003370Y0008890D03*
X-0001980Y0001700D03*
X-0001150Y0001740D03*
X0000740Y0001390D03*
X0003120Y0011900D03*
X0000750Y0012060D03*
X0002240Y0012030D03*
X0001346Y0010874D03*
X-0002290Y0011120D03*
X-0001700D03*
X-0001690Y0010700D03*
X0001340Y0010070D03*
X0000370Y0011000D03*
G54D30*
X-0001390Y0007060D03*
X0003080Y0004920D03*
X0002480Y0009260D03*
X0002790Y0006330D03*
X0001860Y0009580D03*
X0001730Y0007170D03*
X0001410Y0007740D03*
X0000160Y0006010D03*
X0002120Y0007710D03*
X0002430Y0005930D03*
X-0001070Y0006650D03*
X-0003770Y0005640D03*
X-0001580Y0006460D03*
X-0001830Y0008770D03*
X-0002310Y0008910D03*
M02*
