*
G04 Mass Parameters ***
*
G04 Image ***
*
%INC:\DOCUMENTS AND SETTINGS\NAZGUL\MY DOCUMENTS\DROPBOX\BOARD DESIGN\GERBER FILES\BLE SPO2\BLE SPO2.DRD*%
%ICAS*%
%MOIN*%
%IPPOS*%
%ASAXBY*%
G74*%FSLAN2X34Y34*%
*
G04 Aperture Definitions ***
*
%AMTHERMAL36*
1,1,0.0679,0,0,*
1,0,0.0520,0,0,*
21,0,0.0680,0.0100,0,0,30.0*
21,0,0.0680,0.0100,0,0,120.0*%
%AMTHERMAL39*
1,1,0.0499,0,0,*
1,0,0.0340,0,0,*
21,0,0.0500,0.0100,0,0,45.0*
21,0,0.0500,0.0100,0,0,135.0*%
%ADD10C,0.1100*%
%ADD11R,0.0500X0.0500*%
%ADD12R,0.0220X0.0220*%
%ADD13R,0.0709X0.0590*%
%ADD14R,0.0320X0.0380*%
%ADD15C,0.0401*%
%ADD16R,0.0380X0.0320*%
%ADD17C,0.0020*%
%ADD18R,0.1575X0.1575*%
%ADD19O,0.0335X0.0110*%
%ADD20O,0.0110X0.0335*%
%ADD21R,0.0394X0.0138*%
%ADD22R,0.0315X0.0630*%
%ADD23R,0.0590X0.0197*%
%ADD24R,0.0433X0.0177*%
%ADD25R,0.0394X0.0197*%
%ADD26R,0.0256X0.0295*%
%ADD27C,0.0200*%
%ADD28C,0.0100*%
%ADD29C,0.0080*%
%ADD30C,0.0200*%
%ADD31C,0.1000*%
%ADD32R,0.0394X0.0276*%
%ADD33C,0.0010*%
%ADD34C,0.0200*%
%ADD35C,0.1400*%
%ADD36THERMAL36*%
%ADD37C,0.0450*%
%ADD38C,0.0250*%
%ADD39THERMAL39*%
%ADD40C,0.0250*%
%ADD41C,0.0200*%
%ADD42C,0.0250*%
%ADD43C,0.0450*%
%ADD44C,0.1050*%
%ADD45R,0.0549X0.0549*%
%ADD46R,0.0270X0.0270*%
%ADD47R,0.0758X0.0640*%
%ADD48R,0.0370X0.0430*%
%ADD49C,0.0450*%
%ADD50R,0.0430X0.0370*%
%ADD51R,0.1624X0.1624*%
%ADD52O,0.0384X0.0159*%
%ADD53O,0.0159X0.0384*%
%ADD54R,0.0443X0.0187*%
%ADD55R,0.0364X0.0679*%
%ADD56R,0.0640X0.0246*%
%ADD57R,0.0482X0.0226*%
%ADD58R,0.0443X0.0246*%
%ADD59R,0.0305X0.0344*%
%ADD60R,0.0443X0.0325*%
%ADD61C,0.0060*%
%ADD62C,0.0050*%
%ADD63C,0.0070*%
*
G04 Plot Data ***
*
G54D28*
G01X0008708Y-0019030D02*
X0008042D01*
X0008375Y-0018363D01*
X0008542D01*
Y-0019363D01*
X0007675Y-0018863D02*
X0007758Y-0018697D01*
Y-0018530D01*
X0007675Y-0018363D01*
X0007175D01*
X0007092Y-0018530D01*
Y-0018697D01*
X0007175Y-0018863D01*
X0007675D01*
X0007758Y-0019030D01*
Y-0019197D01*
X0007675Y-0019363D01*
X0007175D01*
X0007092Y-0019197D01*
Y-0019030D01*
X0007175Y-0018863D01*
X-0003687Y-0019363D02*
X-0004271D01*
Y-0018363D01*
X-0004554Y-0019030D02*
X-0005221D01*
X-0004554Y-0019363D02*
Y-0018863D01*
X-0004804Y-0018363D01*
X-0004971D01*
X-0005221Y-0018863D01*
Y-0019363D01*
X-0005837D02*
Y-0018363D01*
X-0005504D02*
X-0006171D01*
X-0007037Y-0019363D02*
X-0007121Y-0019197D01*
Y-0018530D01*
X-0007037Y-0018363D01*
X-0006537D01*
X-0006454Y-0018530D01*
Y-0019197D01*
X-0006537Y-0019363D01*
X-0007037D01*
X-0007737D02*
Y-0018363D01*
X-0007404D02*
X-0008071D01*
X0008708Y-0017502D02*
X0008264D01*
X0008708Y-0017058D01*
Y-0016947D01*
X0008653Y-0016836D01*
X0008319D01*
X0008264Y-0016947D01*
X-0005186Y-0017502D02*
X-0005297Y-0017391D01*
X-0005353Y-0017280D01*
Y-0017058D01*
X-0005297Y-0016947D01*
X-0005186Y-0016836D01*
X-0005075D01*
X-0004964Y-0016947D01*
X-0004908Y-0017058D01*
Y-0017280D01*
X-0004964Y-0017391D01*
X-0005075Y-0017502D01*
X-0005186D01*
X-0005608D02*
X-0005830D01*
X-0005719D02*
Y-0016836D01*
X-0005830Y-0016947D01*
X-0006197Y-0017502D02*
X-0006419D01*
X-0006308D02*
Y-0016836D01*
X-0006419Y-0016947D01*
X-0006897Y-0017502D02*
X-0006786D01*
Y-0017391D01*
X-0006897D01*
Y-0017502D01*
X-0007541D02*
X-0007653Y-0017391D01*
X-0007708Y-0017280D01*
Y-0017058D01*
X-0007653Y-0016947D01*
X-0007541Y-0016836D01*
X-0007430D01*
X-0007319Y-0016947D01*
X-0007264Y-0017058D01*
Y-0017280D01*
X-0007319Y-0017391D01*
X-0007430Y-0017502D01*
X-0007541D01*
X0008264Y-0015891D02*
X0008319Y-0016002D01*
X0008653D01*
X0008708Y-0015891D01*
Y-0015669D01*
X0008597Y-0015558D01*
X0008264D01*
Y-0015336D01*
X0008708D01*
X-0004964Y-0015669D02*
X-0004908Y-0015558D01*
Y-0015447D01*
X-0004964Y-0015336D01*
X-0005297D01*
X-0005353Y-0015447D01*
Y-0015558D01*
X-0005297Y-0015669D01*
X-0004964D01*
X-0004908Y-0015780D01*
Y-0015891D01*
X-0004964Y-0016002D01*
X-0005297D01*
X-0005353Y-0015891D01*
Y-0015780D01*
X-0005297Y-0015669D01*
X-0005608Y-0016002D02*
X-0006053D01*
X-0005608Y-0015558D01*
Y-0015447D01*
X-0005664Y-0015336D01*
X-0005997D01*
X-0006053Y-0015447D01*
X-0006586Y-0016002D02*
X-0006697Y-0015891D01*
X-0006753Y-0015780D01*
Y-0015558D01*
X-0006697Y-0015447D01*
X-0006586Y-0015336D01*
X-0006475D01*
X-0006364Y-0015447D01*
X-0006308Y-0015558D01*
Y-0015780D01*
X-0006364Y-0015891D01*
X-0006475Y-0016002D01*
X-0006586D01*
X-0007119D02*
X-0007008D01*
Y-0015891D01*
X-0007119D01*
Y-0016002D01*
X-0007764D02*
X-0007875Y-0015891D01*
X-0007930Y-0015780D01*
Y-0015558D01*
X-0007875Y-0015447D01*
X-0007764Y-0015336D01*
X-0007653D01*
X-0007542Y-0015447D01*
X-0007486Y-0015558D01*
Y-0015780D01*
X-0007542Y-0015891D01*
X-0007653Y-0016002D01*
X-0007764D01*
X0008375Y-0014502D02*
X0008708Y-0013836D01*
X0008264D01*
X0007675Y-0014502D02*
X0008008Y-0013836D01*
X0007564D01*
X-0005186Y-0014502D02*
X-0005297Y-0014391D01*
X-0005353Y-0014280D01*
Y-0014058D01*
X-0005297Y-0013947D01*
X-0005186Y-0013836D01*
X-0005075D01*
X-0004964Y-0013947D01*
X-0004908Y-0014058D01*
Y-0014280D01*
X-0004964Y-0014391D01*
X-0005075Y-0014502D01*
X-0005186D01*
X-0005608D02*
X-0005830D01*
X-0005719D02*
Y-0013836D01*
X-0005830Y-0013947D01*
X-0006475Y-0014502D02*
X-0006586Y-0014391D01*
X-0006642Y-0014280D01*
Y-0014058D01*
X-0006586Y-0013947D01*
X-0006475Y-0013836D01*
X-0006364D01*
X-0006253Y-0013947D01*
X-0006197Y-0014058D01*
Y-0014280D01*
X-0006253Y-0014391D01*
X-0006364Y-0014502D01*
X-0006475D01*
X-0007008D02*
X-0006897D01*
Y-0014391D01*
X-0007008D01*
Y-0014502D01*
X-0007653D02*
X-0007764Y-0014391D01*
X-0007819Y-0014280D01*
Y-0014058D01*
X-0007764Y-0013947D01*
X-0007653Y-0013836D01*
X-0007541D01*
X-0007430Y-0013947D01*
X-0007375Y-0014058D01*
Y-0014280D01*
X-0007430Y-0014391D01*
X-0007541Y-0014502D01*
X-0007653D01*
X0017112Y-0012363D02*
X0016612D01*
X0017279Y-0012863D02*
X0016612D01*
Y-0011863D01*
X0017279D01*
X0015996Y-0012863D02*
Y-0011863D01*
X0016329D02*
X0015662D01*
X0014796Y-0012863D02*
X0014712Y-0012697D01*
Y-0012030D01*
X0014796Y-0011863D01*
X0015296D01*
X0015379Y-0012030D01*
Y-0012697D01*
X0015296Y-0012863D01*
X0014796D01*
X0014429Y-0011863D02*
Y-0012863D01*
X0014262Y-0012697D01*
X0013929Y-0012030D01*
X0013762Y-0011863D01*
Y-0012863D01*
X0007925D02*
Y-0012363D01*
X0008258Y-0011863D02*
X0008008Y-0012363D01*
X0007842D01*
X0007592Y-0011863D01*
X0006975Y-0012863D02*
Y-0011863D01*
X0007308D02*
X0006642D01*
X0006025Y-0012530D02*
X0006358Y-0012863D01*
X0005692Y-0012697D02*
X0005775Y-0012863D01*
X0006108D01*
X0006192Y-0012697D01*
X0006358Y-0012530D01*
Y-0012030D01*
X0006275Y-0011863D01*
X0005775D01*
X0005692Y-0012030D01*
Y-0012697D01*
X0001408Y-0012863D02*
X0000825D01*
Y-0011863D01*
X-0000042Y-0012863D02*
X-0000125Y-0012697D01*
Y-0012030D01*
X-0000042Y-0011863D01*
X0000458D01*
X0000542Y-0012030D01*
Y-0012697D01*
X0000458Y-0012863D01*
X-0000042D01*
X-0000742D02*
Y-0011863D01*
X-0000408D02*
X-0001075D01*
X-0006412Y-0012863D02*
Y-0011863D01*
X-0006579Y-0012030D01*
X-0006746Y-0012363D01*
X-0006912Y-0012030D01*
X-0007079Y-0011863D01*
Y-0012863D01*
X-0007362Y-0012530D02*
X-0008029D01*
X-0007362Y-0012863D02*
Y-0012363D01*
X-0007612Y-0011863D01*
X-0007779D01*
X-0008029Y-0012363D01*
Y-0012863D01*
X-0008312D02*
X-0008646D01*
X-0008479D02*
Y-0011863D01*
X-0008312D02*
X-0008646D01*
X-0009679Y-0012863D02*
Y-0011863D01*
X-0009762Y-0012863D02*
X-0009262D01*
X-0009096Y-0012530D01*
Y-0012197D01*
X-0009262Y-0011863D01*
X-0009762D01*
X-0012850Y-0012863D02*
Y-0011863D01*
X-0013017Y-0012030D01*
X-0013183Y-0012363D01*
X-0013350Y-0012030D01*
X-0013517Y-0011863D01*
Y-0012863D01*
X-0014133D02*
Y-0012363D01*
X-0013800Y-0011863D02*
X-0014050Y-0012363D01*
X-0014217D01*
X-0014467Y-0011863D01*
X-0014750Y-0012030D02*
X-0014833Y-0011863D01*
X-0015333D01*
X-0015417Y-0012030D01*
Y-0012197D01*
X-0015333Y-0012363D01*
X-0014833D01*
X-0014750Y-0012530D01*
Y-0012697D01*
X-0014833Y-0012863D01*
X-0015333D01*
X-0015417Y-0012697D01*
X0007437Y-0010863D02*
Y-0009863D01*
X0007771D02*
X0007104D01*
X0006571Y-0010363D02*
X0006821Y-0010863D01*
X0006154Y-0010363D02*
X0006654D01*
X0006821Y-0010197D01*
Y-0010030D01*
X0006654Y-0009863D01*
X0006154D01*
Y-0010863D01*
X0005871Y-0010530D02*
X0005204D01*
X0005871Y-0010863D02*
Y-0010363D01*
X0005621Y-0009863D01*
X0005454D01*
X0005204Y-0010363D01*
Y-0010863D01*
X0004921Y-0010363D02*
X0004254D01*
X0004921Y-0010863D02*
Y-0009863D01*
X0004254Y-0010863D02*
Y-0009863D01*
X0003971Y-0010697D02*
X0003887Y-0010863D01*
X0003387D01*
X0003304Y-0010697D01*
Y-0010030D01*
X0003387Y-0009863D01*
X0003887D01*
X0003971Y-0010030D01*
X0001696Y-0010863D02*
X0001112D01*
Y-0009863D01*
X0000829Y-0010863D02*
X0000246D01*
Y-0009863D01*
X-0000037Y-0010863D02*
X-0000371D01*
X-0000204D02*
Y-0009863D01*
X-0000037D02*
X-0000371D01*
X-0001071Y-0010363D02*
X-0000821Y-0010863D01*
X-0001487Y-0010363D02*
X-0000987D01*
X-0000821Y-0010197D01*
Y-0010030D01*
X-0000987Y-0009863D01*
X-0001487D01*
Y-0010863D01*
X-0002354D02*
Y-0009863D01*
X-0002437Y-0010863D02*
X-0001937D01*
X-0001771Y-0010530D01*
Y-0010197D01*
X-0001937Y-0009863D01*
X-0002437D01*
X-0001140Y0007060D02*
X-0001640D01*
X-0001390Y0007310D02*
Y0006810D01*
X0003330Y0004920D02*
X0002830D01*
X0003080Y0005170D02*
Y0004670D01*
X0002730Y0009260D02*
X0002230D01*
X0002480Y0009510D02*
Y0009010D01*
X0003040Y0006330D02*
X0002540D01*
X0002790Y0006580D02*
Y0006080D01*
X0002110Y0009580D02*
X0001610D01*
X0001860Y0009830D02*
Y0009330D01*
X0001980Y0007170D02*
X0001480D01*
X0001730Y0007420D02*
Y0006920D01*
X0001660Y0007740D02*
X0001160D01*
X0001410Y0007990D02*
Y0007490D01*
X0000410Y0006010D02*
X-0000090D01*
X0000160Y0006260D02*
Y0005760D01*
X0002370Y0007710D02*
X0001870D01*
X0002120Y0007960D02*
Y0007460D01*
X0002680Y0005930D02*
X0002180D01*
X0002430Y0006180D02*
Y0005680D01*
X-0000820Y0006650D02*
X-0001320D01*
X-0001070Y0006900D02*
Y0006400D01*
X-0003520Y0005640D02*
X-0004020D01*
X-0003770Y0005890D02*
Y0005390D01*
X-0001330Y0006460D02*
X-0001830D01*
X-0001580Y0006710D02*
Y0006210D01*
Y0008770D02*
X-0002080D01*
X-0001830Y0009020D02*
Y0008520D01*
X-0002060Y0008910D02*
X-0002560D01*
X-0002310Y0009160D02*
Y0008660D01*
X-0014175Y-0017030D02*
X-0014425Y-0017280D01*
X-0013925D02*
X-0014175Y-0017030D01*
Y-0017530D02*
X-0013925Y-0017280D01*
X-0014425D02*
X-0014175Y-0017530D01*
X-0013925Y-0015530D02*
X-0014425Y-0016030D01*
X-0013925D02*
X-0014425Y-0015530D01*
X-0013925Y-0014280D02*
X-0014425D01*
X-0014175Y-0014030D02*
Y-0014530D01*
X0021300Y-0020080D02*
X-0016050D01*
X0021250Y-0020030D02*
X-0016000D01*
X0021250Y-0018030D02*
X-0016000D01*
X0021250Y-0016530D02*
X-0016000D01*
X0021250Y-0015030D02*
X-0016000D01*
X0021250Y-0013530D02*
X-0016000D01*
X0021250Y-0013480D02*
X-0016000D01*
X0021250Y-0011530D02*
X-0016000D01*
X0021250Y-0011480D02*
X-0016000D01*
X0021250Y-0009530D02*
X-0016000D01*
X0021300Y-0009480D02*
X-0016050D01*
X0021300Y-0020030D02*
Y-0009530D01*
X0021250Y-0020030D02*
Y-0009530D01*
X0009708Y-0020030D02*
Y-0011530D01*
X0004158Y-0020030D02*
Y-0011530D01*
X-0003908Y-0018030D02*
Y-0011530D01*
X-0012300Y-0018030D02*
Y-0011530D01*
X-0012350Y-0018030D02*
Y-0011530D01*
X-0016050Y-0020030D02*
Y-0009530D01*
X-0016000Y-0020030D02*
Y-0009530D01*
X0000138Y0000269D02*
X0000072D01*
X0000231Y0000271D01*
X0000389Y0000278D01*
X0000546Y0000290D01*
X0000701Y0000307D01*
X0000856Y0000328D01*
X0001009Y0000354D01*
X0001160Y0000386D01*
X0001235Y0000403D01*
X0001310Y0000422D01*
X0001384Y0000442D01*
X0001457Y0000464D01*
X0001530Y0000486D01*
X0001603Y0000510D01*
X0001675Y0000536D01*
X0001746Y0000563D01*
X0001816Y0000591D01*
X0001886Y0000620D01*
X0001955Y0000651D01*
X0002024Y0000683D01*
X0002092Y0000717D01*
X0002159Y0000752D01*
X0002225Y0000788D01*
X0002291Y0000826D01*
X0002355Y0000866D01*
X0002419Y0000906D01*
X0002482Y0000948D01*
X0002544Y0000992D01*
X0002606Y0001037D01*
X0002666Y0001083D01*
X0002726Y0001130D01*
X0002785Y0001179D01*
X0002900Y0001279D01*
X0003012Y0001384D01*
X0003121Y0001492D01*
X0003227Y0001603D01*
X0003330Y0001717D01*
X0003430Y0001833D01*
X0003527Y0001951D01*
X0003622Y0002070D01*
X0003713Y0002191D01*
X0003888Y0002432D01*
X0004052Y0002673D01*
X0004207Y0002909D01*
X0004352Y0003143D01*
X0004488Y0003378D01*
X0004616Y0003617D01*
X0004677Y0003739D01*
X0004737Y0003862D01*
X0004794Y0003988D01*
X0004850Y0004117D01*
X0004905Y0004248D01*
X0004958Y0004383D01*
X0005060Y0004665D01*
X0005158Y0004964D01*
X0005250Y0005279D01*
X0005335Y0005611D01*
X0005415Y0005956D01*
X0005487Y0006316D01*
X0005552Y0006687D01*
X0005608Y0007070D01*
X0005656Y0007464D01*
X0005694Y0007866D01*
X0005721Y0008275D01*
X0005735Y0008689D01*
X0005736Y0008898D01*
X0005734Y0009107D01*
X0005727Y0009316D01*
X0005715Y0009525D01*
X0005699Y0009734D01*
X0005678Y0009943D01*
X0005651Y0010150D01*
X0005619Y0010357D01*
X0005582Y0010563D01*
X0005538Y0010767D01*
X0005488Y0010969D01*
X0005432Y0011169D01*
X0005401Y0011268D01*
X0005369Y0011366D01*
X0005335Y0011464D01*
X0005299Y0011560D01*
X0005261Y0011656D01*
X0005222Y0011751D01*
X0005181Y0011844D01*
X0005138Y0011937D01*
X0005093Y0012028D01*
X0005046Y0012118D01*
X0004998Y0012207D01*
X0004947Y0012295D01*
X0004895Y0012381D01*
X0004840Y0012465D01*
X0004783Y0012549D01*
X0004725Y0012630D01*
X0004664Y0012710D01*
X0004601Y0012788D01*
X0004536Y0012864D01*
X0004469Y0012939D01*
X0004400Y0013011D01*
X0004328Y0013082D01*
X0004254Y0013151D01*
X0004178Y0013217D01*
X0004100Y0013281D01*
X0004019Y0013344D01*
X0003936Y0013403D01*
X0003851Y0013461D01*
X0003763Y0013516D01*
X0003673Y0013569D01*
X0003581Y0013620D01*
X0003486Y0013668D01*
X0003389Y0013714D01*
X0003290Y0013758D01*
X0003189Y0013799D01*
X0003086Y0013839D01*
X0002981Y0013876D01*
X0002873Y0013912D01*
X0002764Y0013945D01*
X0002653Y0013977D01*
X0002540Y0014006D01*
X0002426Y0014034D01*
X0002309Y0014060D01*
X0002191Y0014084D01*
X0001950Y0014127D01*
X0001702Y0014163D01*
X0001449Y0014193D01*
X0001190Y0014216D01*
X0000925Y0014234D01*
X0000656Y0014246D01*
X0000383Y0014254D01*
X-0000172D01*
X-0000446Y0014246D01*
X-0000715Y0014234D01*
X-0000979Y0014216D01*
X-0001238Y0014193D01*
X-0001491Y0014163D01*
X-0001739Y0014127D01*
X-0001980Y0014084D01*
X-0002098Y0014060D01*
X-0002215Y0014034D01*
X-0002330Y0014006D01*
X-0002442Y0013977D01*
X-0002554Y0013945D01*
X-0002663Y0013912D01*
X-0002770Y0013876D01*
X-0002875Y0013839D01*
X-0002978Y0013799D01*
X-0003080Y0013758D01*
X-0003179Y0013714D01*
X-0003275Y0013668D01*
X-0003370Y0013620D01*
X-0003463Y0013569D01*
X-0003553Y0013516D01*
X-0003640Y0013461D01*
X-0003726Y0013403D01*
X-0003809Y0013344D01*
X-0003889Y0013281D01*
X-0003968Y0013217D01*
X-0004044Y0013151D01*
X-0004117Y0013082D01*
X-0004189Y0013011D01*
X-0004258Y0012939D01*
X-0004325Y0012864D01*
X-0004390Y0012788D01*
X-0004453Y0012710D01*
X-0004514Y0012630D01*
X-0004573Y0012549D01*
X-0004629Y0012465D01*
X-0004684Y0012381D01*
X-0004736Y0012295D01*
X-0004787Y0012207D01*
X-0004836Y0012118D01*
X-0004882Y0012028D01*
X-0004927Y0011937D01*
X-0004970Y0011844D01*
X-0005011Y0011751D01*
X-0005051Y0011656D01*
X-0005088Y0011560D01*
X-0005124Y0011464D01*
X-0005158Y0011366D01*
X-0005190Y0011268D01*
X-0005221Y0011169D01*
X-0005277Y0010969D01*
X-0005327Y0010767D01*
X-0005371Y0010563D01*
X-0005408Y0010357D01*
X-0005440Y0010150D01*
X-0005467Y0009943D01*
X-0005488Y0009734D01*
X-0005504Y0009525D01*
X-0005516Y0009316D01*
X-0005523Y0009107D01*
X-0005526Y0008898D01*
X-0005524Y0008689D01*
X-0005510Y0008275D01*
X-0005484Y0007866D01*
X-0005445Y0007464D01*
X-0005398Y0007070D01*
X-0005341Y0006687D01*
X-0005276Y0006316D01*
X-0005204Y0005956D01*
X-0005125Y0005611D01*
X-0005039Y0005279D01*
X-0004947Y0004964D01*
X-0004850Y0004665D01*
X-0004747Y0004383D01*
X-0004694Y0004248D01*
X-0004640Y0004117D01*
X-0004584Y0003988D01*
X-0004526Y0003862D01*
X-0004466Y0003739D01*
X-0004405Y0003617D01*
X-0004277Y0003378D01*
X-0004141Y0003143D01*
X-0003996Y0002909D01*
X-0003841Y0002673D01*
X-0003677Y0002432D01*
X-0003502Y0002191D01*
X-0003411Y0002070D01*
X-0003317Y0001951D01*
X-0003220Y0001833D01*
X-0003120Y0001717D01*
X-0003017Y0001603D01*
X-0002911Y0001492D01*
X-0002802Y0001384D01*
X-0002689Y0001279D01*
X-0002574Y0001179D01*
X-0002515Y0001130D01*
X-0002456Y0001083D01*
X-0002395Y0001037D01*
X-0002334Y0000992D01*
X-0002271Y0000948D01*
X-0002208Y0000906D01*
X-0002145Y0000866D01*
X-0002080Y0000826D01*
X-0002014Y0000788D01*
X-0001948Y0000752D01*
X-0001881Y0000717D01*
X-0001813Y0000683D01*
X-0001745Y0000651D01*
X-0001675Y0000620D01*
X-0001605Y0000591D01*
X-0001535Y0000563D01*
X-0001464Y0000536D01*
X-0001392Y0000510D01*
X-0001320Y0000486D01*
X-0001247Y0000464D01*
X-0001173Y0000442D01*
X-0001099Y0000422D01*
X-0001025Y0000403D01*
X-0000950Y0000386D01*
X-0000798Y0000354D01*
X-0000645Y0000328D01*
X-0000491Y0000307D01*
X-0000335Y0000290D01*
X-0000178Y0000278D01*
X-0000020Y0000271D01*
X0000138Y0000269D01*
X0000169Y0013901D02*
X-0000331D01*
X-0000081Y0014151D02*
Y0013651D01*
X0000169Y0013299D02*
X-0000331D01*
X-0000081Y0013549D02*
Y0013049D01*
X0000169Y0012739D02*
X-0000331D01*
X-0000081Y0012989D02*
Y0012489D01*
X0000169Y0012191D02*
X-0000331D01*
X-0000081Y0012441D02*
Y0011941D01*
X-0003660Y0009020D02*
X-0004160D01*
X-0003910Y0009270D02*
Y0008770D01*
X-0003690Y0008540D02*
X-0004190D01*
X-0003940Y0008790D02*
Y0008290D01*
X-0004180Y0008550D02*
X-0004680D01*
X-0004430Y0008800D02*
Y0008300D01*
X-0004660Y0008550D02*
X-0005160D01*
X-0004910Y0008800D02*
Y0008300D01*
X-0004660Y0009010D02*
X-0005160D01*
X-0004910Y0009260D02*
Y0008760D01*
X-0004170Y0009020D02*
X-0004670D01*
X-0004420Y0009270D02*
Y0008770D01*
X-0004350Y0011120D02*
X-0004850D01*
X-0004600Y0011370D02*
Y0010870D01*
X-0003820Y0011120D02*
X-0004320D01*
X-0004070Y0011370D02*
Y0010870D01*
X-0003200Y0011120D02*
X-0003700D01*
X-0003450Y0011370D02*
Y0010870D01*
X-0002620Y0011120D02*
X-0003120D01*
X-0002870Y0011370D02*
Y0010870D01*
X0004930Y0011060D02*
X0004430D01*
X0004680Y0011310D02*
Y0010810D01*
X0004440Y0009050D02*
X0003940D01*
X0004190Y0009300D02*
Y0008800D01*
X0004440Y0008570D02*
X0003940D01*
X0004190Y0008820D02*
Y0008320D01*
X0004880Y0008570D02*
X0004380D01*
X0004630Y0008820D02*
Y0008320D01*
X0005430Y0008610D02*
X0004930D01*
X0005180Y0008860D02*
Y0008360D01*
X0005430Y0009020D02*
X0004930D01*
X0005180Y0009270D02*
Y0008770D01*
X0004930Y0009020D02*
X0004430D01*
X0004680Y0009270D02*
Y0008770D01*
X0002010Y0010060D02*
X0001510D01*
X0001760Y0010310D02*
Y0009810D01*
X-0003870Y0007210D02*
X-0004370D01*
X-0004120Y0007460D02*
Y0006960D01*
X0000030Y0008967D02*
X-0000470D01*
X-0000220Y0009217D02*
Y0008717D01*
X0000715Y0009625D02*
X0000215D01*
X0000465Y0009875D02*
Y0009375D01*
X0000715Y0008995D02*
X0000215D01*
X0000465Y0009245D02*
Y0008745D01*
X-0000002Y0009608D02*
X-0000502D01*
X-0000252Y0009858D02*
Y0009358D01*
X-0000668Y0009608D02*
X-0001168D01*
X-0000918Y0009858D02*
Y0009358D01*
X-0000668Y0008858D02*
X-0001168D01*
X-0000918Y0009108D02*
Y0008608D01*
X-0000668Y0008282D02*
X-0001168D01*
X-0000918Y0008532D02*
Y0008032D01*
X0000042Y0008282D02*
X-0000458D01*
X-0000208Y0008532D02*
Y0008032D01*
X0000715Y0008282D02*
X0000215D01*
X0000465Y0008532D02*
Y0008032D01*
X0005020Y0008050D02*
X0004520D01*
X0004770Y0008300D02*
Y0007800D01*
X-0000400Y0004750D02*
X-0000900D01*
X-0000650Y0005000D02*
Y0004500D01*
X0003240Y0006750D02*
X0002740D01*
X0002990Y0007000D02*
Y0006500D01*
X0001060Y0006480D02*
X0000560D01*
X0000810Y0006730D02*
Y0006230D01*
X0002110Y0005570D02*
X0001610D01*
X0001860Y0005820D02*
Y0005320D01*
X-0001884Y0006514D02*
X-0002384D01*
X-0002134Y0006764D02*
Y0006264D01*
X-0004330Y0006640D02*
X-0004830D01*
X-0004580Y0006890D02*
Y0006390D01*
X-0004010Y0006260D02*
X-0004510D01*
X-0004260Y0006510D02*
Y0006010D01*
X-0002496Y0007076D02*
X-0002996D01*
X-0002746Y0007326D02*
Y0006826D01*
X0001390Y0007230D02*
X0000890D01*
X0001140Y0007480D02*
Y0006980D01*
X-0002650Y0007720D02*
X-0003150D01*
X-0002900Y0007970D02*
Y0007470D01*
X-0002640Y0008140D02*
X-0003140D01*
X-0002890Y0008390D02*
Y0007890D01*
X-0001980Y0008440D02*
X-0002480D01*
X-0002230Y0008690D02*
Y0008190D01*
X0000169Y0011711D02*
X-0000331D01*
X-0000081Y0011961D02*
Y0011461D01*
X-0002760Y0010360D02*
X-0003260D01*
X-0003010Y0010610D02*
Y0010110D01*
X-0002750Y0010780D02*
X-0003250D01*
X-0003000Y0011030D02*
Y0010530D01*
X-0003130Y0010150D02*
X-0003630D01*
X-0003380Y0010400D02*
Y0009900D01*
X-0003120Y0008890D02*
X-0003620D01*
X-0003370Y0009140D02*
Y0008640D01*
X-0001730Y0001700D02*
X-0002230D01*
X-0001980Y0001950D02*
Y0001450D01*
X-0000900Y0001740D02*
X-0001400D01*
X-0001150Y0001990D02*
Y0001490D01*
X0000990Y0001390D02*
X0000490D01*
X0000740Y0001640D02*
Y0001140D01*
X0003370Y0011900D02*
X0002870D01*
X0003120Y0012150D02*
Y0011650D01*
X0001000Y0012060D02*
X0000500D01*
X0000750Y0012310D02*
Y0011810D01*
X0002490Y0012030D02*
X0001990D01*
X0002240Y0012280D02*
Y0011780D01*
X0001596Y0010874D02*
X0001096D01*
X0001346Y0011124D02*
Y0010624D01*
X-0002040Y0011120D02*
X-0002540D01*
X-0002290Y0011370D02*
Y0010870D01*
X-0001450Y0011120D02*
X-0001950D01*
X-0001700Y0011370D02*
Y0010870D01*
X-0001440Y0010700D02*
X-0001940D01*
X-0001690Y0010950D02*
Y0010450D01*
X0001590Y0010070D02*
X0001090D01*
X0001340Y0010320D02*
Y0009820D01*
X0000620Y0011000D02*
X0000120D01*
X0000370Y0011250D02*
Y0010750D01*
X0003310Y0013550D02*
X0002810Y0013050D01*
X0003310D02*
X0002810Y0013550D01*
X0002827Y0013679D02*
X0002327Y0013179D01*
X0002827D02*
X0002327Y0013679D01*
X0002344Y0013809D02*
X0001844Y0013309D01*
X0002344D02*
X0001844Y0013809D01*
X0001861Y0013938D02*
X0001361Y0013438D01*
X0001861D02*
X0001361Y0013938D01*
X0001378Y0014067D02*
X0000878Y0013567D01*
X0001378D02*
X0000878Y0014067D01*
X-0003730Y0004680D02*
X-0003980Y0004430D01*
X-0003480D02*
X-0003730Y0004680D01*
Y0004180D02*
X-0003480Y0004430D01*
X-0003980D02*
X-0003730Y0004180D01*
X0003960Y0004680D02*
X0003710Y0004430D01*
X0004210D02*
X0003960Y0004680D01*
Y0004180D02*
X0004210Y0004430D01*
X0003710D02*
X0003960Y0004180D01*
M02*
