%
T1C0.0100F200S100
X-004910Y008550
X-004910Y009010
X-004600Y011120
X-004580Y006640
X-004430Y008550
X-004420Y009020
X-004260Y006260
X-004120Y007210
X-004070Y011120
X-003940Y008540
X-003910Y009020
X-003770Y005640
X-003450Y011120
X-003380Y010150
X-003370Y008890
X-003010Y010360
X-003000Y010780
X-002900Y007720
X-002890Y008140
X-002870Y011120
X-002746Y007076
X-002310Y008910
X-002290Y011120
X-002230Y008440
X-002134Y006514
X-001980Y001700
X-001830Y008770
X-001700Y011120
X-001690Y010700
X-001580Y006460
X-001390Y007060
X-001150Y001740
X-001070Y006650
X-000918Y008282
X-000918Y008858
X-000918Y009608
X-000650Y004750
X-000252Y009608
X-000220Y008967
X-000208Y008282
X-000081Y011711
X-000081Y012191
X-000081Y012739
X-000081Y013299
X-000081Y013901
X000160Y006010
X000370Y011000
X000465Y008282
X000465Y008995
X000465Y009625
X000740Y001390
X000750Y012060
X000810Y006480
X001140Y007230
X001340Y010070
X001346Y010874
X001410Y007740
X001730Y007170
X001760Y010060
X001860Y005570
X002120Y007710
X001860Y009580
X002240Y012030
X002430Y005930
X002480Y009260
X002790Y006330
X002990Y006750
X003080Y004920
X003120Y011900
X004190Y008570
X004190Y009050
X004630Y008570
X004680Y009020
X004680Y011060
X004770Y008050
X005180Y008610
X005180Y009020
T2C0.0280F200S100
X001128Y013817
X001611Y013688
X002094Y013559
X002577Y013429
X003060Y013300
T3C0.1200F200S100
X-003730Y004430
X003960Y004430
M30
